<svg width="161" height="60" viewBox="0 0 161 60" fill="none" xmlns="http://www.w3.org/2000/svg">
<rect width="161" height="60" rx="9.0566" fill="black"/>
<path d="M16.5655 15.4899C16.1679 15.9621 15.9672 16.5675 16.0044 17.1819V43.8182C15.9671 44.4327 16.1678 45.0381 16.5655 45.5102L16.6552 45.5971L31.6759 30.6761V30.3241L16.6552 15.4025L16.5655 15.4899Z" fill="url(#paint0_linear_3532_22658)"/>
<path d="M36.6833 35.6518L31.6768 30.676V30.324L36.6845 25.3494L36.7974 25.4133L42.7295 28.7616C44.424 29.7179 44.424 31.2826 42.7295 32.2395L36.7974 35.5878L36.6833 35.6518Z" fill="url(#paint1_linear_3532_22658)"/>
<path d="M36.7964 35.5872L31.6758 30.5L16.5654 45.5101C16.9107 45.8126 17.3516 45.9856 17.8117 45.9991C18.2719 46.0126 18.7223 45.8658 19.085 45.5841L36.7964 35.5872Z" fill="url(#paint2_linear_3532_22658)"/>
<path d="M36.7964 25.4127L19.085 15.4159C18.7223 15.1342 18.2719 14.9873 17.8117 15.0009C17.3516 15.0144 16.9107 15.1873 16.5654 15.4898L31.6758 30.5001L36.7964 25.4127Z" fill="url(#paint3_linear_3532_22658)"/>
<path opacity="0.2" d="M36.6836 35.4752L19.085 45.4081C18.7363 45.6718 18.3107 45.8157 17.8725 45.818C17.4343 45.8203 17.0072 45.681 16.6558 45.421L16.5654 45.5107L16.6551 45.5976L16.6558 45.597C17.0072 45.8571 17.4343 45.9965 17.8725 45.9942C18.3108 45.9918 18.7363 45.8479 19.085 45.5841L36.7964 35.5872L36.6836 35.4752Z" fill="url(#paint4_linear_3532_22658)"/>
<path opacity="0.12" d="M16.5655 45.3347C16.168 44.8625 15.9672 44.2572 16.0044 43.6427V43.8187C15.9672 44.4331 16.1679 45.0385 16.5655 45.5107L16.6558 45.421L16.5655 45.3347Z" fill="url(#paint5_linear_3532_22658)"/>
<path opacity="0.12" d="M42.7286 32.0631L36.6836 35.4753L36.7965 35.5873L42.7286 32.239C43.0775 32.0886 43.3795 31.848 43.603 31.5422C43.8266 31.2365 43.9635 30.8768 43.9996 30.5006C43.9246 30.8413 43.7706 31.1599 43.55 31.4311C43.3294 31.7023 43.0481 31.9187 42.7286 32.0631V32.0631Z" fill="url(#paint6_linear_3532_22658)"/>
<path opacity="0.25" d="M19.0845 15.5925L42.7281 28.9371C43.0478 29.0814 43.3291 29.2979 43.5498 29.5692C43.7704 29.8405 43.9243 30.1593 43.9991 30.5001C43.9633 30.1238 43.8265 29.7639 43.6029 29.458C43.3794 29.1521 43.0772 28.9115 42.7281 28.7611L19.0845 15.4165C17.3901 14.4601 16.0039 15.2545 16.0039 17.1825V17.3585C16.0039 15.4306 17.3901 14.6362 19.0845 15.5925Z" fill="white"/>
<path d="M80.6811 32.2481C78.0177 32.2481 75.8469 34.2441 75.8469 36.9931C75.8469 39.7254 78.0177 41.7381 80.6811 41.7381C83.3457 41.7381 85.5165 39.7254 85.5165 36.9931C85.5153 34.2441 83.3445 32.2481 80.6811 32.2481ZM80.6811 39.8705C79.2215 39.8705 77.9634 38.6845 77.9634 36.9942C77.9634 35.2861 79.2226 34.118 80.6811 34.118C82.1408 34.118 83.3989 35.2861 83.3989 36.9942C83.3989 38.6834 82.1408 39.8705 80.6811 39.8705ZM70.134 32.2481C67.4706 32.2481 65.2998 34.2441 65.2998 36.9931C65.2998 39.7254 67.4706 41.7381 70.134 41.7381C72.7985 41.7381 74.9693 39.7254 74.9693 36.9931C74.9693 34.2441 72.7985 32.2481 70.134 32.2481ZM70.134 39.8705C68.6743 39.8705 67.4162 38.6845 67.4162 36.9942C67.4162 35.2861 68.6755 34.118 70.134 34.118C71.5937 34.118 72.8518 35.2861 72.8518 36.9942C72.8529 38.6834 71.5937 39.8705 70.134 39.8705ZM57.5893 33.7052V35.7179H62.479C62.3329 36.8503 61.9502 37.677 61.3659 38.2516C60.6547 38.9523 59.5416 39.7254 57.5893 39.7254C54.5794 39.7254 52.2263 37.3345 52.2263 34.3691C52.2263 31.4036 54.5794 29.0127 57.5893 29.0127C59.2132 29.0127 60.3988 29.6419 61.2741 30.4508L62.7157 29.0305C61.4927 27.8803 59.87 27 57.5893 27C53.4663 27 50 30.3069 50 34.3691C50 38.4312 53.4663 41.7381 57.5893 41.7381C59.8145 41.7381 61.4938 41.0185 62.8063 39.6708C64.1561 38.3409 64.5762 36.471 64.5762 34.9615C64.5762 34.4951 64.54 34.0634 64.4664 33.7041L57.5893 33.7052ZM108.896 35.2683C108.495 34.2084 107.272 32.2481 104.773 32.2481C102.292 32.2481 100.23 34.1716 100.23 36.9931C100.23 39.6529 102.274 41.7381 105.01 41.7381C107.217 41.7381 108.494 40.4082 109.024 39.6351L107.382 38.5562C106.835 39.3472 106.086 39.8682 105.01 39.8682C103.934 39.8682 103.167 39.3829 102.675 38.4301L109.114 35.806L108.896 35.2683ZM102.328 36.8503C102.274 35.0161 103.77 34.0823 104.846 34.0823C105.686 34.0823 106.397 34.4962 106.635 35.0887L102.328 36.8503ZM97.0929 41.4514H99.2083V27.5043H97.0929V41.4514ZM93.6256 33.3092H93.5531C93.0786 32.7513 92.1659 32.2481 91.0176 32.2481C88.609 32.2481 86.402 34.3334 86.402 37.0121C86.402 39.6719 88.609 41.7392 91.0176 41.7392C92.167 41.7392 93.0786 41.2361 93.5531 40.6615H93.6256V41.3443C93.6256 43.1595 92.6404 44.1301 91.0539 44.1301C89.7584 44.1301 88.9556 43.2142 88.6272 42.441L86.7848 43.1963C87.3136 44.4537 88.7177 46 91.0539 46C93.535 46 95.6333 44.5619 95.6333 41.0564V32.5371H93.6267L93.6256 33.3092ZM91.2 39.8705C89.7403 39.8705 88.5184 38.6655 88.5184 37.0121C88.5184 35.3397 89.7403 34.118 91.2 34.118C92.6404 34.118 93.7716 35.3397 93.7716 37.0121C93.7716 38.6655 92.6404 39.8705 91.2 39.8705ZM118.809 27.5043H113.746V41.4514H115.858V36.1675H118.808C121.15 36.1675 123.453 34.4974 123.453 31.8365C123.453 29.1756 121.151 27.5043 118.809 27.5043ZM118.863 34.2262H115.858V29.4456H118.863C120.443 29.4456 121.34 30.7342 121.34 31.8365C121.34 32.9164 120.443 34.2262 118.863 34.2262ZM131.922 32.2236C130.392 32.2236 128.808 32.8874 128.152 34.359L130.028 35.1299C130.428 34.359 131.176 34.1069 131.958 34.1069C133.051 34.1069 134.162 34.7528 134.18 35.9009V36.0448C133.797 35.8295 132.977 35.507 131.976 35.507C129.955 35.507 127.896 36.6015 127.896 38.6466C127.896 40.5131 129.554 41.7147 131.411 41.7147C132.831 41.7147 133.615 41.0866 134.106 40.3502H134.179V41.4268H136.219V36.0794C136.221 33.6048 134.343 32.2236 131.922 32.2236ZM131.666 39.8671C130.975 39.8671 130.009 39.5257 130.009 38.6823C130.009 37.6056 131.212 37.1928 132.25 37.1928C133.178 37.1928 133.616 37.3903 134.18 37.6592C134.016 38.9523 132.887 39.8671 131.666 39.8671ZM143.65 32.5282L141.228 38.5752H141.156L138.642 32.5282H136.366L140.135 40.9794L137.986 45.6809H140.19L146 32.5282H143.65ZM124.619 41.4514H126.731V27.5043H124.619V41.4514Z" fill="white"/>
<path d="M56.8705 18.7718C56.8705 19.7076 56.5896 20.4523 56.0267 21.0084C55.3879 21.6694 54.5543 21.9999 53.5304 21.9999C52.5495 21.9999 51.7148 21.665 51.0296 20.995C50.3432 20.3239 50 19.4932 50 18.5016C50 17.509 50.3432 16.6782 51.0296 16.0082C51.7148 15.3372 52.5495 15.0022 53.5304 15.0022C54.0174 15.0022 54.4829 15.096 54.9246 15.2824C55.3675 15.47 55.722 15.719 55.987 16.0306L55.3901 16.6201C54.9405 16.0898 54.321 15.8251 53.5292 15.8251C52.8134 15.8251 52.195 16.073 51.6729 16.5688C51.1507 17.0646 50.8902 17.7088 50.8902 18.5005C50.8902 19.2922 51.1507 19.9365 51.6729 20.4322C52.195 20.928 52.8134 21.1759 53.5292 21.1759C54.2881 21.1759 54.9212 20.9269 55.4275 20.4278C55.756 20.1028 55.9463 19.6506 55.9972 19.0711H53.5292V18.266H56.8218C56.8558 18.4413 56.8705 18.6099 56.8705 18.7718Z" fill="white"/>
<path d="M62.092 15.9737H58.9977V18.0975H61.7884V18.9025H58.9977V21.0263H62.092V21.8504H58.1244V15.1508H62.092V15.9737Z" fill="white"/>
<path d="M65.774 21.8504H64.9008V15.9737H63.0025V15.1508H67.6723V15.9737H65.774V21.8504Z" fill="white"/>
<path d="M71.0509 21.8504V15.1508H71.9241V21.8504H71.0509Z" fill="white"/>
<path d="M75.7967 21.8504H74.9235V15.9737H73.0252V15.1508H77.695V15.9737H75.7967V21.8504Z" fill="white"/>
<path d="M86.5349 20.985C85.8666 21.6617 85.0364 22 84.0431 22C83.0498 22 82.2196 21.6617 81.5525 20.985C80.8842 20.3083 80.5512 19.4798 80.5512 18.5006C80.5512 17.5213 80.8842 16.6928 81.5525 16.0161C82.2196 15.3394 83.0498 15 84.0431 15C85.0307 15 85.8598 15.3406 86.5303 16.0206C87.2009 16.7006 87.5361 17.5269 87.5361 18.5006C87.5361 19.4798 87.202 20.3083 86.5349 20.985ZM82.1969 20.4234C82.6998 20.9258 83.3148 21.1759 84.0431 21.1759C84.7714 21.1759 85.3875 20.9247 85.8893 20.4234C86.3922 19.9209 86.6447 19.2799 86.6447 18.5006C86.6447 17.7212 86.3922 17.0802 85.8893 16.5778C85.3875 16.0753 84.7714 15.8252 84.0431 15.8252C83.3148 15.8252 82.6998 16.0764 82.1969 16.5778C81.6952 17.0802 81.4426 17.7212 81.4426 18.5006C81.4426 19.2799 81.6952 19.9209 82.1969 20.4234Z" fill="white"/>
<path d="M88.7616 21.8504V15.1508H89.824L93.1268 20.3619H93.1641L93.1268 19.0712V15.1508H94V21.8504H93.0882L89.6326 16.3857H89.5952L89.6326 17.6765V21.8504H88.7616Z" fill="white"/>
<path d="M56.8705 18.7718C56.8705 19.7076 56.5896 20.4523 56.0267 21.0084C55.3879 21.6694 54.5543 21.9999 53.5304 21.9999C52.5495 21.9999 51.7148 21.665 51.0296 20.995C50.3432 20.3239 50 19.4932 50 18.5016C50 17.509 50.3432 16.6782 51.0296 16.0082C51.7148 15.3372 52.5495 15.0022 53.5304 15.0022C54.0174 15.0022 54.4829 15.096 54.9246 15.2824C55.3675 15.47 55.722 15.719 55.987 16.0306L55.3901 16.6201C54.9405 16.0898 54.321 15.8251 53.5292 15.8251C52.8134 15.8251 52.195 16.073 51.6729 16.5688C51.1507 17.0646 50.8902 17.7088 50.8902 18.5005C50.8902 19.2922 51.1507 19.9365 51.6729 20.4322C52.195 20.928 52.8134 21.1759 53.5292 21.1759C54.2881 21.1759 54.9212 20.9269 55.4275 20.4278C55.756 20.1028 55.9463 19.6506 55.9972 19.0711H53.5292V18.266H56.8218C56.8558 18.4413 56.8705 18.6099 56.8705 18.7718Z" stroke="white" stroke-width="0.0463045" stroke-miterlimit="10"/>
<path d="M62.092 15.9737H58.9977V18.0975H61.7884V18.9025H58.9977V21.0263H62.092V21.8504H58.1244V15.1508H62.092V15.9737Z" stroke="white" stroke-width="0.0463045" stroke-miterlimit="10"/>
<path d="M65.774 21.8504H64.9008V15.9737H63.0025V15.1508H67.6723V15.9737H65.774V21.8504Z" stroke="white" stroke-width="0.0463045" stroke-miterlimit="10"/>
<path d="M71.0509 21.8504V15.1508H71.9241V21.8504H71.0509Z" stroke="white" stroke-width="0.0463045" stroke-miterlimit="10"/>
<path d="M75.7967 21.8504H74.9235V15.9737H73.0252V15.1508H77.695V15.9737H75.7967V21.8504Z" stroke="white" stroke-width="0.0463045" stroke-miterlimit="10"/>
<path d="M86.5349 20.985C85.8666 21.6617 85.0364 22 84.0431 22C83.0498 22 82.2196 21.6617 81.5525 20.985C80.8842 20.3083 80.5512 19.4798 80.5512 18.5006C80.5512 17.5213 80.8842 16.6928 81.5525 16.0161C82.2196 15.3394 83.0498 15 84.0431 15C85.0307 15 85.8598 15.3406 86.5303 16.0206C87.2009 16.7006 87.5361 17.5269 87.5361 18.5006C87.5361 19.4798 87.202 20.3083 86.5349 20.985ZM82.1969 20.4234C82.6998 20.9258 83.3148 21.1759 84.0431 21.1759C84.7714 21.1759 85.3875 20.9247 85.8893 20.4234C86.3922 19.9209 86.6447 19.2799 86.6447 18.5006C86.6447 17.7212 86.3922 17.0802 85.8893 16.5778C85.3875 16.0753 84.7714 15.8252 84.0431 15.8252C83.3148 15.8252 82.6998 16.0764 82.1969 16.5778C81.6952 17.0802 81.4426 17.7212 81.4426 18.5006C81.4426 19.2799 81.6952 19.9209 82.1969 20.4234Z" stroke="white" stroke-width="0.0463045" stroke-miterlimit="10"/>
<path d="M88.7616 21.8504V15.1508H89.824L93.1268 20.3619H93.1641L93.1268 19.0712V15.1508H94V21.8504H93.0882L89.6326 16.3857H89.5952L89.6326 17.6765V21.8504H88.7616Z" stroke="white" stroke-width="0.0463045" stroke-miterlimit="10"/>
<defs>
<linearGradient id="paint0_linear_3532_22658" x1="30.3438" y1="16.9011" x2="10.1318" y2="37.2479" gradientUnits="userSpaceOnUse">
<stop stop-color="#00A0FF"/>
<stop offset="0.00657" stop-color="#00A1FF"/>
<stop offset="0.2601" stop-color="#00BEFF"/>
<stop offset="0.5122" stop-color="#00D2FF"/>
<stop offset="0.7604" stop-color="#00DFFF"/>
<stop offset="1" stop-color="#00E3FF"/>
</linearGradient>
<linearGradient id="paint1_linear_3532_22658" x1="44.9357" y1="30.5006" x2="15.599" y2="30.5006" gradientUnits="userSpaceOnUse">
<stop stop-color="#FFE000"/>
<stop offset="0.4087" stop-color="#FFBD00"/>
<stop offset="0.7754" stop-color="#FFA500"/>
<stop offset="1" stop-color="#FF9C00"/>
</linearGradient>
<linearGradient id="paint2_linear_3532_22658" x1="34.014" y1="33.2642" x2="6.60491" y2="60.8561" gradientUnits="userSpaceOnUse">
<stop stop-color="#FF3A44"/>
<stop offset="1" stop-color="#C31162"/>
</linearGradient>
<linearGradient id="paint3_linear_3532_22658" x1="12.7608" y1="6.62338" x2="25.0001" y2="18.9443" gradientUnits="userSpaceOnUse">
<stop stop-color="#32A071"/>
<stop offset="0.0685" stop-color="#2DA771"/>
<stop offset="0.4762" stop-color="#15CF74"/>
<stop offset="0.8009" stop-color="#06E775"/>
<stop offset="1" stop-color="#00F076"/>
</linearGradient>
<linearGradient id="paint4_linear_3532_22658" x1="16.5654" y1="40.7347" x2="36.7964" y2="40.7347" gradientUnits="userSpaceOnUse">
<stop stop-color="#FF85B1"/>
<stop offset="1" stop-color="#FF70A3"/>
</linearGradient>
<linearGradient id="paint5_linear_3532_22658" x1="16" y1="44.5767" x2="16.6558" y2="44.5767" gradientUnits="userSpaceOnUse">
<stop stop-color="#FF85B1"/>
<stop offset="1" stop-color="#FF70A3"/>
</linearGradient>
<linearGradient id="paint6_linear_3532_22658" x1="36.6836" y1="33.044" x2="43.9996" y2="33.044" gradientUnits="userSpaceOnUse">
<stop stop-color="#FF85B1"/>
<stop offset="1" stop-color="#FF70A3"/>
</linearGradient>
</defs>
</svg>
