<svg width="29" height="29" viewBox="0 0 29 29" fill="none" xmlns="http://www.w3.org/2000/svg">
<path d="M14.0473 28.544C21.8054 28.544 28.0946 22.1542 28.0946 14.272C28.0946 6.3898 21.8054 0 14.0473 0C6.28919 0 0 6.3898 0 14.272C0 22.1542 6.28919 28.544 14.0473 28.544Z" fill="#323232"/>
<path d="M11.5934 23.3542C18.3411 23.3542 22.0304 17.3608 22.0304 12.1676C22.0304 11.9973 22.0256 11.8269 22.0208 11.6617C22.7385 11.1042 23.3598 10.4125 23.851 9.62783C23.1912 9.94272 22.488 10.1492 21.7463 10.2473C22.5025 9.76204 23.0852 8.98771 23.3598 8.074C22.6518 8.52311 21.8667 8.85349 21.0286 9.02901C20.3592 8.265 19.4055 7.78491 18.3507 7.78491C16.323 7.78491 14.6807 9.54523 14.6807 11.7185C14.6807 12.0283 14.7144 12.3277 14.777 12.6168C11.7282 12.4516 9.02142 10.8874 7.21528 8.50762C6.90222 9.09096 6.7192 9.76204 6.7192 10.4848C6.7192 11.8476 7.36459 13.0555 8.35195 13.7576C7.7499 13.737 7.18638 13.5614 6.6903 13.2672C6.6903 13.2827 6.6903 13.2982 6.6903 13.3188C6.6903 15.2237 7.957 16.8136 9.6331 17.175C9.32485 17.2628 9.00216 17.3144 8.66501 17.3144C8.42901 17.3144 8.19782 17.2886 7.97627 17.2421C8.44346 18.8063 9.79686 19.942 11.4055 19.9729C10.1485 21.026 8.56868 21.6558 6.84924 21.6558C6.55544 21.6558 6.26164 21.6352 5.97266 21.599C7.59096 22.7037 9.51751 23.3542 11.5934 23.3542Z" fill="white"/>
</svg>
