<svg width="42" height="42" viewBox="0 0 42 42" fill="none" xmlns="http://www.w3.org/2000/svg">
<path style="mix-blend-mode:screen" opacity="0.5" d="M38.6498 24.2232C40.2423 14.4127 33.5803 5.16888 23.7699 3.57642C13.9595 1.98396 4.7156 8.64595 3.12314 18.4564C1.53069 28.2668 8.19267 37.5107 18.0031 39.1031C27.8135 40.6956 37.0574 34.0336 38.6498 24.2232Z" fill="url(#paint0_radial_3690_2394)"/>
<path style="mix-blend-mode:screen" opacity="0.5" d="M20.8897 27.7227C24.4286 27.7227 27.2974 24.8539 27.2974 21.315C27.2974 17.7761 24.4286 14.9072 20.8897 14.9072C17.3508 14.9072 14.4819 17.7761 14.4819 21.315C14.4819 24.8539 17.3508 27.7227 20.8897 27.7227Z" fill="url(#paint1_radial_3690_2394)"/>
<path fill-rule="evenodd" clip-rule="evenodd" d="M23.1461 21.315C23.1461 22.4882 22.2075 23.4268 21.0342 23.4268C19.861 23.4268 18.9224 22.4882 18.9224 21.315C18.9224 20.1417 19.861 19.2031 21.0342 19.2031C22.2075 19.2031 23.1461 20.1417 23.1461 21.315Z" fill="white"/>
<defs>
<radialGradient id="paint0_radial_3690_2394" cx="0" cy="0" r="1" gradientUnits="userSpaceOnUse" gradientTransform="translate(20.8951 21.3132) scale(17.9959)">
<stop stop-color="#0645FF"/>
<stop offset="0.04" stop-color="#0541F1"/>
<stop offset="0.25" stop-color="#032DA8"/>
<stop offset="0.45" stop-color="#021D6C"/>
<stop offset="0.63" stop-color="#01103D"/>
<stop offset="0.78" stop-color="#00071C"/>
<stop offset="0.91" stop-color="#000207"/>
<stop offset="1"/>
</radialGradient>
<radialGradient id="paint1_radial_3690_2394" cx="0" cy="0" r="1" gradientUnits="userSpaceOnUse" gradientTransform="translate(20.8897 21.315) scale(6.40776 6.40775)">
<stop stop-color="#0645FF"/>
<stop offset="0.04" stop-color="#0541F1"/>
<stop offset="0.25" stop-color="#032DA8"/>
<stop offset="0.45" stop-color="#021D6C"/>
<stop offset="0.63" stop-color="#01103D"/>
<stop offset="0.78" stop-color="#00071C"/>
<stop offset="0.91" stop-color="#000207"/>
<stop offset="1"/>
</radialGradient>
</defs>
</svg>
