<svg width="42" height="42" viewBox="0 0 42 42" fill="none" xmlns="http://www.w3.org/2000/svg">
<path style="mix-blend-mode:screen" opacity="0.5" d="M20.8154 41.0175C32.11 41.0175 41.266 31.8614 41.266 20.5668C41.266 9.27225 32.11 0.116211 20.8154 0.116211C9.52085 0.116211 0.364746 9.27225 0.364746 20.5668C0.364746 31.8614 9.52085 41.0175 20.8154 41.0175Z" fill="url(#paint0_radial_3690_2410)"/>
<path style="mix-blend-mode:screen" opacity="0.5" d="M20.8152 27.8413C24.8326 27.8413 28.0893 24.5845 28.0893 20.5671C28.0893 16.5497 24.8326 13.293 20.8152 13.293C16.7978 13.293 13.541 16.5497 13.541 20.5671C13.541 24.5845 16.7978 27.8413 20.8152 27.8413Z" fill="url(#paint1_radial_3690_2410)"/>
<path fill-rule="evenodd" clip-rule="evenodd" d="M23.3603 20.5666C23.3603 21.8843 22.2954 22.9673 20.9597 22.9673C19.624 22.9673 18.5591 21.9023 18.5591 20.5666C18.5591 19.2309 19.624 18.166 20.9597 18.166C22.2954 18.166 23.3603 19.2309 23.3603 20.5666Z" fill="white"/>
<defs>
<radialGradient id="paint0_radial_3690_2410" cx="0" cy="0" r="1" gradientUnits="userSpaceOnUse" gradientTransform="translate(20.8154 20.5669) scale(20.4506 20.4507)">
<stop stop-color="#0645FF"/>
<stop offset="0.04" stop-color="#0541F1"/>
<stop offset="0.25" stop-color="#032DA8"/>
<stop offset="0.45" stop-color="#021D6C"/>
<stop offset="0.63" stop-color="#01103D"/>
<stop offset="0.78" stop-color="#00071C"/>
<stop offset="0.91" stop-color="#000207"/>
<stop offset="1"/>
</radialGradient>
<radialGradient id="paint1_radial_3690_2410" cx="0" cy="0" r="1" gradientUnits="userSpaceOnUse" gradientTransform="translate(20.8152 20.5671) scale(7.27415)">
<stop stop-color="#0645FF"/>
<stop offset="0.04" stop-color="#0541F1"/>
<stop offset="0.25" stop-color="#032DA8"/>
<stop offset="0.45" stop-color="#021D6C"/>
<stop offset="0.63" stop-color="#01103D"/>
<stop offset="0.78" stop-color="#00071C"/>
<stop offset="0.91" stop-color="#000207"/>
<stop offset="1"/>
</radialGradient>
</defs>
</svg>
