<svg width="42" height="42" viewBox="0 0 42 42" fill="none" xmlns="http://www.w3.org/2000/svg">
<path style="mix-blend-mode:screen" opacity="0.5" d="M21.2046 41.7841C32.4991 41.7841 41.6552 32.628 41.6552 21.3334C41.6552 10.0389 32.4991 0.882812 21.2046 0.882812C9.90998 0.882812 0.753906 10.0389 0.753906 21.3334C0.753906 32.628 9.90998 41.7841 21.2046 41.7841Z" fill="url(#paint0_radial_3690_2458)"/>
<path style="mix-blend-mode:screen" opacity="0.5" d="M21.2043 28.6079C25.2217 28.6079 28.4785 25.3511 28.4785 21.3337C28.4785 17.3163 25.2217 14.0596 21.2043 14.0596C17.1869 14.0596 13.9302 17.3163 13.9302 21.3337C13.9302 25.3511 17.1869 28.6079 21.2043 28.6079Z" fill="url(#paint1_radial_3690_2458)"/>
<path d="M21.367 23.7339C22.6928 23.7339 23.7676 22.6591 23.7676 21.3332C23.7676 20.0074 22.6928 18.9326 21.367 18.9326C20.0411 18.9326 18.9663 20.0074 18.9663 21.3332C18.9663 22.6591 20.0411 23.7339 21.367 23.7339Z" fill="white"/>
<defs>
<radialGradient id="paint0_radial_3690_2458" cx="0" cy="0" r="1" gradientUnits="userSpaceOnUse" gradientTransform="translate(21.2046 21.3335) scale(20.4507)">
<stop stop-color="#0645FF"/>
<stop offset="0.04" stop-color="#0541F1"/>
<stop offset="0.25" stop-color="#032DA8"/>
<stop offset="0.45" stop-color="#021D6C"/>
<stop offset="0.63" stop-color="#01103D"/>
<stop offset="0.78" stop-color="#00071C"/>
<stop offset="0.91" stop-color="#000207"/>
<stop offset="1"/>
</radialGradient>
<radialGradient id="paint1_radial_3690_2458" cx="0" cy="0" r="1" gradientUnits="userSpaceOnUse" gradientTransform="translate(21.2043 21.3337) scale(7.27415 7.27418)">
<stop stop-color="#0645FF"/>
<stop offset="0.04" stop-color="#0541F1"/>
<stop offset="0.25" stop-color="#032DA8"/>
<stop offset="0.45" stop-color="#021D6C"/>
<stop offset="0.63" stop-color="#01103D"/>
<stop offset="0.78" stop-color="#00071C"/>
<stop offset="0.91" stop-color="#000207"/>
<stop offset="1"/>
</radialGradient>
</defs>
</svg>
