<svg width="216" height="70" viewBox="0 0 216 70" fill="none" xmlns="http://www.w3.org/2000/svg">
<g clip-path="url(#clip0_3532_21534)">
<path style="mix-blend-mode:color-dodge" opacity="0.26" d="M0.0265974 5.07557C11.0857 7.02331 31.6631 9.35677 46.2373 11.0257C51.1829 11.5909 78.4521 12.5572 83.4281 12.5533C86.6465 12.603 42.1401 14.7417 42.7374 17.6556C48.4058 45.2982 90.1693 24.213 98.0632 26.6496C108.183 29.2466 118.367 31.8397 128.718 33.3292C133.496 33.6347 138.339 34.2534 143.098 33.5545C147.104 32.8671 158.471 35.1929 151.563 40.1233C153.526 42.3498 155.919 42.6401 158.662 41.8114C155.158 39.7681 184.109 33.0427 194.007 27.8946C194.007 27.8946 192.139 30.9384 203.027 26.9169C199.512 28.2154 192.839 31.5648 184.82 35.2005C181.016 36.9267 177.816 35.1738 174.145 37.66C169.082 40.7306 163.569 43.4039 157.733 44.6871C149.105 45.4548 154.351 40.1768 141.052 42.5561C136.327 42.9915 132.964 46.4172 129.205 48.8652C125.405 51.3934 121.456 53.6734 117.168 55.3309C113.843 56.4384 106.707 58.4664 104.744 54.6397C87.1296 64.6877 59.7844 76.1946 40.1048 66.0969C33.4055 62.3962 29.6925 54.3532 31.4006 47.5171C32.4734 43.2168 34.4022 40.4021 37.1831 37.6524C35.2049 37.6371 32.1196 37.3774 31.2066 35.93C30.1756 34.2992 31.1761 32.34 32.6902 31.0377C32.6902 31.0377 15.59 34.6086 7.80637 27.6464C4.59555 24.7744 3.52275 17.5945 7.57813 14.6691C9.03137 13.6189 12.2879 12.2936 12.2879 12.2936C9.67811 11.7781 3.45807 11.5986 4.88468 7.61909C6.38357 5.21306 1.36571 5.76301 0.00758055 5.18633C0.0189934 5.15195 0.0266085 5.11759 0.0380214 5.08321L0.0265974 5.07557Z" fill="url(#paint0_linear_3532_21534)"/>
<path d="M19.2539 26.8481C21.4375 27.253 23.5071 28.5591 25.782 28.0473C29.0917 27.379 32.5194 27.337 35.8558 27.8373C38.5226 28.2116 39.447 31.2286 41.7905 32.0917C45.279 33.4972 52.9028 35.6129 55.7598 32.3132C58.244 29.9989 57.818 25.0188 61.3255 23.9686C63.9162 23.4415 66.6858 22.8878 69.2879 23.5943C71.2585 24.3428 71.9585 22.5708 72.727 21.1272C73.659 19.3016 75.7628 19.928 77.1437 20.8216C78.753 21.933 80.5372 22.5784 82.3975 23.1093C85.1708 23.8578 87.7996 25.3778 90.7441 25.267C92.9886 25.2556 95.2331 25.2098 97.4777 25.2174C98.3451 25.2174 99.1059 24.9844 99.8477 24.5605C103.04 22.819 107.004 21.5549 110.542 22.9489C111.462 23.2277 111.713 23.1245 112.132 22.2614C113.342 17.3997 118.599 20.5925 121.993 20.1075C125.222 19.8363 124.583 15.9141 128.346 15.9714C135.935 14.6882 143.16 11.9499 150.411 16.3457C154.477 18.1903 152.88 22.2996 156.756 23.812C157.977 24.2321 159.187 24.7553 160.416 25.1869C159.507 20.6651 158.362 16.0974 158.362 16.0974C181.145 26.768 206.029 27.3408 206.029 27.3408C206.022 27.4096 206.014 27.4783 206.006 27.547C195.933 29.4719 171.54 36.8312 169.09 38.6377C165.597 41.2155 164.407 44.5114 164.407 44.5114C163.539 44.393 163.01 43.6254 162.969 42.514C162.71 38.3436 157.84 40.8451 157.84 40.8451C157.84 40.8451 159.754 37.6562 160.838 35.1699C159.48 34.7116 158.126 33.4284 156.813 34.4863C156.486 36.5066 156.889 38.7713 156.402 40.8031C154.051 50.0835 140.322 45.8901 133.664 44.5763C130.56 43.5261 109.427 38.8095 113.699 34.0662C111.885 32.2483 107.947 32.6302 109.659 28.899C108.221 27.9977 106.452 28.4407 104.85 28.223C100.156 28.0703 95.4614 27.8984 90.7707 27.696C88.4805 27.9939 73.465 25.7101 74.4047 28.9792C74.9677 31.813 72.5482 32.7028 70.1743 32.2483C69.2004 32.2483 67.6825 31.2172 67.3667 32.6646C64.4945 40.9062 59.7619 43.2435 51.9175 39.0463C48.3909 37.0566 45.0279 34.7727 41.4937 32.7983C30.5983 26.8825 24.2489 35.6511 19.2653 26.852L19.2539 26.8481ZM112.12 39.3862C110.736 38.229 111.386 36.0025 109.408 35.8535C107.43 35.7046 106.623 37.7669 109.408 39.3862C112.193 41.0055 112.699 39.8712 112.12 39.3862ZM105.379 36.7128C106.406 37.0566 107.962 35.0439 106.258 35.0439C104.352 35.0439 104.352 36.3691 105.379 36.7128ZM109.975 21.0546C111.344 21.4098 111.858 19.294 110.363 19.8172C108.898 20.3328 108.605 20.6994 109.975 21.0546ZM64.4146 21.658C63.5358 22.3951 67.5645 21.5816 68.8124 21.658C70.0602 21.7344 72.24 19.6072 70.9389 19.378C65.7765 18.4729 65.2972 20.9247 64.4184 21.6618L64.4146 21.658ZM48.7333 29.6017C46.3899 30.0447 50.9322 30.778 52.5452 31.0262C54.1582 31.2745 55.9805 30.3235 55.1816 29.1243C54.3751 27.9098 51.0767 29.1625 48.7333 29.6017ZM50.3463 31.939C50.8979 31.1675 46.4621 31.5533 47.048 31.939C47.6339 32.3247 49.0985 33.6843 50.3463 31.939ZM112.124 39.39C110.739 38.2328 111.39 36.0063 109.412 35.8574C107.434 35.7084 106.627 37.7707 109.412 39.39C112.196 41.0093 112.702 39.875 112.124 39.39ZM105.383 36.7167C106.41 37.0604 107.966 35.0477 106.262 35.0477C104.356 35.0477 104.356 36.3729 105.383 36.7167ZM109.979 21.0584C111.348 21.4136 111.862 19.2978 110.367 19.821C108.902 20.3366 108.609 20.7032 109.979 21.0584ZM64.4184 21.6618C63.5396 22.3989 67.5683 21.5854 68.8161 21.6618C70.064 21.7382 72.2438 19.611 70.9428 19.3818C65.7803 18.4767 65.301 20.9286 64.4222 21.6656L64.4184 21.6618ZM48.7371 29.6055C46.3937 30.0485 50.936 30.7818 52.549 31.03C54.162 31.2783 55.9843 30.3273 55.1854 29.1281C54.3789 27.9137 51.0805 29.1663 48.7371 29.6055ZM50.3501 31.9428C50.9018 31.1713 46.4659 31.5571 47.0518 31.9428C47.6377 32.3285 49.1023 33.6881 50.3501 31.9428Z" fill="url(#paint1_linear_3532_21534)"/>
<path style="mix-blend-mode:color-dodge" d="M164.403 44.5076C164.403 44.5076 164.665 35.781 168.184 32.1032C171.703 28.4255 175.074 27.9824 171.703 28.4255C168.333 28.8685 150.696 29.1855 148.642 30.3006C146.591 31.4158 146.979 36.3691 147.907 35.9758C148.836 35.5824 151.571 32.3935 152.792 31.5113C154.013 30.6291 156.996 29.6514 156.802 34.4787C156.608 39.3022 157.274 43.5872 151.735 45.936C146.196 48.2847 135.738 39.6039 131.344 35.338C126.946 31.0721 132.466 24.9883 136.67 23.8616C140.87 22.735 137.206 22.5364 127.828 22.8801C118.447 23.2239 124.408 31.0721 119.767 31.2668C115.126 31.4616 114.669 34.0853 114.004 33.9135C113.334 33.7454 111.12 32.3438 110.435 31.412C109.75 30.4801 113.612 27.3408 114.833 26.9475C116.054 26.5541 118.496 30.8238 120.794 28.4178C123.092 26.0156 115.031 24.4956 111.413 26.1607C107.799 27.8297 99.1022 27.1422 88.7431 26.0118C78.3841 24.8852 68.5157 25.7674 71.4488 26.4548C74.3819 27.1422 75.7971 31.2134 72.476 31.9008C69.1549 32.5882 72.282 28.3682 67.5418 27.3867C62.8017 26.4051 59.5795 27.9748 64.2701 29.1014C68.9608 30.2281 67.9565 30.8773 66.5299 34.746C65.0995 38.6148 62.6419 40.509 59.4729 41.0322C56.304 41.5593 62.7066 39.1532 61.7289 35.6244C60.7512 32.0956 69.5467 31.3585 65.3924 30.0829C61.2381 28.8074 58.324 34.2037 58.5865 36.2126C58.849 38.2252 54.7442 39.4511 52.5453 36.9955C50.3464 34.5398 45.9487 35.0325 44.9253 34.1006C43.8982 33.1687 46.5384 34.5894 50.3503 34.9828C54.1622 35.3762 57.3844 35.3762 59.0963 33.0695C60.8044 30.7627 59.8305 26.9398 60.3175 26.7412C60.8044 26.5465 65.887 27.1842 68.7706 26.0041C71.6543 24.8279 75.5803 22.8229 76.1471 21.6886C76.714 20.5543 76.4895 19.8745 78.346 22.0323C80.2025 24.1901 88.5073 26.4968 97.3028 26.1034C106.098 25.7101 109.225 24.339 110.154 25.3205C111.082 26.2982 117.629 24.5376 118.801 23.9457C119.973 23.3575 116.012 19.3131 118.531 19.8402C121.049 20.3672 124.469 20.6613 126.177 21.299C127.885 21.9368 128.327 23.6516 133.995 21.9368C139.664 20.2221 142.399 17.1783 142.155 15.9027C141.912 14.6271 142.532 13.3515 146.838 14.6997C151.145 16.0478 152.659 18.0605 153.051 19.6301C153.443 21.1997 151.244 27.085 157.251 28.1161C163.262 29.1473 170.832 26.7909 169.71 26.6954C168.588 26.5961 163.992 23.8502 161.941 21.5473C159.891 19.2406 158.365 16.0822 158.365 16.0822C158.365 16.0822 178.699 26.5312 206.033 27.3256C206.033 27.3256 173.704 35.6473 169.828 38.2099C165.947 40.7726 164.414 44.4962 164.414 44.4962L164.403 44.5076Z" fill="url(#paint2_linear_3532_21534)"/>
<path style="mix-blend-mode:color-dodge" d="M194.765 27.9824C194.015 28.3681 168.774 36.3195 169.504 35.4373C170.238 34.5551 178.787 28.2268 178.151 27.9824C177.516 27.738 174.781 24.3046 174.925 23.6172C175.074 22.9298 195.274 27.7189 194.761 27.9824L194.765 27.9824ZM146.249 23.5485C144.293 23.9724 138.381 25.5764 136.723 27.4401C135.06 29.3038 137.21 39.4549 140.535 40.8298C143.856 42.2047 152.598 45.5311 154.314 41.861C156.029 38.1908 154.12 32.9854 152.898 33.1305C151.677 33.2795 148.6 36.8083 147.721 38.2176C146.842 39.6268 151.19 37.7898 151.677 37.4958C152.164 37.2017 151.164 39.2487 150.308 39.6535C149.38 40.0966 142.981 39.5046 141.17 37.6409C140.417 36.8656 139.195 35.1928 138.377 33.31C138.343 33.2146 138.298 33.1 138.229 32.9587C138.229 32.951 138.225 32.9434 138.222 32.9358C137.457 31.2859 140.447 28.666 146.446 28.8608C146.446 28.8608 150.502 28.9105 151.723 28.8112C152.944 28.7119 148.695 27.7304 146.888 28.1237C145.081 28.5171 137.655 28.3681 138.826 26.7489C139.1 26.4968 139.424 26.2676 139.804 26.0614C144.788 23.4148 150.502 27.2377 150.943 26.3555C151.384 25.4733 150.795 18.5569 148.893 17.2317C146.987 15.9065 145.081 16.5939 144.594 17.8695C144.107 19.1451 139.317 20.371 138.925 21.2035C138.533 22.0361 143.517 22.0361 144.35 22.2347C145.18 22.4295 144.057 19.3398 144.693 19.5384C145.328 19.7332 148.212 23.1207 146.256 23.5408L146.249 23.5485ZM120.06 21.0661C117.861 20.9171 120.06 22.0476 120.646 22.9794C121.232 23.9113 119.767 24.9424 118.595 25.1372C117.423 25.332 121.867 25.7253 121.38 25.1372C120.893 24.5491 120.319 21.9177 124.214 21.9979C125.587 22.0246 122.259 21.215 120.06 21.0661ZM114.707 30.3006C114.532 31.0988 112.927 31.0721 111.999 30.9193C111.07 30.7665 112.341 32.3973 113.707 31.8091C115.072 31.221 118.652 30.6443 117.469 30.0294C114.049 28.2497 114.878 29.5024 114.707 30.3006ZM167.412 23.0787C165.761 22.3913 166.716 21.4098 166.571 21.0546C166.423 20.6994 162.908 18.8128 161.831 18.175C160.754 17.5372 164.909 22.0514 165.494 22.6892C166.08 23.327 174.438 26.9131 172.92 25.141C170.82 22.6892 169.059 23.7662 167.412 23.0825L167.412 23.0787ZM167.842 37.0069C167.225 37.2628 165.498 40.341 165.936 40.1462C166.373 39.9514 169.162 37.3506 169.892 37.0069C170.626 36.6632 168.671 36.6632 167.842 37.0069ZM134.082 30.8773C134.082 28.9143 135.988 26.5121 132.96 28.3261C129.932 30.1402 132.778 33.3979 133.79 34.3106C134.254 34.7269 134.082 32.8403 134.082 30.8773ZM141.364 35.506C140.386 35.6741 143.487 38.3245 144.392 37.8891C147.569 36.3691 142.342 35.338 141.364 35.506ZM141.174 34.3679C142.11 34.3297 143.159 34.6658 142.486 33.9173C141.117 32.3973 140.238 34.4061 141.174 34.3679Z" fill="url(#paint3_linear_3532_21534)"/>
<path style="mix-blend-mode:color-dodge" d="M177.135 19.9585C159.684 19.9585 145.537 23.4176 145.537 27.6845C145.537 31.9515 159.684 35.4105 177.135 35.4106C194.586 35.4106 208.733 31.9515 208.733 27.6845C208.733 23.4176 194.586 19.9585 177.135 19.9585Z" fill="url(#paint4_radial_3532_21534)"/>
<path style="mix-blend-mode:color-dodge" d="M118.808 -8.49679e-06C65.1303 -1.31894e-05 21.616 12.3366 21.616 27.5547C21.616 42.7727 65.1303 55.1094 118.808 55.1094C172.486 55.1094 216 42.7727 216 27.5547C216 12.3367 172.486 -3.80414e-06 118.808 -8.49679e-06Z" fill="url(#paint5_radial_3532_21534)"/>
<g opacity="0.94">
<g style="mix-blend-mode:screen" opacity="0.53">
<path d="M133.679 10.8767C133.66 10.9073 133.622 10.9149 133.595 10.8958C133.565 10.8767 133.557 10.8386 133.576 10.8118C133.595 10.7813 133.633 10.7736 133.66 10.7927C133.69 10.8118 133.698 10.85 133.679 10.8767Z" fill="#FFFF71"/>
</g>
<path style="mix-blend-mode:color-dodge" opacity="0.95" d="M135.201 11.8315C134.657 12.7023 133.508 12.9658 132.641 12.4197C131.773 11.8735 131.511 10.7202 132.055 9.84942C132.599 8.97867 133.748 8.71516 134.615 9.26129C135.482 9.80742 135.745 10.9608 135.201 11.8315Z" fill="url(#paint6_radial_3532_21534)"/>
</g>
<g opacity="0.85">
<path style="mix-blend-mode:screen" opacity="0.96" d="M172.624 39.2831C172.471 39.5275 172.152 39.6001 171.908 39.4473C171.665 39.2946 171.593 38.9738 171.745 38.7293C171.897 38.4849 172.216 38.4124 172.46 38.5651C172.703 38.7179 172.776 39.0387 172.624 39.2831Z" fill="url(#paint7_radial_3532_21534)"/>
</g>
<g opacity="0.72">
<g style="mix-blend-mode:screen" opacity="0.85">
<path d="M178.064 46.253C178.064 46.253 178.052 46.2606 178.045 46.2568C178.037 46.253 178.037 46.2453 178.041 46.2377C178.045 46.23 178.052 46.23 178.06 46.2339C178.068 46.2377 178.068 46.2453 178.064 46.253Z" fill="#FFFF71"/>
</g>
<path style="mix-blend-mode:screen" opacity="0.95" d="M178.825 46.7342C178.555 47.1657 177.992 47.2956 177.562 47.0244C177.132 46.7532 177.006 46.188 177.273 45.7565C177.539 45.3249 178.106 45.1989 178.536 45.4662C178.966 45.7374 179.095 46.3026 178.825 46.7342Z" fill="url(#paint8_radial_3532_21534)"/>
</g>
<g opacity="0.92">
<g style="mix-blend-mode:screen" opacity="0.5">
<path d="M8.05408 46.7036C8.05408 46.7036 8.01984 46.7265 8.00462 46.7151C7.9894 46.7036 7.98178 46.6807 7.9932 46.6654C8.00461 46.6501 8.02744 46.6425 8.04265 46.6539C8.05787 46.6654 8.06549 46.6883 8.05408 46.7036Z" fill="#FFFF71"/>
</g>
<path style="mix-blend-mode:screen" opacity="0.87" d="M8.3237 46.8755C8.22099 47.0435 8.00035 47.0931 7.83296 46.9862C7.66557 46.8831 7.61612 46.6616 7.72264 46.4935C7.82536 46.3255 8.046 46.2759 8.21339 46.3828C8.38078 46.4859 8.43022 46.7074 8.3237 46.8755Z" fill="url(#paint9_radial_3532_21534)"/>
</g>
<g opacity="0.68">
<g style="mix-blend-mode:screen" opacity="0.99">
<path d="M59.7009 14.5393C59.7009 14.5393 59.6857 14.5507 59.6781 14.5431C59.6705 14.5355 59.6667 14.5278 59.6743 14.5202C59.6819 14.5125 59.6895 14.5087 59.6971 14.5164C59.7047 14.524 59.7085 14.5316 59.7009 14.5393Z" fill="#FFFF71"/>
</g>
<path style="mix-blend-mode:screen" opacity="0.7" d="M60.0581 14.7646C59.9287 14.9708 59.6586 15.0319 59.4532 14.9021C59.2478 14.7722 59.1869 14.5011 59.3163 14.2948C59.4456 14.0886 59.7157 14.0275 59.9211 14.1574C60.1266 14.2872 60.1874 14.5584 60.0581 14.7646Z" fill="url(#paint10_radial_3532_21534)"/>
</g>
<g opacity="0.65">
<g style="mix-blend-mode:screen" opacity="0.7">
<path d="M70.616 14.0046C70.616 14.0046 70.6008 14.0161 70.5931 14.0084C70.5855 14.0046 70.5817 13.9931 70.5893 13.9855C70.5931 13.9779 70.6046 13.9741 70.6122 13.9817C70.6198 13.9855 70.6236 13.997 70.616 14.0046Z" fill="#FFFF71"/>
</g>
<path style="mix-blend-mode:color-dodge" opacity="0.95" d="M71.1824 14.3598C70.9808 14.6806 70.5585 14.7799 70.239 14.5775C69.9194 14.375 69.8205 13.9511 70.0221 13.6303C70.2237 13.3095 70.646 13.2102 70.9656 13.4126C71.2851 13.6151 71.384 14.039 71.1824 14.3598Z" fill="url(#paint11_radial_3532_21534)"/>
</g>
<g opacity="0.91">
<path style="mix-blend-mode:color-dodge" opacity="0.95" d="M65.6961 14.3483C65.62 14.4705 65.4564 14.5087 65.3347 14.4323C65.2129 14.356 65.1749 14.1917 65.251 14.0695C65.3271 13.9473 65.4907 13.9091 65.6124 13.9855C65.7341 14.0619 65.7722 14.2261 65.6961 14.3483Z" fill="url(#paint12_radial_3532_21534)"/>
</g>
<g opacity="0.83">
<g style="mix-blend-mode:screen" opacity="0.53">
<path d="M66.6199 11.8124C66.6199 11.8124 66.6047 11.8239 66.5932 11.8201C66.5856 11.8163 66.5818 11.8048 66.5894 11.7933C66.5933 11.7857 66.6047 11.7819 66.6161 11.7857C66.6237 11.7895 66.6275 11.801 66.6199 11.8124Z" fill="#FFFF71"/>
</g>
<path style="mix-blend-mode:color-dodge" opacity="0.95" d="M67.0995 12.1141C66.9283 12.3891 66.5707 12.4693 66.2968 12.2975C66.0229 12.1256 65.943 11.7666 66.1142 11.4916C66.2854 11.2167 66.643 11.1365 66.9169 11.3083C67.1908 11.4802 67.2707 11.8392 67.0995 12.1141Z" fill="url(#paint13_radial_3532_21534)"/>
</g>
<g opacity="0.83">
<g style="mix-blend-mode:screen" opacity="0.72">
<path d="M62.2876 8.24158C62.2876 8.24158 62.2724 8.25304 62.2609 8.24922C62.2533 8.2454 62.2495 8.23395 62.2533 8.22249C62.2571 8.21485 62.2685 8.21103 62.28 8.21485C62.2876 8.21867 62.2914 8.23012 62.2876 8.24158Z" fill="#FFFF71"/>
</g>
<path style="mix-blend-mode:screen" opacity="0.55" d="M62.5807 8.42872C62.4742 8.60058 62.2497 8.65023 62.0785 8.5433C61.9074 8.43636 61.8579 8.21103 61.9644 8.03917C62.0709 7.86731 62.2954 7.81767 62.4666 7.92461C62.6378 8.03154 62.6872 8.25686 62.5807 8.42872Z" fill="url(#paint14_radial_3532_21534)"/>
</g>
<g opacity="0.97">
<g style="mix-blend-mode:screen" opacity="0.93">
<path d="M36.3611 36.6097C36.3611 36.6097 36.3459 36.6212 36.3383 36.6136C36.3307 36.6097 36.3269 36.5983 36.3345 36.5906C36.3421 36.583 36.3497 36.5792 36.3573 36.5868C36.3649 36.5945 36.3687 36.6021 36.3611 36.6097Z" fill="#FFFF71"/>
</g>
<path style="mix-blend-mode:screen" opacity="0.78" d="M36.559 36.7358C36.4867 36.8542 36.3307 36.8885 36.2128 36.816C36.0948 36.7434 36.0606 36.5868 36.1329 36.4684C36.2052 36.35 36.3611 36.3157 36.4791 36.3882C36.597 36.4608 36.6312 36.6174 36.559 36.7358Z" fill="url(#paint15_radial_3532_21534)"/>
</g>
<g opacity="0.9">
<g style="mix-blend-mode:screen" opacity="0.76">
<path d="M40.3481 39.0845C40.3481 39.0845 40.3176 39.1074 40.2986 39.096C40.2796 39.0845 40.2758 39.0654 40.2872 39.0463C40.2986 39.0272 40.3176 39.0234 40.3367 39.0349C40.3557 39.0463 40.3595 39.0654 40.3481 39.0845Z" fill="#FFFF71"/>
</g>
<path style="mix-blend-mode:screen" opacity="0.89" d="M40.5348 39.2029C40.4587 39.3213 40.3027 39.3595 40.1848 39.2831C40.0669 39.2067 40.0288 39.0502 40.1049 38.9318C40.181 38.8134 40.337 38.7752 40.4549 38.8516C40.5728 38.9279 40.6109 39.0845 40.5348 39.2029Z" fill="url(#paint16_radial_3532_21534)"/>
</g>
<g opacity="0.93">
<g style="mix-blend-mode:screen" opacity="0.62">
<path d="M160.252 34.9637C160.252 34.9637 160.229 34.979 160.218 34.9714C160.206 34.9637 160.202 34.9485 160.21 34.937C160.218 34.9255 160.233 34.9217 160.244 34.9294C160.256 34.937 160.26 34.9523 160.252 34.9637Z" fill="#FFFF71"/>
</g>
<path style="mix-blend-mode:screen" opacity="0.51" d="M161.263 35.6015C160.906 36.1744 160.153 36.3462 159.582 35.9872C159.011 35.6282 158.84 34.8721 159.198 34.2992C159.555 33.7263 160.309 33.5545 160.879 33.9135C161.45 34.2725 161.621 35.0287 161.263 35.6015Z" fill="url(#paint17_radial_3532_21534)"/>
</g>
<g opacity="0.99">
<g style="mix-blend-mode:screen" opacity="0.86">
<path d="M88.0738 20.5123C88.051 20.5467 88.0091 20.5543 87.9749 20.5352C87.9406 20.5123 87.933 20.4703 87.9521 20.4359C87.9711 20.4015 88.0167 20.3939 88.051 20.413C88.0852 20.4359 88.0928 20.4779 88.0738 20.5123Z" fill="#FFFF71"/>
</g>
<path style="mix-blend-mode:screen" opacity="0.71" d="M90.0553 21.7612C89.3477 22.8954 87.8603 23.2353 86.7304 22.525C85.6005 21.8146 85.2619 20.3214 85.9695 19.1871C86.6771 18.0528 88.1646 17.7129 89.2945 18.4233C90.4244 19.1336 90.7629 20.6269 90.0553 21.7612Z" fill="url(#paint18_radial_3532_21534)"/>
</g>
<g opacity="0.81">
<g style="mix-blend-mode:screen" opacity="0.64">
<path d="M5.82412 46.8525C5.8089 46.8754 5.77845 46.8831 5.75562 46.8678C5.7328 46.8525 5.7252 46.822 5.74041 46.799C5.75563 46.7761 5.78606 46.7685 5.80889 46.7838C5.83171 46.799 5.83934 46.8296 5.82412 46.8525Z" fill="#FFFF71"/>
</g>
<path style="mix-blend-mode:color-dodge" opacity="0.95" d="M6.91947 47.5399C6.52382 48.1701 5.6983 48.361 5.07059 47.9639C4.44288 47.5667 4.25267 46.7379 4.64832 46.1078C5.04397 45.4776 5.86949 45.2867 6.4972 45.6839C7.12491 46.0811 7.31512 46.9098 6.91947 47.5399Z" fill="url(#paint19_radial_3532_21534)"/>
</g>
<g opacity="0.85">
<g style="mix-blend-mode:screen" opacity="0.85">
<path d="M186.235 27.2606C186.235 27.2606 186.216 27.2721 186.205 27.2683C186.193 27.2606 186.193 27.2492 186.197 27.2377C186.205 27.2263 186.216 27.2263 186.227 27.2301C186.239 27.2377 186.239 27.2492 186.235 27.2606Z" fill="#FFFF71"/>
</g>
<path style="mix-blend-mode:screen" opacity="0.76" d="M186.475 27.4134C186.388 27.5547 186.197 27.6005 186.057 27.5089C185.916 27.4172 185.87 27.2301 185.962 27.0888C186.053 26.9475 186.239 26.9016 186.38 26.9933C186.521 27.085 186.566 27.2721 186.475 27.4134Z" fill="url(#paint20_radial_3532_21534)"/>
</g>
<g opacity="0.91">
<g style="mix-blend-mode:screen" opacity="0.85">
<path d="M189.636 33.4934C189.62 33.5163 189.59 33.5239 189.567 33.5087C189.544 33.4934 189.537 33.4628 189.552 33.4399C189.567 33.417 189.598 33.4094 189.62 33.4246C189.643 33.4399 189.651 33.4705 189.636 33.4934Z" fill="#FFFF71"/>
</g>
<path style="mix-blend-mode:color-dodge" opacity="0.95" d="M190.781 34.2152C190.37 34.8721 189.506 35.0707 188.852 34.6582C188.198 34.2457 188 33.3788 188.411 32.7219C188.822 32.065 189.685 31.8665 190.34 32.2789C190.994 32.6914 191.192 33.5583 190.781 34.2152Z" fill="url(#paint21_radial_3532_21534)"/>
</g>
<g opacity="0.61">
<g style="mix-blend-mode:screen" opacity="0.97">
<path d="M180.529 26.7565C180.529 26.7565 180.494 26.7795 180.479 26.768C180.46 26.7565 180.456 26.7336 180.468 26.7184C180.479 26.6993 180.502 26.6954 180.517 26.7069C180.536 26.7184 180.54 26.7413 180.529 26.7565Z" fill="#FFFF71"/>
</g>
<path style="mix-blend-mode:screen" opacity="0.91" d="M180.742 26.8902C180.658 27.0239 180.479 27.0659 180.346 26.9819C180.213 26.8978 180.171 26.7183 180.255 26.5847C180.339 26.451 180.517 26.409 180.651 26.493C180.784 26.577 180.826 26.7565 180.742 26.8902Z" fill="url(#paint22_radial_3532_21534)"/>
</g>
<g opacity="0.63">
<g style="mix-blend-mode:screen" opacity="0.66">
<path d="M181.126 29.8614C181.126 29.8614 181.099 29.8805 181.084 29.8729C181.069 29.8653 181.065 29.8462 181.073 29.8309C181.08 29.8156 181.099 29.8118 181.115 29.8194C181.13 29.8271 181.134 29.8462 181.126 29.8614Z" fill="#FFFF71"/>
</g>
<path style="mix-blend-mode:color-dodge" opacity="0.95" d="M181.807 30.293C181.56 30.6864 181.042 30.8048 180.651 30.5603C180.259 30.3121 180.141 29.7927 180.384 29.3993C180.628 29.006 181.149 28.8876 181.541 29.132C181.933 29.3802 182.05 29.8996 181.807 30.293Z" fill="url(#paint23_radial_3532_21534)"/>
</g>
<g opacity="0.78">
<g style="mix-blend-mode:screen" opacity="0.9">
<path d="M183.191 17.0255C183.138 17.1095 183.028 17.1363 182.944 17.0828C182.86 17.0293 182.834 16.9186 182.887 16.8346C182.94 16.7505 183.05 16.7238 183.134 16.7773C183.218 16.8307 183.244 16.9415 183.191 17.0255Z" fill="#FFFF71"/>
</g>
<path style="mix-blend-mode:color-dodge" opacity="0.95" d="M184.877 18.0872C184.238 19.1069 182.898 19.4162 181.883 18.7746C180.867 18.133 180.559 16.7887 181.198 15.769C181.837 14.7493 183.176 14.44 184.192 15.0816C185.208 15.7232 185.516 17.0675 184.877 18.0872Z" fill="url(#paint24_radial_3532_21534)"/>
</g>
<g opacity="0.76">
<g style="mix-blend-mode:screen" opacity="0.72">
<path d="M195.92 34.7422C195.901 34.7728 195.86 34.7842 195.825 34.7651C195.795 34.746 195.784 34.704 195.803 34.6697C195.822 34.6353 195.863 34.6277 195.898 34.6467C195.932 34.6658 195.939 34.7079 195.92 34.7422Z" fill="#FFFF71"/>
</g>
<path style="mix-blend-mode:color-dodge" opacity="0.95" d="M197.625 35.8154C197.013 36.7931 195.731 37.0872 194.757 36.4761C193.783 35.8612 193.49 34.5742 194.099 33.5965C194.711 32.6188 195.993 32.3248 196.967 32.9358C197.941 33.5507 198.234 34.8377 197.625 35.8154Z" fill="url(#paint25_radial_3532_21534)"/>
</g>
<g opacity="0.56">
<path style="mix-blend-mode:screen" opacity="0.56" d="M141.375 40.5625C141.448 40.8184 141.299 41.0857 141.044 41.1583C140.789 41.2308 140.523 41.0819 140.451 40.826C140.379 40.5701 140.527 40.3028 140.782 40.2302C141.037 40.1577 141.303 40.3066 141.375 40.5625Z" fill="url(#paint26_radial_3532_21534)"/>
</g>
<g opacity="0.73">
<g style="mix-blend-mode:screen" opacity="0.97">
<path d="M143.737 37.0948C143.748 37.1406 143.721 37.1903 143.676 37.2017C143.63 37.2132 143.581 37.1865 143.569 37.1406C143.558 37.0948 143.584 37.0451 143.63 37.0337C143.676 37.0222 143.725 37.049 143.737 37.0948Z" fill="#FFFF71"/>
</g>
<path style="mix-blend-mode:color-dodge" opacity="0.95" d="M144.62 36.8427C144.772 37.3774 144.46 37.9388 143.927 38.0877C143.395 38.2405 142.835 37.9273 142.687 37.3927C142.535 36.858 142.847 36.2966 143.379 36.1477C143.912 35.9949 144.471 36.3081 144.62 36.8427Z" fill="url(#paint27_radial_3532_21534)"/>
</g>
<g opacity="0.87">
<g style="mix-blend-mode:screen" opacity="0.88">
<path d="M50.4101 19.7943C50.3948 19.8173 50.3644 19.8249 50.3378 19.8096C50.3111 19.7943 50.3073 19.7638 50.3225 19.7371C50.3378 19.7103 50.3682 19.7065 50.3948 19.7218C50.4177 19.7371 50.4253 19.7676 50.4101 19.7943Z" fill="#FFFF71"/>
</g>
<path style="mix-blend-mode:color-dodge" opacity="0.95" d="M51.7873 20.6651C51.2927 21.4518 50.258 21.6924 49.4743 21.1959C48.6906 20.6994 48.4509 19.6607 48.9455 18.8739C49.44 18.0872 50.4748 17.8466 51.2585 18.3431C52.0422 18.8396 52.2819 19.8783 51.7873 20.6651Z" fill="url(#paint28_radial_3532_21534)"/>
</g>
<g opacity="0.67">
<g style="mix-blend-mode:screen" opacity="0.9">
<path d="M168.119 42.8654C168.089 42.9151 168.02 42.9304 167.971 42.8998C167.921 42.8692 167.906 42.8005 167.936 42.7509C167.967 42.7012 168.035 42.6859 168.085 42.7165C168.134 42.747 168.15 42.8158 168.119 42.8654Z" fill="#FFFF71"/>
</g>
<path style="mix-blend-mode:screen" opacity="0.64" d="M169.39 43.6674C168.918 44.4236 167.925 44.6527 167.172 44.1792C166.419 43.7056 166.191 42.7088 166.662 41.9527C167.134 41.1965 168.127 40.9673 168.88 41.4409C169.634 41.9145 169.862 42.9112 169.39 43.6674Z" fill="url(#paint29_radial_3532_21534)"/>
</g>
<g opacity="0.51">
<g style="mix-blend-mode:screen" opacity="0.59">
<path d="M155.926 16.1204C155.926 16.1204 155.895 16.1395 155.88 16.1318C155.865 16.1242 155.861 16.1013 155.869 16.086C155.876 16.0707 155.899 16.0669 155.914 16.0745C155.93 16.0822 155.933 16.1051 155.926 16.1204Z" fill="#FFFF71"/>
</g>
<path style="mix-blend-mode:color-dodge" opacity="0.95" d="M156.208 16.2999C156.101 16.4717 155.877 16.5214 155.705 16.4144C155.534 16.3075 155.485 16.0822 155.591 15.9103C155.698 15.7385 155.922 15.6888 156.094 15.7958C156.265 15.9027 156.314 16.128 156.208 16.2999Z" fill="url(#paint30_radial_3532_21534)"/>
</g>
<g opacity="0.83">
<g style="mix-blend-mode:screen" opacity="0.96">
<path d="M133.888 15.7576C133.888 15.7576 133.869 15.769 133.862 15.7652C133.854 15.7614 133.85 15.7461 133.854 15.7385C133.858 15.7308 133.873 15.727 133.881 15.7308C133.888 15.7347 133.892 15.7499 133.888 15.7576Z" fill="#FFFF71"/>
</g>
<path style="mix-blend-mode:color-dodge" opacity="0.95" d="M134.382 16.0669C134.207 16.3495 133.835 16.4335 133.553 16.2579C133.271 16.0822 133.188 15.7079 133.363 15.4253C133.538 15.1427 133.911 15.0587 134.192 15.2344C134.474 15.41 134.557 15.7843 134.382 16.0669Z" fill="url(#paint31_radial_3532_21534)"/>
</g>
</g>
<defs>
<linearGradient id="paint0_linear_3532_21534" x1="109.5" y1="38.0001" x2="-4.00704" y2="44.8841" gradientUnits="userSpaceOnUse">
<stop stop-color="#FF6900"/>
<stop offset="1" stop-color="#480127" stop-opacity="0"/>
</linearGradient>
<linearGradient id="paint1_linear_3532_21534" x1="206.025" y1="30.3006" x2="19.2539" y2="30.3006" gradientUnits="userSpaceOnUse">
<stop stop-color="#FF2200"/>
<stop offset="0.04" stop-color="#F51F03"/>
<stop offset="0.27" stop-color="#C61413"/>
<stop offset="0.48" stop-color="#A10B20"/>
<stop offset="0.68" stop-color="#870529"/>
<stop offset="0.86" stop-color="#77012F"/>
<stop offset="1" stop-color="#720031"/>
</linearGradient>
<linearGradient id="paint2_linear_3532_21534" x1="206.026" y1="30.2357" x2="44.6971" y2="30.2357" gradientUnits="userSpaceOnUse">
<stop stop-color="#FFCC00"/>
<stop offset="0.11" stop-color="#F9C700"/>
<stop offset="0.23" stop-color="#EBBC00"/>
<stop offset="0.36" stop-color="#D2A800"/>
<stop offset="0.51" stop-color="#B08D00"/>
<stop offset="0.65" stop-color="#856A00"/>
<stop offset="0.81" stop-color="#4F3F00"/>
<stop offset="0.96" stop-color="#110D00"/>
<stop offset="1"/>
</linearGradient>
<linearGradient id="paint3_linear_3532_21534" x1="194.772" y1="30.0294" x2="64.6047" y2="30.0294" gradientUnits="userSpaceOnUse">
<stop stop-color="#FF88FF"/>
<stop offset="0.11" stop-color="#F985F9"/>
<stop offset="0.23" stop-color="#EB7DEB"/>
<stop offset="0.36" stop-color="#D270D2"/>
<stop offset="0.51" stop-color="#B05EB0"/>
<stop offset="0.65" stop-color="#854685"/>
<stop offset="0.81" stop-color="#4F2A4F"/>
<stop offset="0.96" stop-color="#110911"/>
<stop offset="1"/>
</linearGradient>
<radialGradient id="paint4_radial_3532_21534" cx="0" cy="0" r="1" gradientUnits="userSpaceOnUse" gradientTransform="translate(177.308 27.6541) rotate(-180) scale(30.7976 7.53796)">
<stop stop-color="white"/>
<stop offset="0.03" stop-color="#F4F4F4"/>
<stop offset="0.23" stop-color="#ABABAB"/>
<stop offset="0.41" stop-color="#6E6E6E"/>
<stop offset="0.58" stop-color="#3E3E3E"/>
<stop offset="0.73" stop-color="#1C1C1C"/>
<stop offset="0.86" stop-color="#070707"/>
<stop offset="0.94"/>
</radialGradient>
<radialGradient id="paint5_radial_3532_21534" cx="0" cy="0" r="1" gradientUnits="userSpaceOnUse" gradientTransform="translate(119.183 27.6039) rotate(-180) scale(94.7144 26.8323)">
<stop stop-color="#FFE700"/>
<stop offset="1" stop-color="#460126" stop-opacity="0"/>
</radialGradient>
<radialGradient id="paint6_radial_3532_21534" cx="0" cy="0" r="1" gradientUnits="userSpaceOnUse" gradientTransform="translate(133.527 11.0668) rotate(32.2102) scale(1.85854 1.86166)">
<stop stop-color="#FF6D00"/>
<stop offset="0.12" stop-color="#C65400"/>
<stop offset="0.24" stop-color="#923E00"/>
<stop offset="0.37" stop-color="#652B00"/>
<stop offset="0.5" stop-color="#401B00"/>
<stop offset="0.62" stop-color="#240F00"/>
<stop offset="0.75" stop-color="#100600"/>
<stop offset="0.88" stop-color="#040100"/>
<stop offset="1"/>
</radialGradient>
<radialGradient id="paint7_radial_3532_21534" cx="0" cy="0" r="1" gradientUnits="userSpaceOnUse" gradientTransform="translate(172.078 39.2269) rotate(32.2101) scale(0.521762 0.522639)">
<stop stop-color="#FF6D00"/>
<stop offset="0.12" stop-color="#C65400"/>
<stop offset="0.24" stop-color="#923E00"/>
<stop offset="0.37" stop-color="#652B00"/>
<stop offset="0.5" stop-color="#401B00"/>
<stop offset="0.62" stop-color="#240F00"/>
<stop offset="0.75" stop-color="#100600"/>
<stop offset="0.88" stop-color="#040100"/>
<stop offset="1"/>
</radialGradient>
<radialGradient id="paint8_radial_3532_21534" cx="0" cy="0" r="1" gradientUnits="userSpaceOnUse" gradientTransform="translate(177.944 46.4703) rotate(32.2102) scale(0.917843 0.919388)">
<stop stop-color="#FF6D00"/>
<stop offset="0.12" stop-color="#C65400"/>
<stop offset="0.24" stop-color="#923E00"/>
<stop offset="0.37" stop-color="#652B00"/>
<stop offset="0.5" stop-color="#401B00"/>
<stop offset="0.62" stop-color="#240F00"/>
<stop offset="0.75" stop-color="#100600"/>
<stop offset="0.88" stop-color="#040100"/>
<stop offset="1"/>
</radialGradient>
<radialGradient id="paint9_radial_3532_21534" cx="0" cy="0" r="1" gradientUnits="userSpaceOnUse" gradientTransform="translate(7.92107 46.8986) rotate(32.2107) scale(0.354184 0.354783)">
<stop stop-color="#FF6D00"/>
<stop offset="0.12" stop-color="#C65400"/>
<stop offset="0.24" stop-color="#923E00"/>
<stop offset="0.37" stop-color="#652B00"/>
<stop offset="0.5" stop-color="#401B00"/>
<stop offset="0.62" stop-color="#240F00"/>
<stop offset="0.75" stop-color="#100600"/>
<stop offset="0.88" stop-color="#040100"/>
<stop offset="1"/>
</radialGradient>
<radialGradient id="paint10_radial_3532_21534" cx="0" cy="0" r="1" gradientUnits="userSpaceOnUse" gradientTransform="translate(59.5835 14.7484) rotate(32.2103) scale(0.437973 0.438711)">
<stop stop-color="#FF6D00"/>
<stop offset="0.12" stop-color="#C65400"/>
<stop offset="0.24" stop-color="#923E00"/>
<stop offset="0.37" stop-color="#652B00"/>
<stop offset="0.5" stop-color="#401B00"/>
<stop offset="0.62" stop-color="#240F00"/>
<stop offset="0.75" stop-color="#100600"/>
<stop offset="0.88" stop-color="#040100"/>
<stop offset="1"/>
</radialGradient>
<radialGradient id="paint11_radial_3532_21534" cx="0" cy="0" r="1" gradientUnits="userSpaceOnUse" gradientTransform="translate(70.5003 14.213) rotate(32.2103) scale(0.685525 0.68668)">
<stop stop-color="#FF6D00"/>
<stop offset="0.12" stop-color="#C65400"/>
<stop offset="0.24" stop-color="#923E00"/>
<stop offset="0.37" stop-color="#652B00"/>
<stop offset="0.5" stop-color="#401B00"/>
<stop offset="0.62" stop-color="#240F00"/>
<stop offset="0.75" stop-color="#100600"/>
<stop offset="0.88" stop-color="#040100"/>
<stop offset="1"/>
</radialGradient>
<radialGradient id="paint12_radial_3532_21534" cx="0" cy="0" r="1" gradientUnits="userSpaceOnUse" gradientTransform="translate(65.3736 14.4238) rotate(32.2099) scale(0.262786 0.263228)">
<stop stop-color="#FF6D00"/>
<stop offset="0.12" stop-color="#C65400"/>
<stop offset="0.24" stop-color="#923E00"/>
<stop offset="0.37" stop-color="#652B00"/>
<stop offset="0.5" stop-color="#401B00"/>
<stop offset="0.62" stop-color="#240F00"/>
<stop offset="0.75" stop-color="#100600"/>
<stop offset="0.88" stop-color="#040100"/>
<stop offset="1"/>
</radialGradient>
<radialGradient id="paint13_radial_3532_21534" cx="0" cy="0" r="1" gradientUnits="userSpaceOnUse" gradientTransform="translate(66.5063 12.022) rotate(32.2102) scale(0.582696 0.583677)">
<stop stop-color="#FF6D00"/>
<stop offset="0.12" stop-color="#C65400"/>
<stop offset="0.24" stop-color="#923E00"/>
<stop offset="0.37" stop-color="#652B00"/>
<stop offset="0.5" stop-color="#401B00"/>
<stop offset="0.62" stop-color="#240F00"/>
<stop offset="0.75" stop-color="#100600"/>
<stop offset="0.88" stop-color="#040100"/>
<stop offset="1"/>
</radialGradient>
<radialGradient id="paint14_radial_3532_21534" cx="0" cy="0" r="1" gradientUnits="userSpaceOnUse" gradientTransform="translate(62.1689 8.45041) rotate(32.2101) scale(0.365614 0.366229)">
<stop stop-color="#FF6D00"/>
<stop offset="0.12" stop-color="#C65400"/>
<stop offset="0.24" stop-color="#923E00"/>
<stop offset="0.37" stop-color="#652B00"/>
<stop offset="0.5" stop-color="#401B00"/>
<stop offset="0.62" stop-color="#240F00"/>
<stop offset="0.75" stop-color="#100600"/>
<stop offset="0.88" stop-color="#040100"/>
<stop offset="1"/>
</radialGradient>
<radialGradient id="paint15_radial_3532_21534" cx="0" cy="0" r="1" gradientUnits="userSpaceOnUse" gradientTransform="translate(36.2432 36.8182) rotate(32.2104) scale(0.251358 0.251782)">
<stop stop-color="#FF6D00"/>
<stop offset="0.12" stop-color="#C65400"/>
<stop offset="0.24" stop-color="#923E00"/>
<stop offset="0.37" stop-color="#652B00"/>
<stop offset="0.5" stop-color="#401B00"/>
<stop offset="0.62" stop-color="#240F00"/>
<stop offset="0.75" stop-color="#100600"/>
<stop offset="0.88" stop-color="#040100"/>
<stop offset="1"/>
</radialGradient>
<radialGradient id="paint16_radial_3532_21534" cx="0" cy="0" r="1" gradientUnits="userSpaceOnUse" gradientTransform="translate(40.2156 39.28) rotate(32.2106) scale(0.255165 0.255596)">
<stop stop-color="#FF6D00"/>
<stop offset="0.12" stop-color="#C65400"/>
<stop offset="0.24" stop-color="#923E00"/>
<stop offset="0.37" stop-color="#652B00"/>
<stop offset="0.5" stop-color="#401B00"/>
<stop offset="0.62" stop-color="#240F00"/>
<stop offset="0.75" stop-color="#100600"/>
<stop offset="0.88" stop-color="#040100"/>
<stop offset="1"/>
</radialGradient>
<radialGradient id="paint17_radial_3532_21534" cx="0" cy="0" r="1" gradientUnits="userSpaceOnUse" gradientTransform="translate(160.124 35.1722) rotate(32.2102) scale(1.22252 1.22458)">
<stop stop-color="#FF6D00"/>
<stop offset="0.12" stop-color="#C65400"/>
<stop offset="0.24" stop-color="#923E00"/>
<stop offset="0.37" stop-color="#652B00"/>
<stop offset="0.5" stop-color="#401B00"/>
<stop offset="0.62" stop-color="#240F00"/>
<stop offset="0.75" stop-color="#100600"/>
<stop offset="0.88" stop-color="#040100"/>
<stop offset="1"/>
</radialGradient>
<radialGradient id="paint18_radial_3532_21534" cx="0" cy="0" r="1" gradientUnits="userSpaceOnUse" gradientTransform="translate(87.9086 20.6937) rotate(32.2102) scale(2.41457 2.41864)">
<stop stop-color="#FF6D00"/>
<stop offset="0.12" stop-color="#C65400"/>
<stop offset="0.24" stop-color="#923E00"/>
<stop offset="0.37" stop-color="#652B00"/>
<stop offset="0.5" stop-color="#401B00"/>
<stop offset="0.62" stop-color="#240F00"/>
<stop offset="0.75" stop-color="#100600"/>
<stop offset="0.88" stop-color="#040100"/>
<stop offset="1"/>
</radialGradient>
<radialGradient id="paint19_radial_3532_21534" cx="0" cy="0" r="1" gradientUnits="userSpaceOnUse" gradientTransform="translate(5.68149 47.039) rotate(32.2103) scale(1.34439 1.34665)">
<stop stop-color="#FF6D00"/>
<stop offset="0.12" stop-color="#C65400"/>
<stop offset="0.24" stop-color="#923E00"/>
<stop offset="0.37" stop-color="#652B00"/>
<stop offset="0.5" stop-color="#401B00"/>
<stop offset="0.62" stop-color="#240F00"/>
<stop offset="0.75" stop-color="#100600"/>
<stop offset="0.88" stop-color="#040100"/>
<stop offset="1"/>
</radialGradient>
<radialGradient id="paint20_radial_3532_21534" cx="0" cy="0" r="1" gradientUnits="userSpaceOnUse" gradientTransform="translate(186.112 27.476) rotate(32.2102) scale(0.304678 0.305191)">
<stop stop-color="#FF6D00"/>
<stop offset="0.12" stop-color="#C65400"/>
<stop offset="0.24" stop-color="#923E00"/>
<stop offset="0.37" stop-color="#652B00"/>
<stop offset="0.5" stop-color="#401B00"/>
<stop offset="0.62" stop-color="#240F00"/>
<stop offset="0.75" stop-color="#100600"/>
<stop offset="0.88" stop-color="#040100"/>
<stop offset="1"/>
</radialGradient>
<radialGradient id="paint21_radial_3532_21534" cx="0" cy="0" r="1" gradientUnits="userSpaceOnUse" gradientTransform="translate(189.487 33.6925) rotate(32.2102) scale(1.40152 1.40388)">
<stop stop-color="#FF6D00"/>
<stop offset="0.12" stop-color="#C65400"/>
<stop offset="0.24" stop-color="#923E00"/>
<stop offset="0.37" stop-color="#652B00"/>
<stop offset="0.5" stop-color="#401B00"/>
<stop offset="0.62" stop-color="#240F00"/>
<stop offset="0.75" stop-color="#100600"/>
<stop offset="0.88" stop-color="#040100"/>
<stop offset="1"/>
</radialGradient>
<radialGradient id="paint22_radial_3532_21534" cx="0" cy="0" r="1" gradientUnits="userSpaceOnUse" gradientTransform="translate(180.39 26.9647) rotate(32.2102) scale(0.289444 0.289931)">
<stop stop-color="#FF6D00"/>
<stop offset="0.12" stop-color="#C65400"/>
<stop offset="0.24" stop-color="#923E00"/>
<stop offset="0.37" stop-color="#652B00"/>
<stop offset="0.5" stop-color="#401B00"/>
<stop offset="0.62" stop-color="#240F00"/>
<stop offset="0.75" stop-color="#100600"/>
<stop offset="0.88" stop-color="#040100"/>
<stop offset="1"/>
</radialGradient>
<radialGradient id="paint23_radial_3532_21534" cx="0" cy="0" r="1" gradientUnits="userSpaceOnUse" gradientTransform="translate(180.991 30.0708) rotate(32.2102) scale(0.837865 0.839276)">
<stop stop-color="#FF6D00"/>
<stop offset="0.12" stop-color="#C65400"/>
<stop offset="0.24" stop-color="#923E00"/>
<stop offset="0.37" stop-color="#652B00"/>
<stop offset="0.5" stop-color="#401B00"/>
<stop offset="0.62" stop-color="#240F00"/>
<stop offset="0.75" stop-color="#100600"/>
<stop offset="0.88" stop-color="#040100"/>
<stop offset="1"/>
</radialGradient>
<radialGradient id="paint24_radial_3532_21534" cx="0" cy="0" r="1" gradientUnits="userSpaceOnUse" gradientTransform="translate(182.933 17.1553) rotate(32.2102) scale(2.17464 2.1783)">
<stop stop-color="#FF6D00"/>
<stop offset="0.12" stop-color="#C65400"/>
<stop offset="0.24" stop-color="#923E00"/>
<stop offset="0.37" stop-color="#652B00"/>
<stop offset="0.5" stop-color="#401B00"/>
<stop offset="0.62" stop-color="#240F00"/>
<stop offset="0.75" stop-color="#100600"/>
<stop offset="0.88" stop-color="#040100"/>
<stop offset="1"/>
</radialGradient>
<radialGradient id="paint25_radial_3532_21534" cx="0" cy="0" r="1" gradientUnits="userSpaceOnUse" gradientTransform="translate(195.754 34.9347) rotate(32.2102) scale(2.08324 2.08674)">
<stop stop-color="#FF6D00"/>
<stop offset="0.12" stop-color="#C65400"/>
<stop offset="0.24" stop-color="#923E00"/>
<stop offset="0.37" stop-color="#652B00"/>
<stop offset="0.5" stop-color="#401B00"/>
<stop offset="0.62" stop-color="#240F00"/>
<stop offset="0.75" stop-color="#100600"/>
<stop offset="0.88" stop-color="#040100"/>
<stop offset="1"/>
</radialGradient>
<radialGradient id="paint26_radial_3532_21534" cx="0" cy="0" r="1" gradientUnits="userSpaceOnUse" gradientTransform="translate(140.882 40.6324) rotate(-15.9086) scale(0.479479 0.481065)">
<stop stop-color="#FF6D00"/>
<stop offset="0.12" stop-color="#C65400"/>
<stop offset="0.24" stop-color="#923E00"/>
<stop offset="0.37" stop-color="#652B00"/>
<stop offset="0.5" stop-color="#401B00"/>
<stop offset="0.62" stop-color="#240F00"/>
<stop offset="0.75" stop-color="#100600"/>
<stop offset="0.88" stop-color="#040100"/>
<stop offset="1"/>
</radialGradient>
<radialGradient id="paint27_radial_3532_21534" cx="0" cy="0" r="1" gradientUnits="userSpaceOnUse" gradientTransform="translate(143.62 37.0572) rotate(-15.9085) scale(1.00462 1.00795)">
<stop stop-color="#FF6D00"/>
<stop offset="0.12" stop-color="#C65400"/>
<stop offset="0.24" stop-color="#923E00"/>
<stop offset="0.37" stop-color="#652B00"/>
<stop offset="0.5" stop-color="#401B00"/>
<stop offset="0.62" stop-color="#240F00"/>
<stop offset="0.75" stop-color="#100600"/>
<stop offset="0.88" stop-color="#040100"/>
<stop offset="1"/>
</radialGradient>
<radialGradient id="paint28_radial_3532_21534" cx="0" cy="0" r="1" gradientUnits="userSpaceOnUse" gradientTransform="translate(50.2654 19.9835) rotate(32.2102) scale(1.67954 1.68236)">
<stop stop-color="#FF6D00"/>
<stop offset="0.12" stop-color="#C65400"/>
<stop offset="0.24" stop-color="#923E00"/>
<stop offset="0.37" stop-color="#652B00"/>
<stop offset="0.5" stop-color="#401B00"/>
<stop offset="0.62" stop-color="#240F00"/>
<stop offset="0.75" stop-color="#100600"/>
<stop offset="0.88" stop-color="#040100"/>
<stop offset="1"/>
</radialGradient>
<radialGradient id="paint29_radial_3532_21534" cx="0" cy="0" r="1" gradientUnits="userSpaceOnUse" gradientTransform="translate(167.921 43.0327) rotate(32.2102) scale(1.61099 1.6137)">
<stop stop-color="#FF6D00"/>
<stop offset="0.12" stop-color="#C65400"/>
<stop offset="0.24" stop-color="#923E00"/>
<stop offset="0.37" stop-color="#652B00"/>
<stop offset="0.5" stop-color="#401B00"/>
<stop offset="0.62" stop-color="#240F00"/>
<stop offset="0.75" stop-color="#100600"/>
<stop offset="0.88" stop-color="#040100"/>
<stop offset="1"/>
</radialGradient>
<radialGradient id="paint30_radial_3532_21534" cx="0" cy="0" r="1" gradientUnits="userSpaceOnUse" gradientTransform="translate(155.795 16.3311) rotate(32.2102) scale(0.365613 0.366229)">
<stop stop-color="#FF6D00"/>
<stop offset="0.12" stop-color="#C65400"/>
<stop offset="0.24" stop-color="#923E00"/>
<stop offset="0.37" stop-color="#652B00"/>
<stop offset="0.5" stop-color="#401B00"/>
<stop offset="0.62" stop-color="#240F00"/>
<stop offset="0.75" stop-color="#100600"/>
<stop offset="0.88" stop-color="#040100"/>
<stop offset="1"/>
</radialGradient>
<radialGradient id="paint31_radial_3532_21534" cx="0" cy="0" r="1" gradientUnits="userSpaceOnUse" gradientTransform="translate(133.768 15.9673) rotate(32.2101) scale(0.60174 0.602752)">
<stop stop-color="#FF6D00"/>
<stop offset="0.12" stop-color="#C65400"/>
<stop offset="0.24" stop-color="#923E00"/>
<stop offset="0.37" stop-color="#652B00"/>
<stop offset="0.5" stop-color="#401B00"/>
<stop offset="0.62" stop-color="#240F00"/>
<stop offset="0.75" stop-color="#100600"/>
<stop offset="0.88" stop-color="#040100"/>
<stop offset="1"/>
</radialGradient>
<clipPath id="clip0_3532_21534">
<rect width="216" height="70" fill="white" transform="translate(216 70) rotate(-180)"/>
</clipPath>
</defs>
</svg>
