<svg width="29" height="29" viewBox="0 0 29 29" fill="none" xmlns="http://www.w3.org/2000/svg">
<circle cx="14.2231" cy="14.3517" r="14.0473" fill="white"/>
<path d="M28.2704 14.3596C28.2704 6.43154 21.9836 0 14.2231 0C6.46255 0 0.175781 6.42654 0.175781 14.3596C0.175781 21.5269 5.31193 27.4679 12.0296 28.544V18.5088H8.46511V14.3596H12.0296V11.1964C12.0296 7.59773 14.1252 5.6107 17.3371 5.6107C18.8745 5.6107 20.4805 5.89099 20.4805 5.89099V9.42458H18.708C16.965 9.42458 16.4166 10.5307 16.4166 11.6669V14.3596H20.314L19.6922 18.5088H16.4215V28.544C23.1342 27.4629 28.2704 21.5269 28.2704 14.3596Z" fill="#323232"/>
</svg>
