<svg width="29" height="29" viewBox="0 0 29 29" fill="none" xmlns="http://www.w3.org/2000/svg">
<path d="M14.3647 28.544C22.1228 28.544 28.412 22.1542 28.412 14.272C28.412 6.3898 22.1228 0 14.3647 0C6.60657 0 0.317383 6.3898 0.317383 14.272C0.317383 22.1542 6.60657 28.544 14.3647 28.544Z" fill="#323232"/>
<path d="M14.365 6.82935C16.7507 6.82935 17.0329 6.83941 17.9783 6.88467C18.8494 6.9249 19.3246 7.07074 19.6364 7.19646C20.0522 7.36241 20.3492 7.55854 20.666 7.87536C20.9827 8.19218 21.1708 8.49391 21.3342 8.92136C21.4579 9.24321 21.6015 9.72095 21.6411 10.606C21.6856 11.5615 21.6955 11.8532 21.6955 14.2771C21.6955 16.701 21.6856 16.9877 21.6411 17.9482C21.6015 18.8333 21.4579 19.316 21.3342 19.6329C21.1708 20.0553 20.9778 20.357 20.666 20.6789C20.3541 20.9957 20.0572 21.1918 19.6364 21.3578C19.3196 21.4835 18.8494 21.6293 17.9783 21.6696C17.0378 21.7148 16.7507 21.7249 14.365 21.7249C11.9792 21.7249 11.6971 21.7148 10.7517 21.6696C9.88053 21.6293 9.40536 21.4835 9.09352 21.3578C8.67775 21.1918 8.38076 20.9957 8.06398 20.6789C7.75215 20.362 7.55911 20.0603 7.39577 19.6329C7.27203 19.311 7.12848 18.8333 7.08889 17.9482C7.04434 16.9927 7.03444 16.701 7.03444 14.2771C7.03444 11.8532 7.04434 11.5666 7.08889 10.606C7.12848 9.72095 7.27203 9.23818 7.39577 8.92136C7.55911 8.49894 7.75215 8.19721 8.06398 7.87536C8.37581 7.55854 8.6728 7.36241 9.09352 7.19646C9.41031 7.07074 9.88053 6.9249 10.7517 6.88467C11.6971 6.83941 11.9792 6.82935 14.365 6.82935ZM14.365 5.18994C11.9347 5.18994 11.6327 5.2 10.6774 5.24526C9.72709 5.29052 9.07372 5.44138 8.50946 5.66768C7.92044 5.89901 7.42052 6.2108 6.92555 6.71369C6.43057 7.21658 6.12369 7.72449 5.89601 8.32293C5.67327 8.90125 5.52478 9.56003 5.48023 10.5256C5.43568 11.4961 5.42578 11.8029 5.42578 14.2721C5.42578 16.7413 5.43568 17.048 5.48023 18.0186C5.52478 18.9841 5.67327 19.6479 5.89601 20.2212C6.12369 20.8197 6.43057 21.3276 6.92555 21.8305C7.42052 22.3334 7.92044 22.6452 8.50946 22.8765C9.07867 23.1028 9.72709 23.2537 10.6774 23.2989C11.6327 23.3442 11.9347 23.3542 14.365 23.3542C16.7953 23.3542 17.0972 23.3442 18.0525 23.2989C19.0029 23.2537 19.6562 23.1028 20.2205 22.8765C20.8095 22.6452 21.3094 22.3334 21.8044 21.8305C22.2994 21.3276 22.6063 20.8197 22.8339 20.2212C23.0567 19.6429 23.2052 18.9841 23.2497 18.0186C23.2943 17.048 23.3042 16.7413 23.3042 14.2721C23.3042 11.8029 23.2943 11.4961 23.2497 10.5256C23.2052 9.56003 23.0567 8.89622 22.8339 8.32293C22.6063 7.72449 22.2994 7.21658 21.8044 6.71369C21.3094 6.2108 20.8095 5.89901 20.2205 5.66768C19.6513 5.44138 19.0029 5.29052 18.0525 5.24526C17.0972 5.2 16.7953 5.18994 14.365 5.18994Z" fill="white"/>
<path d="M14.3649 10.3799C11.5467 10.3799 9.25684 12.4106 9.25684 14.9209C9.25684 17.4263 11.5412 19.4619 14.3649 19.4619C17.1832 19.4619 19.4731 17.4312 19.4731 14.9209C19.4731 12.4106 17.1887 10.3799 14.3649 10.3799ZM14.3649 17.8667C12.532 17.8667 11.0513 16.5455 11.0513 14.9209C11.0513 13.2914 12.5375 11.9751 14.3649 11.9751C16.1979 11.9751 17.6786 13.2963 17.6786 14.9209C17.6786 16.5455 16.1979 17.8667 14.3649 17.8667Z" fill="white"/>
<path d="M18.8348 11.677C19.1874 11.677 19.4733 11.0961 19.4733 10.3796C19.4733 9.66312 19.1874 9.08228 18.8348 9.08228C18.4822 9.08228 18.1963 9.66312 18.1963 10.3796C18.1963 11.0961 18.4822 11.677 18.8348 11.677Z" fill="white"/>
</svg>
