<svg width="29" height="29" viewBox="0 0 29 29" fill="none" xmlns="http://www.w3.org/2000/svg">
<path d="M14.9526 28.544C22.7107 28.544 28.9999 22.1542 28.9999 14.272C28.9999 6.3898 22.7107 0 14.9526 0C7.19446 0 0.905273 6.3898 0.905273 14.272C0.905273 22.1542 7.19446 28.544 14.9526 28.544Z" fill="#323232"/>
<path d="M23.892 15.0795C23.892 13.9349 23.0171 13.0083 21.9362 13.0083C21.4075 13.0083 20.9303 13.2313 20.5793 13.588C19.2411 12.5673 17.3976 11.9034 15.3436 11.829L16.2372 7.3844L19.1522 8.03846C19.1897 8.82135 19.7933 9.45063 20.5419 9.45063C21.3139 9.45063 21.9409 8.78667 21.9409 7.96909C21.9409 7.15152 21.3139 6.48755 20.5419 6.48755C19.9945 6.48755 19.5219 6.82449 19.2926 7.31503L16.0407 6.58169C15.9518 6.56187 15.8536 6.58169 15.7787 6.63124C15.6992 6.68575 15.6477 6.76998 15.629 6.86413L14.6324 11.8191C12.5502 11.8786 10.6739 12.5425 9.32171 13.5732C8.97078 13.2164 8.49353 12.9935 7.96948 12.9935C6.88864 12.9935 6.01367 13.92 6.01367 15.0646C6.01367 15.907 6.49093 16.6304 7.16938 16.9525C7.14131 17.1606 7.12259 17.3687 7.12259 17.5818C7.12259 20.7728 10.6271 23.3543 14.9505 23.3543C19.2739 23.3543 22.7785 20.7678 22.7785 17.5818C22.7785 17.3737 22.7644 17.1656 22.7317 16.9574C23.4148 16.6502 23.892 15.9218 23.892 15.0795ZM10.4727 16.561C10.4727 15.7435 11.0997 15.0795 11.8717 15.0795C12.6438 15.0795 13.2708 15.7435 13.2708 16.561C13.2708 17.3786 12.6438 18.0426 11.8717 18.0426C11.0997 18.0376 10.4727 17.3737 10.4727 16.561ZM18.2679 20.4705C17.3134 21.4813 15.4839 21.5606 14.9458 21.5606C14.4078 21.5606 12.5783 21.4813 11.6238 20.4705C11.4834 20.3219 11.4834 20.0791 11.6238 19.9255C11.7641 19.7768 11.9934 19.7768 12.1385 19.9255C12.742 20.5647 14.0288 20.7876 14.9458 20.7876C15.8629 20.7876 17.1496 20.5597 17.7532 19.9255C17.8936 19.7768 18.1229 19.7768 18.2679 19.9255C18.4083 20.0791 18.4083 20.3219 18.2679 20.4705ZM18.0199 18.0376C17.2479 18.0376 16.6209 17.3737 16.6209 16.5561C16.6209 15.7385 17.2479 15.0745 18.0199 15.0745C18.792 15.0745 19.4189 15.7385 19.4189 16.5561C19.4189 17.3737 18.792 18.0376 18.0199 18.0376Z" fill="white"/>
</svg>
