<svg width="29" height="29" viewBox="0 0 29 29" fill="none" xmlns="http://www.w3.org/2000/svg">
<path d="M14.0473 28.544C21.8054 28.544 28.0946 22.1542 28.0946 14.272C28.0946 6.3898 21.8054 0 14.0473 0C6.28919 0 0 6.3898 0 14.272C0 22.1542 6.28919 28.544 14.0473 28.544Z" fill="#323232"/>
<path d="M9.83999 15.8878L6.66735 14.847C6.66735 14.847 6.28664 14.6917 6.40901 14.3402C6.4362 14.2672 6.48606 14.2078 6.63563 14.0983C7.33814 13.6052 19.648 9.14969 19.648 9.14969C19.648 9.14969 19.997 9.03099 20.2009 9.1086C20.2961 9.14512 20.355 9.18621 20.4049 9.33229C20.423 9.38707 20.4321 9.5012 20.4321 9.61533C20.4321 9.6975 20.423 9.77511 20.4139 9.8938C20.3369 11.1127 18.0934 20.2064 18.0934 20.2064C18.0934 20.2064 17.9574 20.7405 17.477 20.7588C17.3002 20.7634 17.0872 20.7314 16.8334 20.5077C15.8907 19.6906 12.6274 17.481 11.9067 16.9971C11.8659 16.9697 11.8523 16.9332 11.8478 16.9013C11.8387 16.851 11.8931 16.7871 11.8931 16.7871C11.8931 16.7871 17.5722 11.7016 17.7263 11.1675C17.7399 11.1264 17.6945 11.1036 17.6356 11.1218C17.2594 11.2633 10.7193 15.4222 9.99409 15.8832C9.95783 15.9061 9.83999 15.8878 9.83999 15.8878Z" fill="white"/>
</svg>
