<svg width="441" height="361" viewBox="0 0 441 361" fill="none" xmlns="http://www.w3.org/2000/svg">
<path d="M147.864 0H70.9525C64.5475 0 59.3555 5.192 59.3555 11.597V67.648C59.3555 74.053 64.5475 79.246 70.9525 79.246H112.99V98.608L128.722 79.246H147.864C154.269 79.246 159.461 74.054 159.461 67.648V11.597C159.461 5.192 154.269 0 147.864 0ZM78.6415 43.476C75.9205 43.476 73.7155 41.27 73.7155 38.55C73.7155 35.829 75.9215 33.623 78.6415 33.623C81.3665 33.623 83.5675 35.829 83.5675 38.55C83.5675 41.27 81.3665 43.476 78.6415 43.476ZM109.373 43.476C106.652 43.476 104.446 41.27 104.446 38.55C104.446 35.829 106.652 33.623 109.373 33.623C112.098 33.623 114.298 35.829 114.298 38.55C114.298 41.27 112.097 43.476 109.373 43.476ZM140.104 43.476C137.383 43.476 135.178 41.27 135.178 38.55C135.178 35.829 137.384 33.623 140.104 33.623C142.829 33.623 145.03 35.829 145.03 38.55C145.03 41.27 142.829 43.476 140.104 43.476Z" fill="#0FA58F"/>
<path d="M412.579 102.592C412.579 71.4683 387.35 46.2354 356.226 46.2354C325.101 46.2354 299.872 71.4673 299.872 102.592C299.872 133.714 325.101 158.946 356.226 158.946C369.45 158.946 381.583 154.36 391.196 146.733L409.113 154.403L403.014 134.008C409.052 125.03 412.579 114.224 412.579 102.592ZM326.985 109.782C323.965 109.782 321.52 107.338 321.52 104.323C321.52 101.308 323.965 98.8643 326.985 98.8643C330 98.8643 332.439 101.308 332.439 104.323C332.439 107.338 330 109.782 326.985 109.782ZM356.071 109.782C353.055 109.782 350.611 107.338 350.611 104.323C350.611 101.308 353.055 98.8643 356.071 98.8643C359.091 98.8643 361.529 101.308 361.529 104.323C361.529 107.338 359.091 109.782 356.071 109.782ZM385.16 109.782C382.146 109.782 379.702 107.338 379.702 104.323C379.702 101.308 382.146 98.8643 385.16 98.8643C388.176 98.8643 390.62 101.308 390.62 104.323C390.62 107.338 388.175 109.782 385.16 109.782Z" fill="#0FA58F"/>
<path opacity="0.5" d="M220.489 360.672C342.262 360.672 440.978 350.009 440.978 336.856C440.978 323.703 342.262 313.04 220.489 313.04C98.7163 313.04 0 323.703 0 336.856C0 350.009 98.7163 360.672 220.489 360.672Z" fill="#1FB29C"/>
<path d="M80.2143 231.28H117.725V257.696H80.2143V334.04H51.1543V149.124H128.027V175.541H80.2133L80.2143 231.28Z" fill="white"/>
<path d="M259.056 334.04H229.734L224.717 300.491H189.052L184.033 334.04H157.352L186.939 149.124H229.47L259.056 334.04ZM192.751 275.395H220.753L207.016 181.881H206.488L192.751 275.395Z" fill="white"/>
<path d="M296.307 193.504C296.307 163.918 311.893 147.011 340.424 147.011C368.953 147.011 384.539 163.918 384.539 193.504V289.66C384.539 299.963 382.69 308.681 378.991 315.549C380.312 318.982 382.424 319.512 387.181 319.512H389.822V345.4H385.86C372.916 345.4 364.726 340.646 360.763 332.719C354.95 334.833 348.081 336.155 340.423 336.155C311.892 336.155 296.306 319.248 296.306 289.661V193.504H296.307ZM325.368 291.509C325.368 304.717 331.177 309.736 340.425 309.736C349.67 309.736 355.482 304.716 355.482 291.509V191.654C355.482 178.447 349.671 173.427 340.425 173.427C331.177 173.427 325.368 178.447 325.368 191.654V291.509Z" fill="white"/>
<path d="M233.079 286.314C233.079 286.314 227.95 315.545 245.208 315.545C262.466 315.545 255.319 285.599 255.319 285.599L233.079 286.314Z" fill="#493A33"/>
<path d="M247.89 294.92H240.893V303.229H247.89V294.92Z" fill="#FECE9A"/>
<path d="M254.549 284.621C254.549 291.934 249.983 297.863 244.356 297.863C238.73 297.863 234.163 291.933 234.163 284.621C234.163 277.304 238.73 271.374 244.356 271.374C249.983 271.374 254.549 277.304 254.549 284.621Z" fill="#FECE9A"/>
<path d="M235.665 286.314C235.665 287.254 235.085 288.01 234.371 288.01C233.658 288.01 233.079 287.253 233.079 286.314C233.079 285.378 233.658 284.621 234.371 284.621C235.085 284.621 235.665 285.378 235.665 286.314Z" fill="#FECE9A"/>
<path d="M255.444 286.314C255.444 287.254 254.865 288.01 254.149 288.01C253.435 288.01 252.857 287.253 252.857 286.314C252.857 285.378 253.435 284.621 254.149 284.621C254.865 284.621 255.444 285.378 255.444 286.314Z" fill="#FECE9A"/>
<path d="M257.615 300.622L247.889 299.208C247.266 301.958 244.964 302.046 244.44 302.033V302.029C244.44 302.029 244.421 302.03 244.391 302.032C244.36 302.03 244.341 302.029 244.341 302.029V302.033C243.817 302.046 241.432 301.823 240.809 299.074L231.166 300.622L232.223 311.772C232.223 311.772 231.587 314.934 233.168 317.242C234.749 319.551 231.899 334.972 231.899 334.972H256.88C256.88 334.972 254.029 319.55 255.611 317.242C257.191 314.934 256.555 311.772 256.555 311.772L257.615 300.622Z" fill="#EC5CAB"/>
<path d="M256.861 334.973H244.15H231.92C231.92 334.973 230.186 345.778 235.738 345.778C241.289 345.778 244.15 345.778 244.15 345.778C244.15 345.778 247.493 345.778 253.044 345.778C258.595 345.777 256.861 334.973 256.861 334.973Z" fill="#113863"/>
<path d="M221.198 348.012C221.198 348.012 214.077 349.297 214.474 352.367C214.87 355.437 222.76 354.295 222.76 354.295L221.198 348.012Z" fill="#2C2C35"/>
<path d="M220.041 347.99C220.041 347.99 267.753 329.437 271.687 339.475C275.62 349.513 221.335 354.952 221.335 354.952L220.041 347.99Z" fill="#063C82"/>
<path d="M269.974 348.012C269.974 348.012 277.095 349.297 276.699 352.367C276.302 355.437 268.412 354.295 268.412 354.295L269.974 348.012Z" fill="#2C2C35"/>
<path d="M271.132 347.99C271.132 347.99 223.42 329.437 219.487 339.475C215.555 349.513 269.838 354.952 269.838 354.952L271.132 347.99Z" fill="#2A66A8"/>
<path d="M233.331 326.58C231.792 326.083 230.867 324.449 230.306 323.037C229.189 320.23 229.031 317.041 229.255 314.061C229.429 311.754 230.347 309.546 231.651 307.659C231.88 307.327 231.149 307.019 231.426 306.723L229.882 304.02C227.164 306.814 225.814 310.833 225.525 314.653C225.123 319.98 226.407 328.214 232.349 330.133C234.617 330.866 235.583 327.308 233.331 326.58Z" fill="#FECE9A"/>
<path d="M231.168 300.622C231.168 300.622 227.725 302.101 226.344 306.509L232.047 310.068L231.168 300.622Z" fill="#DD1D90"/>
<path d="M255.277 326.58C256.816 326.083 257.74 324.449 258.301 323.037C259.418 320.23 259.577 317.041 259.351 314.061C259.178 311.754 258.714 310.244 257.412 308.356C257.183 308.024 258.46 307.019 258.183 306.723L258.727 304.02C261.446 306.814 262.795 310.833 263.084 314.653C263.486 319.98 262.201 328.214 256.259 330.133C253.991 330.866 253.025 327.308 255.277 326.58Z" fill="#FECE9A"/>
<path d="M257.615 300.622C257.615 300.622 260.883 302.101 262.264 306.509L256.562 310.068L257.615 300.622Z" fill="#DD1D90"/>
<path d="M264.455 335.907C264.455 336.561 263.924 337.092 263.27 337.092H225.738C225.082 337.092 224.551 336.562 224.551 335.907C224.551 335.252 225.081 334.721 225.738 334.721H263.27C263.924 334.722 264.455 335.252 264.455 335.907Z" fill="#DFE8F7"/>
<path d="M259.716 334.149C259.614 335.769 258.204 337.092 256.583 337.092H232.426C230.803 337.092 229.394 335.769 229.292 334.149L226.186 318.487C226.084 316.869 227.329 315.546 228.95 315.546H260.057C261.677 315.546 262.921 316.869 262.822 318.487L259.716 334.149Z" fill="#D5DDEF"/>
<path d="M248.352 327.14C248.352 329.267 246.627 330.991 244.502 330.991C242.374 330.991 240.649 329.267 240.649 327.14C240.649 325.014 242.374 323.289 244.502 323.289C246.628 323.289 248.352 325.014 248.352 327.14Z" fill="#F0F6FF"/>
<path d="M234.371 284.621C234.371 284.621 239.046 282.58 240.892 278.705C240.892 278.705 241.239 281.83 239.114 283.455C239.114 283.455 245.717 282.83 248.353 279.33C248.353 279.33 251.059 282.912 254.149 284.621L255.319 285.599C255.319 285.599 256.325 269.955 244.844 269.955C233.364 269.955 233.203 285.599 233.203 285.599L234.371 284.621Z" fill="#493A33"/>
<path d="M291.952 192.918C291.952 192.918 294.441 192.163 295.731 191.019L300.926 191.566C300.926 191.566 301.705 193.019 301.87 194.664C301.87 194.664 293.245 197.578 291.952 192.918Z" fill="#F8C7A2"/>
<path d="M291.952 192.918C291.952 192.918 293.349 195.157 301.871 194.663C301.871 194.663 302.43 197.036 301.532 197.875C300.633 198.713 286.266 197.651 286.593 196.295C286.924 194.94 290.831 193.599 291.952 192.918Z" fill="#231816"/>
<path d="M347.003 134.157C347.003 134.157 347.003 151.18 333.456 151.891C322.184 152.483 310.33 158.501 310.33 158.501L302.495 192.447H292.945C292.945 192.447 295.399 157.147 299.334 150.608C304.707 141.68 330.504 132.225 330.504 132.225L347.003 134.157Z" fill="#5874B7"/>
<path d="M331.408 87.8933L331.991 97.4973C331.991 97.4973 336.95 95.0723 338.486 92.2873L336.112 85.9043L331.408 87.8933Z" fill="#FFC89F"/>
<path d="M331.929 96.4761L338.176 91.4551C338.176 91.4551 342.006 93.4151 345.188 98.0461C358.06 116.787 344.191 146.063 344.191 146.063C344.191 146.063 333.136 140.322 327.02 133.591C327.02 133.591 321.843 104.775 331.929 96.4761Z" fill="#FFA33E"/>
<path d="M319.285 76.9675C319.285 76.9675 322.945 73.3045 326.284 72.1585C329.625 71.0085 333.518 76.4925 333.518 76.4925C333.682 74.9255 336.083 75.6795 337.113 76.7765C338.134 77.8745 336.57 79.5395 336.57 79.5395C336.57 79.5395 340.318 83.7665 339.187 86.7615C338.059 89.7625 331.766 92.9185 329.005 92.3795C327.319 92.0505 325.571 89.9415 324.267 87.7475C323.879 88.0065 323.441 88.2075 323.194 87.9805C322.862 87.6855 322.303 85.8975 321.877 83.8755C321.846 83.7895 319.285 76.9675 319.285 76.9675Z" fill="#F8C7A2"/>
<path d="M315.499 76.4147C315.499 76.4147 317.917 78.8517 320.714 77.3647C323.511 75.8787 326.733 73.7377 329.731 75.4227C332.729 77.1037 333.717 76.6517 333.717 76.6517C333.717 76.6517 333.873 74.7647 335.493 75.7717C337.113 76.7757 337.677 78.5547 336.559 79.1597C336.559 79.1597 337.77 83.4837 339.236 84.3037C339.236 84.3037 342.358 79.4637 339.988 74.6797C337.618 69.8967 333.758 66.2827 329.779 66.3077C325.801 66.3337 318.252 75.4547 315.499 76.4147Z" fill="#724751"/>
<path d="M308.478 94.4199C308.478 94.4199 308.212 94.4259 307.818 94.8969C307.296 95.5349 307.478 97.5039 307.976 98.1669C308.466 98.8259 314.757 104.854 315.884 105.106C317.007 105.341 317.217 104.297 317.217 104.297L308.478 94.4199Z" fill="#454375"/>
<path d="M317.183 104.004C317.183 104.004 311.878 101.164 309.01 97.3829C308.272 96.3919 307.739 94.5069 308.478 94.4199C309.225 94.3369 315.978 99.5979 316.29 100.195C316.596 100.785 318.192 103.656 317.183 104.004Z" fill="#A2EDE2"/>
<mask id="mask0_3687_54" style="mask-type:luminance" maskUnits="userSpaceOnUse" x="308" y="94" width="10" height="11">
<path d="M317.183 104.004C317.183 104.004 311.878 101.164 309.01 97.3829C308.272 96.3919 307.739 94.5069 308.478 94.4199C309.225 94.3369 315.978 99.5979 316.29 100.195C316.596 100.785 318.192 103.656 317.183 104.004Z" fill="white"/>
</mask>
<g mask="url(#mask0_3687_54)">
<g opacity="0.4">
<path d="M314.574 95.5798C314.574 95.5798 306.63 98.0118 306.205 98.6198C305.784 99.2228 307.632 99.4438 307.632 99.4438C307.632 99.4438 315.817 96.4528 315.996 95.9888C316.18 95.5178 314.574 95.5798 314.574 95.5798Z" fill="#CCFFF6"/>
<path d="M317.162 96.907C317.162 96.907 309.668 99.39 309.124 99.879C308.584 100.366 310.109 100.385 310.109 100.385C310.109 100.385 317.966 97.447 318.257 97.082C318.544 96.714 317.162 96.907 317.162 96.907Z" fill="#CCFFF6"/>
<path d="M320.523 98.9146C320.523 98.9146 312.829 101.166 312.452 101.764C312.075 102.361 313.983 102.636 313.983 102.636C313.983 102.636 321.762 99.8096 321.906 99.3466C322.055 98.8816 320.523 98.9146 320.523 98.9146Z" fill="#CCFFF6"/>
</g>
</g>
<path d="M331.764 104.152C331.764 104.152 329.366 109.528 328.413 114.368C328.413 114.368 321.106 108.332 317.714 106.018C317.714 106.018 317.995 103.682 317.762 103.28C317.534 102.877 316.358 101.743 315.871 102.214C315.387 102.684 316.852 104.058 316.852 104.058C316.852 104.058 316.698 105.095 315.833 104.366C314.973 103.633 313.958 102.264 313.575 101.302C313.575 101.302 312.798 100.311 312.132 101.784C311.471 103.256 313.005 106.736 315.768 108.557C315.768 108.557 320.793 118.304 329.707 120.76C329.707 120.76 335.311 115.917 338.083 107.283L331.764 104.152Z" fill="#F8C7A2"/>
<path d="M330.08 104.612C330.597 103.092 331.141 101.711 331.629 100.921C333.188 98.4057 335.283 94.4837 339.388 95.7807C343.005 96.9257 341.996 104.169 339.758 109.656C336.767 108.752 332.856 107.18 330.08 104.612Z" fill="#F4891E"/>
<path d="M416.102 342.234C416.102 342.234 413.909 341.26 412.861 340.064L408.049 339.974C408.049 339.974 407.169 341.211 406.829 342.694C406.829 342.694 414.384 346.34 416.102 342.234Z" fill="#F8C7A2"/>
<path d="M416.102 342.233C416.102 342.233 414.573 344.119 406.83 342.693C406.83 342.693 406.052 344.804 406.776 345.671C407.505 346.539 420.763 347.202 420.617 345.929C420.471 344.652 417.049 342.978 416.102 342.233Z" fill="#3F4B71"/>
<path d="M399.426 341.352C399.426 341.352 397.232 340.379 396.184 339.182L391.373 339.093C391.373 339.093 390.493 340.329 390.153 341.812C390.153 341.812 397.708 345.459 399.426 341.352Z" fill="#F8C7A2"/>
<path d="M399.426 341.352C399.426 341.352 397.897 343.238 390.153 341.812C390.153 341.812 389.375 343.923 390.099 344.79C390.827 345.658 404.086 346.322 403.94 345.049C403.795 343.772 400.373 342.098 399.426 341.352Z" fill="#3F4B71"/>
<path d="M403.586 258.554C403.586 258.554 405.151 298.731 404.575 301.519C403.997 304.304 399.012 340.93 399.012 340.93L389.712 340.769C389.712 340.769 392.51 303.272 391.937 298.236C391.36 293.204 384.917 261.352 384.917 261.352L403.586 258.554Z" fill="#2F2F5E"/>
<path d="M386.99 257.983C386.99 257.983 380.744 268.867 387.114 276.994C393.477 285.116 404.15 305.614 404.15 305.614L406.982 341.212L415.194 341.5L415.75 300.855L406.288 264.554L386.99 257.983Z" fill="#454375"/>
<path d="M391.997 192.662C391.997 192.662 398.927 191.729 400.251 197.496C401.202 201.667 400.839 204.327 401.437 206.691C402.029 209.063 401.058 214.942 394.844 214.739C388.633 214.528 384.336 211.346 383.968 204.054C383.607 196.766 386.846 192.891 391.997 192.662Z" fill="#F8C7A2"/>
<path d="M395.404 213.51L396.648 223.139C396.648 223.139 391.278 221.672 389.235 219.204L390.376 212.435L395.404 213.51Z" fill="#F8C7A2"/>
<path d="M395.842 216.896C395.842 216.896 401.902 225.03 404.665 228.001C407.432 230.978 407.942 234.007 405.844 237.136C403.753 240.26 404.17 252.767 407.864 263.835C407.864 263.835 393.288 268.277 382.261 264.937C382.261 264.937 386.894 249.64 386.935 247.21C386.977 244.775 382.953 226.081 389.614 217.653C389.614 217.653 393.434 219.465 395.842 216.896Z" fill="#FC6343"/>
<path d="M400.001 194.514C400.001 194.514 397.058 200.64 392.456 203.147C392.456 203.147 391.709 201.238 390.153 202.077C388.595 202.916 390.58 205.579 391.644 205.35C391.644 205.35 388.78 210.635 386.161 210.885C386.161 210.885 382.176 208.301 382.622 201.864C383.066 195.422 389.07 186.171 400.001 194.514Z" fill="#D36011"/>
<path d="M386.614 194.955C386.614 194.955 386.614 192.066 381.864 192.448C377.114 192.83 377.114 200.955 378.489 204.955C379.864 208.955 380.114 215.033 378.739 214.744C378.739 214.744 389.114 211.33 386.614 194.955Z" fill="#D36011"/>
<path d="M411.612 200.097C411.612 200.097 411.808 199.918 412.419 199.987C413.236 200.089 414.463 201.64 414.56 202.464C414.66 203.279 414.261 211.983 413.62 212.943C412.97 213.888 412.097 213.277 412.097 213.277L411.612 200.097Z" fill="#454375"/>
<path d="M411.92 213.039C411.92 213.039 413.802 207.324 413.271 202.608C413.121 201.38 412.208 199.648 411.613 200.095C411.015 200.55 409.754 209.017 409.94 209.664C410.124 210.304 410.949 213.483 411.92 213.039Z" fill="#A2EDE2"/>
<mask id="mask1_3687_54" style="mask-type:luminance" maskUnits="userSpaceOnUse" x="409" y="200" width="5" height="14">
<path d="M411.92 213.039C411.92 213.039 413.802 207.324 413.271 202.608C413.121 201.38 412.208 199.648 411.613 200.095C411.015 200.55 409.754 209.017 409.94 209.664C410.124 210.304 410.949 213.483 411.92 213.039Z" fill="white"/>
</mask>
<g mask="url(#mask1_3687_54)">
<g opacity="0.4">
<path d="M408 205.142C408 205.142 415.43 201.423 416.156 201.57C416.877 201.716 415.691 203.151 415.691 203.151C415.691 203.151 407.702 206.63 407.251 206.419C406.794 206.204 408 205.142 408 205.142Z" fill="#CCFFF6"/>
<path d="M407.04 207.886C407.04 207.886 414.18 204.516 414.91 204.494C415.637 204.474 414.546 205.54 414.546 205.54C414.546 205.54 406.83 208.83 406.368 208.767C405.906 208.699 407.04 207.886 407.04 207.886Z" fill="#CCFFF6"/>
<path d="M405.992 211.658C405.992 211.658 413.116 207.981 413.8 208.153C414.486 208.326 413.293 209.841 413.293 209.841C413.293 209.841 405.711 213.16 405.287 212.923C404.86 212.691 405.992 211.658 405.992 211.658Z" fill="#CCFFF6"/>
</g>
</g>
<path d="M401.464 223.205C401.464 223.205 406.909 225.443 410.937 228.291C410.937 228.291 412.064 218.881 412.925 214.865C412.925 214.865 411.11 213.368 411.001 212.915C410.888 212.467 410.958 210.834 411.635 210.84C412.309 210.846 412.196 212.852 412.196 212.852C412.196 212.852 413.023 213.497 413.146 212.372C413.262 211.248 413.054 209.558 412.667 208.597C412.667 208.597 412.547 207.343 414.045 207.951C415.539 208.56 416.829 212.139 416.084 215.363C416.084 215.363 419.168 225.886 414.409 233.813C414.409 233.813 407.01 234.171 399.049 229.832L401.464 223.205Z" fill="#F8C7A2"/>
<path d="M403.001 222.376C401.578 221.631 400.231 221.006 399.334 220.771C396.47 220.025 392.248 218.63 390.171 222.401C388.341 225.724 394.068 230.273 399.473 232.703C401.013 229.985 402.761 226.15 403.001 222.376Z" fill="#ED3C20"/>
<path d="M77.0828 87.799L76.0498 99.348H99.4478L99.2158 86.834L77.0828 87.799Z" fill="#D36011"/>
<path d="M91.8935 96.4043H84.8965V104.713H91.8935V96.4043Z" fill="#FECE9A"/>
<path d="M98.552 86.1064C98.552 93.4194 93.987 99.3484 88.359 99.3484C82.733 99.3484 78.166 93.4184 78.166 86.1064C78.166 78.7894 82.733 72.8594 88.359 72.8594C93.987 72.8584 98.552 78.7884 98.552 86.1064Z" fill="#FECE9A"/>
<path d="M79.669 87.7994C79.669 88.7384 79.089 89.4954 78.375 89.4954C77.662 89.4954 77.083 88.7384 77.083 87.7994C77.083 86.8624 77.662 86.1064 78.375 86.1064C79.089 86.1064 79.669 86.8624 79.669 87.7994Z" fill="#FECE9A"/>
<path d="M99.4483 87.7994C99.4483 88.7384 98.8693 89.4954 98.1533 89.4954C97.4393 89.4954 96.8613 88.7384 96.8613 87.7994C96.8613 86.8624 97.4393 86.1064 98.1533 86.1064C98.8693 86.1064 99.4483 86.8624 99.4483 87.7994Z" fill="#FECE9A"/>
<path d="M101.619 102.107L91.8929 100.693C91.2699 103.443 88.9679 103.531 88.4439 103.518V103.514C88.4439 103.514 88.4249 103.515 88.3949 103.517C88.3639 103.515 88.3449 103.514 88.3449 103.514V103.518C87.8209 103.531 85.4359 103.308 84.8129 100.559L75.1699 102.107L76.2269 113.257C76.2269 113.257 75.5909 116.419 77.1719 118.727C78.7529 121.036 75.9029 136.457 75.9029 136.457H100.884C100.884 136.457 98.0329 121.035 99.6149 118.727C101.195 116.419 100.559 113.257 100.559 113.257L101.619 102.107Z" fill="#2247E0"/>
<path d="M100.865 136.457H88.1543H75.9243C75.9243 136.457 74.1903 147.262 79.7423 147.262C85.2933 147.262 88.1543 147.262 88.1543 147.262C88.1543 147.262 91.4973 147.262 97.0483 147.262C102.599 147.262 100.865 136.457 100.865 136.457Z" fill="#113863"/>
<path d="M65.1279 144.8C65.1279 144.8 57.8918 144.88 57.7728 147.974C57.6518 151.067 65.6209 151.256 65.6209 151.256L65.1279 144.8Z" fill="#2C2C35"/>
<path d="M63.9912 144.586C63.9912 144.586 114.128 134.248 116.333 144.802C118.537 155.356 64.1062 151.666 64.1062 151.666L63.9912 144.586Z" fill="#1C94C4"/>
<path d="M94.8671 185.024C94.8671 185.024 98.1311 191.482 95.4411 193.015C92.7501 194.546 88.9111 187.56 88.9111 187.56L94.8671 185.024Z" fill="#2C2C35"/>
<path d="M95.5816 185.936C95.5816 185.936 81.6556 136.674 71.2736 139.582C60.8926 142.488 89.2446 189.097 89.2446 189.097L95.5816 185.936Z" fill="#3DC0F4"/>
<path d="M99.9762 139.139C99.9762 140.399 98.9461 141.429 97.6901 141.429H78.8632C77.6052 141.429 76.5771 140.399 76.5771 139.139V117.175C76.5771 115.917 77.6052 114.887 78.8632 114.887H97.6901C98.9461 114.887 99.9762 115.917 99.9762 117.175V139.139Z" fill="#BDC7D6"/>
<path d="M99.9762 140.665C99.9762 141.921 98.9461 142.951 97.6901 142.951H78.8632C77.6052 142.951 76.5771 141.921 76.5771 140.665V118.698C76.5771 117.44 77.6052 116.412 78.8632 116.412H97.6901C98.9461 116.412 99.9762 117.44 99.9762 118.698V140.665Z" fill="#D1D8E5"/>
<path d="M88.2776 132.866C90.3327 132.866 91.9986 131.2 91.9986 129.145C91.9986 127.09 90.3327 125.424 88.2776 125.424C86.2226 125.424 84.5566 127.09 84.5566 129.145C84.5566 131.2 86.2226 132.866 88.2776 132.866Z" fill="#BDC7D6"/>
<path d="M75.1707 102.106C75.1707 102.106 71.7277 103.586 70.3467 107.993L76.0497 111.553L75.1707 102.106Z" fill="#2247E0"/>
<path d="M101.618 102.106C101.618 102.106 104.886 103.586 106.267 107.993L100.565 111.553L101.618 102.106Z" fill="#2247E0"/>
<path d="M78.3751 86.106C78.3751 86.106 89.489 84.707 93.323 80.54C93.323 80.54 94.3181 84.007 98.1541 86.106L99.217 86.835C99.217 86.835 100.232 71.04 88.2781 71.04C76.3241 71.04 77.16 87.243 77.16 87.243L78.3751 86.106Z" fill="#D36011"/>
<path d="M74.4708 110.567C74.4708 110.567 71.4058 121.122 71.4888 122.705C71.5718 124.289 75.9438 127.038 76.0498 127.122C76.1558 127.205 76.8458 124.976 77.4588 125.424C78.0728 125.872 77.4588 127.455 77.4588 127.455C77.4588 127.455 80.1558 128.242 80.0728 129.682C79.9898 131.122 78.7768 133.288 76.0498 132.122C73.3228 130.955 67.5728 126.122 66.9888 123.539C66.4048 120.955 70.8208 108.29 70.8208 108.29L74.4708 110.567Z" fill="#FECE9A"/>
<path d="M101.916 110.71C101.916 110.71 104.937 121.122 104.854 122.705C104.771 124.289 100.399 127.038 100.293 127.122C100.187 127.205 99.4984 124.976 98.8844 125.424C98.2704 125.872 98.8844 127.455 98.8844 127.455C98.8844 127.455 96.1874 128.242 96.2704 129.682C96.3544 131.122 97.5664 133.288 100.293 132.122C103.02 130.955 108.77 126.122 109.354 123.539C109.938 120.955 105.553 108.439 105.553 108.439L101.916 110.71Z" fill="#FECE9A"/>
<path d="M215.304 115.551C215.304 115.551 216.076 126.81 217.034 127.687C217.993 128.564 226.446 137.559 226.446 137.559L226.05 141.347C226.05 141.347 215.018 134.096 211.949 131.092C208.88 128.087 210.038 116.358 210.038 116.358L215.304 115.551Z" fill="#FECE9A"/>
<path d="M208.66 116.373C208.66 116.373 208.072 106.943 212.154 106.225C216.236 105.506 216.876 113.655 216.964 114.97C216.964 114.97 213.773 116.461 208.66 116.373Z" fill="#A254FC"/>
<path d="M223.363 184.602C223.363 184.602 221.044 183.147 220.051 181.629L214.624 180.749C214.624 180.749 213.431 182.01 212.809 183.634C212.809 183.634 220.763 188.976 223.363 184.602Z" fill="#F8C7A2"/>
<path d="M223.363 184.602C223.363 184.602 221.326 186.49 212.809 183.634C212.809 183.634 211.586 185.889 212.267 186.989C212.949 188.089 227.831 190.977 227.873 189.509C227.911 188.042 224.314 185.603 223.363 184.602Z" fill="#231816"/>
<path d="M235.367 182.805C235.367 182.805 233.047 181.35 232.054 179.832L226.627 178.952C226.627 178.952 225.434 180.213 224.811 181.837C224.811 181.837 232.766 187.179 235.367 182.805Z" fill="#F8C7A2"/>
<path d="M235.367 182.805C235.367 182.805 233.33 184.693 224.812 181.837C224.812 181.837 223.589 184.092 224.27 185.192C224.952 186.292 239.833 189.18 239.875 187.713C239.914 186.245 236.317 183.806 235.367 182.805Z" fill="#231816"/>
<path d="M206.067 100.95H199.754V108.447H206.067V100.95Z" fill="#FCBD92"/>
<path d="M213.045 106.484C213.045 106.484 209.987 106.245 206.14 106.18C206.125 106.217 206.155 106.249 206.14 106.286C204.25 110.746 199.754 106.286 199.754 106.286C197.329 106.425 195.017 106.7 193.26 107.197C193.26 107.197 185.721 121.489 192.791 139.563C192.791 139.563 193.315 142.18 199.031 142.18C204.748 142.18 212.737 142.984 213.382 140.752C214.156 138.075 210.806 122.22 213.045 106.484Z" fill="#9636F2"/>
<path d="M192.791 139.563C192.791 139.563 192.214 147.782 199.192 149.79C206.171 151.799 219.5 149.79 219.5 149.79C219.5 149.79 214.067 145.091 213.5 139.017C213.5 139.017 197.121 139.743 192.791 139.563Z" fill="#454375"/>
<path d="M227.691 153.659C227.68 154.232 227.656 154.805 227.63 155.376C227.229 163.703 226.189 172.033 225.137 180.313L233.913 181.352C235.102 172.114 236.433 162.752 236.601 153.452C236.712 147.341 232.02 145.662 226.959 143.891C222.38 142.29 217.672 140.997 212.969 139.81C207.4 138.402 205.038 146.991 210.602 148.397C214.743 149.443 218.861 150.608 222.925 151.92C224.799 152.525 226.296 152.985 227.691 153.659ZM227.664 152.257C227.604 151.856 227.492 151.504 227.664 152.257Z" fill="#2F2F5E"/>
<path d="M215.483 155.126C215.471 155.698 215.449 156.271 215.421 156.842C215.021 165.169 213.98 173.499 212.928 181.779L221.704 182.818C222.895 173.58 224.225 164.218 224.393 154.917C224.506 148.807 219.812 147.128 214.749 145.358C210.169 143.756 205.462 142.463 200.76 141.276C195.189 139.868 192.828 148.457 198.392 149.863C202.534 150.909 206.651 152.074 210.715 153.386C212.592 153.991 214.086 154.451 215.483 155.126ZM215.455 153.723C215.396 153.321 215.284 152.969 215.455 153.723Z" fill="#454375"/>
<path d="M231.024 142.566L230.871 141.163L229.333 141.332L223.444 138.22C222.311 137.62 220.34 137.244 219.065 137.385L199.35 139.559L199.244 138.607L195.598 139.008L195.755 140.436V140.437L195.756 140.442C195.785 140.667 196.042 140.927 196.534 141.187L203.335 144.783C204.469 145.383 206.44 145.759 207.714 145.618L229.991 143.161C230.681 143.085 231.029 142.872 231.024 142.598L231.029 142.597L231.024 142.566Z" fill="#E8DFCD"/>
<path d="M230.09 140.389C231.225 140.989 231.11 141.593 229.833 141.734L207.557 144.191C206.283 144.332 204.311 143.956 203.177 143.356L196.376 139.76C195.242 139.161 195.358 138.555 196.632 138.415L218.909 135.958C220.183 135.817 222.154 136.193 223.29 136.793L230.09 140.389Z" fill="#F4EFE4"/>
<path d="M201.242 139.555L199.949 139.696L198.885 139.16L200.177 139.018L201.242 139.555Z" fill="#E8DFCD"/>
<path d="M203.738 139.278L202.445 139.421L201.381 138.884L202.674 138.741L203.738 139.278Z" fill="#E8DFCD"/>
<path d="M206.235 139.004L204.943 139.147L203.878 138.609L205.172 138.467L206.235 139.004Z" fill="#E8DFCD"/>
<path d="M208.732 138.728L207.439 138.869L206.375 138.333L207.667 138.19L208.732 138.728Z" fill="#E8DFCD"/>
<path d="M211.228 138.453L209.935 138.596L208.871 138.06L210.163 137.916L211.228 138.453Z" fill="#E8DFCD"/>
<path d="M213.724 138.178L212.432 138.321L211.367 137.783L212.661 137.641L213.724 138.178Z" fill="#E8DFCD"/>
<path d="M216.221 137.901L214.928 138.044L213.865 137.507L215.157 137.365L216.221 137.901Z" fill="#E8DFCD"/>
<path d="M218.719 137.627L217.425 137.77L216.362 137.234L217.654 137.09L218.719 137.627Z" fill="#E8DFCD"/>
<path d="M221.215 137.352L219.921 137.494L218.857 136.956L220.15 136.814L221.215 137.352Z" fill="#E8DFCD"/>
<path d="M203.34 140.586L202.048 140.729L200.983 140.191L202.276 140.049L203.34 140.586Z" fill="#E8DFCD"/>
<path d="M205.837 140.31L204.544 140.452L203.48 139.916L204.772 139.773L205.837 140.31Z" fill="#E8DFCD"/>
<path d="M208.334 140.035L207.042 140.178L205.977 139.642L207.27 139.499L208.334 140.035Z" fill="#E8DFCD"/>
<path d="M210.83 139.761L209.538 139.902L208.473 139.366L209.767 139.223L210.83 139.761Z" fill="#E8DFCD"/>
<path d="M213.327 139.485L212.035 139.628L210.971 139.091L212.262 138.948L213.327 139.485Z" fill="#E8DFCD"/>
<path d="M215.823 139.209L214.531 139.353L213.466 138.816L214.76 138.673L215.823 139.209Z" fill="#E8DFCD"/>
<path d="M218.321 138.934L217.028 139.076L215.963 138.538L217.257 138.396L218.321 138.934Z" fill="#E8DFCD"/>
<path d="M220.817 138.66L219.524 138.802L218.461 138.266L219.753 138.122L220.817 138.66Z" fill="#E8DFCD"/>
<path d="M223.313 138.384L222.02 138.525L220.957 137.989L222.25 137.848L223.313 138.384Z" fill="#E8DFCD"/>
<path d="M205.261 141.638L203.969 141.78L202.904 141.244L204.197 141.102L205.261 141.638Z" fill="#E8DFCD"/>
<path d="M207.758 141.362L206.465 141.504L205.401 140.968L206.693 140.824L207.758 141.362Z" fill="#E8DFCD"/>
<path d="M210.255 141.087L208.961 141.229L207.896 140.692L209.19 140.551L210.255 141.087Z" fill="#E8DFCD"/>
<path d="M212.752 140.811L211.459 140.953L210.395 140.416L211.687 140.274L212.752 140.811Z" fill="#E8DFCD"/>
<path d="M215.248 140.537L213.956 140.68L212.891 140.143L214.184 139.999L215.248 140.537Z" fill="#E8DFCD"/>
<path d="M217.745 140.262L216.453 140.403L215.387 139.867L216.68 139.725L217.745 140.262Z" fill="#E8DFCD"/>
<path d="M220.241 139.984L218.949 140.127L217.884 139.591L219.178 139.448L220.241 139.984Z" fill="#E8DFCD"/>
<path d="M222.739 139.711L221.445 139.854L220.381 139.316L221.675 139.174L222.739 139.711Z" fill="#E8DFCD"/>
<path d="M225.235 139.435L223.942 139.577L222.877 139.04L224.17 138.898L225.235 139.435Z" fill="#E8DFCD"/>
<path d="M220.27 141.9L213.705 142.624L211.485 141.458L218.049 140.733L220.27 141.9Z" fill="#E8DFCD"/>
<path d="M230.546 141.732C230.643 142.613 229.999 143.416 229.115 143.512L206.484 146.008C205.601 146.106 204.799 145.463 204.701 144.58L207.25 130.001C207.152 129.118 207.794 128.315 208.677 128.219L231.31 125.723C232.194 125.626 232.996 126.268 233.094 127.151L230.546 141.732Z" fill="#EFE9DC"/>
<path d="M231.615 141.613C231.711 142.495 231.068 143.298 230.186 143.395L207.554 145.89C206.671 145.988 205.868 145.345 205.771 144.462L208.32 129.882C208.222 129 208.865 128.197 209.747 128.1L232.381 125.606C233.262 125.507 234.065 126.151 234.162 127.034L231.615 141.613Z" fill="#F8F5EC"/>
<path d="M223.706 135.367C223.706 137.191 222.412 138.673 220.817 138.673C219.224 138.673 217.93 137.192 217.93 135.367C217.93 133.542 219.224 132.062 220.817 132.062C222.412 132.062 223.706 133.542 223.706 135.367Z" fill="#E8DFCD"/>
<path d="M196.41 116.522C196.41 116.522 197.181 127.782 198.14 128.659C199.099 129.536 206.01 137.09 206.01 137.09L205.287 141.229C205.287 141.229 196.124 135.069 193.054 132.064C189.984 129.06 191.142 117.331 191.142 117.331L196.41 116.522Z" fill="#FECE9A"/>
<path d="M189.766 117.347C189.766 117.347 189.178 107.917 193.26 107.198C197.342 106.479 197.982 114.629 198.07 115.944C198.07 115.944 194.879 117.435 189.766 117.347Z" fill="#A254FC"/>
<path d="M211.489 90.9547C211.822 100.205 208.493 104.876 202.971 104.876C197.452 104.876 192.97 99.0587 192.97 91.8847C192.97 84.7057 197.452 78.8887 202.971 78.8887C208.493 78.8887 211.23 83.7807 211.489 90.9547Z" fill="#FECE9A"/>
<path d="M194.445 93.5458C194.445 94.4678 193.876 95.2098 193.176 95.2098C192.476 95.2098 191.908 94.4678 191.908 93.5458C191.908 92.6278 192.476 91.8848 193.176 91.8848C193.877 91.8848 194.445 92.6278 194.445 93.5458Z" fill="#FECE9A"/>
<path d="M192.346 92.299C192.346 92.299 190.02 85.192 191.708 83.561C193.396 81.929 194.482 81.813 194.482 81.813C194.482 81.813 194.562 78.434 196.893 77.618C199.224 76.802 205.4 78.085 207.497 78.317C209.595 78.55 213.44 78.201 213.44 78.201C213.44 78.201 215.304 84.726 210.759 85.543C206.215 86.358 198.366 85.775 198.366 85.775C198.366 85.775 196.307 93.463 192.346 92.299Z" fill="#D36011"/>
<path d="M46.7255 309.669C46.7255 309.669 45.7955 307.239 44.5615 306.035L44.7375 300.813C44.7375 300.813 46.1315 299.932 47.7595 299.651C47.7595 299.651 51.2825 308.048 46.7255 309.669Z" fill="#F8C7A2"/>
<path d="M46.7256 309.67C46.7256 309.67 48.8586 308.116 47.7596 299.651C47.7596 299.651 50.0866 298.924 50.9886 299.76C51.8886 300.597 51.8516 315.002 50.4766 314.773C49.0996 314.54 47.4846 310.739 46.7256 309.67Z" fill="#231816"/>
<path d="M35.0938 334.619C35.0938 334.619 37.5237 333.689 38.7277 332.455L43.9497 332.631C43.9497 332.631 44.8307 334.026 45.1117 335.654C45.1117 335.654 36.7148 339.176 35.0938 334.619Z" fill="#F8C7A2"/>
<path d="M35.094 334.619C35.094 334.619 36.647 336.752 45.112 335.653C45.112 335.653 45.839 337.98 45.003 338.881C44.166 339.78 29.761 339.743 29.99 338.368C30.223 336.994 34.025 335.378 35.094 334.619Z" fill="#231816"/>
<path d="M46.7257 249.67C46.7257 249.67 50.4627 255.563 46.7257 264.384C42.9887 273.205 43.0746 291.326 43.0316 296.891C42.9886 302.455 46.7257 334.04 46.7257 334.04H34.9887C34.9887 334.04 30.0877 300.663 29.9887 294.92C29.8897 289.177 32.9887 249.67 32.9887 249.67H46.7257Z" fill="#245B8E"/>
<path d="M48.5285 251.314C48.5285 251.314 50.8285 260.539 45.4915 265.872C40.1545 271.205 25.1545 279.539 24.1545 281.872C23.1545 284.205 46.8095 299.359 46.8095 299.359L44.5615 310.16C44.5615 310.16 8.34152 291.366 8.74852 282.619C9.15552 273.872 31.4095 249.67 31.4095 249.67L48.5285 251.314Z" fill="#2A66A8"/>
<path d="M35.125 196.137L35.708 205.741C35.708 205.741 40.667 203.316 42.203 200.531L39.829 194.148L35.125 196.137Z" fill="#FFC89F"/>
<path d="M35.6463 204.72L41.8933 199.699C41.8933 199.699 47.0243 200.995 48.9053 206.29C54.7223 222.671 49.2713 251.051 49.2713 251.051C49.2713 251.051 35.5243 256.401 29.4083 249.67C29.4083 249.67 25.5603 213.02 35.6463 204.72Z" fill="#454375"/>
<path d="M24.8369 178.969C24.8369 178.969 29.8589 175.863 33.8639 175.465C37.8729 175.064 40.7579 182.17 40.7579 182.17C41.3499 180.476 43.8169 181.941 44.6719 183.428C45.5169 184.913 43.3449 186.353 43.3449 186.353C43.3449 186.353 46.3979 192.025 44.3579 195.053C42.3189 198.088 34.5079 199.942 31.5859 198.619C29.7999 197.812 28.4139 195.014 27.5419 192.236C27.0429 192.422 26.5039 192.53 26.2889 192.215C25.9979 191.8 25.8469 189.669 25.9029 187.314C25.8919 187.211 24.8369 178.969 24.8369 178.969Z" fill="#F8C7A2"/>
<path d="M22.2715 178.893C22.2715 178.893 24.2165 180.808 27.4725 179.35C30.7275 177.892 38.0575 177.312 40.4495 182.414C40.4495 182.414 41.9875 180.98 43.0355 182.34C44.0835 183.7 43.4195 185.427 42.2695 185.583L45.0405 191.951C45.0405 191.951 48.0665 186.78 46.7295 181.927C45.3925 177.073 41.8115 171.208 33.2345 172.72C24.6565 174.232 22.2715 178.893 22.2715 178.893Z" fill="#724751"/>
<path d="M14.406 194.862C14.406 194.862 14.151 194.786 13.632 195.114C12.941 195.562 12.513 197.493 12.785 198.276C13.051 199.053 17.203 206.712 18.2 207.297C19.198 207.863 19.716 206.933 19.716 206.933L14.406 194.862Z" fill="#454375"/>
<path d="M19.771 206.645C19.771 206.645 15.586 202.322 14.008 197.846C13.608 196.676 13.675 194.719 14.405 194.863C15.142 195.011 19.968 202.081 20.082 202.746C20.195 203.4 20.839 206.621 19.771 206.645Z" fill="#A2EDE2"/>
<mask id="mask2_3687_54" style="mask-type:luminance" maskUnits="userSpaceOnUse" x="13" y="194" width="8" height="13">
<path d="M19.771 206.645C19.771 206.645 15.586 202.322 14.008 197.846C13.608 196.676 13.675 194.719 14.405 194.863C15.142 195.011 19.968 202.081 20.082 202.746C20.195 203.4 20.839 206.621 19.771 206.645Z" fill="white"/>
</mask>
<g mask="url(#mask2_3687_54)">
<g opacity="0.4">
<path d="M19.8569 197.826C19.8569 197.826 11.5489 197.719 10.9599 198.168C10.3749 198.613 12.0669 199.388 12.0669 199.388C12.0669 199.388 20.7739 199.036 21.0869 198.65C21.4059 198.257 19.8569 197.826 19.8569 197.826Z" fill="#CCFFF6"/>
<path d="M21.9155 199.88C21.9155 199.88 14.0205 199.958 13.3535 200.258C12.6905 200.557 14.1375 201.04 14.1375 201.04C14.1375 201.04 22.5155 200.638 22.9045 200.381C23.2905 200.117 21.9155 199.88 21.9155 199.88Z" fill="#CCFFF6"/>
<path d="M24.5047 202.816C24.5047 202.816 16.4907 202.612 15.9497 203.066C15.4077 203.52 17.1417 204.364 17.1417 204.364C17.1417 204.364 25.4127 204.047 25.6907 203.649C25.9737 203.253 24.5047 202.816 24.5047 202.816Z" fill="#CCFFF6"/>
</g>
</g>
<path d="M33.612 211.235C33.612 211.235 29.688 215.623 27.304 219.941C27.304 219.941 22.187 211.963 19.662 208.725C19.662 208.725 20.642 206.585 20.543 206.131C20.449 205.678 19.675 204.239 19.068 204.539C18.464 204.838 19.44 206.594 19.44 206.594C19.44 206.594 18.977 207.535 18.377 206.576C17.781 205.615 17.232 204.003 17.162 202.969C17.162 202.969 16.724 201.788 15.641 202.989C14.562 204.188 14.961 207.971 17.037 210.549C17.037 210.549 18.849 221.364 26.588 226.423C26.588 226.423 33.403 223.521 38.676 216.145L33.612 211.235Z" fill="#F8C7A2"/>
<path d="M31.8672 211.158C32.8232 209.868 33.7632 208.719 34.4682 208.116C36.7212 206.196 39.9122 203.1 43.4252 205.589C46.5212 207.782 43.3502 214.372 39.5442 218.915C36.9732 217.142 33.7282 214.45 31.8672 211.158Z" fill="#6161A3"/>
<path d="M253.053 99.7853C252.666 98.6233 252.473 97.3643 252.473 95.6213C252.473 90.1993 253.828 86.2293 257.992 80.3233C262.737 73.5453 264.092 69.0913 264.092 62.6033C264.092 57.7623 262.155 55.9223 258.766 55.9223C255.377 55.9223 253.44 57.7623 253.44 62.6033V69.9623H243.372V63.2813C243.372 52.4363 248.697 46.2393 259.059 46.2393C269.418 46.2393 274.744 52.4363 274.744 63.2813C274.744 70.5423 272.806 75.7713 267.58 82.7433C263.416 88.3583 262.156 91.6503 262.156 96.0083C262.156 97.2663 262.254 98.5263 262.543 99.7843H253.053V99.7853ZM262.833 104.529V114.793H252.569V104.529H262.833Z" fill="#0FA58F"/>
<path d="M137.768 233.754C137.555 233.113 137.449 232.42 137.449 231.46C137.449 228.473 138.196 226.285 140.489 223.031C143.103 219.297 143.85 216.842 143.85 213.268C143.85 210.601 142.783 209.586 140.916 209.586C139.049 209.586 137.982 210.601 137.982 213.268V217.323H132.435V213.642C132.435 207.666 135.369 204.251 141.078 204.251C146.786 204.251 149.72 207.666 149.72 213.642C149.72 217.642 148.653 220.523 145.773 224.365C143.479 227.459 142.785 229.272 142.785 231.673C142.785 232.366 142.839 233.061 142.998 233.754H137.768ZM143.156 236.367V242.022H137.501V236.367H143.156Z" fill="#0FA58F"/>
<path d="M429.123 199.2C428.921 198.595 428.82 197.94 428.82 197.034C428.82 194.212 429.526 192.145 431.693 189.072C434.162 185.545 434.868 183.226 434.868 179.851C434.868 177.331 433.858 176.374 432.095 176.374C430.332 176.374 429.324 177.332 429.324 179.851V183.68H424.085V180.203C424.085 174.559 426.855 171.334 432.248 171.334C437.639 171.334 440.41 174.56 440.41 180.203C440.41 183.981 439.402 186.703 436.681 190.331C434.515 193.254 433.858 194.967 433.858 197.233C433.858 197.888 433.91 198.545 434.06 199.199L429.123 199.2ZM434.213 201.669V207.011H428.871V201.669H434.213Z" fill="#0FA58F"/>
<path d="M222.219 31.4014C222.114 31.4014 222.014 31.4234 221.91 31.4314C221.469 29.1254 220.567 26.9814 219.294 25.1084C219.373 25.0434 219.458 24.9884 219.53 24.9144C220.79 23.6554 220.79 21.6164 219.533 20.3554C218.273 19.0974 216.231 19.0974 214.971 20.3554C214.899 20.4294 214.844 20.5134 214.779 20.5914C212.906 19.3184 210.762 18.4184 208.453 17.9794C208.464 17.8754 208.485 17.7754 208.485 17.6684C208.485 15.8874 207.042 14.4434 205.262 14.4434C203.481 14.4434 202.039 15.8864 202.039 17.6684C202.039 17.7744 202.059 17.8754 202.07 17.9794C199.762 18.4184 197.618 19.3194 195.744 20.5914C195.679 20.5134 195.624 20.4294 195.553 20.3554C194.292 19.0974 192.251 19.0974 190.991 20.3554C189.734 21.6164 189.734 23.6554 190.994 24.9144C191.067 24.9884 191.152 25.0434 191.231 25.1084C189.957 26.9814 189.056 29.1264 188.617 31.4344C188.515 31.4234 188.412 31.4014 188.306 31.4014C186.524 31.4014 185.083 32.8444 185.083 34.6264C185.083 36.4074 186.524 37.8494 188.306 37.8494C188.412 37.8494 188.514 37.8284 188.617 37.8194C189.056 40.1284 189.957 42.2694 191.231 44.1424C191.152 44.2074 191.067 44.2624 190.994 44.3364C189.734 45.5954 189.734 47.6374 190.994 48.8964C192.252 50.1554 194.293 50.1554 195.554 48.8964C195.625 48.8234 195.68 48.7374 195.745 48.6594C197.619 49.9324 199.763 50.8324 202.071 51.2714C202.061 51.3754 202.04 51.4774 202.04 51.5834C202.04 53.3634 203.482 54.8074 205.263 54.8074C207.043 54.8074 208.486 53.3644 208.486 51.5834C208.486 51.4784 208.465 51.3764 208.454 51.2714C210.763 50.8324 212.907 49.9324 214.78 48.6594C214.845 48.7374 214.9 48.8214 214.972 48.8954C216.232 50.1554 218.274 50.1554 219.531 48.8964C220.791 47.6374 220.791 45.5954 219.531 44.3364C219.459 44.2624 219.373 44.2094 219.295 44.1444C220.568 42.2714 221.47 40.1274 221.911 37.8194C222.015 37.8294 222.114 37.8494 222.22 37.8494C224.001 37.8494 225.443 36.4084 225.443 34.6264C225.442 32.8454 224.001 31.4014 222.219 31.4014ZM205.263 44.9214C199.577 44.9214 194.969 40.3114 194.969 34.6264C194.969 28.9394 199.577 24.3294 205.263 24.3294C210.949 24.3294 215.56 28.9394 215.56 34.6264C215.56 40.3114 210.949 44.9214 205.263 44.9214Z" fill="#0FA58F"/>
<path d="M39.3044 108.298C39.2034 108.298 39.1094 108.319 39.0124 108.327C38.5944 106.144 37.7414 104.114 36.5354 102.342C36.6094 102.279 36.6894 102.228 36.7584 102.157C37.9504 100.966 37.9504 99.0351 36.7624 97.8431C35.5694 96.6521 33.6374 96.6521 32.4434 97.8431C32.3764 97.9131 32.3234 97.9921 32.2624 98.0671C30.4904 96.8601 28.4604 96.0091 26.2744 95.5931C26.2854 95.4951 26.3044 95.4001 26.3044 95.2991C26.3044 93.6121 24.9384 92.2461 23.2534 92.2461C21.5674 92.2461 20.2034 93.6121 20.2034 95.2991C20.2034 95.4001 20.2214 95.4951 20.2314 95.5931C18.0474 96.0091 16.0174 96.8621 14.2444 98.0671C14.1814 97.9931 14.1294 97.9141 14.0634 97.8431C12.8684 96.6521 10.9374 96.6521 9.74437 97.8431C8.55337 99.0351 8.55337 100.966 9.74537 102.157C9.81637 102.227 9.89537 102.279 9.97037 102.342C8.76337 104.114 7.91137 106.145 7.49537 108.33C7.39937 108.319 7.30237 108.298 7.20237 108.298C5.51637 108.298 4.15137 109.665 4.15137 111.351C4.15137 113.038 5.51637 114.403 7.20237 114.403C7.30337 114.403 7.40037 114.383 7.49537 114.374C7.91137 116.56 8.76337 118.587 9.97037 120.36C9.89537 120.422 9.81637 120.473 9.74537 120.544C8.55337 121.735 8.55337 123.669 9.74537 124.86C10.9364 126.051 12.8684 126.051 14.0634 124.86C14.1294 124.79 14.1824 124.709 14.2444 124.635C16.0184 125.841 18.0484 126.692 20.2314 127.108C20.2214 127.208 20.2034 127.303 20.2034 127.403C20.2034 129.089 21.5674 130.455 23.2534 130.455C24.9384 130.455 26.3044 129.089 26.3044 127.403C26.3044 127.303 26.2854 127.208 26.2744 127.108C28.4604 126.692 30.4904 125.841 32.2624 124.635C32.3244 124.708 32.3764 124.788 32.4434 124.858C33.6374 126.051 35.5694 126.051 36.7594 124.86C37.9514 123.669 37.9514 121.735 36.7594 120.544C36.6914 120.474 36.6114 120.424 36.5364 120.361C37.7424 118.589 38.5954 116.559 39.0134 114.374C39.1104 114.384 39.2044 114.403 39.3054 114.403C40.9914 114.403 42.3554 113.038 42.3554 111.351C42.3544 109.665 40.9914 108.298 39.3044 108.298ZM23.2514 121.098C17.8694 121.098 13.5074 116.733 13.5074 111.351C13.5074 105.968 17.8694 101.604 23.2514 101.604C28.6344 101.604 32.9994 105.968 32.9994 111.351C32.9994 116.732 28.6354 121.098 23.2514 121.098Z" fill="#0FA58F"/>
<path d="M425.755 32.2529C425.673 32.2529 425.597 32.2709 425.517 32.2759C425.177 30.4979 424.482 28.8429 423.5 27.3979C423.56 27.3469 423.625 27.3049 423.682 27.2489C424.653 26.2779 424.653 24.7049 423.684 23.7319C422.713 22.7609 421.137 22.7609 420.164 23.7319C420.109 23.7899 420.066 23.8539 420.017 23.9149C418.572 22.9319 416.917 22.2379 415.136 21.8989C415.146 21.8189 415.161 21.7419 415.161 21.6599C415.161 20.2859 414.048 19.1729 412.675 19.1729C411.3 19.1729 410.189 20.2859 410.189 21.6599C410.189 21.7419 410.205 21.8189 410.212 21.8989C408.433 22.2379 406.778 22.9329 405.333 23.9149C405.282 23.8539 405.239 23.7899 405.185 23.7319C404.212 22.7609 402.638 22.7609 401.665 23.7319C400.694 24.7049 400.694 26.2779 401.667 27.2489C401.724 27.3059 401.788 27.3479 401.851 27.3979C400.867 28.8429 400.173 30.4979 399.833 32.2779C399.755 32.2699 399.677 32.2529 399.595 32.2529C398.22 32.2529 397.109 33.3659 397.109 34.7399C397.109 36.1139 398.22 37.2259 399.595 37.2259C399.677 37.2259 399.755 37.2099 399.833 37.2029C400.173 38.9829 400.866 40.6359 401.851 42.0809C401.788 42.1319 401.724 42.1739 401.667 42.2299C400.694 43.2009 400.694 44.7769 401.667 45.7479C402.638 46.7189 404.212 46.7189 405.185 45.7479C405.24 45.6909 405.283 45.6249 405.333 45.5639C406.778 46.5469 408.433 47.2409 410.212 47.5799C410.204 47.6609 410.189 47.7389 410.189 47.8199C410.189 49.1929 411.3 50.3059 412.675 50.3059C414.048 50.3059 415.161 49.1929 415.161 47.8199C415.161 47.7389 415.145 47.6609 415.136 47.5799C416.917 47.2409 418.572 46.5479 420.017 45.5639C420.066 45.6249 420.109 45.6889 420.164 45.7469C421.137 46.7189 422.713 46.7189 423.682 45.7479C424.653 44.7769 424.653 43.2009 423.682 42.2299C423.625 42.1729 423.561 42.1319 423.5 42.0819C424.482 40.6379 425.178 38.9829 425.517 37.2029C425.597 37.2109 425.673 37.2259 425.755 37.2259C427.13 37.2259 428.241 36.1139 428.241 34.7399C428.241 33.3659 427.13 32.2529 425.755 32.2529ZM412.674 42.6829C408.287 42.6829 404.733 39.1259 404.733 34.7409C404.733 30.3539 408.288 26.7989 412.674 26.7989C417.061 26.7989 420.617 30.3549 420.617 34.7409C420.618 39.1259 417.061 42.6829 412.674 42.6829Z" fill="#0FA58F"/>
</svg>
