<svg width="461" height="392" viewBox="0 0 461 392" fill="none" xmlns="http://www.w3.org/2000/svg">
<g clip-path="url(#clip0_2305_1382)">
<path d="M31.12 48.3H27.48C27.08 48.3 26.75 47.97 26.75 47.57C26.75 47.17 27.08 46.84 27.48 46.84H31.12C31.52 46.84 31.85 47.17 31.85 47.57C31.85 47.97 31.52 48.3 31.12 48.3ZM23.83 48.3H20.19C19.79 48.3 19.46 47.97 19.46 47.57C19.46 47.17 19.79 46.84 20.19 46.84H23.83C24.23 46.84 24.56 47.17 24.56 47.57C24.56 47.97 24.23 48.3 23.83 48.3ZM16.54 48.3H14.46C14.06 48.3 13.73 47.97 13.73 47.57C13.73 47.17 14.06 46.84 14.46 46.84H16.54C16.94 46.84 17.27 47.17 17.27 47.57C17.27 47.97 16.94 48.3 16.54 48.3Z" fill="white"/>
<path d="M95.5899 5.88C93.9699 5.88 92.6499 4.56 92.6499 2.94C92.6499 1.32 93.9699 0 95.5899 0C97.2099 0 98.5299 1.32 98.5299 2.94C98.5299 4.56 97.2099 5.88 95.5899 5.88ZM95.5899 1.45C94.7699 1.45 94.1099 2.12 94.1099 2.93C94.1099 3.74 94.7799 4.41 95.5899 4.41C96.3999 4.41 97.0699 3.74 97.0699 2.93C97.0699 2.12 96.3999 1.45 95.5899 1.45Z" fill="white"/>
<path d="M42.1399 88.71C41.7399 88.71 41.4099 88.38 41.4099 87.98V86.29C41.4099 85.89 41.7399 85.56 42.1399 85.56C42.5399 85.56 42.8699 85.89 42.8699 86.29V87.98C42.8699 88.38 42.5399 88.71 42.1399 88.71Z" fill="white"/>
<path d="M45.7401 90.41H44.0501C43.6501 90.41 43.3201 90.08 43.3201 89.68C43.3201 89.28 43.6501 88.95 44.0501 88.95H45.7401C46.1401 88.95 46.4701 89.28 46.4701 89.68C46.4701 90.08 46.1401 90.41 45.7401 90.41Z" fill="white"/>
<path d="M42.1399 93.91C41.7399 93.91 41.4099 93.58 41.4099 93.18V91.49C41.4099 91.09 41.7399 90.76 42.1399 90.76C42.5399 90.76 42.8699 91.09 42.8699 91.49V93.18C42.8699 93.58 42.5399 93.91 42.1399 93.91Z" fill="white"/>
<path d="M40.2401 90.52H38.5501C38.1501 90.52 37.8201 90.19 37.8201 89.79C37.8201 89.39 38.1501 89.06 38.5501 89.06H40.2401C40.6401 89.06 40.9701 89.39 40.9701 89.79C40.9701 90.19 40.6401 90.52 40.2401 90.52Z" fill="white"/>
<path d="M325.32 29.35C324.92 29.35 324.59 29.02 324.59 28.62V26.93C324.59 26.53 324.92 26.2 325.32 26.2C325.72 26.2 326.05 26.53 326.05 26.93V28.62C326.05 29.02 325.72 29.35 325.32 29.35Z" fill="white"/>
<path d="M323.41 31.04H321.72C321.32 31.04 320.99 30.71 320.99 30.31C320.99 29.91 321.32 29.58 321.72 29.58H323.41C323.81 29.58 324.14 29.91 324.14 30.31C324.14 30.71 323.81 31.04 323.41 31.04Z" fill="white"/>
<path d="M325.32 34.55C324.92 34.55 324.59 34.22 324.59 33.82V32.13C324.59 31.73 324.92 31.4 325.32 31.4C325.72 31.4 326.05 31.73 326.05 32.13V33.82C326.05 34.22 325.72 34.55 325.32 34.55Z" fill="white"/>
<path d="M328.92 31.16H327.23C326.83 31.16 326.5 30.83 326.5 30.43C326.5 30.03 326.83 29.7 327.23 29.7H328.92C329.32 29.7 329.65 30.03 329.65 30.43C329.65 30.83 329.32 31.16 328.92 31.16Z" fill="white"/>
<path d="M146.65 72.31C148.27 72.31 149.59 73.63 149.59 75.25C149.59 76.87 148.27 78.19 146.65 78.19C145.03 78.19 143.71 76.87 143.71 75.25C143.71 73.63 145.03 72.31 146.65 72.31ZM146.65 76.74C147.47 76.74 148.13 76.07 148.13 75.26C148.13 74.45 147.46 73.78 146.65 73.78C145.84 73.78 145.17 74.45 145.17 75.26C145.17 76.07 145.84 76.74 146.65 76.74Z" fill="white"/>
<path d="M198.94 53.89H215.6C216 53.89 216.33 54.22 216.33 54.62C216.33 55.02 216 55.35 215.6 55.35H198.94C198.54 55.35 198.21 55.02 198.21 54.62C198.21 54.22 198.54 53.89 198.94 53.89Z" fill="white"/>
<path d="M190.39 53.89H193.65C194.05 53.89 194.38 54.22 194.38 54.62C194.38 55.02 194.05 55.35 193.65 55.35H190.39C189.99 55.35 189.66 55.02 189.66 54.62C189.66 54.22 189.99 53.89 190.39 53.89Z" fill="white"/>
<path d="M433.24 182.66H416.58C416.18 182.66 415.85 182.33 415.85 181.93C415.85 181.53 416.18 181.2 416.58 181.2H433.24C433.64 181.2 433.97 181.53 433.97 181.93C433.97 182.33 433.64 182.66 433.24 182.66Z" fill="white"/>
<path d="M411.28 182.67H408.02C407.62 182.67 407.29 182.34 407.29 181.94C407.29 181.54 407.62 181.21 408.02 181.21H411.28C411.68 181.21 412.01 181.54 412.01 181.94C412.01 182.34 411.68 182.67 411.28 182.67Z" fill="white"/>
<path d="M424.68 177.59H422.6C422.2 177.59 421.87 177.26 421.87 176.86C421.87 176.46 422.2 176.13 422.6 176.13H424.68C425.08 176.13 425.41 176.46 425.41 176.86C425.41 177.26 425.08 177.59 424.68 177.59ZM418.95 177.59H415.31C414.91 177.59 414.58 177.26 414.58 176.86C414.58 176.46 414.91 176.13 415.31 176.13H418.95C419.35 176.13 419.68 176.46 419.68 176.86C419.68 177.26 419.35 177.59 418.95 177.59ZM411.66 177.59H408.02C407.62 177.59 407.29 177.26 407.29 176.86C407.29 176.46 407.62 176.13 408.02 176.13H411.66C412.06 176.13 412.39 176.46 412.39 176.86C412.39 177.26 412.06 177.59 411.66 177.59Z" fill="white"/>
<path d="M246.23 90.65C245.83 90.65 245.5 90.32 245.5 89.92V88.23C245.5 87.83 245.83 87.5 246.23 87.5C246.63 87.5 246.96 87.83 246.96 88.23V89.92C246.96 90.32 246.63 90.65 246.23 90.65Z" fill="white"/>
<path d="M244.32 92.35H242.63C242.23 92.35 241.9 92.02 241.9 91.62C241.9 91.22 242.23 90.89 242.63 90.89H244.32C244.72 90.89 245.05 91.22 245.05 91.62C245.05 92.02 244.72 92.35 244.32 92.35Z" fill="white"/>
<path d="M246.23 95.85C245.83 95.85 245.5 95.52 245.5 95.12V93.43C245.5 93.03 245.83 92.7 246.23 92.7C246.63 92.7 246.96 93.03 246.96 93.43V95.12C246.96 95.52 246.63 95.85 246.23 95.85Z" fill="white"/>
<path d="M249.83 92.46H248.14C247.74 92.46 247.41 92.13 247.41 91.73C247.41 91.33 247.74 91 248.14 91H249.83C250.23 91 250.56 91.33 250.56 91.73C250.56 92.13 250.23 92.46 249.83 92.46Z" fill="white"/>
<path d="M96.7499 94.46H87.3199C86.8007 94.46 86.3799 94.8786 86.3799 95.395C86.3799 95.9114 86.8007 96.33 87.3199 96.33H96.7499C97.269 96.33 97.6899 95.9114 97.6899 95.395C97.6899 94.8786 97.269 94.46 96.7499 94.46Z" fill="white"/>
<path d="M87.3199 97.78H94.1799C94.6999 97.78 95.1199 98.2 95.1199 98.72C95.1199 99.24 94.6999 99.66 94.1799 99.66H87.3199C86.7999 99.66 86.3799 99.24 86.3799 98.72C86.3799 98.2 86.7999 97.78 87.3199 97.78Z" fill="white"/>
<path d="M87.3199 101.1H98.6499C99.1699 101.1 99.5899 101.52 99.5899 102.04C99.5899 102.56 99.1699 102.98 98.6499 102.98H87.3199C86.7999 102.98 86.3799 102.56 86.3799 102.04C86.3799 101.52 86.7999 101.1 87.3199 101.1Z" fill="white"/>
<path d="M86.3799 105.35C86.3799 104.83 86.7999 104.41 87.3199 104.41H96.4499C96.9699 104.41 97.3899 104.83 97.3899 105.35C97.3899 105.87 96.9699 106.29 96.4499 106.29H87.3199C86.7999 106.29 86.3799 105.87 86.3799 105.35Z" fill="white"/>
<path d="M189.24 157.93H179.81C179.291 157.93 178.87 158.349 178.87 158.865C178.87 159.381 179.291 159.8 179.81 159.8H189.24C189.759 159.8 190.18 159.381 190.18 158.865C190.18 158.349 189.759 157.93 189.24 157.93Z" fill="white"/>
<path d="M179.81 161.25H186.67C187.19 161.25 187.61 161.67 187.61 162.19C187.61 162.71 187.19 163.13 186.67 163.13H179.81C179.29 163.13 178.87 162.71 178.87 162.19C178.87 161.67 179.29 161.25 179.81 161.25Z" fill="white"/>
<path d="M179.81 164.57H191.14C191.66 164.57 192.08 164.99 192.08 165.51C192.08 166.03 191.66 166.45 191.14 166.45H179.81C179.29 166.45 178.87 166.03 178.87 165.51C178.87 164.99 179.29 164.57 179.81 164.57Z" fill="white"/>
<path d="M178.87 168.83C178.87 168.31 179.29 167.89 179.81 167.89H188.94C189.46 167.89 189.88 168.31 189.88 168.83C189.88 169.35 189.46 169.77 188.94 169.77H179.81C179.29 169.77 178.87 169.35 178.87 168.83Z" fill="white"/>
<path d="M400.32 111.52H409.76C410.28 111.52 410.7 111.94 410.7 112.46C410.7 112.98 410.28 113.4 409.76 113.4H400.32C399.8 113.4 399.38 112.98 399.38 112.46C399.38 111.94 399.8 111.52 400.32 111.52Z" fill="white"/>
<path d="M400.32 114.84H407.18C407.7 114.84 408.12 115.26 408.12 115.78C408.12 116.3 407.7 116.72 407.18 116.72H400.32C399.8 116.72 399.38 116.3 399.38 115.78C399.38 115.26 399.8 114.84 400.32 114.84Z" fill="white"/>
<path d="M411.64 118.16H400.32C399.801 118.16 399.38 118.579 399.38 119.095C399.38 119.611 399.801 120.03 400.32 120.03H411.64C412.159 120.03 412.58 119.611 412.58 119.095C412.58 118.579 412.159 118.16 411.64 118.16Z" fill="white"/>
<path d="M399.38 122.42C399.38 121.9 399.8 121.48 400.32 121.48H409.45C409.97 121.48 410.39 121.9 410.39 122.42C410.39 122.94 409.97 123.36 409.45 123.36H400.32C399.8 123.36 399.38 122.94 399.38 122.42Z" fill="white"/>
<path d="M102.77 44.61L107.57 39.69C108.55 40.4 109.74 40.83 111.03 40.83C114.33 40.83 117.01 38.09 117.01 34.71C117.01 31.33 114.34 28.59 111.03 28.59C107.72 28.59 105.06 31.33 105.06 34.71C105.06 36.03 105.47 37.25 106.17 38.25L101.37 43.17C100.98 43.57 100.98 44.21 101.37 44.61C101.76 45.01 102.39 45.01 102.78 44.61H102.77ZM109.02 38.21C108.44 37.86 107.96 37.37 107.61 36.77C107.26 36.17 107.05 35.47 107.05 34.71C107.05 32.46 108.83 30.63 111.03 30.63C113.23 30.63 115.01 32.46 115.01 34.71C115.01 36.96 113.23 38.79 111.03 38.79C110.29 38.79 109.61 38.57 109.02 38.21Z" fill="white"/>
<path d="M423.65 23.36L418.73 18.56C419.44 17.58 419.87 16.39 419.87 15.1C419.87 11.8 417.13 9.12 413.75 9.12C410.37 9.12 407.63 11.79 407.63 15.1C407.63 18.41 410.37 21.07 413.75 21.07C415.07 21.07 416.29 20.66 417.29 19.96L422.21 24.76C422.61 25.15 423.25 25.15 423.65 24.76C424.05 24.37 424.05 23.74 423.65 23.35V23.36ZM417.25 17.11C416.9 17.69 416.41 18.17 415.81 18.52C415.21 18.87 414.51 19.08 413.75 19.08C411.5 19.08 409.67 17.3 409.67 15.1C409.67 12.9 411.5 11.12 413.75 11.12C416 11.12 417.83 12.9 417.83 15.1C417.83 15.84 417.61 16.52 417.25 17.11Z" fill="white"/>
<path d="M21.63 127.37L18.34 132.16V134.81C18.34 137.53 16.08 139.73 13.3 139.73H5.04C2.26 139.73 0 137.53 0 134.81V129.89C0 127.17 2.25 124.97 5.04 124.97H13.31C14.77 124.97 16.09 125.58 17.01 126.56L21.21 126.42C21.68 126.46 21.92 127 21.63 127.37Z" fill="white"/>
<path d="M4.51992 133.51C3.90992 133.51 3.41992 133.03 3.41992 132.43C3.41992 131.83 3.90992 131.35 4.51992 131.35C5.12992 131.35 5.61992 131.83 5.61992 132.43C5.61992 133.03 5.12992 133.51 4.51992 133.51Z" fill="#3AA9E9"/>
<path d="M9.03994 133.51C8.42994 133.51 7.93994 133.03 7.93994 132.43C7.93994 131.83 8.43994 131.35 9.03994 131.35C9.63994 131.35 10.1399 131.83 10.1399 132.43C10.1399 133.03 9.64994 133.51 9.03994 133.51Z" fill="#3AA9E9"/>
<path d="M13.55 133.51C12.94 133.51 12.45 133.03 12.45 132.43C12.45 131.83 12.95 131.35 13.55 131.35C14.15 131.35 14.65 131.83 14.65 132.43C14.65 133.03 14.16 133.51 13.55 133.51Z" fill="#3AA9E9"/>
<path d="M156.13 117.37L159.42 122.16V124.81C159.42 127.53 161.68 129.73 164.46 129.73H172.73C175.51 129.73 177.77 127.53 177.77 124.81V119.89C177.77 117.17 175.52 114.97 172.73 114.97H164.46C163 114.97 161.68 115.58 160.76 116.56L156.56 116.42C156.09 116.46 155.85 117 156.14 117.37H156.13Z" fill="white"/>
<path d="M172.14 122.43C172.14 121.84 172.63 121.35 173.24 121.35C173.85 121.35 174.34 121.83 174.34 122.43C174.34 123.03 173.84 123.51 173.24 123.51C172.64 123.51 172.14 123.03 172.14 122.43Z" fill="#3AA9E9"/>
<path d="M167.63 122.43C167.63 121.84 168.12 121.35 168.73 121.35C169.34 121.35 169.83 121.83 169.83 122.43C169.83 123.03 169.34 123.51 168.73 123.51C168.12 123.51 167.63 123.03 167.63 122.43Z" fill="#3AA9E9"/>
<path d="M163.11 122.43C163.11 121.84 163.6 121.35 164.21 121.35C164.82 121.35 165.31 121.83 165.31 122.43C165.31 123.03 164.81 123.51 164.21 123.51C163.61 123.51 163.11 123.03 163.11 122.43Z" fill="#3AA9E9"/>
<path d="M349.9 60.45L353.19 65.24V67.89C353.19 70.61 355.45 72.81 358.23 72.81H366.5C369.28 72.81 371.54 70.61 371.54 67.89V62.97C371.54 60.25 369.29 58.05 366.5 58.05H358.23C356.77 58.05 355.45 58.66 354.53 59.64L350.33 59.5C349.86 59.54 349.62 60.08 349.91 60.45H349.9Z" fill="white"/>
<path d="M365.91 65.51C365.91 64.92 366.41 64.43 367.01 64.43C367.61 64.43 368.11 64.91 368.11 65.51C368.11 66.11 367.62 66.59 367.01 66.59C366.4 66.59 365.91 66.11 365.91 65.51Z" fill="#3AA9E9"/>
<path d="M361.4 65.51C361.4 64.92 361.89 64.43 362.5 64.43C363.11 64.43 363.6 64.91 363.6 65.51C363.6 66.11 363.11 66.59 362.5 66.59C361.89 66.59 361.4 66.11 361.4 65.51Z" fill="#3AA9E9"/>
<path d="M356.88 65.51C356.88 64.92 357.37 64.43 357.98 64.43C358.59 64.43 359.08 64.91 359.08 65.51C359.08 66.11 358.59 66.59 357.98 66.59C357.37 66.59 356.88 66.11 356.88 65.51Z" fill="#3AA9E9"/>
<path d="M299.02 165.37L295.73 170.16V172.81C295.73 175.53 293.47 177.73 290.69 177.73H282.42C279.64 177.73 277.38 175.53 277.38 172.81V167.89C277.38 165.17 279.63 162.97 282.42 162.97H290.69C292.15 162.97 293.47 163.58 294.39 164.56L298.59 164.42C299.06 164.46 299.3 165 299.01 165.37H299.02Z" fill="white"/>
<path d="M281.91 171.51C281.3 171.51 280.81 171.03 280.81 170.43C280.81 169.83 281.3 169.35 281.91 169.35C282.52 169.35 283.01 169.83 283.01 170.43C283.01 171.03 282.51 171.51 281.91 171.51Z" fill="#3AA9E9"/>
<path d="M286.42 171.51C285.81 171.51 285.32 171.03 285.32 170.43C285.32 169.83 285.81 169.35 286.42 169.35C287.03 169.35 287.52 169.83 287.52 170.43C287.52 171.03 287.02 171.51 286.42 171.51Z" fill="#3AA9E9"/>
<path d="M290.94 171.51C290.33 171.51 289.84 171.03 289.84 170.43C289.84 169.83 290.33 169.35 290.94 169.35C291.55 169.35 292.04 169.83 292.04 170.43C292.04 171.03 291.54 171.51 290.94 171.51Z" fill="#3AA9E9"/>
<path d="M248.02 18.19L244.73 22.98V25.63C244.73 28.35 242.47 30.55 239.69 30.55H231.42C228.64 30.55 226.38 28.35 226.38 25.63V20.71C226.38 17.99 228.63 15.79 231.42 15.79H239.69C241.15 15.79 242.47 16.4 243.39 17.38L247.59 17.24C248.06 17.28 248.3 17.82 248.01 18.19H248.02Z" fill="white"/>
<path d="M230.91 24.33C230.3 24.33 229.81 23.85 229.81 23.25C229.81 22.65 230.31 22.17 230.91 22.17C231.51 22.17 232.01 22.65 232.01 23.25C232.01 23.85 231.52 24.33 230.91 24.33Z" fill="#3AA9E9"/>
<path d="M235.42 24.33C234.81 24.33 234.32 23.85 234.32 23.25C234.32 22.65 234.81 22.17 235.42 22.17C236.03 22.17 236.52 22.65 236.52 23.25C236.52 23.85 236.03 24.33 235.42 24.33Z" fill="#3AA9E9"/>
<path d="M239.93 24.33C239.32 24.33 238.83 23.85 238.83 23.25C238.83 22.65 239.33 22.17 239.93 22.17C240.53 22.17 241.03 22.65 241.03 23.25C241.03 23.85 240.54 24.33 239.93 24.33Z" fill="#3AA9E9"/>
<path opacity="0.5" d="M224.8 354.43C344.817 354.43 442.11 344.325 442.11 331.86C442.11 319.395 344.817 309.29 224.8 309.29C104.783 309.29 7.48999 319.395 7.48999 331.86C7.48999 344.325 104.783 354.43 224.8 354.43Z" fill="#0B488A"/>
<path d="M43.47 188.58H135.7V219.9H80.88V246.87H127.87V278.19H80.88V329.96H43.47V188.58Z" fill="black" stroke="white" stroke-width="2.57" stroke-miterlimit="10"/>
<path d="M176.6 188.58H221.85L264.92 329.97H225.33L209.23 261.23C205.75 247.74 202.27 230.56 198.79 216.42H197.92C194.87 230.78 191.39 247.74 187.91 261.23L171.81 329.97H133.53L176.6 188.58ZM164.42 271.02H233.59V299.95H164.42V271.02Z" fill="black" stroke="white" stroke-width="2.57" stroke-miterlimit="10"/>
<path d="M270.13 258.62C270.13 212.07 296.67 185.97 335.82 185.97C374.97 185.97 401.51 212.29 401.51 258.62C401.51 304.95 374.97 332.58 335.82 332.58C296.67 332.58 270.13 305.17 270.13 258.62ZM363.23 258.62C363.23 232.95 352.79 218.16 335.82 218.16C318.85 218.16 308.41 232.95 308.41 258.62C308.41 286.46 318.85 302.12 335.82 302.12C352.79 302.12 363.23 286.46 363.23 258.62ZM317.99 328.66L355.84 324.74C361.06 337.36 375.85 341.27 388.03 341.27C394.12 341.27 399.78 340.18 404.13 338.66L410.66 365.63C405 368.67 395.65 370.85 383.69 370.85C351.06 370.85 328.44 353.01 318 328.65L317.99 328.66Z" fill="black" stroke="white" stroke-width="2.57" stroke-miterlimit="10"/>
<path d="M43.47 188.58H135.7V219.9H80.88V246.87H127.87V278.19H80.88V329.96H43.47V188.58Z" fill="white"/>
<path d="M176.6 188.58H221.85L264.92 329.97H225.33L209.23 261.23C205.75 247.74 202.27 230.56 198.79 216.42H197.92C194.87 230.78 191.39 247.74 187.91 261.23L171.81 329.97H133.53L176.6 188.58ZM164.42 271.02H233.59V299.95H164.42V271.02Z" fill="white"/>
<path d="M270.13 258.62C270.13 212.07 296.67 185.97 335.82 185.97C374.97 185.97 401.51 212.29 401.51 258.62C401.51 304.95 374.97 332.58 335.82 332.58C296.67 332.58 270.13 305.17 270.13 258.62ZM363.23 258.62C363.23 232.95 352.79 218.16 335.82 218.16C318.85 218.16 308.41 232.95 308.41 258.62C308.41 286.46 318.85 302.12 335.82 302.12C352.79 302.12 363.23 286.46 363.23 258.62ZM317.99 328.66L355.84 324.74C361.06 337.36 375.85 341.27 388.03 341.27C394.12 341.27 399.78 340.18 404.13 338.66L410.66 365.63C405 368.67 395.65 370.85 383.69 370.85C351.06 370.85 328.44 353.01 318 328.65L317.99 328.66Z" fill="white"/>
<path d="M357.18 212.41C358.44 212.68 359.25 213.92 358.98 215.18L356.56 226.62C356.29 227.88 355.05 228.69 353.79 228.42C352.53 228.15 351.72 226.91 351.99 225.65L354.41 214.21C354.68 212.95 355.92 212.14 357.18 212.41Z" fill="#F69C7F"/>
<path d="M361.95 191.72C364.4 192.24 365.97 194.65 365.45 197.11L360.73 219.37C360.21 221.82 357.8 223.39 355.34 222.87C352.89 222.35 351.32 219.94 351.84 217.48L356.56 195.22C357.08 192.77 359.49 191.2 361.95 191.72Z" fill="#0B488A"/>
<path d="M350.63 228.91L352.42 229.84C353.87 230.59 355.65 230.03 356.41 228.58C357.16 227.13 356.6 225.35 355.15 224.59L353.36 223.66C351.91 222.91 350.13 223.47 349.37 224.92C348.62 226.37 349.18 228.15 350.63 228.91Z" fill="#154169"/>
<path d="M348.2 231.34L353.51 234.1C354.91 234.83 356.63 234.28 357.36 232.88C358.09 231.48 357.54 229.76 356.14 229.03L350.83 226.27C349.43 225.54 347.71 226.09 346.98 227.49C346.25 228.89 346.8 230.61 348.2 231.34Z" fill="#0B488A"/>
<path d="M346.03 231.38L355.02 236.05C355.67 236.39 356.46 236.13 356.8 235.49C357.13 234.84 356.88 234.05 356.24 233.71L347.25 229.04C346.6 228.7 345.81 228.96 345.47 229.6C345.13 230.25 345.39 231.04 346.03 231.38Z" fill="#154169"/>
<path d="M352.238 222.493L358.499 223.819C359.709 224.075 360.898 223.302 361.154 222.092L361.635 219.822C361.892 218.612 361.118 217.423 359.908 217.167L353.647 215.84C352.437 215.584 351.248 216.357 350.991 217.568L350.511 219.837C350.254 221.047 351.027 222.236 352.238 222.493Z" fill="#154169"/>
<path d="M319.65 199.66C320.94 199.62 322.02 200.63 322.06 201.92L322.44 213.61C322.48 214.9 321.47 215.98 320.18 216.02C318.89 216.06 317.81 215.05 317.77 213.76L317.39 202.07C317.35 200.78 318.36 199.7 319.65 199.66Z" fill="#F69C7F"/>
<path d="M347.27 177.39C350.41 175.37 354.59 176.29 356.61 179.43L364.79 192.18C366.81 195.32 365.89 199.5 362.75 201.52C359.61 203.54 355.43 202.62 353.41 199.48L345.23 186.73C343.21 183.59 344.13 179.41 347.27 177.39Z" fill="#0B488A"/>
<path d="M352.4 184.06C352.64 187.03 350.43 189.64 347.45 189.88L320.48 192.07C317.51 192.31 314.9 190.1 314.66 187.12C314.42 184.15 316.63 181.54 319.61 181.3L346.58 179.11C349.55 178.87 352.16 181.08 352.4 184.06Z" fill="#0B488A"/>
<path d="M319.16 182.52C321.67 182.44 323.77 184.41 323.85 186.92L324.39 207.73C324.47 210.24 322.5 212.34 319.99 212.42C317.48 212.5 315.38 210.53 315.3 208.02L314.76 187.21C314.68 184.7 316.65 182.6 319.16 182.52Z" fill="#0B488A"/>
<path d="M311.91 225.64L326.39 219.87C327.28 219.51 327.61 218.42 327.06 217.63L324.76 214.33C324.29 213.65 323.35 213.49 322.68 213.96L310.5 223.03C309.94 223.43 309.72 224.16 309.97 224.8C310.28 225.57 311.14 225.94 311.91 225.63V225.64Z" fill="#0B488A"/>
<path d="M320.25 216.42L319.5 214.54C318.9 213.02 317.18 212.28 315.66 212.89C314.14 213.49 313.4 215.21 314.01 216.73L314.76 218.61C315.36 220.13 317.08 220.87 318.6 220.26C320.12 219.66 320.86 217.94 320.25 216.42Z" fill="#154169"/>
<path d="M313.26 224.82L325.56 219.92C327.02 219.34 327.74 217.68 327.15 216.21C326.57 214.75 324.91 214.03 323.44 214.62L311.14 219.52C309.68 220.1 308.96 221.76 309.55 223.23C310.13 224.69 311.79 225.41 313.26 224.82Z" fill="#0B488A"/>
<path d="M311.35 226.7L327.65 220.2C328.33 219.93 328.65 219.17 328.39 218.49C328.12 217.81 327.36 217.48 326.68 217.75L310.38 224.25C309.7 224.52 309.37 225.28 309.64 225.96C309.91 226.64 310.67 226.96 311.35 226.7Z" fill="#154169"/>
<path d="M326.77 156.77C328.35 158.77 331.25 159.11 333.25 157.53L343.62 149.33C345.62 147.75 345.96 144.85 344.38 142.85C342.8 140.85 339.9 140.51 337.9 142.09L327.54 150.29C325.54 151.87 325.2 154.77 326.78 156.77H326.77Z" fill="#FFF4D8"/>
<path d="M336.6 178.7C336.32 181.64 357.82 183.71 358.1 180.76L361.63 143.97C362.1 139.04 340.6 136.98 340.13 141.91L336.6 178.7Z" fill="#FFF4D8"/>
<path d="M348.34 148.16C350.97 148.71 353.55 147.02 354.09 144.39L357.69 127.1L348.17 125.12L344.57 142.41C344.02 145.04 345.71 147.62 348.34 148.16Z" fill="#F69C7F"/>
<path d="M355.009 140.009L344.592 137.841C343.075 137.525 342.098 136.035 342.414 134.517L344.866 122.74L358.033 125.481L355.009 140.009Z" fill="#F69C7F"/>
<path d="M355.01 140.01L360.27 125.06L356.05 124.41L353.33 137.45C353.09 138.62 353.84 139.76 355 140.01H355.01Z" fill="#0C3C4A"/>
<path d="M357.464 128.251L342.652 125.168L344.103 118.197L355.518 120.574C357.398 120.965 358.597 122.808 358.208 124.678L357.464 128.251Z" fill="#0C3C4A"/>
<path d="M352.96 131.87C354.78 132.25 356.56 131.08 356.94 129.26L357.73 125.47C358.11 123.65 356.94 121.87 355.12 121.49C353.3 121.11 351.52 122.28 351.14 124.1L350.35 127.89C349.97 129.71 351.14 131.49 352.96 131.87Z" fill="#0C3C4A"/>
<path d="M350.21 131.2C349.92 132.61 350.82 133.99 352.23 134.29C353.64 134.58 355.02 133.68 355.32 132.27C355.62 130.86 354.71 129.48 353.3 129.18C351.89 128.88 350.51 129.79 350.21 131.2Z" fill="#F69C7F"/>
<path d="M345.16 133.47C344.45 133.32 343.99 132.63 344.14 131.91V131.89L346.72 132.43V132.45C346.57 133.16 345.87 133.62 345.16 133.47Z" fill="white"/>
<path d="M350.25 119.47C350.25 122.76 347.58 125.43 344.29 125.43C341 125.43 338.33 122.76 338.33 119.47C338.33 116.18 341 113.51 344.29 113.51C347.58 113.51 350.25 116.18 350.25 119.47Z" fill="#0C3C4A"/>
<path d="M356.79 120.72C356.79 123.42 354.61 125.6 351.91 125.6C349.21 125.6 347.03 123.42 347.03 120.72C347.03 118.02 349.21 115.84 351.91 115.84C354.61 115.84 356.79 118.02 356.79 120.72Z" fill="#0C3C4A"/>
<path d="M360.38 124.13C360.38 126.37 358.57 128.18 356.33 128.18C354.09 128.18 352.28 126.37 352.28 124.13C352.28 121.89 354.09 120.08 356.33 120.08C358.57 120.08 360.38 121.89 360.38 124.13Z" fill="#0C3C4A"/>
<path d="M376.75 157.88C378.25 155.31 377.39 152.01 374.82 150.5L361.49 142.69C358.92 141.19 355.62 142.05 354.11 144.62C352.61 147.19 353.47 150.49 356.04 152L369.37 159.81C371.94 161.31 375.24 160.45 376.75 157.88Z" fill="#FFF4D8"/>
<path d="M363.23 162.77C364.4 164.59 366.82 165.11 368.63 163.94L375.28 159.65C377.1 158.48 377.62 156.06 376.45 154.25C375.28 152.43 372.86 151.91 371.05 153.08L364.4 157.37C362.58 158.54 362.06 160.96 363.23 162.77Z" fill="#FFF4D8"/>
<path d="M320.89 161.87C320.37 161.43 320.25 160.58 320.63 159.97L323.12 155.96C323.51 155.34 324.25 155.18 324.79 155.61C325.33 156.05 325.45 156.91 325.05 157.53L322.53 161.55C322.15 162.16 321.41 162.3 320.89 161.86V161.87Z" fill="#DD7E63"/>
<path d="M365.67 159.78C366.19 159.1 366.06 158.15 365.37 157.66L360.96 154.57C360.29 154.1 359.34 154.27 358.84 154.95C358.34 155.62 358.47 156.55 359.13 157.02L363.49 160.13C364.17 160.62 365.15 160.46 365.67 159.78Z" fill="#DD7E63"/>
<path d="M327.04 179.33L339.53 184.26L359.96 186.68L361.32 141.82L337.54 144.31L322.36 143.02L327.04 179.33Z" fill="#BDE4DA"/>
<path d="M337.54 144.31C337.81 147.63 338.05 150.96 338.25 154.29L338.81 164.27L339.24 174.26C339.37 177.59 339.46 180.92 339.52 184.26C339.25 180.94 339.01 177.61 338.81 174.28L338.25 164.3L337.82 154.31C337.69 150.98 337.6 147.65 337.54 144.31Z" fill="#86BCAD"/>
<path d="M360.81 165.3C362.98 166.9 366.14 166.46 367.84 164.29C369.56 162.09 369.12 158.99 366.86 157.42C364.63 155.87 361.51 156.4 359.87 158.58C358.25 160.73 358.66 163.73 360.81 165.31V165.3Z" fill="#F69C7F"/>
<path d="M359.24 166.91L364.83 166.13C366.93 165.84 368.41 163.94 368.12 161.91C367.83 159.88 365.89 158.51 363.8 158.85L358.24 159.75C356.25 160.07 354.88 161.91 355.14 163.87C355.41 165.83 357.23 167.19 359.23 166.91H359.24Z" fill="#F69C7F"/>
<path d="M356.25 162.75L361.08 162.04C362.11 161.88 362.84 160.93 362.7 159.92C362.56 158.91 361.6 158.23 360.57 158.4L355.75 159.16C354.76 159.32 354.06 160.26 354.2 161.24C354.33 162.23 355.25 162.9 356.24 162.75H356.25Z" fill="#F69C7F"/>
<path d="M326.02 167.65L321.73 166.48C320.19 166.06 319.24 164.28 319.58 162.5C319.93 160.72 321.45 159.58 323 159.96L327.33 161.04C328.95 161.44 329.97 163.27 329.6 165.12C329.23 166.96 327.62 168.09 326.02 167.65Z" fill="#F69C7F"/>
<path d="M329.32 161.48L325.4 162.24C324.59 162.39 323.83 161.76 323.71 160.83C323.58 159.9 324.13 159.03 324.94 158.87L328.84 158.07C329.68 157.91 330.46 158.54 330.6 159.49C330.73 160.44 330.16 161.33 329.32 161.49V161.48Z" fill="#F69C7F"/>
<path d="M325.71 165.37C324.45 167.35 322.05 167.75 320.36 166.3C318.69 164.87 318.33 162.14 319.54 160.18C320.76 158.21 323.14 157.73 324.86 159.14C326.6 160.57 326.99 163.38 325.71 165.37Z" fill="#F69C7F"/>
<path d="M303.79 128.72H315.12C321.96 128.72 327.51 123.17 327.51 116.33C327.51 109.49 321.96 103.94 315.12 103.94H303.79C296.95 103.94 291.4 109.49 291.4 116.33C291.4 123.17 296.95 128.72 303.79 128.72Z" fill="#FFF4D8"/>
<path d="M325.75 130.48C325.75 131.97 326.96 133.17 328.44 133.17C329.92 133.17 331.13 131.96 331.13 130.48C331.13 129 329.92 127.79 328.44 127.79C326.96 127.79 325.75 129 325.75 130.48Z" fill="#FFF4D8"/>
<path d="M333.98 134.3C333.98 135.33 334.82 136.17 335.85 136.17C336.88 136.17 337.72 135.33 337.72 134.3C337.72 133.27 336.88 132.43 335.85 132.43C334.82 132.43 333.98 133.27 333.98 134.3Z" fill="#FFF4D8"/>
<path d="M307.4 112.98L306.7 109.5L310.77 108.85L311.19 112.37L311.68 119.04L309.03 119.47L307.41 112.99L307.4 112.98ZM308.56 123.22C308.34 121.85 309.16 120.6 310.53 120.38C311.9 120.16 313.07 121.09 313.29 122.46C313.51 123.83 312.69 125.08 311.32 125.3C309.95 125.52 308.78 124.59 308.56 123.22Z" fill="#F36B54"/>
<path d="M299.99 112.84L298.75 110.73L301.25 109.39L302.32 111.59L304.14 115.82L302.51 116.69L299.99 112.83V112.84ZM303.05 119.25C302.6 118.41 302.85 117.41 303.69 116.96C304.53 116.51 305.5 116.85 305.96 117.69C306.41 118.53 306.16 119.53 305.32 119.98C304.48 120.43 303.51 120.09 303.05 119.25Z" fill="#F36B54"/>
<path d="M314.81 118.71C314.84 117.89 315.46 117.26 316.28 117.29C317.1 117.32 317.67 118 317.64 118.82C317.61 119.64 316.99 120.27 316.17 120.24C315.35 120.21 314.78 119.53 314.81 118.71ZM315.33 112.63V110.53L317.76 110.62L317.59 112.71L317.1 116.63L315.51 116.57L315.32 112.62L315.33 112.63Z" fill="#F36B54"/>
<path d="M89.71 177.82C89.09 179.71 90.22 181.72 92.15 182.19L112.1 187.02C113.02 187.24 113.95 186.72 114.24 185.82C114.53 184.92 114.09 183.95 113.21 183.59L94.25 175.73C92.42 174.97 90.32 175.93 89.71 177.82Z" fill="#DB6B52"/>
<path d="M74.8201 173.64C73.9101 176.59 75.7101 179.68 78.7201 180.36L107.26 186.55C108.69 186.87 110.13 186.04 110.56 184.63C110.99 183.23 110.27 181.73 108.91 181.19L81.8201 170.27C78.9501 169.14 75.7301 170.69 74.8201 173.64Z" fill="#154169"/>
<path d="M112.37 184.37L111.12 183.27C110.11 182.38 110.01 180.84 110.9 179.83C111.79 178.82 113.33 178.72 114.34 179.61L115.59 180.71C116.6 181.6 116.7 183.14 115.81 184.15C114.92 185.16 113.38 185.26 112.37 184.37Z" fill="#007CD8"/>
<path d="M57.78 181.92C58.68 185.08 61.97 186.91 65.13 186L80.61 181.58C83.77 180.68 85.6 177.39 84.69 174.23C83.79 171.07 80.5 169.24 77.34 170.15L61.86 174.57C58.7 175.47 56.87 178.76 57.78 181.92Z" fill="#154169"/>
<path d="M64.7501 185.79C57.0401 185.48 51.0401 178.98 51.3501 171.28L52.3601 146.03C52.5101 142.18 55.7601 139.17 59.6201 139.33C63.4701 139.48 66.4701 142.73 66.3201 146.59L64.7601 185.8L64.7501 185.79Z" fill="#0C3C4A"/>
<path d="M57.8 160.37C57.53 161.76 58.45 163.11 59.85 163.38L68.25 165.03C69.64 165.3 70.99 164.38 71.26 162.98C71.53 161.58 70.61 160.24 69.21 159.97L60.81 158.32C59.41 158.05 58.07 158.97 57.8 160.37Z" fill="#DB6B52"/>
<path d="M69.4499 164.67C68.9299 164.9 68.6999 165.51 68.9299 166.02L70.1299 168.72C70.3599 169.24 70.9699 169.47 71.4799 169.24C71.9999 169.01 72.2299 168.4 71.9999 167.89L70.8099 165.19C70.5799 164.67 69.9699 164.44 69.4599 164.67H69.4499Z" fill="#DB6B52"/>
<path d="M70.79 164.14C70.04 163.85 69.2 164.22 68.91 164.97C68.62 165.72 68.99 166.56 69.74 166.85C70.49 167.14 71.33 166.77 71.62 166.02C71.91 165.27 71.54 164.43 70.79 164.14Z" fill="#DB6B52"/>
<path d="M71.5599 164.77C71.8999 164.32 72.5499 164.23 72.9999 164.57L77.5999 168.06C78.0499 168.4 78.1399 169.05 77.7999 169.5C77.4599 169.95 76.8099 170.04 76.3599 169.7L71.7599 166.21C71.3099 165.87 71.2199 165.22 71.5599 164.77Z" fill="#DB6B52"/>
<path d="M68.2864 162.141L68.3424 162.046C68.9187 161.074 70.1792 160.752 71.1513 161.328L74.0588 163.052C75.0308 163.628 75.353 164.888 74.7768 165.86L74.7207 165.955C74.1445 166.927 72.8839 167.249 71.9119 166.673L69.0044 164.95C68.0324 164.373 67.7101 163.113 68.2864 162.141Z" fill="#DB6B52"/>
<path d="M52.8899 191.1L51.6799 191.2C46.6899 191.62 42.2999 187.92 41.8799 182.93C41.4599 177.94 45.1599 173.55 50.1499 173.13L51.3599 173.03C56.3499 172.61 60.7399 176.31 61.1599 181.3C61.5799 186.29 57.8799 190.68 52.8899 191.1Z" fill="#0B488A"/>
<path d="M43.4199 181.06C42.3399 184.46 44.2199 188.1 47.6199 189.18L78.4799 199C81.8799 200.08 85.5199 198.2 86.5999 194.8C87.6799 191.4 85.7999 187.76 82.3999 186.68L51.5399 176.86C48.1399 175.78 44.4999 177.66 43.4199 181.06Z" fill="#0B488A"/>
<path d="M56.2209 125.739L68.6176 129.084L65.937 139.019C65.5515 140.448 64.0803 141.294 62.6514 140.908L52.8422 138.261L56.2209 125.739Z" fill="#FF988D"/>
<path d="M41.5601 173.15C41.1501 175.64 59.2501 178.63 59.7801 176.15L64.1101 145.46C65.1501 140.56 47.4501 137.48 46.6301 142.41L41.5601 173.14V173.15Z" fill="#FFAE54"/>
<path d="M59.7999 155.65L54.8899 152.98C52.5099 151.69 51.6399 148.72 52.9299 146.34C54.2199 143.96 57.1899 143.09 59.5699 144.38L64.4799 147.05C66.8599 148.34 67.7299 151.31 66.4399 153.69C65.1499 156.07 62.1799 156.94 59.7999 155.65Z" fill="#FFAE54"/>
<path d="M55.4599 144.77C53.1699 144.15 51.8199 141.8 52.4399 139.51L55.2799 128.98L63.5599 131.21L60.7199 141.74C60.0999 144.03 57.7499 145.38 55.4599 144.76V144.77Z" fill="#FF988D"/>
<path d="M57.5301 132.82C55.6701 132.32 54.5701 130.4 55.0701 128.54L55.9901 125.11C56.4901 123.25 58.4101 122.15 60.2701 122.65C62.1301 123.15 65.4801 125.67 64.9801 127.53L64.4301 129.57C64.2401 130.29 63.6001 130.79 62.8501 130.82C60.4501 130.9 59.1301 133.25 57.5201 132.82H57.5301Z" fill="#F36B54"/>
<path d="M53.42 135.67C55.79 136.2 58.14 134.72 58.67 132.35L60.06 126.18C60.59 123.81 59.11 121.46 56.74 120.93C54.37 120.4 52.02 121.88 51.49 124.25L50.1 130.42C49.57 132.79 51.05 135.14 53.42 135.67Z" fill="#F36B54"/>
<path d="M47.86 128.69C49.38 129.07 50.69 130.16 51.29 131.73L52.18 133.98C52.18 133.98 52.18 133.98 52.18 133.99C52.46 134.74 53.18 135.22 53.98 135.16C54.45 135.13 54.93 135.03 55.39 134.85C57.94 133.88 59.22 131.03 58.25 128.48L57.36 126.23C56.39 123.68 53.54 122.4 50.99 123.37C48.79 124.21 47.53 126.45 47.86 128.69Z" fill="#F36B54"/>
<path d="M49.6501 134.94C50.7001 134.3 52.0301 134.16 53.2401 134.69L54.9901 135.43C55.5601 135.68 56.2301 135.54 56.6401 135.07C56.8801 134.79 57.0901 134.47 57.2401 134.11C58.1001 132.15 57.2101 129.86 55.2501 129L53.5001 128.26C51.5401 127.4 49.2501 128.29 48.3901 130.25C47.6501 131.94 48.2101 133.88 49.6401 134.93L49.6501 134.94Z" fill="#F36B54"/>
<path d="M60.0601 133.22C59.7301 134.45 58.4601 135.17 57.2401 134.84C56.0101 134.51 55.2901 133.24 55.6201 132.02C55.9501 130.79 57.2201 130.07 58.4401 130.4C59.6701 130.73 60.3901 132 60.0601 133.22Z" fill="#FF988D"/>
<path d="M65.4699 134.87C65.3899 135.16 65.5599 135.47 65.8599 135.55C66.1499 135.63 66.4599 135.46 66.5399 135.16C66.6199 134.87 66.4499 134.56 66.1499 134.48C65.8599 134.4 65.5499 134.57 65.4699 134.87Z" fill="#0C3C4A"/>
<path d="M62.9999 134.21C62.9199 134.5 63.0899 134.81 63.3899 134.89C63.6799 134.97 63.9899 134.8 64.0699 134.5C64.1499 134.21 63.9799 133.9 63.6799 133.82C63.3799 133.74 63.0799 133.91 62.9999 134.21Z" fill="#0C3C4A"/>
<path d="M49.38 184.6C41.92 182.64 37.46 175 39.42 167.54L45.84 143.1C46.82 139.37 50.64 137.14 54.37 138.12C58.1 139.1 60.33 142.92 59.35 146.65L49.38 184.6Z" fill="#007CD8"/>
<path d="M63.7901 174.17C63.6001 173.44 64.0401 172.7 64.7601 172.51L73.6701 171.51C74.4001 171.32 75.1401 171.76 75.3301 172.48C75.5201 173.21 75.0801 173.95 74.3601 174.14L65.4501 175.14C64.7201 175.33 63.9801 174.89 63.7901 174.17Z" fill="#FF988D"/>
<path d="M64.2801 174.28C63.5201 173.84 63.2701 172.87 63.7101 172.11L67.2601 167.71C67.7001 166.95 68.6701 166.7 69.4301 167.14C70.1901 167.58 70.4401 168.55 70.0001 169.31L66.4501 173.71C66.0101 174.47 65.0401 174.72 64.2801 174.28Z" fill="#FF988D"/>
<path d="M46.4099 170.54C44.8099 170.13 43.8499 168.49 44.2599 166.89L49.1399 146.98C49.5499 145.38 51.1899 144.42 52.7899 144.83C54.3899 145.24 55.3499 146.88 54.9399 148.48L50.0599 168.39C49.6499 169.99 48.0099 170.95 46.4099 170.54Z" fill="#FF988D"/>
<path d="M45.9401 156.22L48.1001 147.59C48.6301 145.54 50.7201 144.3 52.7801 144.83C54.8301 145.36 56.0701 147.45 55.5401 149.51L53.3801 158.14C52.8501 160.19 45.4101 158.28 45.9401 156.22Z" fill="#FFAE54"/>
<path d="M83.2501 171.33L63.2401 173.02C62.6201 173.07 62.0801 172.61 62.0301 172C61.9801 171.38 62.4401 170.84 63.0501 170.79L83.0601 169.1C83.6801 169.05 84.2201 169.51 84.2701 170.12C84.3201 170.74 83.8601 171.28 83.2501 171.33Z" fill="#0B488A"/>
<path d="M85.45 168.39C86.03 168.62 86.68 168.34 86.91 167.77L94.42 149.15C94.65 148.57 94.37 147.92 93.8 147.69C93.8 147.69 89.73 147.93 89.58 147.93C89.14 147.93 88.73 148.2 88.56 148.63L81.05 167.25C80.82 167.83 81.1 168.48 81.67 168.71L85.45 168.39Z" fill="#0B488A"/>
<path d="M86.9199 167.97C87.0199 169.21 85.7099 170.33 83.9799 170.47C82.2499 170.62 80.7699 169.73 80.6599 168.49C80.5599 167.25 81.8699 166.13 83.5999 165.99C85.3299 165.84 86.8099 166.73 86.9199 167.97Z" fill="#0B488A"/>
<path d="M69.66 121C68.46 122.01 66.81 122.43 65.19 121.99L59.3 120.06C59.3 120.06 59.3 120.06 59.29 120.06C58.52 119.85 57.71 120.15 57.29 120.83C57.04 121.23 56.84 121.68 56.71 122.16C56 124.79 57.56 127.5 60.19 128.21L66.08 130.14C68.71 130.85 71.42 129.29 72.13 126.66C72.74 124.38 71.66 122.05 69.66 121Z" fill="#F36B54"/>
<path d="M89.13 159.62C88.75 160.44 88.15 160.96 87.8 160.8C87.45 160.64 87.48 159.84 87.86 159.03C88.24 158.22 88.84 157.69 89.19 157.85C89.54 158.01 89.51 158.81 89.13 159.62Z" fill="#FFA4AF"/>
<path d="M44.0099 167.53C44.1799 165.89 45.6499 164.69 47.2999 164.87L66.3899 169.71C68.0299 169.88 69.2299 171.35 69.0499 173C68.8799 174.64 67.4099 175.84 65.7599 175.66L46.6699 170.82C45.0299 170.65 43.8299 169.18 43.9999 167.53H44.0099Z" fill="#FF988D"/>
<path d="M71.38 171.5C71.58 173.86 69.83 175.94 67.46 176.14C65.1 176.34 63.02 174.59 62.82 172.22C62.62 169.85 64.37 167.78 66.74 167.58C69.11 167.38 71.18 169.13 71.38 171.5Z" fill="#FF988D"/>
<path d="M87.1801 200.1C85.5501 201.34 85.3301 203.71 86.6901 205.24L100.83 221.04C101.48 221.77 102.58 221.87 103.35 221.28C104.12 220.69 104.31 219.6 103.78 218.78L92.2601 200.99C91.1501 199.27 88.8001 198.86 87.1701 200.11L87.1801 200.1Z" fill="#FF988D"/>
<path d="M77.9699 188.15C75.4999 189.99 75.1199 193.54 77.1499 195.86L98.1099 219.83C99.0699 220.93 100.72 221.11 101.9 220.23C103.07 219.35 103.38 217.72 102.59 216.49L85.5999 189.56C83.9599 186.96 80.4399 186.3 77.9699 188.14V188.15Z" fill="#0B488A"/>
<path d="M97.11 225L97 221.73C96.97 220.83 97.67 220.08 98.57 220.05C99.47 220.02 100.22 220.72 100.25 221.62L100.36 224.89C100.39 225.79 99.69 226.54 98.79 226.57C97.89 226.6 97.14 225.9 97.11 225Z" fill="#007CD8"/>
<path d="M103.31 221.16L103.25 219.24C103.2 217.68 104.42 216.38 105.97 216.33C107.53 216.28 108.83 217.5 108.88 219.05L108.94 220.97C108.99 222.53 107.77 223.83 106.22 223.88C104.66 223.93 103.36 222.71 103.31 221.16Z" fill="#007CD8"/>
<path d="M112.62 225.83L100.01 226.25C98.51 226.3 97.25 225.12 97.2 223.62C97.15 222.12 98.33 220.86 99.83 220.81L112.44 220.39C113.94 220.34 115.2 221.52 115.25 223.02C115.3 224.52 114.12 225.78 112.62 225.83Z" fill="#007CD8"/>
<path d="M115.01 226.74L98.29 227.29C97.6 227.31 97.02 226.77 96.99 226.08C96.97 225.39 97.51 224.81 98.2 224.78L114.92 224.23C115.61 224.21 116.19 224.75 116.22 225.44C116.24 226.13 115.7 226.71 115.01 226.74Z" fill="#0B488A"/>
<path d="M115.52 187.29L120.83 181.25C121.69 180.27 121.59 178.79 120.61 177.93C119.63 177.07 118.15 177.17 117.29 178.15L110.09 186.35C109.84 186.63 109.68 186.96 109.59 187.29H115.52Z" fill="#007CD8"/>
<path d="M111.68 187.29L110.85 186.56C110.27 186.05 109.38 186.1 108.86 186.69C108.7 186.87 108.62 187.08 108.57 187.29H111.68Z" fill="#007CD8"/>
<path d="M116.66 187.29L122.81 180.29C123.21 179.84 123.16 179.15 122.71 178.76C122.26 178.36 121.57 178.41 121.18 178.86L113.77 187.3H116.66V187.29Z" fill="#0B488A"/>
<path d="M56.26 278.12C54.67 280.13 51.75 280.47 49.74 278.88L39.31 270.63C37.3 269.04 36.96 266.12 38.55 264.11C40.14 262.1 43.06 261.76 45.07 263.35L55.5 271.6C57.51 273.19 57.85 276.11 56.26 278.12Z" fill="#DCC9FF"/>
<path d="M21.4501 341.47C20.2001 341.12 18.9001 341.86 18.5601 343.11L15.4201 354.45C15.0701 355.7 15.8101 357 17.0601 357.34C18.3101 357.69 19.6101 356.95 19.9501 355.7L23.0901 344.36C23.4401 343.11 22.7001 341.81 21.4501 341.47Z" fill="#FFAD97"/>
<path d="M38.2201 334.43C37.0601 333.98 35.7501 334.56 35.3001 335.72L31.2101 346.27C30.7601 347.43 31.3401 348.74 32.5001 349.19C33.6601 349.64 34.9701 349.06 35.4201 347.9L39.5101 337.35C39.9601 336.19 39.3801 334.88 38.2201 334.43Z" fill="#FFAD97"/>
<path d="M32.66 307.24H23.51L23.49 322.05C23.49 324.58 25.53 326.63 28.06 326.63C30.59 326.63 32.64 324.59 32.64 322.06L32.66 307.24Z" fill="#F5424C"/>
<path d="M32.1901 297.46C30.0901 298.67 29.3701 301.36 30.5801 303.46L41.5901 322.52C42.8001 324.62 45.4901 325.34 47.5901 324.13C49.6901 322.92 50.4101 320.23 49.2001 318.13L38.1901 299.07C36.9801 296.97 34.2901 296.25 32.1901 297.46Z" fill="#F5424C"/>
<path d="M44.1501 318.94C41.8901 318.06 39.3401 319.19 38.4601 321.45L31.3001 340.27C30.4201 342.53 31.5501 345.08 33.8101 345.96C36.0701 346.84 38.6201 345.71 39.5001 343.45L46.6601 324.63C47.5401 322.37 46.4101 319.82 44.1501 318.94Z" fill="#F5424C"/>
<path d="M26.7801 320.78C24.3501 320.11 21.8301 321.53 21.1501 323.97L15.0401 346.04C14.3701 348.47 15.7901 350.99 18.2301 351.67C20.6601 352.34 23.1801 350.92 23.8601 348.48L29.9701 326.41C30.6401 323.98 29.2201 321.46 26.7801 320.78Z" fill="#F5424C"/>
<path d="M41.37 297.31H26.01C24.4857 297.31 23.25 298.546 23.25 300.07V308.26C23.25 309.784 24.4857 311.02 26.01 311.02H41.37C42.8943 311.02 44.13 309.784 44.13 308.26V300.07C44.13 298.546 42.8943 297.31 41.37 297.31Z" fill="#F5424C"/>
<path d="M44.5401 302.08C44.3501 305.05 22.6701 303.69 22.8601 300.72L25.1901 263.61C25.5001 258.64 47.1901 260 46.8701 264.97L44.5401 302.08Z" fill="#59395C"/>
<path d="M34.52 285C32.11 286.27 29.14 285.34 27.87 282.93L21.31 270.44C20.04 268.03 20.97 265.06 23.38 263.79C25.79 262.52 28.76 263.45 30.03 265.86L36.59 278.35C37.86 280.76 36.93 283.73 34.52 285Z" fill="#DCC9FF"/>
<path d="M35.4601 268.11C32.7601 268.11 30.5701 265.92 30.5701 263.22V245.45H40.3601V263.22C40.3601 265.92 38.1701 268.11 35.4701 268.11H35.4601Z" fill="#FCB5A7"/>
<path d="M30.5601 243.78H44.0901V255.89C44.0901 257.45 42.8201 258.71 41.2701 258.71H30.5701V243.78H30.5601Z" fill="#FCB5A7"/>
<path d="M30.5601 258.71V243.14H32.7301V256.54C32.7301 257.74 31.7601 258.71 30.5601 258.71Z" fill="#FFAE54"/>
<path d="M34.0601 239.47H45.7901V246.63H30.5701V242.96C30.5701 241.03 32.1301 239.47 34.0601 239.47Z" fill="#FFAE54"/>
<path d="M34.2501 251.11C32.3801 251.11 30.8601 249.59 30.8601 247.72V243.83C30.8601 241.96 32.3801 240.44 34.2501 240.44C36.1201 240.44 37.6401 241.96 37.6401 243.83V247.72C37.6401 249.59 36.1201 251.11 34.2501 251.11Z" fill="#FFAE54"/>
<path d="M34.4701 253.65C35.9226 253.65 37.1001 252.472 37.1001 251.02C37.1001 249.567 35.9226 248.39 34.4701 248.39C33.0176 248.39 31.8401 249.567 31.8401 251.02C31.8401 252.472 33.0176 253.65 34.4701 253.65Z" fill="#FCB5A7"/>
<path d="M44.8601 353.93H29.7801C28.8501 353.93 28.1601 353.06 28.3701 352.16L29.2601 348.37C29.4401 347.59 30.2201 347.11 31.0001 347.3L45.1901 351.09C45.8401 351.25 46.3001 351.83 46.3001 352.49C46.3001 353.29 45.6501 353.93 44.8601 353.93Z" fill="#0B488A"/>
<path d="M19.6501 359.26H17.6201C15.9801 359.26 14.6501 357.93 14.6501 356.29C14.6501 354.65 15.9801 353.32 17.6201 353.32H19.6501C21.2901 353.32 22.6201 354.65 22.6201 356.29C22.6201 357.93 21.2901 359.26 19.6501 359.26Z" fill="#154169"/>
<path d="M34.0701 348.63V346.68C34.0701 345.1 35.3501 343.82 36.9301 343.82C38.5101 343.82 39.7901 345.1 39.7901 346.68V348.63C39.7901 350.21 38.5101 351.49 36.9301 351.49C35.3501 351.49 34.0701 350.21 34.0701 348.63Z" fill="#154169"/>
<path d="M20.69 362.55H14.67C13.08 362.55 11.8 361.26 11.8 359.68C11.8 358.09 13.09 356.81 14.67 356.81H20.69C22.28 356.81 23.56 358.1 23.56 359.68C23.56 361.27 22.27 362.55 20.69 362.55Z" fill="#0B488A"/>
<path d="M43.36 353.68H30.55C29.03 353.68 27.79 352.44 27.79 350.92C27.79 349.4 29.03 348.16 30.55 348.16H43.36C44.88 348.16 46.12 349.4 46.12 350.92C46.12 352.44 44.88 353.68 43.36 353.68Z" fill="#0B488A"/>
<path d="M22.6201 363.59H12.4201C11.6901 363.59 11.0901 363 11.0901 362.26C11.0901 361.53 11.6801 360.93 12.4201 360.93H22.6201C23.3501 360.93 23.9501 361.52 23.9501 362.26C23.9501 362.99 23.3601 363.59 22.6201 363.59Z" fill="#154169"/>
<path d="M45.74 354.68H28.77C28.07 354.68 27.5 354.11 27.5 353.41C27.5 352.71 28.07 352.14 28.77 352.14H45.75C46.45 352.14 47.02 352.71 47.02 353.41C47.02 354.11 46.45 354.68 45.75 354.68H45.74Z" fill="#154169"/>
<path d="M41.6002 251.69C41.9812 251.69 42.2902 251.381 42.2902 251C42.2902 250.619 41.9812 250.31 41.6002 250.31C41.2191 250.31 40.9102 250.619 40.9102 251C40.9102 251.381 41.2191 251.69 41.6002 251.69Z" fill="#0C3C4A"/>
<path d="M44.3101 251.69C44.6912 251.69 45.0001 251.381 45.0001 251C45.0001 250.619 44.6912 250.31 44.3101 250.31C43.929 250.31 43.6201 250.619 43.6201 251C43.6201 251.381 43.929 251.69 44.3101 251.69Z" fill="#0C3C4A"/>
<path d="M33.3201 283.81L38.0601 283.25C39.7901 283.04 41.0301 281.47 40.8201 279.74C40.6101 278.01 39.0401 276.77 37.3101 276.98L32.5701 277.54C30.8401 277.75 29.6001 279.32 29.8101 281.05C30.0201 282.78 31.5901 284.02 33.3201 283.81Z" fill="#FCB5A7"/>
<path d="M30.4501 277.74L34.5001 278.85C35.3501 279.08 36.2301 278.57 36.4601 277.71C36.6901 276.86 36.1801 275.98 35.3201 275.75L31.2701 274.64C30.4201 274.41 29.5401 274.92 29.3101 275.78C29.0801 276.63 29.5901 277.51 30.4501 277.74Z" fill="#FCB5A7"/>
<path d="M33.8702 281.73C35.0302 283.73 37.5902 284.41 39.5802 283.25C41.5802 282.09 42.2602 279.53 41.1002 277.54C39.9402 275.54 37.3802 274.86 35.3902 276.02C33.3902 277.18 32.7102 279.74 33.8702 281.73Z" fill="#FCB5A7"/>
<path d="M39.43 278.99C40.05 278.63 40.26 277.84 39.9 277.22L37.57 273.2C37.21 272.58 36.42 272.37 35.8 272.73C35.18 273.09 34.97 273.88 35.33 274.5L37.66 278.52C38.02 279.14 38.81 279.35 39.43 278.99Z" fill="#FCB5A7"/>
<path d="M55.63 279.15C55.55 281.21 53.82 282.81 51.77 282.74L41.1 282.35C39.04 282.27 37.44 280.54 37.51 278.49C37.59 276.43 39.32 274.83 41.37 274.9L52.04 275.29C54.1 275.37 55.7 277.1 55.63 279.15Z" fill="#DCC9FF"/>
<path d="M54.8501 282.53L50.3001 283.33C48.6401 283.62 47.0501 282.56 46.7701 280.97C46.4801 279.37 47.6001 277.84 49.2601 277.55L53.8101 276.75C55.4701 276.46 57.0601 277.52 57.3401 279.11C57.6301 280.71 56.5101 282.24 54.8501 282.53Z" fill="#FCB5A7"/>
<path d="M56.1801 278.01L52.4601 279.66C51.6801 280 50.7701 279.67 50.4401 278.92C50.1101 278.17 50.4701 277.28 51.2601 276.94L54.9801 275.29C55.7601 274.95 56.6701 275.28 57.0001 276.03C57.3301 276.78 56.9701 277.67 56.1801 278.01Z" fill="#FCB5A7"/>
<path d="M52.56 282.02C51.04 283.59 48.48 283.69 46.84 282.23C45.2 280.77 45.1 278.31 46.62 276.74C48.14 275.17 50.7 275.07 52.34 276.53C53.98 277.99 54.08 280.45 52.56 282.02Z" fill="#FCB5A7"/>
<path d="M47.89 278.4C47.38 277.95 47.35 277.19 47.82 276.7L50.87 273.54C51.34 273.05 52.13 273.02 52.64 273.48C53.15 273.93 53.18 274.69 52.71 275.18L49.66 278.34C49.19 278.83 48.4 278.86 47.89 278.4Z" fill="#FCB5A7"/>
<path d="M51.2901 279.49C51.5201 281.67 49.9401 283.63 47.7601 283.87L32.4201 285.61C30.2401 285.84 28.2801 284.26 28.0401 282.08C27.8101 279.9 29.3901 277.94 31.5701 277.7L46.9101 275.96C49.0901 275.73 51.0501 277.31 51.2901 279.49Z" fill="#DCC9FF"/>
<path d="M85.71 256.61H71.79C63.75 256.61 57.22 250.09 57.22 242.04C57.22 234 63.74 227.47 71.79 227.47H85.71C93.75 227.47 100.28 233.99 100.28 242.04C100.28 250.08 93.76 256.61 85.71 256.61Z" fill="#F36B54"/>
<path d="M57.1002 256.95C57.1002 258.45 55.8802 259.67 54.3802 259.67C52.8802 259.67 51.6602 258.45 51.6602 256.95C51.6602 255.45 52.8802 254.23 54.3802 254.23C55.8802 254.23 57.1002 255.45 57.1002 256.95Z" fill="#F36B54"/>
<path d="M65.82 258.37C68.6035 258.37 70.86 256.114 70.86 253.33C70.86 250.546 68.6035 248.29 65.82 248.29C63.0365 248.29 60.78 250.546 60.78 253.33C60.78 256.114 63.0365 258.37 65.82 258.37Z" fill="#F36B54"/>
<path d="M80.15 238C80.26 237 79.58 236.53 78.74 236.44C77.79 236.34 77.13 236.77 76.33 237.36L73.98 234.68C75.51 233.27 77.55 232.43 79.78 232.67C82.84 233.01 85.13 234.67 84.75 238.17C84.38 241.51 80.22 241.95 80.16 245.04L75.99 244.58C75.83 240.9 79.95 239.78 80.15 238ZM74.8 248.73C74.98 247.12 76.29 245.97 77.9 246.14C79.51 246.32 80.54 247.73 80.36 249.34C80.18 250.95 78.87 252.1 77.26 251.93C75.65 251.75 74.62 250.34 74.8 248.73Z" fill="white"/>
<path d="M44.3701 247.3C48.3962 247.3 51.6601 244.036 51.6601 240.01C51.6601 235.984 48.3962 232.72 44.3701 232.72C40.3439 232.72 37.0801 235.984 37.0801 240.01C37.0801 244.036 40.3439 247.3 44.3701 247.3Z" fill="#FFAE54"/>
<path d="M40.21 242.25C40.21 245.06 37.9401 247.33 35.1301 247.33C32.3201 247.33 30.05 245.06 30.05 242.25C30.05 239.44 32.3201 237.17 35.1301 237.17C37.9401 237.17 40.21 239.44 40.21 242.25Z" fill="#FFAE54"/>
<path d="M445.76 273.23H431.27C422.9 273.23 416.11 266.44 416.11 258.07C416.11 249.7 422.9 242.91 431.27 242.91H445.76C454.13 242.91 460.92 249.7 460.92 258.07C460.92 266.44 454.13 273.23 445.76 273.23Z" fill="#F36B54"/>
<path d="M415.99 273.58C415.99 275.14 414.72 276.41 413.16 276.41C411.6 276.41 410.33 275.14 410.33 273.58C410.33 272.02 411.6 270.75 413.16 270.75C414.72 270.75 415.99 272.02 415.99 273.58Z" fill="#F36B54"/>
<path d="M430.31 269.81C430.31 272.71 427.96 275.05 425.07 275.05C422.18 275.05 419.83 272.7 419.83 269.81C419.83 266.92 422.18 264.57 425.07 264.57C427.96 264.57 430.31 266.92 430.31 269.81Z" fill="#F36B54"/>
<path d="M407.35 277.59C407.35 278.67 406.47 279.55 405.39 279.55C404.31 279.55 403.43 278.67 403.43 277.59C403.43 276.51 404.31 275.63 405.39 275.63C406.47 275.63 407.35 276.51 407.35 277.59Z" fill="#F36B54"/>
<path d="M439.98 253.87C440.09 252.83 439.39 252.34 438.52 252.24C437.54 252.13 436.84 252.58 436.01 253.19L433.56 250.4C435.16 248.94 437.28 248.06 439.59 248.31C442.77 248.66 445.16 250.39 444.76 254.04C444.38 257.51 440.05 257.97 439.99 261.19L435.65 260.71C435.49 256.88 439.77 255.72 439.98 253.86V253.87ZM434.41 265.03C434.6 263.35 435.96 262.15 437.64 262.34C439.32 262.52 440.39 263.99 440.2 265.67C440.02 267.35 438.65 268.55 436.97 268.36C435.29 268.18 434.22 266.71 434.41 265.03Z" fill="white"/>
<path d="M410.81 368.89C412.1 368.53 413.44 369.29 413.8 370.58L417.05 382.31C417.41 383.6 416.65 384.94 415.36 385.3C414.07 385.66 412.73 384.9 412.37 383.61L409.12 371.88C408.76 370.59 409.52 369.25 410.81 368.89Z" fill="#F69C7F"/>
<path d="M390.54 366.57C391.88 366.66 392.9 367.81 392.81 369.15L392.02 381.3C391.93 382.64 390.78 383.66 389.44 383.57C388.1 383.48 387.08 382.33 387.17 380.99L387.96 368.84C388.05 367.5 389.2 366.48 390.54 366.57Z" fill="#F69C7F"/>
<path d="M399.21 333.48H408.67L408.69 348.79C408.69 351.4 406.58 353.52 403.97 353.53C401.36 353.53 399.24 351.42 399.23 348.81L399.21 333.48Z" fill="#0B488A"/>
<path d="M392.06 320.77C394.67 320.94 396.64 323.19 396.47 325.8L394.93 349.44C394.76 352.05 392.51 354.02 389.9 353.85C387.29 353.68 385.32 351.43 385.49 348.82L387.03 325.18C387.2 322.57 389.45 320.6 392.06 320.77Z" fill="#0B488A"/>
<path d="M391.76 348.76C394.37 348.93 396.34 351.18 396.17 353.79L394.63 375.4C394.46 378.01 392.21 379.98 389.6 379.81C386.99 379.64 385.02 377.39 385.19 374.78L386.73 353.17C386.9 350.56 389.15 348.59 391.76 348.76Z" fill="#0B488A"/>
<path d="M405.29 347.49C407.81 346.79 410.41 348.27 411.11 350.79L417.43 373.62C418.13 376.14 416.65 378.74 414.13 379.44C411.61 380.14 409.01 378.66 408.31 376.14L401.99 353.31C401.29 350.79 402.77 348.19 405.29 347.49Z" fill="#0B488A"/>
<path d="M386.42 335.22H408.89V320.47H386.42V335.22Z" fill="#154169"/>
<path d="M370.79 303.29C372.5 305.45 375.64 305.82 377.8 304.11L389.02 295.24C391.18 293.53 391.55 290.39 389.84 288.23C388.13 286.07 384.99 285.7 382.83 287.41L371.61 296.28C369.45 297.99 369.08 301.13 370.79 303.29Z" fill="#FFE266"/>
<path d="M385.98 327.92C386.18 331.11 409.51 329.65 409.31 326.45L406.8 286.52C406.46 281.17 383.13 282.64 383.47 287.99L385.98 327.92Z" fill="#FFE266"/>
<path d="M411.36 323.07L411.31 317.94C411.29 316.06 409.82 314.54 408.02 314.55C406.22 314.55 404.77 316.09 404.78 317.96L404.83 323.09C404.85 324.97 406.32 326.49 408.12 326.48C409.92 326.48 411.37 324.94 411.36 323.07Z" fill="#F69C7F"/>
<path d="M407.26 325.32V320.8C407.24 319.85 406.5 319.08 405.58 319.08C404.67 319.08 403.93 319.86 403.94 320.81V325.33C403.96 326.28 404.7 327.05 405.62 327.05C406.53 327.05 407.27 326.27 407.26 325.32Z" fill="#F69C7F"/>
<path d="M410.11 321.44C411.78 319.68 411.76 316.83 410.05 315.08C408.35 313.33 405.61 313.34 403.94 315.11C402.27 316.87 402.29 319.72 404 321.47C405.7 323.22 408.44 323.21 410.11 321.44Z" fill="#F69C7F"/>
<path d="M405.86 316.43C405.33 315.89 404.49 315.89 403.97 316.43L400.61 319.98C400.09 320.53 400.1 321.41 400.63 321.95C401.16 322.49 402 322.49 402.52 321.95L405.88 318.4C406.4 317.85 406.39 316.97 405.86 316.43Z" fill="#F69C7F"/>
<path d="M417.8 304.59C419.85 302.75 420.02 299.59 418.18 297.54L408.62 286.9C406.78 284.85 403.62 284.68 401.57 286.52C399.52 288.36 399.35 291.52 401.19 293.57L410.75 304.21C412.59 306.26 415.75 306.43 417.8 304.59Z" fill="#FFE266"/>
<path d="M406.65 318.59C408.65 319.58 411.07 318.77 412.06 316.77L419.12 302.79C420.11 300.79 419.3 298.37 417.3 297.38C415.3 296.39 412.88 297.2 411.89 299.2L404.83 313.18C403.84 315.18 404.65 317.6 406.65 318.59Z" fill="#FFE266"/>
<path d="M395.75 291.37C398.66 291.37 401.02 289.01 401.02 286.1V266.98H390.49V286.1C390.49 289.01 392.85 291.37 395.76 291.37H395.75Z" fill="#F69C7F"/>
<path d="M401.02 281.26H389.5C387.82 281.26 386.46 279.9 386.46 278.22V265.19H401.02V281.26Z" fill="#F69C7F"/>
<path d="M401.02 281.26V264.5H398.68V278.92C398.68 280.21 399.73 281.26 401.02 281.26Z" fill="#0C3C4A"/>
<path d="M401.02 268.26H384.64V260.55H397.26C399.33 260.55 401.02 262.23 401.02 264.31V268.26Z" fill="#0C3C4A"/>
<path d="M384.89 256.85H386.6C386.07 257.91 385.77 259.1 385.77 260.37C385.77 263.59 387.7 266.36 390.47 267.59V268.26H384.89C381.74 268.26 379.19 265.71 379.19 262.56C379.19 259.41 381.74 256.86 384.89 256.86V256.85Z" fill="#0C3C4A"/>
<path d="M387.52 256.85H389.23C388.7 257.91 388.4 259.1 388.4 260.37C388.4 263.59 390.33 266.36 393.1 267.59V268.26H387.52C384.37 268.26 381.82 265.71 381.82 262.56C381.82 259.41 384.37 256.86 387.52 256.86V256.85Z" fill="#0C3C4A"/>
<path d="M390.14 256.85C390.91 256.85 391.48 257.58 391.28 258.33C391.11 258.98 391.01 259.66 391.01 260.37C391.01 263.59 392.94 266.36 395.71 267.59V268.26H390.13C386.98 268.26 384.43 265.71 384.43 262.56C384.43 259.41 386.98 256.86 390.13 256.86L390.14 256.85Z" fill="#0C3C4A"/>
<path d="M397.05 273.08C399.06 273.08 400.7 271.45 400.7 269.43V265.24C400.7 263.23 399.07 261.59 397.05 261.59C395.04 261.59 393.4 263.22 393.4 265.24V269.43C393.4 271.44 395.03 273.08 397.05 273.08Z" fill="#0C3C4A"/>
<path d="M388.58 272.98C388.58 274.32 389.66 275.4 391 275.4C392.34 275.4 393.42 274.32 393.42 272.98C393.42 271.64 392.34 270.56 391 270.56C389.66 270.56 388.58 271.64 388.58 272.98Z" stroke="#F36B54" stroke-width="0.87" stroke-miterlimit="10"/>
<path d="M383.45 272.98C383.45 274.32 384.53 275.4 385.87 275.4C387.21 275.4 388.29 274.32 388.29 272.98C388.29 271.64 387.21 270.56 385.87 270.56C384.53 270.56 383.45 271.64 383.45 272.98Z" stroke="#F36B54" stroke-width="0.87" stroke-miterlimit="10"/>
<path d="M392.67 271.33H397.02" stroke="#F36B54" stroke-width="0.87" stroke-miterlimit="10"/>
<path d="M393.99 272.98C393.99 274.54 395.26 275.81 396.82 275.81C398.38 275.81 399.65 274.54 399.65 272.98C399.65 271.42 398.38 270.15 396.82 270.15C395.26 270.15 393.99 271.42 393.99 272.98Z" fill="#F69C7F"/>
<path d="M361.36 292.88C360.16 294.76 360.7 297.25 362.58 298.45L372.31 304.69C374.19 305.89 376.68 305.35 377.88 303.47C379.08 301.59 378.54 299.1 376.66 297.9L366.93 291.66C365.05 290.46 362.56 291 361.36 292.88Z" fill="#FFE266"/>
<path d="M356.13 295.93L361.19 296.77C363.04 297.08 364.8 295.83 365.1 293.97C365.41 292.12 364.16 290.36 362.3 290.06L357.24 289.22C355.39 288.91 353.63 290.16 353.33 292.02C353.02 293.87 354.27 295.63 356.13 295.93Z" fill="#F69C7F"/>
<path d="M355 288.79L358.85 291.16C359.66 291.65 360.72 291.39 361.22 290.58C361.71 289.77 361.45 288.71 360.64 288.21L356.79 285.84C355.98 285.35 354.92 285.61 354.42 286.42C353.93 287.23 354.19 288.29 355 288.79Z" fill="#F69C7F"/>
<path d="M357.33 293.94C357.93 296.35 360.36 297.83 362.78 297.23C365.19 296.63 366.67 294.2 366.07 291.78C365.47 289.37 363.04 287.89 360.62 288.49C358.21 289.09 356.73 291.52 357.33 293.94Z" fill="#F69C7F"/>
<path d="M363.9 292.79C364.65 292.61 365.1 291.85 364.92 291.1L363.72 286.25C363.54 285.5 362.78 285.05 362.03 285.23C361.28 285.41 360.83 286.17 361.01 286.92L362.21 291.77C362.39 292.52 363.15 292.97 363.9 292.79Z" fill="#F69C7F"/>
<path d="M377.4 388.93H393.62C394.62 388.93 395.36 388 395.13 387.02L394.17 382.94C393.97 382.1 393.13 381.58 392.3 381.78L377.03 385.86C376.33 386.03 375.84 386.65 375.84 387.37C375.84 388.23 376.54 388.92 377.39 388.92L377.4 388.93Z" fill="#0B488A"/>
<path d="M412.67 387.28H414.77C416.47 387.28 417.85 385.9 417.85 384.2C417.85 382.5 416.47 381.12 414.77 381.12H412.67C410.97 381.12 409.59 382.5 409.59 384.2C409.59 385.9 410.97 387.28 412.67 387.28Z" fill="#154169"/>
<path d="M389.02 383.23V381.13C389.02 379.43 387.64 378.05 385.94 378.05C384.24 378.05 382.86 379.43 382.86 381.13V383.23C382.86 384.93 384.24 386.31 385.94 386.31C387.64 386.31 389.02 384.93 389.02 383.23Z" fill="#154169"/>
<path d="M411.59 390.68H417.82C419.46 390.68 420.79 389.35 420.79 387.71C420.79 386.07 419.46 384.74 417.82 384.74H411.59C409.95 384.74 408.62 386.07 408.62 387.71C408.62 389.35 409.95 390.68 411.59 390.68Z" fill="#0B488A"/>
<path d="M379.02 388.66H392.8C394.44 388.66 395.77 387.33 395.77 385.69C395.77 384.05 394.44 382.72 392.8 382.72H379.02C377.38 382.72 376.05 384.05 376.05 385.69C376.05 387.33 377.38 388.66 379.02 388.66Z" fill="#0B488A"/>
<path d="M409.6 391.77H420.15C420.91 391.77 421.52 391.16 421.52 390.4C421.52 389.64 420.91 389.03 420.15 389.03H409.6C408.84 389.03 408.23 389.64 408.23 390.4C408.23 391.16 408.84 391.77 409.6 391.77Z" fill="#154169"/>
<path d="M376.45 389.74H394.72C395.48 389.74 396.09 389.13 396.09 388.37C396.09 387.61 395.48 387 394.72 387H376.45C375.69 387 375.08 387.61 375.08 388.37C375.08 389.13 375.69 389.74 376.45 389.74Z" fill="#154169"/>
<path d="M411.106 380.544L417.506 378.773C418.751 378.428 419.481 377.139 419.137 375.893L418.496 373.58C418.152 372.335 416.863 371.605 415.617 371.949L409.218 373.72C407.972 374.065 407.242 375.354 407.587 376.6L408.227 378.913C408.571 380.158 409.861 380.889 411.106 380.544Z" fill="#154169"/>
</g>
<defs>
<clipPath id="clip0_2305_1382">
<rect width="460.92" height="391.77" fill="white"/>
</clipPath>
</defs>
</svg>
