<svg width="276" height="56" viewBox="0 0 276 56" fill="none" xmlns="http://www.w3.org/2000/svg">
<path d="M74.2812 23.6579L73.5466 26.5989C72.8979 29.1702 71.2656 30.4558 68.6451 30.4558H61.6989L60.204 36.441H53.8076L58.0046 19.6462H71.1668C73.3877 19.6462 74.496 20.4675 74.496 22.1143C74.496 22.5529 74.4272 23.0688 74.2855 23.6622L74.2812 23.6579ZM67.859 23.817C67.9278 23.5031 67.9621 23.258 67.9621 23.0817C67.9621 22.6432 67.6915 22.4239 67.1502 22.4239H63.6878L62.3776 27.6739H65.84C66.5574 27.6739 67.0213 27.2353 67.2275 26.3624L67.8547 23.817H67.859Z" fill="url(#paint0_linear_3532_21513)"/>
<path d="M84.3248 19.6418L80.1278 36.4366H73.7314L77.9284 19.6418H84.3248Z" fill="url(#paint1_linear_3532_21513)"/>
<path d="M103.858 24.2897L101.998 31.7971C101.229 34.8929 99.4634 36.4408 96.7013 36.4408H86.8941C84.7462 36.4408 83.668 35.4776 83.668 33.5557C83.668 33.0311 83.7453 32.4463 83.9042 31.7971L85.7643 24.2897C86.5332 21.1939 88.3074 19.646 91.0867 19.646H100.894C103.025 19.646 104.094 20.6005 104.094 22.5053C104.094 23.0299 104.017 23.6233 103.858 24.2897ZM97.6721 23.4771C97.7065 23.3352 97.7237 23.2148 97.7237 23.1116C97.7237 22.6558 97.3757 22.4279 96.6755 22.4279H93.8962C93.0585 22.4279 92.5516 22.7762 92.3755 23.4771L90.0944 32.6097C90.06 32.7516 90.0429 32.872 90.0429 32.9752C90.0429 33.431 90.3908 33.6589 91.091 33.6589H93.8704C94.7081 33.6589 95.2149 33.3106 95.3911 32.6097L97.6721 23.4771Z" fill="url(#paint2_linear_3532_21513)"/>
<path d="M125.697 19.6418L121.5 36.4366H113.214L109.751 22.527H109.7L106.237 36.4366H103.458L107.655 19.6418H116.019L119.4 33.3408H119.477L122.913 19.6418H125.693H125.697Z" fill="url(#paint3_linear_3532_21513)"/>
<path d="M143.108 19.6418L142.399 22.4238H134.271L133.3 26.3623H140.745L140.036 29.1443H132.592L131.466 33.659H139.594L138.911 36.4409H124.387L128.584 19.6461H143.108V19.6418Z" fill="url(#paint4_linear_3532_21513)"/>
<path d="M155.963 32.5969L151.517 30.073V25.8206L155.963 28.1467V32.5969Z" fill="url(#paint5_linear_3532_21513)"/>
<path d="M155.963 32.5969L160.409 30.073V25.8206L155.963 28.1467V32.5969Z" fill="url(#paint6_linear_3532_21513)"/>
<path d="M151.517 25.8206L155.963 23.4858L160.409 25.8206L155.963 28.1468L151.517 25.8206Z" fill="url(#paint7_linear_3532_21513)"/>
<path d="M30.4711 14.251L31.5928 11.2903L35.184 13.7056C34.2924 9.97996 30.4145 0 30.4145 0C30.4145 0 29.2045 6.49866 23.4053 11.4391C23.3876 11.4355 25.6769 11.0141 27.6299 10.9078C27.4778 11.1522 26.1581 13.2169 25.5601 14.0314H4.76244H0V32.0789L6.51032 25.0491V20.5478H20.6172C18.6959 22.6904 17.309 24.0574 17.309 24.0574L25.9033 24.022C26.6959 22.8958 27.3787 21.7732 27.9767 20.6363C30.3827 21.0932 32.2013 23.2039 32.2013 25.7432C32.2013 28.6154 29.8767 30.9421 27.0072 30.9421H26.9011L20.1537 30.9067L22.956 27.6627L14.3616 27.6981L0.0566114 43.0718L0.152144 55.29L15.5646 37.462H26.8975H28.2208C34.6852 37.462 39.9253 32.2171 39.9253 25.7467C39.9253 20.0485 35.8598 15.2993 30.4711 14.251Z" fill="url(#paint8_linear_3532_21513)"/>
<g clip-path="url(#clip0_3532_21513)">
<path d="M187.159 22.4558H177.384C176.427 22.4558 175.987 22.8036 175.797 23.5228L173.416 32.8165C173.226 33.5383 173.5 33.8835 174.457 33.8835H176.73C177.607 33.8835 178.1 33.5618 178.29 32.8165L179.194 29.2915H175.58L176.32 26.4594H186.615L183.988 36.7155H178.593L178.977 35.1674H178.923C178.376 36.1821 177.883 36.7155 176.103 36.7155H170.073C167.089 36.7155 166.186 34.953 166.953 31.9876L168.896 24.3491C169.663 21.3863 171.47 19.6238 174.454 19.6238H187.896L187.156 22.4558H187.159Z" fill="#FDB714"/>
<path d="M201.749 36.7155L200.929 32.1209H193.234L189.757 36.7155H186.526L199.285 19.6238H205.966L208.84 36.7155H201.749ZM199.475 23.5228L195.315 29.2915H200.489L199.475 23.5228Z" fill="#FDB714"/>
<path d="M235.288 36.7155H228.607L232.057 23.256H232.004L223.706 36.7155H219.079L217.819 23.256H217.765L214.315 36.7155H211.411L215.795 19.6238H224.336L225.186 29.3176H225.24L231.291 19.6238H239.669L235.288 36.7155Z" fill="#FDB714"/>
<path d="M257.108 22.4558H248.62L247.607 26.462H255.382L254.642 29.2941H246.867L245.69 33.8887H254.178L253.465 36.7208H238.296L242.679 19.6238H257.848L257.108 22.4558Z" fill="#FDB714"/>
</g>
<g clip-path="url(#clip1_3532_21513)">
<path d="M275.294 22.4557H266.498C265.636 22.4557 265.349 22.6159 265.219 23.1506L264.932 24.2452C264.802 24.7528 265.036 24.9131 265.898 24.9131H270.649C273.077 24.9131 274.487 25.8744 273.911 28.1986L272.815 32.6849C272.162 35.3295 270.649 36.7175 268.064 36.7175H255.743L256.422 33.8856H265.349C266.158 33.8856 266.392 33.6983 266.524 33.1385L266.811 31.9629C266.968 31.376 266.732 31.2158 265.924 31.2158H260.468C258.066 31.2158 257.309 30.2815 257.962 27.6369L258.955 23.5502C259.475 21.4403 260.938 19.6238 263.313 19.6238H276L275.294 22.4557Z" fill="#FDB714"/>
</g>
<defs>
<linearGradient id="paint0_linear_3532_21513" x1="0.527398" y1="28.0436" x2="189.609" y2="28.0436" gradientUnits="userSpaceOnUse">
<stop stop-color="#FAA51A"/>
<stop offset="1" stop-color="#D72138"/>
</linearGradient>
<linearGradient id="paint1_linear_3532_21513" x1="0.527519" y1="28.0435" x2="189.609" y2="28.0435" gradientUnits="userSpaceOnUse">
<stop stop-color="#FAA51A"/>
<stop offset="1" stop-color="#D72138"/>
</linearGradient>
<linearGradient id="paint2_linear_3532_21513" x1="-41.5188" y1="-14.193" x2="189.61" y2="-14.193" gradientUnits="userSpaceOnUse">
<stop stop-color="#FAA51A"/>
<stop offset="1" stop-color="#D72138"/>
</linearGradient>
<linearGradient id="paint3_linear_3532_21513" x1="-41.5194" y1="-14.1928" x2="189.609" y2="-14.1928" gradientUnits="userSpaceOnUse">
<stop stop-color="#FAA51A"/>
<stop offset="1" stop-color="#D72138"/>
</linearGradient>
<linearGradient id="paint4_linear_3532_21513" x1="-41.5196" y1="-14.1928" x2="189.609" y2="-14.1928" gradientUnits="userSpaceOnUse">
<stop stop-color="#FAA51A"/>
<stop offset="1" stop-color="#D72138"/>
</linearGradient>
<linearGradient id="paint5_linear_3532_21513" x1="151.333" y1="29.9942" x2="154.582" y2="31.5989" gradientUnits="userSpaceOnUse">
<stop stop-color="#FAA51A"/>
<stop offset="1" stop-color="#EE2524"/>
</linearGradient>
<linearGradient id="paint6_linear_3532_21513" x1="157.409" y1="31.9124" x2="160.856" y2="30.0884" gradientUnits="userSpaceOnUse">
<stop stop-color="#FAA51A"/>
<stop offset="1" stop-color="#EE2524"/>
</linearGradient>
<linearGradient id="paint7_linear_3532_21513" x1="155.799" y1="22.2862" x2="156.006" y2="26.7235" gradientUnits="userSpaceOnUse">
<stop stop-color="#FAA51A"/>
<stop offset="1" stop-color="#EE2524"/>
</linearGradient>
<linearGradient id="paint8_linear_3532_21513" x1="1.34452" y1="15.2037" x2="32.4215" y2="42.8944" gradientUnits="userSpaceOnUse">
<stop stop-color="#FAA51A"/>
<stop offset="1" stop-color="#D02A2A"/>
</linearGradient>
<clipPath id="clip0_3532_21513">
<rect width="91.156" height="17.0917" fill="white" transform="translate(166.692 19.6238)"/>
</clipPath>
<clipPath id="clip1_3532_21513">
<rect width="20.2569" height="17.0917" fill="white" transform="translate(255.743 19.6238)"/>
</clipPath>
</defs>
</svg>
