<svg width="40" height="56" viewBox="0 0 40 56" fill="none" xmlns="http://www.w3.org/2000/svg">
<path d="M30.4711 14.251L31.5928 11.2903L35.184 13.7056C34.2924 9.97996 30.4145 0 30.4145 0C30.4145 0 29.2045 6.49866 23.4053 11.4391C23.3876 11.4355 25.6769 11.0141 27.6299 10.9078C27.4778 11.1522 26.1581 13.2169 25.5601 14.0314H4.76244H0V32.0789L6.51032 25.0491V20.5478H20.6172C18.6959 22.6904 17.309 24.0574 17.309 24.0574L25.9033 24.022C26.6959 22.8958 27.3787 21.7732 27.9767 20.6363C30.3827 21.0932 32.2013 23.2039 32.2013 25.7432C32.2013 28.6154 29.8767 30.9421 27.0072 30.9421H26.9011L20.1537 30.9067L22.956 27.6627L14.3616 27.6981L0.0566114 43.0718L0.152144 55.29L15.5646 37.462H26.8975H28.2208C34.6852 37.462 39.9253 32.2171 39.9253 25.7467C39.9253 20.0485 35.8598 15.2993 30.4711 14.251Z" fill="url(#paint0_linear_3548_2553)"/>
<defs>
<linearGradient id="paint0_linear_3548_2553" x1="1.34452" y1="15.2037" x2="32.4215" y2="42.8944" gradientUnits="userSpaceOnUse">
<stop stop-color="#FAA51A"/>
<stop offset="1" stop-color="#D02A2A"/>
</linearGradient>
</defs>
</svg>
