<svg width="500" height="500" viewBox="0 0 500 500" fill="none" xmlns="http://www.w3.org/2000/svg">
<path d="M82.6882 438.647C80.3212 438.275 77.9822 437.755 75.6862 437.03C66.2902 434.066 58.2332 427.859 51.2642 420.894C13.7312 383.387 6.37724 319.41 34.4192 274.363C48.7302 251.374 72.5932 230.647 84.2522 205.148C97.3702 176.458 90.9362 142.689 103.613 113.701C115.293 86.9921 141.757 66.2431 169.775 59.0921C214.844 47.5901 234.512 76.5611 271.45 93.6681C312.866 112.848 365.414 82.4341 406.041 103.236C426.216 113.566 438.801 134.814 445.001 156.615C453.662 187.067 451.946 219.071 453.845 250.347C454.984 269.118 459.173 287.444 465.435 305.145C470.139 318.441 477.798 330.634 481.262 344.372C486.269 364.232 476.317 383.552 463.306 397.954C451.028 411.545 438.334 426.818 420.297 432.657C410.918 435.693 400.885 435.841 391.028 435.962C294.661 437.14 198.294 438.318 101.927 439.496C95.5092 439.573 88.9992 439.639 82.6882 438.647Z" fill="#C5E1ED"/>
<path d="M250 443.535C366.395 443.535 460.752 437.644 460.752 430.377C460.752 423.11 366.395 417.219 250 417.219C133.605 417.219 39.248 423.11 39.248 430.377C39.248 437.644 133.605 443.535 250 443.535Z" fill="#A8BFC9"/>
<path d="M189.607 216.702C190.637 210.538 186.475 204.706 180.31 203.676L176.473 203.035C176.088 201.181 175.511 199.401 174.812 197.684L177.66 194.99C182.2 190.695 182.399 183.533 178.104 178.993C173.809 174.453 166.647 174.254 162.107 178.55L159.214 181.287C158.397 180.9 157.565 180.565 156.711 180.249L156.634 176.254C156.514 170.006 151.351 165.038 145.103 165.158H145.102C138.854 165.278 133.886 170.441 134.006 176.689L134.081 180.594C133.209 180.954 132.421 181.45 131.591 181.884L128.55 179.235C123.838 175.13 116.691 175.621 112.585 180.333L112.584 180.334C108.478 185.046 108.97 192.194 113.682 196.299L116.705 198.933C116.088 200.654 115.597 202.422 115.289 204.269L111.391 205.085C105.274 206.366 101.354 212.363 102.635 218.48V218.481C103.916 224.598 109.913 228.518 116.03 227.237L119.874 226.432C120.895 227.993 122.07 229.432 123.347 230.782L121.655 234.365C118.987 240.016 121.405 246.761 127.056 249.429C132.707 252.097 139.452 249.679 142.12 244.028L143.844 240.377C144.554 240.425 145.23 240.59 145.953 240.59C147.106 240.59 148.199 240.373 149.32 240.251L151.199 243.843C154.096 249.38 160.934 251.52 166.471 248.623H166.472C172.009 245.726 174.15 238.888 171.252 233.351L169.385 229.782C170.592 228.395 171.678 226.924 172.627 225.337L176.581 225.998C182.746 227.028 188.578 222.866 189.607 216.702ZM149.365 227.006C136.872 229.374 126.121 218.626 128.488 206.132C129.81 199.151 135.439 193.52 142.42 192.196C154.916 189.825 165.669 200.578 163.299 213.073C161.976 220.054 156.346 225.683 149.365 227.006Z" fill="#A8BFC9"/>
<path d="M111.763 263.211C112.148 260.904 110.591 258.722 108.284 258.337L106.848 258.097C106.704 257.403 106.488 256.737 106.227 256.095L107.293 255.087C108.992 253.48 109.066 250.8 107.459 249.101C105.852 247.402 103.172 247.328 101.473 248.935L100.39 249.959C100.084 249.814 99.7729 249.689 99.4529 249.571L99.4239 248.076C99.3789 245.738 97.4469 243.879 95.1089 243.924C92.7709 243.969 90.9119 245.901 90.9569 248.239L90.9849 249.7C90.6589 249.835 90.3639 250.02 90.0529 250.183L88.9149 249.192C87.1519 247.656 84.4769 247.84 82.9409 249.603C81.4049 251.366 81.5889 254.041 83.3519 255.577L84.4829 256.563C84.2519 257.207 84.0689 257.869 83.9529 258.56L82.4939 258.865C80.2049 259.344 78.7379 261.588 79.2179 263.877C79.6969 266.166 81.9409 267.633 84.2299 267.153L85.6679 266.852C86.0499 267.436 86.4899 267.975 86.9679 268.48L86.3349 269.821C85.3369 271.936 86.2409 274.459 88.3559 275.458C90.4709 276.456 92.9939 275.552 93.9929 273.437L94.6379 272.071C94.9039 272.089 95.1569 272.151 95.4269 272.151C95.8589 272.151 96.2679 272.07 96.6869 272.024L97.3899 273.368C98.4739 275.44 101.033 276.241 103.104 275.157C105.176 274.073 105.977 271.514 104.893 269.442L104.194 268.107C104.646 267.588 105.052 267.037 105.407 266.444L106.887 266.691C109.195 267.075 111.377 265.518 111.763 263.211ZM96.7049 267.067C92.0299 267.953 88.0079 263.931 88.8929 259.256C89.3879 256.644 91.4939 254.537 94.1059 254.041C98.7819 253.154 102.805 257.177 101.919 261.853C101.423 264.465 99.3169 266.572 96.7049 267.067Z" fill="#A8BFC9"/>
<path d="M348.382 175.992C348.651 174.381 347.564 172.858 345.953 172.589L344.951 172.422C344.85 171.938 344.7 171.473 344.517 171.024L345.261 170.32C346.447 169.198 346.499 167.327 345.377 166.141C344.255 164.955 342.384 164.903 341.197 166.025L340.441 166.74C340.228 166.639 340.01 166.551 339.787 166.469L339.767 165.425C339.736 163.793 338.387 162.495 336.754 162.526C335.122 162.557 333.824 163.906 333.855 165.539L333.875 166.559C333.647 166.653 333.441 166.783 333.224 166.896L332.43 166.204C331.199 165.131 329.331 165.26 328.259 166.491C327.186 167.722 327.315 169.59 328.546 170.662L329.336 171.35C329.175 171.8 329.047 172.262 328.966 172.744L327.947 172.957C326.349 173.292 325.325 174.859 325.659 176.457C325.994 178.055 327.561 179.079 329.159 178.745L330.163 178.535C330.43 178.943 330.737 179.319 331.071 179.672L330.629 180.608C329.932 182.084 330.564 183.847 332.04 184.544C333.517 185.241 335.279 184.609 335.976 183.133L336.426 182.179C336.612 182.192 336.788 182.235 336.977 182.235C337.278 182.235 337.564 182.178 337.857 182.146L338.348 183.084C339.105 184.531 340.891 185.09 342.338 184.333C343.785 183.576 344.344 181.79 343.587 180.343L343.099 179.411C343.414 179.049 343.698 178.664 343.946 178.25L344.979 178.423C346.589 178.69 348.112 177.602 348.382 175.992ZM337.868 178.684C334.604 179.303 331.795 176.495 332.413 173.23C332.758 171.406 334.229 169.935 336.053 169.589C339.318 168.97 342.127 171.779 341.508 175.044C341.162 176.868 339.691 178.338 337.868 178.684Z" fill="#A8BFC9"/>
<path d="M155.47 386.649H389.398C396.27 386.649 401.841 381.078 401.841 374.206V351.098H143.027V374.206C143.027 381.078 148.598 386.649 155.47 386.649Z" fill="white"/>
<path d="M143.027 351.097H401.841V217.78C401.841 211.301 396.588 206.048 390.109 206.048H154.759C148.28 206.048 143.027 211.301 143.027 217.78V351.097Z" fill="#214856"/>
<path d="M395.442 214.58H150.848V342.565H395.442V214.58Z" fill="#C9E2ED"/>
<path d="M272.434 374.561C275.575 374.561 278.122 372.014 278.122 368.873C278.122 365.732 275.575 363.185 272.434 363.185C269.293 363.185 266.746 365.732 266.746 368.873C266.746 372.014 269.293 374.561 272.434 374.561Z" fill="#C5E1ED"/>
<path d="M303.481 413.8L296.965 386.649H272.789H272.078H247.903L246.879 390.915H266.39H267.101H291.276L297.792 418.066C298.136 419.501 297.992 420.914 297.494 422.163C301.568 421.788 304.458 417.873 303.481 413.8Z" fill="#C5E1ED"/>
<path d="M297.792 418.066L291.276 390.915H267.101H266.39H246.879L241.387 413.8C240.359 418.083 243.605 422.2 248.01 422.2H272.079H272.79H296.859C297.075 422.2 297.286 422.182 297.496 422.163C297.993 420.914 298.137 419.501 297.792 418.066Z" fill="white"/>
<path d="M428.441 186.002C405.221 182.836 391.157 173.568 390.166 172.899V172.859C390.166 172.859 390.155 172.867 390.137 172.879C390.119 172.867 390.108 172.859 390.108 172.859V172.899C389.117 173.568 375.053 182.836 351.833 186.002C351.833 186.002 345.268 235.245 390.108 260.446V260.479C390.118 260.473 390.127 260.468 390.137 260.462C390.147 260.467 390.156 260.473 390.166 260.479V260.446C435.006 235.245 428.441 186.002 428.441 186.002Z" fill="white"/>
<path d="M425.196 188.601C403.944 185.703 391.072 177.221 390.164 176.608V176.572C390.164 176.572 390.154 176.579 390.137 176.59C390.121 176.579 390.11 176.572 390.11 176.572V176.608C389.203 177.221 376.331 185.703 355.078 188.601C355.078 188.601 349.069 233.671 390.11 256.736V256.766C390.119 256.761 390.128 256.756 390.137 256.751C390.146 256.756 390.155 256.761 390.164 256.766V256.736C431.205 233.671 425.196 188.601 425.196 188.601Z" fill="#FCD144"/>
<path d="M396.012 234.738H384.263C379.181 234.738 375.061 230.618 375.061 225.536V213.585C375.061 208.503 379.181 204.383 384.263 204.383H396.012C401.094 204.383 405.214 208.503 405.214 213.585V225.536C405.214 230.618 401.094 234.738 396.012 234.738Z" fill="white"/>
<path d="M390.064 217.94C392.137 217.94 393.819 216.259 393.819 214.185C393.819 212.111 392.137 210.43 390.064 210.43C387.99 210.43 386.309 212.111 386.309 214.185C386.309 216.259 387.99 217.94 390.064 217.94Z" fill="#FCD144"/>
<path d="M388.406 217.352L386.242 228.692H394.033L391.609 217.352H388.406Z" fill="#FCD144"/>
<path d="M382.109 206.361C381.568 201.84 383.229 194.029 388.552 193.046C395.557 191.752 398.103 201.343 397.572 206.361" stroke="white" stroke-width="3.2261" stroke-miterlimit="10"/>
<path d="M379.828 236.427L380.775 238.346L382.894 238.654L381.361 240.148L381.723 242.258L379.828 241.262L377.933 242.258L378.295 240.148L376.762 238.654L378.881 238.346L379.828 236.427Z" fill="white"/>
<path d="M386.699 236.427L387.647 238.346L389.765 238.654L388.232 240.148L388.594 242.258L386.699 241.262L384.804 242.258L385.166 240.148L383.633 238.654L385.752 238.346L386.699 236.427Z" fill="white"/>
<path d="M393.571 236.427L394.519 238.346L396.637 238.654L395.104 240.148L395.466 242.258L393.571 241.262L391.677 242.258L392.038 240.148L390.506 238.654L392.624 238.346L393.571 236.427Z" fill="white"/>
<path d="M400.445 236.427L401.392 238.346L403.51 238.654L401.977 240.148L402.339 242.258L400.445 241.262L398.55 242.258L398.912 240.148L397.379 238.654L399.497 238.346L400.445 236.427Z" fill="white"/>
<path d="M240.291 169.205V166.165C240.291 162.568 237.375 159.652 233.778 159.652H199.908C196.311 159.652 193.395 162.568 193.395 166.165V169.205V170.942V250.84H308.9V169.205H240.291Z" fill="#F8AE0D"/>
<path d="M263.735 145.317L211.803 157.434L229.286 232.37L281.219 220.254L263.735 145.317Z" fill="white"/>
<path d="M245.727 155.895L216.051 162.819L217.985 171.111L247.662 164.187L245.727 155.895Z" fill="#C5E1ED"/>
<path d="M263.502 166.014L219.861 176.196L220.37 178.378L264.011 168.196L263.502 166.014Z" fill="#C5E1ED"/>
<path d="M264.418 169.942L220.777 180.124L221.286 182.306L264.927 172.124L264.418 169.942Z" fill="#C5E1ED"/>
<path d="M265.334 173.869L221.693 184.051L222.203 186.234L265.843 176.052L265.334 173.869Z" fill="#C5E1ED"/>
<path d="M266.252 177.796L222.611 187.978L223.12 190.16L266.761 179.978L266.252 177.796Z" fill="#C5E1ED"/>
<path d="M267.168 181.724L223.527 191.906L224.036 194.088L267.677 183.906L267.168 181.724Z" fill="#C5E1ED"/>
<path d="M268.084 185.652L224.443 195.834L224.953 198.016L268.593 187.834L268.084 185.652Z" fill="#C5E1ED"/>
<path d="M269 189.579L225.359 199.761L225.869 201.944L269.509 191.762L269 189.579Z" fill="#C5E1ED"/>
<path d="M275.04 206.578L245.363 213.501L247.298 221.793L276.974 214.869L275.04 206.578Z" fill="#C5E1ED"/>
<path d="M272.595 196.104L239.428 203.842L239.835 205.588L273.003 197.85L272.595 196.104Z" fill="#C5E1ED"/>
<path d="M273.41 199.595L240.242 207.333L240.65 209.079L273.817 201.341L273.41 199.595Z" fill="#C5E1ED"/>
<path d="M274.224 203.087L241.057 210.825L241.464 212.571L274.632 204.833L274.224 203.087Z" fill="#C5E1ED"/>
<path d="M308.922 165.969L252.68 154.261L235.785 235.416L292.028 247.124L308.922 165.969Z" fill="white"/>
<path d="M302.37 173.164L255.107 163.325L254.615 165.689L301.878 175.527L302.37 173.164Z" fill="#C5E1ED"/>
<path d="M301.485 177.418L254.223 167.579L253.731 169.942L300.993 179.781L301.485 177.418Z" fill="#C5E1ED"/>
<path d="M300.6 181.671L253.338 171.832L252.846 174.195L300.108 184.034L300.6 181.671Z" fill="#C5E1ED"/>
<path d="M299.713 185.925L252.451 176.086L251.959 178.449L299.221 188.288L299.713 185.925Z" fill="#C5E1ED"/>
<path d="M298.829 190.178L251.566 180.34L251.074 182.703L298.337 192.542L298.829 190.178Z" fill="#C5E1ED"/>
<path d="M297.944 194.431L250.682 184.593L250.19 186.956L297.452 196.795L297.944 194.431Z" fill="#C5E1ED"/>
<path d="M297.057 198.685L249.795 188.847L249.303 191.21L296.565 201.049L297.057 198.685Z" fill="#C5E1ED"/>
<path d="M291.471 229.08L259.332 222.39L257.463 231.371L289.601 238.061L291.471 229.08Z" fill="#C5E1ED"/>
<path d="M293.83 217.738L257.91 210.261L257.517 212.151L293.436 219.629L293.83 217.738Z" fill="#C5E1ED"/>
<path d="M293.043 221.519L257.123 214.042L256.73 215.932L292.649 223.409L293.043 221.519Z" fill="#C5E1ED"/>
<path d="M292.255 225.3L256.336 217.823L255.942 219.713L291.862 227.191L292.255 225.3Z" fill="#C5E1ED"/>
<path d="M240.291 178.259V175.219C240.291 171.622 237.375 168.706 233.778 168.706H199.908C196.311 168.706 193.395 171.622 193.395 175.219V178.259V179.996V248.443C193.395 254.767 198.522 259.894 204.846 259.894H297.449C303.773 259.894 308.9 254.767 308.9 248.443V178.259H240.291Z" fill="#FCD144"/>
<path d="M435.428 293.339L345.494 293.51L345.741 423.28L435.675 423.109L435.428 293.339Z" fill="white"/>
<path d="M427.708 306.47L352.133 306.614L352.14 310.393L427.715 310.249L427.708 306.47Z" fill="#C5E1ED"/>
<path d="M427.721 313.271L352.146 313.415L352.154 317.194L427.729 317.05L427.721 313.271Z" fill="#C5E1ED"/>
<path d="M427.733 320.073L352.158 320.217L352.165 323.996L427.74 323.852L427.733 320.073Z" fill="#C5E1ED"/>
<path d="M427.747 326.875L352.172 327.019L352.179 330.798L427.754 330.654L427.747 326.875Z" fill="#C5E1ED"/>
<path d="M427.761 333.677L352.186 333.821L352.193 337.6L427.768 337.456L427.761 333.677Z" fill="#C5E1ED"/>
<path d="M427.772 340.478L352.197 340.622L352.204 344.401L427.779 344.257L427.772 340.478Z" fill="#C5E1ED"/>
<path d="M427.786 347.28L352.211 347.424L352.218 351.203L427.793 351.059L427.786 347.28Z" fill="#C5E1ED"/>
<path d="M429.01 395.646L377.619 395.744L377.646 410.103L429.037 410.006L429.01 395.646Z" fill="#C5E1ED"/>
<path d="M428.976 377.508L371.539 377.617L371.545 380.64L428.982 380.531L428.976 377.508Z" fill="#C5E1ED"/>
<path d="M428.988 383.554L371.551 383.663L371.557 386.686L428.994 386.577L428.988 383.554Z" fill="#C5E1ED"/>
<path d="M429 389.6L371.562 389.709L371.568 392.732L429.005 392.623L429 389.6Z" fill="#C5E1ED"/>
<path d="M385.805 308.95H302.318V429.417H385.805V308.95Z" fill="white"/>
<path d="M354.586 318.671H306.879V332.001H354.586V318.671Z" fill="#C5E1ED"/>
<path d="M378.089 340.419H307.932V343.927H378.089V340.419Z" fill="#C5E1ED"/>
<path d="M378.089 346.733H307.932V350.241H378.089V346.733Z" fill="#C5E1ED"/>
<path d="M378.089 353.048H307.932V356.556H378.089V353.048Z" fill="#C5E1ED"/>
<path d="M378.089 359.362H307.932V362.87H378.089V359.362Z" fill="#C5E1ED"/>
<path d="M378.089 365.676H307.932V369.184H378.089V365.676Z" fill="#C5E1ED"/>
<path d="M378.089 371.99H307.932V375.498H378.089V371.99Z" fill="#C5E1ED"/>
<path d="M378.089 378.304H307.932V381.812H378.089V378.304Z" fill="#C5E1ED"/>
<path d="M381.244 406.367H333.537V419.697H381.244V406.367Z" fill="#C5E1ED"/>
<path d="M381.245 389.529H327.926V392.335H381.245V389.529Z" fill="#C5E1ED"/>
<path d="M381.245 395.142H327.926V397.948H381.245V395.142Z" fill="#C5E1ED"/>
<path d="M381.245 400.754H327.926V403.56H381.245V400.754Z" fill="#C5E1ED"/>
<path d="M189.341 426.176H146.848C138.288 426.176 131.348 419.236 131.348 410.676V289.562C131.348 281.002 138.288 274.062 146.848 274.062H189.341C197.901 274.062 204.841 281.002 204.841 289.562V410.676C204.841 419.236 197.901 426.176 189.341 426.176Z" fill="#214856"/>
<path d="M131.389 304.143H132.203V291.837H131.389C130.422 291.837 129.639 292.62 129.639 293.587V302.393C129.639 303.359 130.422 304.143 131.389 304.143Z" fill="#214856"/>
<path d="M131.389 318.671H132.203V306.365H131.389C130.422 306.365 129.639 307.149 129.639 308.115V316.921C129.639 317.887 130.422 318.671 131.389 318.671Z" fill="#214856"/>
<path d="M204.8 322.089H203.986V309.783H204.8C205.766 309.783 206.55 310.566 206.55 311.533V320.339C206.55 321.305 205.766 322.089 204.8 322.089Z" fill="#214856"/>
<path d="M187.853 422.757H148.336C141.234 422.757 135.477 417 135.477 409.898V293.078C135.477 285.976 141.234 280.219 148.336 280.219H187.853C194.955 280.219 200.712 285.976 200.712 293.078V409.898C200.712 417 194.955 422.757 187.853 422.757Z" fill="white"/>
<path d="M139.692 305.633C153.728 305.633 165.105 294.255 165.105 280.22C165.105 266.185 153.728 254.807 139.692 254.807C125.657 254.807 114.279 266.185 114.279 280.22C114.279 294.255 125.657 305.633 139.692 305.633Z" fill="#DA3047"/>
<path d="M142.524 268.459L142.253 288.389H139.112L138.841 268.459H142.524ZM140.683 296.405C140.015 296.405 139.442 296.166 138.963 295.687C138.485 295.209 138.245 294.636 138.245 293.968C138.245 293.3 138.485 292.727 138.963 292.248C139.442 291.77 140.015 291.531 140.683 291.531C141.351 291.531 141.924 291.77 142.402 292.248C142.881 292.727 143.12 293.3 143.12 293.968C143.12 294.41 143.007 294.816 142.781 295.187C142.565 295.557 142.271 295.854 141.901 296.08C141.54 296.297 141.134 296.405 140.683 296.405Z" fill="white"/>
<path d="M176.434 362.838H159.754C155.028 362.838 151.197 359.007 151.197 354.281V337.375C151.197 332.649 155.028 328.818 159.754 328.818H176.434C181.16 328.818 184.991 332.649 184.991 337.375V354.281C184.991 359.007 181.16 362.838 176.434 362.838Z" fill="#FCD144"/>
<path d="M168.012 344.013C170.336 344.013 172.221 342.128 172.221 339.804C172.221 337.479 170.336 335.595 168.012 335.595C165.687 335.595 163.803 337.479 163.803 339.804C163.803 342.128 165.687 344.013 168.012 344.013Z" fill="white"/>
<path d="M166.154 343.352L163.729 356.061H172.46L169.744 343.352H166.154Z" fill="white"/>
<path d="M158.133 317.556C158.133 317.556 177.388 310.817 176.992 329.116" stroke="#FCD144" stroke-width="4" stroke-miterlimit="10" stroke-linecap="round" stroke-linejoin="round"/>
<path d="M187.406 367.448H148.783V378.379H187.406V367.448Z" fill="#214856"/>
<path d="M158.857 376.4H158.221L160.059 371.393H160.685L162.524 376.4H161.888L160.392 372.185H160.353L158.857 376.4ZM159.091 374.444H161.653V374.982H159.091V374.444ZM163.802 371.393V376.4H163.225V371.393H163.802ZM166.433 376.478C166.072 376.478 165.759 376.398 165.497 376.239C165.236 376.077 165.035 375.852 164.893 375.564C164.753 375.274 164.683 374.936 164.683 374.552C164.683 374.167 164.753 373.828 164.893 373.535C165.035 373.24 165.232 373.01 165.485 372.845C165.739 372.679 166.036 372.596 166.375 372.596C166.57 372.596 166.763 372.629 166.954 372.694C167.145 372.759 167.318 372.865 167.475 373.012C167.631 373.157 167.756 373.349 167.849 373.588C167.942 373.828 167.988 374.123 167.988 374.473V374.718H165.094V374.219H167.401C167.401 374.007 167.359 373.818 167.274 373.652C167.191 373.486 167.072 373.355 166.917 373.258C166.764 373.162 166.583 373.114 166.375 373.114C166.145 373.114 165.946 373.171 165.778 373.285C165.612 373.398 165.484 373.544 165.394 373.725C165.305 373.906 165.26 374.1 165.26 374.307V374.64C165.26 374.923 165.309 375.164 165.407 375.361C165.506 375.556 165.644 375.706 165.82 375.808C165.996 375.909 166.2 375.96 166.433 375.96C166.585 375.96 166.722 375.939 166.844 375.896C166.968 375.852 167.075 375.787 167.164 375.701C167.254 375.613 167.323 375.504 167.372 375.373L167.929 375.53C167.871 375.719 167.772 375.885 167.634 376.028C167.495 376.17 167.324 376.281 167.12 376.361C166.917 376.439 166.688 376.478 166.433 376.478ZM168.866 376.4V372.645H169.423V373.212H169.462C169.531 373.026 169.655 372.875 169.834 372.76C170.013 372.644 170.215 372.586 170.44 372.586C170.483 372.586 170.536 372.587 170.599 372.589C170.663 372.59 170.711 372.593 170.743 372.596V373.183C170.724 373.178 170.679 373.17 170.609 373.161C170.54 373.149 170.468 373.144 170.391 373.144C170.209 373.144 170.046 373.182 169.902 373.258C169.761 373.333 169.648 373.438 169.565 373.571C169.484 373.703 169.443 373.854 169.443 374.024V376.4H168.866ZM173.296 372.645V373.134H171.35V372.645H173.296ZM171.917 371.745H172.494V375.324C172.494 375.487 172.517 375.609 172.565 375.691C172.614 375.771 172.675 375.825 172.75 375.852C172.827 375.878 172.908 375.891 172.992 375.891C173.056 375.891 173.108 375.888 173.149 375.882C173.19 375.873 173.222 375.867 173.247 375.862L173.364 376.38C173.325 376.395 173.27 376.41 173.2 376.424C173.13 376.441 173.041 376.449 172.934 376.449C172.771 376.449 172.611 376.414 172.455 376.344C172.3 376.274 172.171 376.167 172.068 376.023C171.967 375.88 171.917 375.699 171.917 375.481V371.745ZM174.926 371.393L174.877 374.992H174.31L174.261 371.393H174.926ZM174.594 376.439C174.473 376.439 174.37 376.396 174.283 376.309C174.197 376.223 174.154 376.12 174.154 375.999C174.154 375.878 174.197 375.775 174.283 375.688C174.37 375.602 174.473 375.559 174.594 375.559C174.714 375.559 174.818 375.602 174.904 375.688C174.991 375.775 175.034 375.878 175.034 375.999C175.034 376.079 175.013 376.152 174.973 376.219C174.934 376.286 174.881 376.34 174.814 376.38C174.749 376.419 174.675 376.439 174.594 376.439Z" fill="white"/>
<path d="M154.113 428.782H107.942C102.879 428.782 98.7754 424.678 98.7754 419.615V400.966C98.7754 395.903 102.879 391.799 107.942 391.799H154.113C159.176 391.799 163.28 395.903 163.28 400.966V419.615C163.28 424.677 159.175 428.782 154.113 428.782Z" fill="#FCD144"/>
<path d="M163.281 399.54H98.7773V408.141H163.281V399.54Z" fill="#214856"/>
<path d="M155.619 424.481H148.578C147.197 424.481 146.078 423.362 146.078 421.981V417.52C146.078 416.139 147.197 415.02 148.578 415.02H155.619C157 415.02 158.119 416.139 158.119 417.52V421.981C158.119 423.362 157 424.481 155.619 424.481Z" fill="white"/>
<path d="M128.018 414.161H100.496V417.601H128.018V414.161Z" fill="#F9464A"/>
<path d="M107.376 419.321H100.496V421.901H107.376V419.321Z" fill="white"/>
<path d="M115.976 419.321H109.096V421.901H115.976V419.321Z" fill="white"/>
<path d="M124.577 419.321H117.697V421.901H124.577V419.321Z" fill="white"/>
<path d="M133.177 419.321H126.297V421.901H133.177V419.321Z" fill="white"/>
<path d="M197.076 418.627V422.139C197.076 422.961 197.552 423.706 198.297 424.053C201.799 425.684 212.349 429.605 223.622 424.045C224.341 423.69 224.795 422.955 224.795 422.153V419.107C224.795 419.107 211.977 426.639 197.076 418.627Z" fill="#FCD144"/>
<path d="M210.935 422.794C218.589 422.794 224.794 420.964 224.794 418.708C224.794 416.451 218.589 414.622 210.935 414.622C203.281 414.622 197.076 416.451 197.076 418.708C197.076 420.964 203.281 422.794 210.935 422.794Z" fill="#FCD144"/>
<path d="M210.935 414.942C204.819 414.942 199.701 416.189 198.375 417.861C200.469 416.604 204.875 415.737 209.974 415.737C217.097 415.737 222.872 417.428 222.872 419.514C222.872 419.809 222.753 420.096 222.534 420.371C223.365 419.872 223.833 419.311 223.833 418.718C223.834 416.633 218.059 414.942 210.935 414.942Z" fill="#D39A19"/>
<path d="M209.974 415.707C204.875 415.707 200.469 416.579 198.375 417.845C198.157 418.122 198.037 418.411 198.037 418.708C198.037 420.808 203.812 422.51 210.935 422.51C216.034 422.51 220.44 421.638 222.534 420.372C222.752 420.095 222.872 419.806 222.872 419.509C222.872 417.41 217.098 415.707 209.974 415.707Z" fill="#F8AE0D"/>
<path d="M201.891 413.814V417.326C201.891 418.148 202.367 418.893 203.112 419.24C206.614 420.871 217.164 424.792 228.437 419.232C229.156 418.877 229.61 418.142 229.61 417.34V414.294C229.61 414.294 216.792 421.825 201.891 413.814Z" fill="#FCD144"/>
<path d="M215.75 417.981C223.404 417.981 229.609 416.151 229.609 413.895C229.609 411.638 223.404 409.809 215.75 409.809C208.096 409.809 201.891 411.638 201.891 413.895C201.891 416.151 208.096 417.981 215.75 417.981Z" fill="#FCD144"/>
<path d="M215.749 410.128C209.633 410.128 204.515 411.375 203.189 413.047C205.283 411.79 209.689 410.923 214.788 410.923C221.911 410.923 227.686 412.614 227.686 414.7C227.686 414.995 227.567 415.282 227.348 415.557C228.179 415.058 228.647 414.497 228.647 413.904C228.647 411.819 222.873 410.128 215.749 410.128Z" fill="#D39A19"/>
<path d="M214.789 410.894C209.69 410.894 205.284 411.766 203.19 413.032C202.972 413.309 202.852 413.598 202.852 413.895C202.852 415.995 208.627 417.697 215.75 417.697C220.849 417.697 225.255 416.825 227.349 415.559C227.567 415.282 227.687 414.993 227.687 414.696C227.687 412.596 221.912 410.894 214.789 410.894Z" fill="#F8AE0D"/>
<path d="M195.15 409V412.512C195.15 413.334 195.626 414.079 196.371 414.426C199.873 416.057 210.423 419.978 221.696 414.418C222.415 414.063 222.869 413.328 222.869 412.526V409.48C222.869 409.48 210.051 417.011 195.15 409Z" fill="#FCD144"/>
<path d="M209.011 413.167C216.665 413.167 222.87 411.337 222.87 409.081C222.87 406.824 216.665 404.995 209.011 404.995C201.357 404.995 195.152 406.824 195.152 409.081C195.152 411.337 201.357 413.167 209.011 413.167Z" fill="#FCD144"/>
<path d="M209.011 405.315C202.895 405.315 197.777 406.562 196.451 408.234C198.545 406.977 202.951 406.11 208.05 406.11C215.173 406.11 220.948 407.801 220.948 409.887C220.948 410.182 220.829 410.469 220.61 410.744C221.441 410.245 221.909 409.684 221.909 409.091C221.909 407.006 216.134 405.315 209.011 405.315Z" fill="#D39A19"/>
<path d="M208.05 406.08C202.951 406.08 198.545 406.952 196.451 408.218C196.233 408.495 196.113 408.784 196.113 409.081C196.113 411.181 201.888 412.883 209.011 412.883C214.11 412.883 218.516 412.011 220.61 410.745C220.828 410.468 220.948 410.179 220.948 409.882C220.948 407.782 215.173 406.08 208.05 406.08Z" fill="#F8AE0D"/>
<path d="M201.891 403.224V406.736C201.891 407.558 202.367 408.303 203.112 408.65C206.614 410.281 217.164 414.202 228.437 408.642C229.156 408.287 229.61 407.552 229.61 406.75V403.704C229.61 403.704 216.792 411.236 201.891 403.224Z" fill="#FCD144"/>
<path d="M215.75 407.391C223.404 407.391 229.609 405.561 229.609 403.305C229.609 401.048 223.404 399.219 215.75 399.219C208.096 399.219 201.891 401.048 201.891 403.305C201.891 405.561 208.096 407.391 215.75 407.391Z" fill="#FCD144"/>
<path d="M215.749 399.539C209.633 399.539 204.515 400.786 203.189 402.458C205.283 401.201 209.689 400.334 214.788 400.334C221.911 400.334 227.686 402.025 227.686 404.111C227.686 404.406 227.567 404.693 227.348 404.968C228.179 404.469 228.647 403.908 228.647 403.315C228.647 401.23 222.873 399.539 215.749 399.539Z" fill="#D39A19"/>
<path d="M214.789 400.303C209.69 400.303 205.284 401.175 203.19 402.441C202.972 402.718 202.852 403.007 202.852 403.304C202.852 405.404 208.627 407.106 215.75 407.106C220.849 407.106 225.255 406.234 227.349 404.968C227.567 404.691 227.687 404.402 227.687 404.105C227.687 402.006 221.912 400.303 214.789 400.303Z" fill="#F8AE0D"/>
<path d="M197.076 398.411V401.923C197.076 402.745 197.552 403.49 198.297 403.837C201.799 405.468 212.349 409.389 223.622 403.829C224.341 403.474 224.795 402.739 224.795 401.937V398.891C224.795 398.891 211.977 406.422 197.076 398.411Z" fill="#FCD144"/>
<path d="M210.935 402.577C218.589 402.577 224.794 400.747 224.794 398.491C224.794 396.234 218.589 394.405 210.935 394.405C203.281 394.405 197.076 396.234 197.076 398.491C197.076 400.747 203.281 402.577 210.935 402.577Z" fill="#FCD144"/>
<path d="M210.935 394.726C204.819 394.726 199.701 395.973 198.375 397.645C200.469 396.388 204.875 395.521 209.974 395.521C217.097 395.521 222.872 397.212 222.872 399.298C222.872 399.593 222.753 399.88 222.534 400.155C223.365 399.656 223.833 399.095 223.833 398.502C223.834 396.416 218.059 394.726 210.935 394.726Z" fill="#D39A19"/>
<path d="M209.974 395.49C204.875 395.49 200.469 396.362 198.375 397.628C198.157 397.905 198.037 398.194 198.037 398.491C198.037 400.591 203.812 402.293 210.935 402.293C216.034 402.293 220.44 401.421 222.534 400.155C222.752 399.878 222.872 399.589 222.872 399.292C222.872 397.192 217.098 395.49 209.974 395.49Z" fill="#F8AE0D"/>
<path d="M201.891 393.597V397.109C201.891 397.931 202.367 398.676 203.112 399.023C206.614 400.654 217.164 404.575 228.437 399.015C229.156 398.66 229.61 397.925 229.61 397.123V394.077C229.61 394.077 216.792 401.608 201.891 393.597Z" fill="#FCD144"/>
<path d="M215.75 397.763C223.404 397.763 229.609 395.933 229.609 393.677C229.609 391.42 223.404 389.591 215.75 389.591C208.096 389.591 201.891 391.42 201.891 393.677C201.891 395.933 208.096 397.763 215.75 397.763Z" fill="#FCD144"/>
<path d="M215.749 389.912C209.633 389.912 204.515 391.159 203.189 392.831C205.283 391.574 209.689 390.707 214.788 390.707C221.911 390.707 227.686 392.398 227.686 394.484C227.686 394.779 227.567 395.066 227.348 395.341C228.179 394.842 228.647 394.281 228.647 393.688C228.647 391.603 222.873 389.912 215.749 389.912Z" fill="#D39A19"/>
<path d="M214.789 390.676C209.69 390.676 205.284 391.548 203.19 392.814C202.972 393.091 202.852 393.38 202.852 393.677C202.852 395.777 208.627 397.479 215.75 397.479C220.849 397.479 225.255 396.607 227.349 395.341C227.567 395.064 227.687 394.775 227.687 394.478C227.687 392.378 221.912 390.676 214.789 390.676Z" fill="#F8AE0D"/>
<path d="M195.15 388.783V392.295C195.15 393.117 195.626 393.862 196.371 394.209C199.873 395.841 210.423 399.761 221.696 394.201C222.415 393.846 222.869 393.111 222.869 392.309V389.263C222.869 389.263 210.051 396.795 195.15 388.783Z" fill="#FCD144"/>
<path d="M209.011 392.949C216.665 392.949 222.87 391.119 222.87 388.863C222.87 386.606 216.665 384.777 209.011 384.777C201.357 384.777 195.152 386.606 195.152 388.863C195.152 391.119 201.357 392.949 209.011 392.949Z" fill="#FCD144"/>
<path d="M209.011 385.098C202.895 385.098 197.777 386.345 196.451 388.017C198.545 386.76 202.951 385.893 208.05 385.893C215.173 385.893 220.948 387.584 220.948 389.67C220.948 389.965 220.829 390.252 220.61 390.527C221.441 390.028 221.909 389.467 221.909 388.874C221.909 386.789 216.134 385.098 209.011 385.098Z" fill="#D39A19"/>
<path d="M208.05 385.862C202.951 385.862 198.545 386.734 196.451 388C196.233 388.277 196.113 388.566 196.113 388.863C196.113 390.963 201.888 392.665 209.011 392.665C214.11 392.665 218.516 391.793 220.61 390.527C220.828 390.25 220.948 389.961 220.948 389.664C220.948 387.565 215.173 385.862 208.05 385.862Z" fill="#F8AE0D"/>
<path d="M201.891 383.007V386.519C201.891 387.341 202.367 388.086 203.112 388.433C206.614 390.064 217.164 393.985 228.437 388.425C229.156 388.07 229.61 387.335 229.61 386.533V383.487C229.61 383.487 216.792 391.018 201.891 383.007Z" fill="#FCD144"/>
<path d="M215.75 387.173C223.404 387.173 229.609 385.344 229.609 383.087C229.609 380.83 223.404 379.001 215.75 379.001C208.096 379.001 201.891 380.83 201.891 383.087C201.891 385.344 208.096 387.173 215.75 387.173Z" fill="#FCD144"/>
<path d="M215.749 379.322C209.633 379.322 204.515 380.569 203.189 382.241C205.283 380.984 209.689 380.117 214.788 380.117C221.911 380.117 227.686 381.808 227.686 383.894C227.686 384.189 227.567 384.476 227.348 384.751C228.179 384.252 228.647 383.691 228.647 383.098C228.647 381.012 222.873 379.322 215.749 379.322Z" fill="#D39A19"/>
<path d="M214.789 380.086C209.69 380.086 205.284 380.958 203.19 382.224C202.972 382.501 202.852 382.79 202.852 383.087C202.852 385.187 208.627 386.889 215.75 386.889C220.849 386.889 225.255 386.017 227.349 384.751C227.567 384.474 227.687 384.185 227.687 383.888C227.687 381.788 221.912 380.086 214.789 380.086Z" fill="#F8AE0D"/>
<path d="M211.518 424.405V427.917C211.518 428.739 211.994 429.484 212.739 429.831C216.241 431.462 226.791 435.383 238.064 429.823C238.783 429.468 239.237 428.733 239.237 427.931V424.885C239.237 424.885 226.419 432.416 211.518 424.405Z" fill="#FCD144"/>
<path d="M225.379 428.571C233.033 428.571 239.238 426.742 239.238 424.485C239.238 422.228 233.033 420.399 225.379 420.399C217.724 420.399 211.52 422.228 211.52 424.485C211.52 426.742 217.724 428.571 225.379 428.571Z" fill="#FCD144"/>
<path d="M225.378 420.72C219.262 420.72 214.144 421.967 212.818 423.639C214.912 422.382 219.318 421.515 224.417 421.515C231.54 421.515 237.315 423.206 237.315 425.292C237.315 425.587 237.196 425.874 236.977 426.149C237.808 425.65 238.276 425.089 238.276 424.496C238.276 422.41 232.501 420.72 225.378 420.72Z" fill="#D39A19"/>
<path d="M224.417 421.484C219.318 421.484 214.912 422.356 212.818 423.622C212.6 423.899 212.48 424.188 212.48 424.485C212.48 426.585 218.255 428.287 225.378 428.287C230.477 428.287 234.883 427.415 236.977 426.149C237.195 425.872 237.315 425.583 237.315 425.286C237.315 423.186 231.541 421.484 224.417 421.484Z" fill="#F8AE0D"/>
<path d="M216.33 419.591V423.103C216.33 423.925 216.806 424.67 217.551 425.017C221.053 426.649 231.603 430.569 242.876 425.009C243.595 424.654 244.049 423.919 244.049 423.117V420.071C244.049 420.071 231.231 427.602 216.33 419.591Z" fill="#FCD144"/>
<path d="M230.189 423.757C237.843 423.757 244.048 421.928 244.048 419.671C244.048 417.414 237.843 415.585 230.189 415.585C222.535 415.585 216.33 417.414 216.33 419.671C216.33 421.928 222.535 423.757 230.189 423.757Z" fill="#FCD144"/>
<path d="M230.189 415.906C224.073 415.906 218.955 417.153 217.629 418.825C219.723 417.568 224.129 416.701 229.228 416.701C236.351 416.701 242.126 418.392 242.126 420.478C242.126 420.773 242.007 421.06 241.788 421.335C242.619 420.836 243.087 420.275 243.087 419.682C243.087 417.597 237.313 415.906 230.189 415.906Z" fill="#D39A19"/>
<path d="M229.228 416.67C224.129 416.67 219.723 417.542 217.629 418.808C217.411 419.085 217.291 419.374 217.291 419.671C217.291 421.771 223.066 423.473 230.189 423.473C235.288 423.473 239.694 422.601 241.788 421.335C242.006 421.058 242.126 420.769 242.126 420.472C242.126 418.372 236.351 416.67 229.228 416.67Z" fill="#F8AE0D"/>
<path d="M209.592 414.777V418.289C209.592 419.111 210.068 419.856 210.813 420.203C214.315 421.834 224.865 425.755 236.138 420.195C236.857 419.84 237.311 419.105 237.311 418.303V415.257C237.311 415.257 224.493 422.789 209.592 414.777Z" fill="#FCD144"/>
<path d="M223.451 418.944C231.105 418.944 237.31 417.115 237.31 414.858C237.31 412.601 231.105 410.772 223.451 410.772C215.797 410.772 209.592 412.601 209.592 414.858C209.592 417.115 215.797 418.944 223.451 418.944Z" fill="#FCD144"/>
<path d="M223.451 411.092C217.335 411.092 212.217 412.339 210.891 414.011C212.985 412.754 217.391 411.887 222.49 411.887C229.613 411.887 235.388 413.578 235.388 415.664C235.388 415.959 235.269 416.246 235.05 416.521C235.881 416.022 236.349 415.461 236.349 414.868C236.349 412.783 230.575 411.092 223.451 411.092Z" fill="#D39A19"/>
<path d="M222.49 411.856C217.391 411.856 212.985 412.728 210.891 413.994C210.673 414.271 210.553 414.56 210.553 414.857C210.553 416.957 216.328 418.659 223.451 418.659C228.55 418.659 232.956 417.787 235.05 416.521C235.268 416.244 235.388 415.955 235.388 415.658C235.388 413.559 229.613 411.856 222.49 411.856Z" fill="#F8AE0D"/>
<path d="M216.33 409.001V412.513C216.33 413.335 216.806 414.08 217.551 414.427C221.053 416.058 231.603 419.979 242.876 414.419C243.595 414.064 244.049 413.329 244.049 412.527V409.481C244.049 409.481 231.231 417.012 216.33 409.001Z" fill="#FCD144"/>
<path d="M230.189 413.167C237.843 413.167 244.048 411.338 244.048 409.081C244.048 406.824 237.843 404.995 230.189 404.995C222.535 404.995 216.33 406.824 216.33 409.081C216.33 411.338 222.535 413.167 230.189 413.167Z" fill="#FCD144"/>
<path d="M230.189 405.316C224.073 405.316 218.955 406.563 217.629 408.235C219.723 406.978 224.129 406.111 229.228 406.111C236.351 406.111 242.126 407.802 242.126 409.888C242.126 410.183 242.007 410.47 241.788 410.745C242.619 410.246 243.087 409.685 243.087 409.092C243.087 407.007 237.313 405.316 230.189 405.316Z" fill="#D39A19"/>
<path d="M229.228 406.08C224.129 406.08 219.723 406.952 217.629 408.218C217.411 408.495 217.291 408.784 217.291 409.081C217.291 411.181 223.066 412.883 230.189 412.883C235.288 412.883 239.694 412.011 241.788 410.745C242.006 410.468 242.126 410.179 242.126 409.882C242.126 407.782 236.351 406.08 229.228 406.08Z" fill="#F8AE0D"/>
<path d="M113.269 344.768C113.269 344.768 117.527 343.97 118.987 340.272L114.585 341.317L116.845 339.883C116.845 339.883 116.247 339.073 114.815 339.925L113.411 340.742C113.411 340.742 112 340.897 111.725 342.244L113.269 344.768Z" fill="#FA977A"/>
<path d="M81.2657 339.436C78.9747 337.998 78.8777 335.007 79.9127 332.846C80.5507 331.513 81.5937 330.215 83.1777 330.201C84.0887 330.193 84.9917 330.559 85.7667 331.088C86.6047 331.659 87.4797 332.434 88.0217 333.309C88.0217 333.309 93.6287 342.35 96.9327 343.721C100.238 345.092 111.893 341.757 111.893 341.757L113.268 344.768C113.268 344.768 102.197 352.39 95.7277 349.886C89.2597 347.38 83.2497 340.682 81.2657 339.436Z" fill="#FA977A"/>
<path d="M91.1566 336.712C91.1566 336.712 85.9456 326.406 80.7976 329.965C75.6496 333.524 80.8016 340.255 82.7946 342.96L91.1566 336.712Z" fill="#DA3047"/>
<path d="M86.253 325.488L86.636 330.437L81.418 328.042C81.418 328.042 82.617 325.919 82.059 324.289C82.059 324.289 85.384 324.585 86.253 325.488Z" fill="#F08668"/>
<path d="M92.6518 318.803L92.6448 318.821C94.2068 309.975 87.0278 311.486 87.0278 311.486C84.6848 311.555 80.3148 313.395 80.4978 316.301C80.6808 319.207 80.2038 325.121 84.6068 327.094C88.3078 328.752 90.1508 328.498 91.7158 322.912C91.9408 322.916 92.2098 322.867 92.5138 322.695C93.3818 322.204 92.6518 318.803 92.6518 318.803Z" fill="#FA977A"/>
<path d="M84.8124 320.979C85.3084 319.956 85.2284 318.589 85.9394 317.616C86.7314 316.533 88.0354 316.464 89.2524 316.272C90.7154 316.04 92.0824 315.532 93.2894 314.663C94.0154 314.141 94.6994 313.487 95.1644 312.717C95.5144 312.136 96.0874 311.028 95.6594 310.363C95.1294 309.54 94.0764 310.152 93.3634 310.292C91.0284 310.751 88.6594 311.049 86.2804 311.138C84.0864 311.22 78.9744 309.78 77.8574 312.459C77.6004 313.075 77.5834 313.765 77.6454 314.43C77.7344 315.388 77.9074 316.326 78.0764 317.27C78.3234 318.647 78.6814 320.049 79.3714 321.278C79.8134 322.067 80.4654 323.05 81.2874 323.483C82.8454 324.302 84.1424 322.231 84.7564 321.088C84.7764 321.052 84.7944 321.016 84.8124 320.979Z" fill="#214856"/>
<path d="M64.7513 425.795L69.7227 426.479L70.6124 420.017L65.6411 419.333L64.7513 425.795Z" fill="#F9AF88"/>
<path d="M64.7131 424.908L64.3291 427.694C64.2591 428.199 64.6141 428.665 65.1201 428.73C68.0161 429.106 76.7641 430.17 76.6011 429.302C76.4071 428.262 70.2701 426.235 70.2701 426.235L64.7131 424.908Z" fill="#214856"/>
<path d="M83.6249 422.379L88.5938 423.079L89.5044 416.62L84.5355 415.92L83.6249 422.379Z" fill="#F9AF88"/>
<path d="M83.5993 421.467L83.2063 424.252C83.1353 424.757 83.4884 425.223 83.9944 425.291C86.8884 425.676 95.6333 426.769 95.4733 425.901C95.2823 424.861 89.1523 422.814 89.1523 422.814L83.5993 421.467Z" fill="#214856"/>
<path d="M86.453 360.007C88.393 364.145 90.159 368.376 91.798 372.64C93.658 377.477 95.843 382.316 96.518 387.501C97.083 391.84 95.808 395.978 94.924 400.172C93.639 406.27 92.353 412.368 91.068 418.465H81.838C82.947 415.359 83.962 412.215 84.917 409.058C87.174 401.594 89.288 394.019 85.5 386.674C84.214 384.18 82.928 381.686 81.642 379.192C81.386 378.695 81.075 378.151 80.539 377.993C80.991 378.127 82.318 386.491 82.508 387.444C83.049 390.157 83.477 392.923 82.59 395.708C81.646 398.668 80.304 401.569 79.102 404.433C76.483 410.674 73.663 416.829 71.07 423.082L64.916 421.902C66.084 418.398 67.219 412.985 68.329 409.461C69.239 406.573 70.402 403.77 71.263 400.866C73.06 394.804 71.992 389.208 70.82 383.182C69.55 376.653 68.198 370.14 66.816 363.634C66.811 363.61 66.718 363.155 66.714 363.156C66.716 363.154 86.453 360.007 86.453 360.007Z" fill="#FCD144"/>
<path d="M65.4087 362.786C65.9227 355.329 68.3067 336.004 79.3087 327.108C80.2327 326.361 81.5567 326.356 82.5147 327.06L85.5797 329.311C87.1647 330.475 88.1377 332.288 88.2267 334.252C88.5197 340.723 89.1437 355.572 88.9977 361.81C88.9657 363.176 87.8917 364.286 86.5287 364.378L68.2277 365.608C66.6257 365.714 65.2987 364.388 65.4087 362.786Z" fill="#DA3047"/>
<path d="M101.459 359.66C101.459 359.66 105.535 361.129 108.667 358.679L104.342 357.35L107.017 357.258C107.017 357.258 106.912 356.257 105.246 356.266L103.621 356.26C103.621 356.26 102.326 355.679 101.406 356.701L101.459 359.66Z" fill="#FA977A"/>
<path d="M76.5663 338.854C75.3193 336.453 76.7513 333.825 78.7383 332.486C79.9643 331.66 81.5203 331.069 82.8933 331.859C83.6833 332.313 84.2753 333.086 84.6763 333.935C85.1093 334.852 85.4713 335.963 85.4953 336.992C85.4953 336.992 85.7493 347.628 87.9043 350.483C90.0593 353.339 101.798 356.367 101.798 356.367L101.459 359.659C101.459 359.659 88.0523 360.623 83.7433 355.187C79.4343 349.753 77.6463 340.934 76.5663 338.854Z" fill="#FA977A"/>
<path d="M86.4725 341.515C86.4725 341.515 87.1995 329.99 80.9585 330.451C74.7175 330.912 75.7505 339.325 76.0985 342.668L86.4725 341.515Z" fill="#DA3047"/>
<path d="M85.1878 321.415C85.7253 321.232 85.9686 320.519 85.7313 319.822C85.494 319.125 84.866 318.709 84.3286 318.892C83.7911 319.075 83.5478 319.788 83.7851 320.485C84.0224 321.182 84.6504 321.598 85.1878 321.415Z" fill="#FA977A"/>
<path d="M305.238 333.989L301.756 334.479L302.394 339.007L305.877 338.516L305.238 333.989Z" fill="#F9AF88"/>
<path d="M305.918 337.869L306.193 339.821C306.243 340.175 305.995 340.502 305.641 340.549C303.612 340.819 297.483 341.585 297.595 340.976C297.729 340.247 302.026 338.812 302.026 338.812L305.918 337.869Z" fill="#214856"/>
<path d="M314.078 337.917L310.596 338.408L311.234 342.935L314.716 342.444L314.078 337.917Z" fill="#F9AF88"/>
<path d="M314.758 341.798L315.033 343.75C315.083 344.104 314.835 344.431 314.481 344.478C312.452 344.748 306.323 345.514 306.435 344.905C306.569 344.176 310.866 342.741 310.866 342.741L314.758 341.798Z" fill="#214856"/>
<path d="M297.19 297.868C296.78 298.15 296.394 298.466 296.041 298.818C291.604 303.244 294.596 311.989 295.876 317.125C297.473 323.531 299.562 329.875 302.014 336.006H306.78L302.862 310.54C302.416 307.643 304.658 305.03 307.589 305.03H328.224L329.735 299.891C323.286 299.891 315.326 295.498 308.877 295.499C305.283 295.5 300.439 295.636 297.19 297.868Z" fill="#C22B3F"/>
<path d="M305.975 302.26C305.565 302.542 305.179 302.858 304.826 303.21C300.389 307.636 303.381 316.381 304.661 321.517C306.258 327.923 308.347 334.267 310.799 340.398H315.565L311.647 314.932C311.201 312.035 313.443 309.422 316.374 309.422H330.22C333.969 309.422 337.009 306.383 337.009 302.633C337.009 301.119 335.781 299.891 334.267 299.891C328.732 299.891 323.197 299.89 317.662 299.891C314.067 299.892 309.224 300.028 305.975 302.26Z" fill="#DA3047"/>
<path d="M326.265 263.961L324.887 268.291L330.04 267.251C330.04 267.251 329.416 265.108 330.256 263.772C330.256 263.772 327.229 263.338 326.265 263.961Z" fill="#F08668"/>
<path d="M321.964 256.663L321.967 256.681C322.429 248.471 328.511 251.322 328.511 251.322C330.585 251.875 334.094 254.43 333.321 256.982C332.548 259.533 331.734 264.904 327.396 265.739C323.751 266.441 322.161 265.828 321.937 260.522C321.736 260.478 321.506 260.378 321.272 260.161C320.601 259.54 321.964 256.663 321.964 256.663Z" fill="#FA977A"/>
<path d="M319.158 297.686C332.222 303.088 336.185 300.669 336.185 300.669C339.273 287.892 336.064 266.766 332.504 266.568C330.826 266.475 328.576 266.873 326.666 267.321C324.084 267.926 321.971 269.786 321.099 272.291C320.061 275.274 319.189 279.461 320.636 283.01C323.208 289.315 319.158 297.686 319.158 297.686Z" fill="white"/>
<path d="M322.138 301.492L288.84 298.45" stroke="#214856" stroke-width="1.1408" stroke-miterlimit="10"/>
<path d="M310.154 300.686L304.002 285.652L282.76 283.711L288.912 298.746L310.154 300.686Z" fill="#214856"/>
<path d="M311.384 293.142C311.384 293.142 308.022 294.353 305.439 292.333L309.006 291.237L306.799 291.161C306.799 291.161 306.886 290.335 308.26 290.343L309.6 290.338C309.6 290.338 310.668 289.859 311.427 290.702L311.384 293.142Z" fill="#FA977A"/>
<path d="M331.918 275.979C332.946 273.999 331.766 271.831 330.126 270.727C329.115 270.046 327.831 269.558 326.699 270.21C326.048 270.585 325.559 271.222 325.228 271.923C324.87 272.679 324.572 273.596 324.552 274.445C324.552 274.445 324.342 283.218 322.565 285.573C320.787 287.929 311.105 290.426 311.105 290.426L311.385 293.142C311.385 293.142 322.444 293.937 325.998 289.453C329.551 284.969 331.027 277.695 331.918 275.979Z" fill="#FA977A"/>
<path d="M323.746 278.174C323.746 278.174 323.146 268.667 328.294 269.048C333.442 269.428 332.59 276.368 332.303 279.125L323.746 278.174Z" fill="white"/>
<path d="M322.924 252.223C322.924 252.223 324.197 255.042 326.687 256.647C329.177 258.252 330.077 265.151 328.593 269.905C327.739 272.642 329.63 274.511 331.81 275.863C332.55 276.322 333.507 276.576 334.288 276.191C334.896 275.892 335.269 275.277 335.727 274.778C336.185 274.279 336.888 273.858 337.516 274.118C338.529 274.54 338.88 276.151 340.202 275.02C343 272.625 342.069 267.168 338.526 265.973C338.221 265.87 337.897 265.77 337.679 265.533C336.491 264.241 337.945 261.698 338.154 260.294C338.382 258.765 338.03 257.057 337.002 255.866C335.985 254.689 334.301 254.697 333.272 253.585C332.566 252.822 332.415 251.686 331.582 251.016C330.735 250.335 329.528 250.265 328.488 250.271C322.877 250.302 322.924 252.223 322.924 252.223Z" fill="#DA3047"/>
<path d="M269.941 275.602H286.41C288.584 275.602 290.347 273.84 290.347 271.666V271.159C290.347 268.985 288.585 267.223 286.41 267.223H269.941C267.767 267.223 266.004 268.985 266.004 271.159V271.666C266.004 273.84 267.767 275.602 269.941 275.602Z" fill="#FCFFFA"/>
<path d="M283.771 273.193C284.755 273.193 285.552 272.396 285.552 271.412C285.552 270.429 284.755 269.631 283.771 269.631C282.788 269.631 281.99 270.429 281.99 271.412C281.99 272.396 282.788 273.193 283.771 273.193Z" fill="#C5E1ED"/>
<path d="M278.176 273.193C279.159 273.193 279.957 272.396 279.957 271.412C279.957 270.429 279.159 269.631 278.176 269.631C277.192 269.631 276.395 270.429 276.395 271.412C276.395 272.396 277.192 273.193 278.176 273.193Z" fill="#C5E1ED"/>
<path d="M272.58 273.193C273.563 273.193 274.361 272.396 274.361 271.412C274.361 270.429 273.563 269.631 272.58 269.631C271.596 269.631 270.799 270.429 270.799 271.412C270.799 272.396 271.596 273.193 272.58 273.193Z" fill="#C5E1ED"/>
<path d="M287.027 275.469H282.602L284.814 278.789L287.027 275.469Z" fill="#FCFFFA"/>
</svg>
