<svg width="500" height="500" viewBox="0 0 500 500" fill="none" xmlns="http://www.w3.org/2000/svg">
<path opacity="0.23" d="M425.505 273.864C412.898 260.51 403.402 244.617 396.606 227.556C382.809 192.918 348.971 168.436 309.413 168.436C309.08 168.436 308.748 168.438 308.416 168.441C299.647 168.533 291.485 164.324 286.256 157.284C274.379 141.294 255.36 130.93 233.91 130.93C207.965 130.93 185.571 146.091 175.082 168.035C170.144 178.366 159.638 184.877 148.187 184.875H148.171C89.7884 184.875 61.6694 231.281 60.9134 289.219C60.1524 347.564 98.5924 377.865 156.905 379.947C179.609 380.758 208.68 395.026 226.388 383.794C272.446 375.808 284.387 373.733 304.738 379.947C325.883 386.403 340.173 379.373 353.405 375.033C361.588 377.489 371.436 375.748 380.572 375.033C416.414 372.229 443.617 361.086 444.85 325.156C445.534 305.278 438.053 287.155 425.505 273.864Z" fill="white"/>
<path opacity="0.8" d="M179.291 206.352H173.659C173.098 204.479 172.317 202.705 171.359 201.043L175.412 196.99C176.153 196.249 176.153 195.047 175.412 194.306L168.591 187.485C167.85 186.744 166.648 186.744 165.907 187.485L161.793 191.599C160.149 190.682 158.389 189.955 156.545 189.423V183.606C156.545 182.558 155.695 181.708 154.647 181.708H145.001C143.953 181.708 143.103 182.558 143.103 183.606V189.294C141.198 189.801 139.372 190.502 137.673 191.416L133.74 187.483C132.999 186.742 131.797 186.742 131.056 187.483L124.235 194.304C123.494 195.045 123.494 196.247 124.235 196.988L127.979 200.732C126.936 202.483 126.087 204.359 125.491 206.351H120.357C119.309 206.351 118.459 207.201 118.459 208.249V217.895C118.459 218.943 119.309 219.793 120.357 219.793H125.235C125.775 221.91 126.564 223.924 127.603 225.788L124.235 229.155C123.494 229.896 123.494 231.098 124.235 231.839L131.056 238.66C131.797 239.401 132.999 239.401 133.74 238.66L137.047 235.353C138.927 236.437 140.96 237.286 143.103 237.862V242.538C143.103 243.586 143.952 244.436 145.001 244.436H154.647C155.695 244.436 156.545 243.586 156.545 242.538V237.717C158.622 237.111 160.591 236.25 162.413 235.165L165.908 238.66C166.649 239.401 167.851 239.401 168.592 238.66L175.413 231.839C176.154 231.098 176.154 229.896 175.413 229.155L171.729 225.472C172.683 223.699 173.406 221.789 173.915 219.793H179.291C180.339 219.793 181.189 218.943 181.189 217.895V208.249C181.189 207.202 180.339 206.352 179.291 206.352ZM149.575 226.065C142.398 226.065 136.579 220.247 136.579 213.069C136.579 205.891 142.397 200.073 149.575 200.073C156.752 200.073 162.571 205.891 162.571 213.069C162.571 220.247 156.753 226.065 149.575 226.065ZM168.242 213.586C168.242 223.757 159.997 232.003 149.825 232.003C139.654 232.003 131.408 223.758 131.408 213.586C131.408 203.415 139.653 195.169 149.825 195.169C159.996 195.169 168.242 203.415 168.242 213.586Z" fill="white"/>
<path d="M414.858 388.435L405.836 343.559C402.887 328.888 399.03 314.415 394.288 300.222L379.217 255.116L403.291 248.68L414.743 307.605C415.963 313.882 417.619 320.065 419.7 326.111L438.933 381.998L414.858 388.435Z" fill="#FFD88A"/>
<mask id="mask0_3884_2345" style="mask-type:luminance" maskUnits="userSpaceOnUse" x="379" y="248" width="60" height="141">
<path d="M414.858 388.435L405.836 343.559C402.887 328.888 399.03 314.415 394.288 300.222L379.217 255.116L403.291 248.68L414.743 307.605C415.963 313.882 417.619 320.065 419.7 326.111L438.933 381.998L414.858 388.435Z" fill="white"/>
</mask>
<g mask="url(#mask0_3884_2345)">
<path opacity="0.15" d="M384.746 240.362L432.074 395.285H453.407L402.074 232.365L384.746 240.362Z" fill="white"/>
</g>
<path d="M394.074 310.648L416.074 303.648C416.074 303.648 415.407 320.697 423.574 331.031L402.794 337.747C403.611 336.874 402.189 318.743 394.074 310.648Z" fill="#4587F6"/>
<mask id="mask1_3884_2345" style="mask-type:luminance" maskUnits="userSpaceOnUse" x="394" y="303" width="30" height="35">
<path d="M394.074 310.648L416.074 303.648C416.074 303.648 415.407 320.697 423.574 331.031L402.794 337.747C403.611 336.874 402.189 318.743 394.074 310.648Z" fill="white"/>
</mask>
<g mask="url(#mask1_3884_2345)">
<path opacity="0.1" d="M404.411 304.733C404.411 304.733 411.324 329.531 399.324 335.281L397.574 341.781L429.824 332.031L419.858 300.531L404.411 304.733Z" fill="white"/>
</g>
<path opacity="0.4" d="M456.411 379.949C461.088 375.271 461.088 367.688 456.411 363.01C451.734 358.333 444.15 358.333 439.473 363.01C434.796 367.688 434.796 375.271 439.473 379.949C444.15 384.626 451.734 384.626 456.411 379.949Z" fill="white"/>
<mask id="mask2_3884_2345" style="mask-type:luminance" maskUnits="userSpaceOnUse" x="437" y="358" width="25" height="25">
<path d="M459.821 376.462C462.855 370.584 460.55 363.359 454.672 360.325C448.794 357.291 441.569 359.596 438.535 365.474C435.501 371.352 437.806 378.577 443.684 381.611C449.562 384.645 456.787 382.34 459.821 376.462Z" fill="white"/>
</mask>
<g mask="url(#mask2_3884_2345)">
<path opacity="0.2" d="M459.513 360.788L432.738 369.332L434.157 373.778L460.932 365.235L459.513 360.788Z" fill="white"/>
</g>
<mask id="mask3_3884_2345" style="mask-type:luminance" maskUnits="userSpaceOnUse" x="435" y="359" width="25" height="25">
<path d="M458.262 376.941C461.296 371.063 458.991 363.839 453.113 360.805C447.235 357.77 440.01 360.076 436.976 365.954C433.942 371.832 436.247 379.056 442.125 382.091C448.003 385.125 455.228 382.819 458.262 376.941Z" fill="white"/>
</mask>
<g mask="url(#mask3_3884_2345)">
<path opacity="0.2" d="M460.513 366.789L433.738 375.333L434.676 378.272L461.451 369.728L460.513 366.789Z" fill="white"/>
</g>
<path opacity="0.4" d="M413.573 374.715C420.187 374.715 425.55 369.352 425.55 362.738C425.55 356.123 420.187 350.761 413.573 350.761C406.958 350.761 401.596 356.123 401.596 362.738C401.596 369.352 406.958 374.715 413.573 374.715Z" fill="white"/>
<mask id="mask4_3884_2345" style="mask-type:luminance" maskUnits="userSpaceOnUse" x="402" y="350" width="25" height="25">
<path d="M418.448 373.636C424.75 371.625 428.229 364.886 426.218 358.585C424.207 352.283 417.468 348.804 411.166 350.815C404.865 352.826 401.386 359.565 403.397 365.867C405.408 372.168 412.147 375.647 418.448 373.636Z" fill="white"/>
</mask>
<g mask="url(#mask4_3884_2345)">
<path opacity="0.2" d="M425.136 352.048L398.361 360.592L399.78 365.038L426.555 356.494L425.136 352.048Z" fill="white"/>
</g>
<mask id="mask5_3884_2345" style="mask-type:luminance" maskUnits="userSpaceOnUse" x="401" y="350" width="25" height="25">
<path d="M416.89 374.115C423.192 372.104 426.67 365.365 424.659 359.064C422.648 352.762 415.91 349.283 409.608 351.294C403.306 353.305 399.827 360.044 401.838 366.346C403.849 372.647 410.588 376.126 416.89 374.115Z" fill="white"/>
</mask>
<g mask="url(#mask5_3884_2345)">
<path opacity="0.2" d="M426.136 358.048L399.361 366.592L400.299 369.531L427.074 360.987L426.136 358.048Z" fill="white"/>
</g>
<path d="M451.173 358.767C446.126 357.4 440.968 359.175 437.75 362.88C437.023 360.789 435.311 359.079 433.017 358.457C430.697 357.828 428.328 358.462 426.64 359.936C425.754 355.083 422.187 350.914 417.117 349.54C410.091 347.636 402.826 351.804 400.922 358.831C399.018 365.858 403.186 373.123 410.212 375.027C417.239 376.931 424.504 372.764 426.408 365.736C426.534 365.271 426.63 364.805 426.703 364.339C426.778 364.229 426.848 364.112 426.884 363.976C427.529 361.595 429.993 360.182 432.375 360.827C434.756 361.472 436.169 363.936 435.524 366.317C435.506 366.383 435.518 366.446 435.511 366.512C435.307 367.012 435.121 367.524 434.976 368.058C433.072 375.085 437.239 382.35 444.267 384.254C451.294 386.158 458.559 381.99 460.463 374.963C462.368 367.936 458.2 360.671 451.173 358.767ZM410.853 372.657C405.133 371.107 401.741 365.193 403.291 359.473C404.841 353.753 410.755 350.36 416.474 351.91C422.194 353.46 425.587 359.375 424.037 365.095C422.487 370.813 416.572 374.206 410.853 372.657ZM444.909 381.884C439.189 380.334 435.796 374.419 437.346 368.7C438.896 362.98 444.811 359.587 450.53 361.137C456.25 362.687 459.643 368.602 458.093 374.322C456.544 380.041 450.629 383.434 444.909 381.884Z" fill="#4587F6"/>
<path d="M107.797 292.556L67.5516 269.918C64.3706 268.129 64.3676 263.55 67.5466 261.756L117.945 235.678C119.523 234.787 121.473 234.887 122.953 235.934L168.016 258.393C170.642 260.251 170.656 264.142 168.044 266.02L149.388 279.43C149.026 279.69 148.628 279.898 148.207 280.046L111.647 292.893C110.375 293.34 108.972 293.217 107.797 292.556Z" fill="#193454"/>
<path d="M83.5488 280.35V297.002H157.35V278.759C157.35 275.822 155.506 273.202 152.742 272.21L121.719 259.334C120.095 258.751 118.313 258.792 116.718 259.449L87.8568 273.916C85.2498 274.99 83.5488 277.531 83.5488 280.35Z" fill="#214170"/>
<mask id="mask6_3884_2345" style="mask-type:luminance" maskUnits="userSpaceOnUse" x="83" y="258" width="75" height="40">
<path d="M83.5488 280.35V297.002H157.35V278.759C157.35 275.822 155.506 273.202 152.742 272.21L121.719 259.334C120.095 258.751 118.313 258.792 116.718 259.449L87.8568 273.916C85.2498 274.99 83.5488 277.531 83.5488 280.35Z" fill="white"/>
</mask>
<g mask="url(#mask6_3884_2345)">
<path opacity="0.1" d="M83.5492 280.35L115.101 264.884C117.699 263.611 120.739 263.61 123.338 264.883L159.409 282.551V271.449L120.45 251.532L75.0762 277.963L83.5492 280.35Z" fill="#152C44"/>
</g>
<mask id="mask7_3884_2345" style="mask-type:luminance" maskUnits="userSpaceOnUse" x="83" y="258" width="75" height="40">
<path d="M83.5488 280.35V297.002H157.35V278.759C157.35 275.822 155.506 273.202 152.742 272.21L121.719 259.334C120.095 258.751 118.313 258.792 116.718 259.449L87.8568 273.916C85.2498 274.99 83.5488 277.531 83.5488 280.35Z" fill="white"/>
</mask>
<g mask="url(#mask7_3884_2345)">
<path opacity="0.21" d="M80.4482 294.333C80.4482 294.333 147.781 297.449 160.448 274.116L166.781 309.783H74.1152L80.4482 294.333Z" fill="#152E47"/>
</g>
<path d="M170.741 329.235H58.0742V352.453H170.741V329.235Z" fill="#4587F6"/>
<mask id="mask8_3884_2345" style="mask-type:luminance" maskUnits="userSpaceOnUse" x="58" y="329" width="113" height="24">
<path d="M170.741 329.235H58.0742V352.453H170.741V329.235Z" fill="white"/>
</mask>
<g mask="url(#mask8_3884_2345)">
<path opacity="0.83" d="M78.8015 346.266C81.8556 346.266 84.3315 343.79 84.3315 340.736C84.3315 337.682 81.8556 335.206 78.8015 335.206C75.7473 335.206 73.2715 337.682 73.2715 340.736C73.2715 343.79 75.7473 346.266 78.8015 346.266Z" fill="white"/>
</g>
<mask id="mask9_3884_2345" style="mask-type:luminance" maskUnits="userSpaceOnUse" x="58" y="329" width="113" height="24">
<path d="M170.741 329.235H58.0742V352.453H170.741V329.235Z" fill="white"/>
</mask>
<g mask="url(#mask9_3884_2345)">
<path opacity="0.83" d="M67.4082 323.362H64.4082V358.109H67.4082V323.362Z" fill="white"/>
</g>
<mask id="mask10_3884_2345" style="mask-type:luminance" maskUnits="userSpaceOnUse" x="58" y="329" width="113" height="24">
<path d="M170.741 329.235H58.0742V352.453H170.741V329.235Z" fill="white"/>
</mask>
<g mask="url(#mask10_3884_2345)">
<path opacity="0.83" d="M93.1953 323.362H90.1953V358.109H93.1953V323.362Z" fill="white"/>
</g>
<path d="M88.3242 300.798C88.3242 300.798 93.8242 310.298 88.3242 324.798H196.324V299.131L88.3242 300.798Z" fill="#F3F1E8"/>
<mask id="mask11_3884_2345" style="mask-type:luminance" maskUnits="userSpaceOnUse" x="88" y="299" width="109" height="26">
<path d="M88.3242 300.798C88.3242 300.798 93.8242 310.298 88.3242 324.798H196.324V299.131L88.3242 300.798Z" fill="white"/>
</mask>
<g mask="url(#mask11_3884_2345)">
<path opacity="0.04" d="M201.492 307.62H81.4922V308.37H201.492V307.62Z" fill="black"/>
</g>
<mask id="mask12_3884_2345" style="mask-type:luminance" maskUnits="userSpaceOnUse" x="88" y="299" width="109" height="26">
<path d="M88.3242 300.798C88.3242 300.798 93.8242 310.298 88.3242 324.798H196.324V299.131L88.3242 300.798Z" fill="white"/>
</mask>
<g mask="url(#mask12_3884_2345)">
<path opacity="0.04" d="M201.492 304.298H81.4922V305.048H201.492V304.298Z" fill="black"/>
</g>
<mask id="mask13_3884_2345" style="mask-type:luminance" maskUnits="userSpaceOnUse" x="88" y="299" width="109" height="26">
<path d="M88.3242 300.798C88.3242 300.798 93.8242 310.298 88.3242 324.798H196.324V299.131L88.3242 300.798Z" fill="white"/>
</mask>
<g mask="url(#mask13_3884_2345)">
<path opacity="0.04" d="M201.492 314.264H81.4922V315.014H201.492V314.264Z" fill="black"/>
</g>
<mask id="mask14_3884_2345" style="mask-type:luminance" maskUnits="userSpaceOnUse" x="88" y="299" width="109" height="26">
<path d="M88.3242 300.798C88.3242 300.798 93.8242 310.298 88.3242 324.798H196.324V299.131L88.3242 300.798Z" fill="white"/>
</mask>
<g mask="url(#mask14_3884_2345)">
<path opacity="0.04" d="M201.492 310.942H81.4922V311.692H201.492V310.942Z" fill="black"/>
</g>
<mask id="mask15_3884_2345" style="mask-type:luminance" maskUnits="userSpaceOnUse" x="88" y="299" width="109" height="26">
<path d="M88.3242 300.798C88.3242 300.798 93.8242 310.298 88.3242 324.798H196.324V299.131L88.3242 300.798Z" fill="white"/>
</mask>
<g mask="url(#mask15_3884_2345)">
<path opacity="0.04" d="M201.492 320.907H81.4922V321.657H201.492V320.907Z" fill="black"/>
</g>
<mask id="mask16_3884_2345" style="mask-type:luminance" maskUnits="userSpaceOnUse" x="88" y="299" width="109" height="26">
<path d="M88.3242 300.798C88.3242 300.798 93.8242 310.298 88.3242 324.798H196.324V299.131L88.3242 300.798Z" fill="white"/>
</mask>
<g mask="url(#mask16_3884_2345)">
<path opacity="0.04" d="M201.492 317.586H81.4922V318.336H201.492V317.586Z" fill="black"/>
</g>
<path d="M196.324 329.298H83.8242C82.4432 329.298 81.3242 328.179 81.3242 326.798C81.3242 325.417 82.4432 324.298 83.8242 324.298H193.824V301.631H83.8242C82.4432 301.631 81.3242 300.512 81.3242 299.131C81.3242 297.75 82.4432 296.631 83.8242 296.631H196.324C197.705 296.631 198.824 297.75 198.824 299.131V326.798C198.824 328.179 197.705 329.298 196.324 329.298Z" fill="#FFD88A"/>
<path d="M111.324 310.965V335.608C111.324 337.032 113.103 337.68 114.019 336.589L118.049 331.789C118.659 331.063 119.777 331.063 120.386 331.789L124.416 336.589C125.332 337.68 127.111 337.032 127.111 335.608V310.965H111.324V310.965Z" fill="#FFBD29"/>
<mask id="mask17_3884_2345" style="mask-type:luminance" maskUnits="userSpaceOnUse" x="111" y="310" width="17" height="28">
<path d="M111.324 310.965V335.608C111.324 337.032 113.103 337.68 114.019 336.589L118.049 331.789C118.659 331.063 119.777 331.063 120.386 331.789L124.416 336.589C125.332 337.68 127.111 337.032 127.111 335.608V310.965H111.324V310.965Z" fill="white"/>
</mask>
<g mask="url(#mask17_3884_2345)">
<path opacity="0.2" d="M113.199 308.298V338.298" stroke="#F3F1E8" stroke-miterlimit="10"/>
</g>
<mask id="mask18_3884_2345" style="mask-type:luminance" maskUnits="userSpaceOnUse" x="111" y="310" width="17" height="28">
<path d="M111.324 310.965V335.608C111.324 337.032 113.103 337.68 114.019 336.589L118.049 331.789C118.659 331.063 119.777 331.063 120.386 331.789L124.416 336.589C125.332 337.68 127.111 337.032 127.111 335.608V310.965H111.324V310.965Z" fill="white"/>
</mask>
<g mask="url(#mask18_3884_2345)">
<path opacity="0.2" d="M125.699 309.051V339.051" stroke="#F3F1E8" stroke-miterlimit="10"/>
</g>
<path opacity="0.95" d="M454.074 390.032H42.0742C40.4242 390.032 39.0742 388.682 39.0742 387.032C39.0742 385.382 40.4242 384.032 42.0742 384.032H454.074C455.724 384.032 457.074 385.382 457.074 387.032C457.074 388.682 455.724 390.032 454.074 390.032Z" fill="#2BD2F9"/>
<path d="M48.9082 355.946C48.9082 355.946 54.4082 365.446 48.9082 379.946H156.908V354.28L48.9082 355.946Z" fill="#F3F1E8"/>
<mask id="mask19_3884_2345" style="mask-type:luminance" maskUnits="userSpaceOnUse" x="48" y="354" width="109" height="26">
<path d="M48.9082 355.946C48.9082 355.946 54.4082 365.446 48.9082 379.946H156.908V354.28L48.9082 355.946Z" fill="white"/>
</mask>
<g mask="url(#mask19_3884_2345)">
<path opacity="0.04" d="M162.074 362.768H42.0742V363.518H162.074V362.768Z" fill="black"/>
</g>
<mask id="mask20_3884_2345" style="mask-type:luminance" maskUnits="userSpaceOnUse" x="48" y="354" width="109" height="26">
<path d="M48.9082 355.946C48.9082 355.946 54.4082 365.446 48.9082 379.946H156.908V354.28L48.9082 355.946Z" fill="white"/>
</mask>
<g mask="url(#mask20_3884_2345)">
<path opacity="0.04" d="M162.074 359.446H42.0742V360.196H162.074V359.446Z" fill="black"/>
</g>
<mask id="mask21_3884_2345" style="mask-type:luminance" maskUnits="userSpaceOnUse" x="48" y="354" width="109" height="26">
<path d="M48.9082 355.946C48.9082 355.946 54.4082 365.446 48.9082 379.946H156.908V354.28L48.9082 355.946Z" fill="white"/>
</mask>
<g mask="url(#mask21_3884_2345)">
<path opacity="0.04" d="M162.074 369.412H42.0742V370.162H162.074V369.412Z" fill="black"/>
</g>
<mask id="mask22_3884_2345" style="mask-type:luminance" maskUnits="userSpaceOnUse" x="48" y="354" width="109" height="26">
<path d="M48.9082 355.946C48.9082 355.946 54.4082 365.446 48.9082 379.946H156.908V354.28L48.9082 355.946Z" fill="white"/>
</mask>
<g mask="url(#mask22_3884_2345)">
<path opacity="0.04" d="M162.074 366.09H42.0742V366.84H162.074V366.09Z" fill="black"/>
</g>
<mask id="mask23_3884_2345" style="mask-type:luminance" maskUnits="userSpaceOnUse" x="48" y="354" width="109" height="26">
<path d="M48.9082 355.946C48.9082 355.946 54.4082 365.446 48.9082 379.946H156.908V354.28L48.9082 355.946Z" fill="white"/>
</mask>
<g mask="url(#mask23_3884_2345)">
<path opacity="0.04" d="M162.074 376.056H42.0742V376.806H162.074V376.056Z" fill="black"/>
</g>
<mask id="mask24_3884_2345" style="mask-type:luminance" maskUnits="userSpaceOnUse" x="48" y="354" width="109" height="26">
<path d="M48.9082 355.946C48.9082 355.946 54.4082 365.446 48.9082 379.946H156.908V354.28L48.9082 355.946Z" fill="white"/>
</mask>
<g mask="url(#mask24_3884_2345)">
<path opacity="0.04" d="M162.074 372.734H42.0742V373.484H162.074V372.734Z" fill="black"/>
</g>
<path d="M156.906 384.446H44.4062C43.0252 384.446 41.9062 383.327 41.9062 381.946C41.9062 380.565 43.0252 379.446 44.4062 379.446H154.406V356.779H44.4062C43.0252 356.779 41.9062 355.66 41.9062 354.279C41.9062 352.898 43.0252 351.779 44.4062 351.779H156.906C158.287 351.779 159.406 352.898 159.406 354.279V381.946C159.406 383.327 158.287 384.446 156.906 384.446Z" fill="#32A1E7"/>
<path d="M71.9082 366.113V390.756C71.9082 392.18 73.6872 392.828 74.6032 391.737L78.6332 386.937C79.2432 386.211 80.3612 386.211 80.9702 386.937L85.0002 391.737C85.9162 392.828 87.6952 392.18 87.6952 390.756V366.113H71.9082V366.113Z" fill="#4587F6"/>
<mask id="mask25_3884_2345" style="mask-type:luminance" maskUnits="userSpaceOnUse" x="71" y="366" width="17" height="27">
<path d="M71.9082 366.113V390.756C71.9082 392.18 73.6872 392.828 74.6032 391.737L78.6332 386.937C79.2432 386.211 80.3612 386.211 80.9702 386.937L85.0002 391.737C85.9162 392.828 87.6952 392.18 87.6952 390.756V366.113H71.9082V366.113Z" fill="white"/>
</mask>
<g mask="url(#mask25_3884_2345)">
<path opacity="0.06" d="M73.7832 363.446V393.446" stroke="#F3F1E8" stroke-miterlimit="10"/>
</g>
<mask id="mask26_3884_2345" style="mask-type:luminance" maskUnits="userSpaceOnUse" x="71" y="366" width="17" height="27">
<path d="M71.9082 366.113V390.756C71.9082 392.18 73.6872 392.828 74.6032 391.737L78.6332 386.937C79.2432 386.211 80.3612 386.211 80.9702 386.937L85.0002 391.737C85.9162 392.828 87.6952 392.18 87.6952 390.756V366.113H71.9082V366.113Z" fill="white"/>
</mask>
<g mask="url(#mask26_3884_2345)">
<path opacity="0.06" d="M86.2832 364.199V394.199" stroke="#F3F1E8" stroke-miterlimit="10"/>
</g>
<path d="M393.074 365.032H140.074V233.618C140.074 221.752 149.693 212.133 161.558 212.133H371.589C383.455 212.133 393.074 221.752 393.074 233.618V365.032V365.032Z" fill="#2C3E50"/>
<mask id="mask27_3884_2345" style="mask-type:luminance" maskUnits="userSpaceOnUse" x="140" y="212" width="254" height="154">
<path d="M393.074 365.032H140.074V233.618C140.074 221.752 149.693 212.133 161.558 212.133H371.589C383.455 212.133 393.074 221.752 393.074 233.618V365.032V365.032Z" fill="white"/>
</mask>
<g mask="url(#mask27_3884_2345)">
<path d="M378.09 369.793H155.058C151.382 369.793 148.402 366.813 148.402 363.137V237.362C148.402 227.802 156.152 220.051 165.713 220.051H367.436C376.996 220.051 384.747 227.801 384.747 237.362V363.137C384.746 366.814 381.766 369.793 378.09 369.793Z" fill="#F7E6AD"/>
<mask id="mask28_3884_2345" style="mask-type:luminance" maskUnits="userSpaceOnUse" x="148" y="220" width="237" height="150">
<path d="M378.09 369.793H155.058C151.382 369.793 148.402 366.813 148.402 363.137V237.362C148.402 227.802 156.152 220.051 165.713 220.051H367.436C376.996 220.051 384.747 227.801 384.747 237.362V363.137C384.746 366.814 381.766 369.793 378.09 369.793Z" fill="white"/>
</mask>
<g mask="url(#mask28_3884_2345)">
<path opacity="0.25" d="M381.345 197.77C381.345 197.77 333.512 392.658 135.928 395.491H444.345V222.325L381.345 197.77Z" fill="#E5D4A3"/>
</g>
</g>
<path d="M399.574 385.032H133.574C122.528 385.032 113.574 376.078 113.574 365.032H419.574C419.574 376.078 410.62 385.032 399.574 385.032Z" fill="#23323F"/>
<mask id="mask29_3884_2345" style="mask-type:luminance" maskUnits="userSpaceOnUse" x="113" y="365" width="307" height="21">
<path d="M399.574 385.032H133.574C122.528 385.032 113.574 376.078 113.574 365.032H419.574C419.574 376.078 410.62 385.032 399.574 385.032Z" fill="white"/>
</mask>
<g mask="url(#mask29_3884_2345)">
<path d="M397.876 365.032C394.416 371.004 387.972 375.032 380.574 375.032H115.271C118.731 381.004 125.175 385.032 132.574 385.032H398.574C409.62 385.032 418.574 376.078 418.574 365.032H397.876Z" fill="#1D2933"/>
</g>
<path d="M314.242 212.133H337.306C337.306 212.133 337.543 191.511 329.828 181.007C329.828 181.007 321.886 186.34 316.898 186.34L314.242 212.133Z" fill="#F7F7F7"/>
<path d="M329.827 337.365H202.334V195.255C202.334 187.387 208.713 181.008 216.581 181.008H329.828V337.365H329.827Z" fill="white"/>
<path d="M321.214 203.649C314.219 203.649 308.548 197.978 308.548 190.983C308.548 190.614 308.572 190.25 308.603 189.889H223.661C223.692 190.25 223.716 190.614 223.716 190.983C223.716 197.978 218.045 203.649 211.05 203.649C210.998 203.649 210.947 203.642 210.895 203.641V314.126C210.947 314.125 210.998 314.118 211.05 314.118C218.045 314.118 223.716 319.789 223.716 326.784C223.716 327.362 223.664 327.926 223.589 328.484H308.675C308.6 327.926 308.548 327.362 308.548 326.784C308.548 319.789 314.219 314.118 321.214 314.118C321.231 314.118 321.248 314.121 321.266 314.121V203.646C321.248 203.646 321.232 203.649 321.214 203.649Z" fill="#97E4FC"/>
<path d="M324.036 200.805C316.682 200.805 310.721 194.844 310.721 187.49C310.721 187.102 310.746 186.72 310.779 186.34H221.488C221.521 186.72 221.546 187.102 221.546 187.49C221.546 194.843 215.585 200.805 208.231 200.805C208.176 200.805 208.123 200.797 208.068 200.797V316.939C208.123 316.938 208.176 316.931 208.231 316.931C215.585 316.931 221.546 322.892 221.546 330.246C221.546 330.854 221.491 331.447 221.412 332.033H310.854C310.775 331.447 310.72 330.854 310.72 330.246C310.72 322.893 316.681 316.931 324.035 316.931C324.053 316.931 324.071 316.934 324.089 316.934V200.803C324.072 200.803 324.054 200.805 324.036 200.805Z" stroke="#64DDF9" stroke-miterlimit="10"/>
<path d="M304.739 206.032H229.406V216.699H304.739V206.032Z" fill="#64DDF9"/>
<path d="M315.887 226.699H218.262V232.032H315.887V226.699Z" fill="#64DDF9"/>
<path d="M315.887 238.032H218.262V243.365H315.887V238.032Z" fill="#64DDF9"/>
<path d="M315.887 248.865H218.262V254.198H315.887V248.865Z" fill="#64DDF9"/>
<path d="M315.887 260.199H218.262V265.532H315.887V260.199Z" fill="#64DDF9"/>
<path d="M315.887 271.449H218.262V276.782H315.887V271.449Z" fill="#64DDF9"/>
<path d="M315.887 282.782H218.262V288.115H315.887V282.782Z" fill="#64DDF9"/>
<path d="M270.447 320.699C270.447 320.699 272.447 310.366 270.447 296.699C270.447 296.699 275.614 308.157 279.28 306.157C282.947 304.157 280.78 296.699 280.78 296.699C280.78 296.699 282.113 304.282 289.78 301.282" stroke="#43D7F9" stroke-miterlimit="10" stroke-linecap="round" stroke-linejoin="round"/>
<path d="M242.786 306.887L236.369 317.554H239.471L240.615 320.304L246.536 308.72L242.786 306.887Z" fill="#08D5F7"/>
<mask id="mask30_3884_2345" style="mask-type:luminance" maskUnits="userSpaceOnUse" x="236" y="306" width="11" height="15">
<path d="M242.786 306.887L236.369 317.554H239.471L240.615 320.304L246.536 308.72L242.786 306.887Z" fill="white"/>
</mask>
<g mask="url(#mask30_3884_2345)">
<path opacity="0.03" d="M245.201 306.887L238.785 318.887L240.201 322.637L247.535 308.637L245.201 306.887Z" fill="black"/>
</g>
<path d="M246.064 309.9L253.117 320.157L254.402 317.333L257.378 317.431L249.285 307.246L246.064 309.9Z" fill="#08D5F7"/>
<mask id="mask31_3884_2345" style="mask-type:luminance" maskUnits="userSpaceOnUse" x="246" y="307" width="12" height="14">
<path d="M246.064 309.9L253.117 320.157L254.402 317.333L257.378 317.431L249.285 307.246L246.064 309.9Z" fill="white"/>
</mask>
<g mask="url(#mask31_3884_2345)">
<path opacity="0.03" d="M247.066 307.7L255.332 318.509L259.332 318.772L249.625 306.301L247.066 307.7Z" fill="black"/>
</g>
<path d="M247.695 297.708C248.487 296.552 250.297 297.14 250.259 298.541C250.232 299.528 251.204 300.235 252.135 299.904C253.455 299.434 254.574 300.974 253.72 302.085C253.118 302.868 253.489 304.011 254.436 304.29C255.78 304.686 255.78 306.59 254.436 306.986C253.489 307.265 253.117 308.408 253.72 309.191C254.575 310.301 253.456 311.842 252.135 311.372C251.205 311.041 250.232 311.748 250.259 312.735C250.298 314.136 248.487 314.724 247.695 313.568C247.137 312.753 245.935 312.753 245.377 313.568C244.585 314.724 242.775 314.136 242.813 312.735C242.84 311.748 241.868 311.041 240.937 311.372C239.617 311.842 238.498 310.302 239.353 309.191C239.955 308.408 239.584 307.265 238.637 306.986C237.293 306.59 237.293 304.686 238.637 304.29C239.584 304.011 239.956 302.868 239.353 302.085C238.498 300.975 239.617 299.435 240.937 299.904C241.867 300.235 242.84 299.528 242.813 298.541C242.774 297.14 244.585 296.552 245.377 297.708C245.934 298.522 247.137 298.522 247.695 297.708Z" fill="#43D7F9"/>
<path d="M253.601 305.637C253.601 309.539 250.438 312.701 246.537 312.701C242.636 312.701 239.473 309.538 239.473 305.637C239.473 301.736 242.636 298.573 246.537 298.573C250.438 298.573 253.601 301.736 253.601 305.637Z" fill="#A2E7FC"/>
<path d="M252.455 305.637C252.455 308.907 249.804 311.558 246.534 311.558C243.264 311.558 240.613 308.907 240.613 305.637C240.613 302.367 243.264 299.716 246.534 299.716C249.805 299.716 252.455 302.367 252.455 305.637Z" stroke="white" stroke-width="0.25" stroke-miterlimit="10" stroke-linecap="round" stroke-linejoin="round"/>
<path d="M242.658 213.206C242.296 213.206 241.971 213.127 241.683 212.969C241.4 212.807 241.178 212.586 241.015 212.308C240.853 212.024 240.771 211.702 240.771 211.34C240.771 210.973 240.853 210.651 241.015 210.372C241.178 210.094 241.4 209.876 241.683 209.718C241.971 209.56 242.296 209.481 242.658 209.481C242.969 209.481 243.25 209.541 243.501 209.662C243.751 209.783 243.948 209.964 244.092 210.205L243.723 210.456C243.598 210.27 243.443 210.133 243.257 210.045C243.071 209.957 242.869 209.913 242.651 209.913C242.391 209.913 242.157 209.973 241.948 210.094C241.739 210.21 241.574 210.374 241.454 210.588C241.333 210.801 241.273 211.052 241.273 211.34C241.273 211.628 241.333 211.878 241.454 212.092C241.574 212.305 241.739 212.472 241.948 212.593C242.157 212.709 242.391 212.767 242.651 212.767C242.869 212.767 243.071 212.723 243.257 212.635C243.443 212.547 243.598 212.412 243.723 212.231L244.092 212.482C243.948 212.718 243.751 212.899 243.501 213.025C243.25 213.145 242.969 213.206 242.658 213.206ZM246.555 213.206C246.174 213.206 245.84 213.127 245.552 212.969C245.264 212.807 245.039 212.586 244.877 212.308C244.714 212.024 244.633 211.702 244.633 211.34C244.633 210.978 244.71 210.658 244.863 210.379C245.021 210.101 245.234 209.882 245.503 209.725C245.777 209.562 246.084 209.481 246.422 209.481C246.766 209.481 247.07 209.56 247.335 209.718C247.604 209.871 247.815 210.089 247.968 210.372C248.121 210.651 248.198 210.973 248.198 211.34C248.198 211.363 248.195 211.389 248.191 211.416C248.191 211.44 248.191 211.465 248.191 211.493H245.009V211.124H247.926L247.731 211.27C247.731 211.006 247.673 210.771 247.557 210.567C247.446 210.358 247.293 210.196 247.098 210.08C246.903 209.964 246.678 209.906 246.422 209.906C246.172 209.906 245.947 209.964 245.747 210.08C245.548 210.196 245.392 210.358 245.281 210.567C245.169 210.776 245.114 211.015 245.114 211.284V211.361C245.114 211.639 245.174 211.885 245.295 212.099C245.42 212.308 245.592 212.472 245.81 212.593C246.033 212.709 246.286 212.767 246.569 212.767C246.791 212.767 246.998 212.728 247.188 212.649C247.383 212.57 247.55 212.449 247.69 212.287L247.968 212.607C247.806 212.802 247.601 212.95 247.355 213.053C247.114 213.155 246.847 213.206 246.555 213.206ZM249.204 213.171V209.516H249.677V210.511L249.629 210.337C249.731 210.059 249.902 209.848 250.144 209.704C250.385 209.555 250.685 209.481 251.042 209.481V209.961C251.023 209.961 251.005 209.961 250.986 209.961C250.968 209.957 250.949 209.954 250.931 209.954C250.545 209.954 250.244 210.073 250.025 210.309C249.807 210.542 249.698 210.873 249.698 211.305V213.171H249.204ZM253.256 213.206C252.913 213.206 252.648 213.113 252.462 212.927C252.277 212.742 252.184 212.479 252.184 212.141V208.708H252.678V212.113C252.678 212.326 252.732 212.491 252.838 212.607C252.95 212.723 253.107 212.781 253.312 212.781C253.53 212.781 253.711 212.718 253.855 212.593L254.029 212.948C253.931 213.036 253.813 213.101 253.674 213.143C253.539 213.185 253.4 213.206 253.256 213.206ZM251.529 209.927V209.516H253.792V209.927H251.529ZM254.929 213.171V209.516H255.423V213.171H254.929ZM255.179 208.708C255.077 208.708 254.991 208.673 254.922 208.604C254.852 208.534 254.817 208.451 254.817 208.353C254.817 208.256 254.852 208.174 254.922 208.109C254.991 208.04 255.077 208.005 255.179 208.005C255.281 208.005 255.367 208.038 255.437 208.102C255.506 208.167 255.541 208.249 255.541 208.346C255.541 208.448 255.506 208.534 255.437 208.604C255.372 208.673 255.286 208.708 255.179 208.708ZM256.882 213.171V209.056C256.882 208.731 256.977 208.469 257.167 208.27C257.358 208.07 257.631 207.97 257.989 207.97C258.128 207.97 258.263 207.989 258.393 208.026C258.523 208.063 258.632 208.121 258.72 208.2L258.553 208.569C258.483 208.509 258.402 208.465 258.309 208.437C258.216 208.404 258.117 208.388 258.01 208.388C257.801 208.388 257.641 208.446 257.529 208.562C257.418 208.678 257.362 208.85 257.362 209.077V209.634L257.376 209.864V213.171H256.882ZM256.227 209.927V209.516H258.49V209.927H256.227ZM259.158 213.171V209.516H259.653V213.171H259.158ZM259.409 208.708C259.307 208.708 259.221 208.673 259.152 208.604C259.082 208.534 259.047 208.451 259.047 208.353C259.047 208.256 259.082 208.174 259.152 208.109C259.221 208.04 259.307 208.005 259.409 208.005C259.511 208.005 259.597 208.038 259.667 208.102C259.736 208.167 259.771 208.249 259.771 208.346C259.771 208.448 259.736 208.534 259.667 208.604C259.602 208.673 259.516 208.708 259.409 208.708ZM262.559 213.206C262.197 213.206 261.872 213.127 261.584 212.969C261.301 212.807 261.078 212.586 260.916 212.308C260.753 212.024 260.672 211.702 260.672 211.34C260.672 210.973 260.753 210.651 260.916 210.372C261.078 210.094 261.301 209.876 261.584 209.718C261.872 209.56 262.197 209.481 262.559 209.481C262.87 209.481 263.15 209.541 263.401 209.662C263.652 209.783 263.849 209.964 263.993 210.205L263.624 210.456C263.498 210.27 263.343 210.133 263.157 210.045C262.972 209.957 262.77 209.913 262.552 209.913C262.292 209.913 262.057 209.973 261.848 210.094C261.64 210.21 261.475 210.374 261.354 210.588C261.233 210.801 261.173 211.052 261.173 211.34C261.173 211.628 261.233 211.878 261.354 212.092C261.475 212.305 261.64 212.472 261.848 212.593C262.057 212.709 262.292 212.767 262.552 212.767C262.77 212.767 262.972 212.723 263.157 212.635C263.343 212.547 263.498 212.412 263.624 212.231L263.993 212.482C263.849 212.718 263.652 212.899 263.401 213.025C263.15 213.145 262.87 213.206 262.559 213.206ZM267.254 213.171V212.363L267.234 212.231V210.88C267.234 210.569 267.145 210.33 266.969 210.163C266.797 209.996 266.54 209.913 266.196 209.913C265.959 209.913 265.734 209.952 265.521 210.031C265.307 210.11 265.126 210.214 264.978 210.344L264.755 209.975C264.941 209.817 265.163 209.697 265.423 209.613C265.683 209.525 265.957 209.481 266.245 209.481C266.718 209.481 267.083 209.599 267.338 209.836C267.598 210.068 267.728 210.423 267.728 210.901V213.171H267.254ZM265.994 213.206C265.72 213.206 265.481 213.162 265.277 213.073C265.078 212.981 264.924 212.855 264.818 212.697C264.711 212.535 264.658 212.349 264.658 212.141C264.658 211.95 264.702 211.778 264.79 211.625C264.883 211.468 265.031 211.342 265.235 211.249C265.444 211.152 265.723 211.103 266.071 211.103H267.331V211.472H266.085C265.732 211.472 265.486 211.535 265.347 211.66C265.212 211.785 265.145 211.941 265.145 212.127C265.145 212.335 265.226 212.503 265.389 212.628C265.551 212.753 265.778 212.816 266.071 212.816C266.349 212.816 266.588 212.753 266.788 212.628C266.992 212.498 267.141 212.312 267.234 212.071L267.345 212.412C267.252 212.653 267.09 212.846 266.858 212.99C266.63 213.134 266.342 213.206 265.994 213.206ZM270.226 213.206C269.883 213.206 269.618 213.113 269.432 212.927C269.247 212.742 269.154 212.479 269.154 212.141V208.708H269.648V212.113C269.648 212.326 269.702 212.491 269.808 212.607C269.92 212.723 270.078 212.781 270.282 212.781C270.5 212.781 270.681 212.718 270.825 212.593L270.999 212.948C270.901 213.036 270.783 213.101 270.644 213.143C270.509 213.185 270.37 213.206 270.226 213.206ZM268.5 209.927V209.516H270.762V209.927H268.5ZM271.899 213.171V209.516H272.393V213.171H271.899ZM272.149 208.708C272.047 208.708 271.961 208.673 271.892 208.604C271.822 208.534 271.787 208.451 271.787 208.353C271.787 208.256 271.822 208.174 271.892 208.109C271.961 208.04 272.047 208.005 272.149 208.005C272.252 208.005 272.337 208.038 272.407 208.102C272.477 208.167 272.511 208.249 272.511 208.346C272.511 208.448 272.477 208.534 272.407 208.604C272.342 208.673 272.256 208.708 272.149 208.708ZM275.258 213.206C274.906 213.206 274.588 213.127 274.305 212.969C274.026 212.807 273.806 212.586 273.643 212.308C273.481 212.024 273.399 211.702 273.399 211.34C273.399 210.973 273.481 210.651 273.643 210.372C273.806 210.094 274.026 209.876 274.305 209.718C274.583 209.56 274.901 209.481 275.258 209.481C275.62 209.481 275.941 209.56 276.219 209.718C276.502 209.876 276.723 210.094 276.881 210.372C277.043 210.651 277.124 210.973 277.124 211.34C277.124 211.702 277.043 212.024 276.881 212.308C276.723 212.586 276.502 212.807 276.219 212.969C275.936 213.127 275.616 213.206 275.258 213.206ZM275.258 212.767C275.523 212.767 275.757 212.709 275.962 212.593C276.166 212.472 276.326 212.305 276.442 212.092C276.563 211.874 276.623 211.623 276.623 211.34C276.623 211.052 276.563 210.801 276.442 210.588C276.326 210.374 276.166 210.21 275.962 210.094C275.757 209.973 275.525 209.913 275.265 209.913C275.005 209.913 274.773 209.973 274.569 210.094C274.365 210.21 274.202 210.374 274.082 210.588C273.961 210.801 273.901 211.052 273.901 211.34C273.901 211.623 273.961 211.874 274.082 212.092C274.202 212.305 274.365 212.472 274.569 212.593C274.773 212.709 275.003 212.767 275.258 212.767ZM279.999 209.481C280.296 209.481 280.556 209.539 280.779 209.655C281.006 209.766 281.183 209.938 281.308 210.17C281.438 210.402 281.503 210.695 281.503 211.047V213.171H281.009V211.096C281.009 210.711 280.911 210.421 280.716 210.226C280.526 210.026 280.257 209.927 279.909 209.927C279.649 209.927 279.421 209.98 279.226 210.087C279.036 210.189 278.888 210.34 278.781 210.539C278.679 210.734 278.628 210.971 278.628 211.249V213.171H278.133V209.516H278.607V210.518L278.53 210.33C278.646 210.066 278.832 209.859 279.087 209.711C279.342 209.558 279.646 209.481 279.999 209.481Z" fill="white"/>
<path d="M78.5211 256.079C77.2151 255.271 75.3991 254.458 73.7611 254.823C72.5771 255.086 71.6551 255.997 71.0171 257.529C68.2551 264.172 71.8621 273.02 71.8991 273.108L70.9761 273.491C70.8191 273.114 67.1741 264.166 70.0951 257.145C70.8641 255.294 72.0261 254.184 73.5461 253.846C75.6261 253.384 78.0221 254.56 79.6491 255.614" fill="#FFBD29"/>
<mask id="mask32_3884_2345" style="mask-type:luminance" maskUnits="userSpaceOnUse" x="68" y="253" width="12" height="21">
<path d="M78.5211 256.079C77.2151 255.271 75.3991 254.458 73.7611 254.823C72.5771 255.086 71.6551 255.997 71.0171 257.529C68.2551 264.172 71.8621 273.02 71.8991 273.108L70.9761 273.491C70.8191 273.114 67.1741 264.166 70.0951 257.145C70.8641 255.294 72.0261 254.184 73.5461 253.846C75.6261 253.384 78.0221 254.56 79.6491 255.614" fill="white"/>
</mask>
<g mask="url(#mask32_3884_2345)">
<path d="M70.4971 257.51C71.2661 255.659 72.4281 254.549 73.9481 254.211C76.8411 253.568 80.3361 256.088 81.5341 257.049L81.5591 257.042C81.3881 256.886 77.0241 253.073 73.5441 253.847C72.0231 254.185 70.8621 255.295 70.0931 257.146C67.1721 264.168 70.8171 273.115 70.9741 273.492L71.2001 273.398C70.4741 271.457 67.9091 263.733 70.4971 257.51Z" fill="#F4B12A"/>
</g>
<path d="M70.239 273.6C70.239 273.6 66.777 280.196 68.493 280.484C70.209 280.772 71.339 274.704 71.339 274.704C71.339 274.704 69.163 280.443 71.923 280.687C74.682 280.931 72.226 274.579 72.226 274.579C72.226 274.579 72.499 280.313 75.255 279.956C76.892 279.744 74.663 273.803 71.879 273.42" fill="#FFBD29"/>
<mask id="mask33_3884_2345" style="mask-type:luminance" maskUnits="userSpaceOnUse" x="68" y="273" width="8" height="8">
<path d="M70.239 273.6C70.239 273.6 66.777 280.196 68.493 280.484C70.209 280.772 71.339 274.704 71.339 274.704C71.339 274.704 69.163 280.443 71.923 280.687C74.682 280.931 72.226 274.579 72.226 274.579C72.226 274.579 72.499 280.313 75.255 279.956C76.892 279.744 74.663 273.803 71.879 273.42" fill="white"/>
</mask>
<g mask="url(#mask33_3884_2345)">
<g opacity="0.46">
<path d="M70.6002 276.44C70.1012 277.966 69.3752 279.504 68.4912 279.356C68.2902 279.322 68.1652 279.195 68.0922 279.008C67.9442 279.808 68.0062 280.403 68.4922 280.485C69.3392 280.627 70.0432 279.22 70.5392 277.759C70.5122 277.34 70.5372 276.89 70.6002 276.44Z" fill="#EFAD29"/>
<path d="M75.741 278.342C75.661 278.61 75.51 278.794 75.255 278.827C74.313 278.949 73.666 278.354 73.216 277.525C73.287 278.702 73.021 279.655 71.922 279.558C71.033 279.479 70.66 278.827 70.558 277.983C70.437 279.317 70.663 280.576 71.924 280.687C73.023 280.784 73.289 279.832 73.218 278.654C73.668 279.482 74.315 280.078 75.257 279.956C75.783 279.888 75.905 279.222 75.741 278.342Z" fill="#EFAD29"/>
</g>
</g>
<path d="M72.9209 274.191C72.4949 275.056 71.4489 275.411 70.5839 274.986C69.7189 274.56 69.3639 273.514 69.7889 272.649C70.2149 271.784 71.2609 271.429 72.1259 271.854C72.9909 272.28 73.3459 273.327 72.9209 274.191Z" fill="#FFAF10"/>
<mask id="mask34_3884_2345" style="mask-type:luminance" maskUnits="userSpaceOnUse" x="69" y="271" width="5" height="5">
<path d="M72.9209 274.191C72.4949 275.056 71.4489 275.411 70.5839 274.986C69.7189 274.56 69.3639 273.514 69.7889 272.649C70.2149 271.784 71.2609 271.429 72.1259 271.854C72.9909 272.28 73.3459 273.327 72.9209 274.191Z" fill="white"/>
</mask>
<g mask="url(#mask34_3884_2345)">
<path opacity="0.61" d="M72.7472 272.38C72.7512 272.646 72.7012 272.917 72.5752 273.173C72.1492 274.038 71.1032 274.393 70.2382 273.967C69.9822 273.841 69.7762 273.656 69.6172 273.441C69.6262 274.076 69.9752 274.685 70.5842 274.985C71.4492 275.411 72.4952 275.055 72.9212 274.19C73.2202 273.583 73.1262 272.889 72.7472 272.38Z" fill="#EFAD29"/>
</g>
<path d="M413.512 232.759C413.269 233.732 412.393 237.08 408.894 237.945C408.814 237.965 408.797 238.068 408.874 238.099C409.796 238.467 412.964 240.002 413.547 243.923C413.56 244.008 413.682 244.008 413.694 243.923C414.255 240.118 417.208 238.559 418.212 238.135C418.315 238.091 418.291 237.951 418.183 237.923C414.759 237.023 413.896 233.725 413.656 232.76C413.637 232.683 413.531 232.683 413.512 232.759Z" fill="white"/>
<path d="M419.536 245.947C419.293 246.92 418.417 250.268 414.918 251.133C414.838 251.153 414.821 251.256 414.897 251.287C415.819 251.655 418.987 253.19 419.57 257.111C419.583 257.196 419.705 257.196 419.717 257.111C420.278 253.306 423.231 251.747 424.235 251.323C424.338 251.279 424.314 251.139 424.206 251.111C420.782 250.211 419.919 246.913 419.679 245.948C419.661 245.871 419.555 245.871 419.536 245.947Z" fill="white"/>
<path d="M175.58 160.718C175.337 161.691 174.461 165.039 170.962 165.904C170.882 165.924 170.865 166.027 170.941 166.058C171.863 166.426 175.031 167.961 175.614 171.882C175.627 171.967 175.749 171.967 175.761 171.882C176.322 168.077 179.275 166.518 180.279 166.094C180.382 166.05 180.358 165.91 180.25 165.882C176.826 164.982 175.963 161.684 175.723 160.719C175.705 160.642 175.599 160.642 175.58 160.718Z" fill="white"/>
<path d="M180.651 173.895C180.457 174.67 179.76 177.337 176.972 178.027C176.908 178.043 176.894 178.125 176.956 178.149C177.691 178.442 180.215 179.665 180.679 182.789C180.689 182.857 180.786 182.857 180.797 182.789C181.244 179.757 183.597 178.516 184.396 178.177C184.478 178.142 184.459 178.031 184.373 178.008C181.645 177.291 180.958 174.663 180.766 173.895C180.751 173.834 180.667 173.834 180.651 173.895Z" fill="white"/>
<path d="M188.184 156.211C187.99 156.986 187.293 159.654 184.505 160.343C184.441 160.359 184.427 160.441 184.489 160.465C185.224 160.758 187.748 161.981 188.212 165.105C188.222 165.173 188.319 165.173 188.329 165.105C188.776 162.073 191.129 160.832 191.928 160.493C192.01 160.458 191.991 160.347 191.905 160.324C189.177 159.607 188.49 156.979 188.298 156.211C188.283 156.15 188.199 156.15 188.184 156.211Z" fill="white"/>
<path d="M414.091 107.715H344.344C337.744 107.715 332.344 113.115 332.344 119.715V170.783C332.344 177.383 337.744 182.783 344.344 182.783H353.039L355.67 188.493C356.622 190.56 359.56 190.56 360.513 188.493L363.143 182.783H414.091C420.691 182.783 426.091 177.383 426.091 170.783V119.715C426.091 113.115 420.691 107.715 414.091 107.715Z" fill="#32A1E7"/>
<mask id="mask35_3884_2345" style="mask-type:luminance" maskUnits="userSpaceOnUse" x="332" y="107" width="95" height="84">
<path d="M414.091 107.715H344.344C337.744 107.715 332.344 113.115 332.344 119.715V170.783C332.344 177.383 337.744 182.783 344.344 182.783H353.039L355.67 188.493C356.622 190.56 359.56 190.56 360.513 188.493L363.143 182.783H414.091C420.691 182.783 426.091 177.383 426.091 170.783V119.715C426.091 113.115 420.691 107.715 414.091 107.715Z" fill="white"/>
</mask>
<g mask="url(#mask35_3884_2345)">
<path opacity="0.02" d="M329.828 181.007C329.828 181.007 409.075 179.502 419.575 103.002L433.075 113.002L431.075 189.253L345.575 193.748L329.828 181.007Z" fill="black"/>
</g>
<path d="M376.216 150.003C376.216 150.003 377.74 165.253 371.074 168.003H386.907C386.907 168.003 379.907 163.836 381.74 149.038" fill="#8EDBED"/>
<mask id="mask36_3884_2345" style="mask-type:luminance" maskUnits="userSpaceOnUse" x="371" y="149" width="16" height="20">
<path d="M376.216 150.003C376.216 150.003 377.74 165.253 371.074 168.003H386.907C386.907 168.003 379.907 163.836 381.74 149.038" fill="white"/>
</mask>
<g mask="url(#mask36_3884_2345)">
<path opacity="0.1" d="M381.74 149.037L378.495 149.604C376.911 163.936 383.723 168.002 383.723 168.002H386.906C386.906 168.002 379.906 163.836 381.74 149.037Z" fill="#7FC7D3"/>
</g>
<path d="M373.758 151.773C356.637 151.775 351.103 136.185 350.576 127.803C350.545 127.306 350.696 126.817 350.993 126.452C351.29 126.088 351.705 125.88 352.141 125.88H367.567C368.433 125.88 369.136 126.683 369.136 127.674C369.136 128.665 368.434 129.468 367.567 129.468H353.944C354.8 134.707 358.599 148.685 374.554 148.173C374.569 148.173 374.583 148.173 374.597 148.173C375.444 148.173 376.142 148.945 376.164 149.919C376.187 150.909 375.504 151.733 374.638 151.76C374.343 151.769 374.047 151.773 373.758 151.773Z" fill="#8EDBED"/>
<mask id="mask37_3884_2345" style="mask-type:luminance" maskUnits="userSpaceOnUse" x="350" y="125" width="27" height="27">
<path d="M373.758 151.773C356.637 151.775 351.103 136.185 350.576 127.803C350.545 127.306 350.696 126.817 350.993 126.452C351.29 126.088 351.705 125.88 352.141 125.88H367.567C368.433 125.88 369.136 126.683 369.136 127.674C369.136 128.665 368.434 129.468 367.567 129.468H353.944C354.8 134.707 358.599 148.685 374.554 148.173C374.569 148.173 374.583 148.173 374.597 148.173C375.444 148.173 376.142 148.945 376.164 149.919C376.187 150.909 375.504 151.733 374.638 151.76C374.343 151.769 374.047 151.773 373.758 151.773Z" fill="white"/>
</mask>
<g mask="url(#mask37_3884_2345)">
<g opacity="0.72">
<path d="M368.894 128.625H355.391C355.433 128.884 355.485 129.17 355.543 129.469H367.568C368.128 129.469 368.616 129.13 368.894 128.625Z" fill="#85D1DD"/>
<path d="M375.204 150.93C358.082 150.932 352.548 135.342 352.022 126.96C351.998 126.578 352.084 126.202 352.259 125.882H352.141C351.705 125.882 351.289 126.089 350.993 126.454C350.697 126.819 350.546 127.308 350.576 127.805C351.102 136.187 356.636 151.777 373.758 151.775C374.047 151.775 374.342 151.771 374.638 151.762C375.183 151.745 375.654 151.412 375.924 150.921C375.683 150.925 375.441 150.93 375.204 150.93Z" fill="#85D1DD"/>
</g>
</g>
<path d="M386.491 169.503H371.991C371.212 169.503 370.574 168.866 370.574 168.086C370.574 167.307 371.211 166.669 371.991 166.669H386.491C387.27 166.669 387.908 167.306 387.908 168.086C387.907 168.865 387.27 169.503 386.491 169.503Z" fill="#97E4FC"/>
<mask id="mask38_3884_2345" style="mask-type:luminance" maskUnits="userSpaceOnUse" x="370" y="166" width="18" height="4">
<path d="M386.491 169.503H371.991C371.212 169.503 370.574 168.866 370.574 168.086C370.574 167.307 371.211 166.669 371.991 166.669H386.491C387.27 166.669 387.908 167.306 387.908 168.086C387.907 168.865 387.27 169.503 386.491 169.503Z" fill="white"/>
</mask>
<g mask="url(#mask38_3884_2345)">
<path d="M386.901 166.737C386.864 167.484 386.247 168.086 385.491 168.086H370.991C370.848 168.086 370.712 168.058 370.581 168.018C370.58 168.041 370.574 168.063 370.574 168.086C370.574 168.865 371.211 169.503 371.991 169.503H386.491C387.27 169.503 387.908 168.865 387.908 168.086C387.907 167.45 387.48 166.915 386.901 166.737Z" fill="#92E2F4"/>
</g>
<path d="M384.537 152.651C401.658 152.653 407.192 137.063 407.719 128.681C407.75 128.184 407.599 127.695 407.302 127.33C407.006 126.966 406.59 126.758 406.154 126.758H390.728C389.862 126.758 389.159 127.561 389.159 128.552C389.159 129.543 389.861 130.346 390.728 130.346H404.351C403.495 135.585 399.696 149.563 383.741 149.051C383.727 149.051 383.712 149.051 383.698 149.051C382.851 149.051 382.153 149.823 382.131 150.797C382.108 151.787 382.791 152.611 383.657 152.638C383.952 152.646 384.248 152.651 384.537 152.651Z" fill="#8EDBED"/>
<mask id="mask39_3884_2345" style="mask-type:luminance" maskUnits="userSpaceOnUse" x="382" y="126" width="26" height="27">
<path d="M384.537 152.651C401.658 152.653 407.192 137.063 407.719 128.681C407.75 128.184 407.599 127.695 407.302 127.33C407.006 126.966 406.59 126.758 406.154 126.758H390.728C389.862 126.758 389.159 127.561 389.159 128.552C389.159 129.543 389.861 130.346 390.728 130.346H404.351C403.495 135.585 399.696 149.563 383.741 149.051C383.727 149.051 383.712 149.051 383.698 149.051C382.851 149.051 382.153 149.823 382.131 150.797C382.108 151.787 382.791 152.611 383.657 152.638C383.952 152.646 384.248 152.651 384.537 152.651Z" fill="white"/>
</mask>
<g mask="url(#mask39_3884_2345)">
<g opacity="0.72">
<path d="M389.402 129.503H402.905C402.863 129.762 402.811 130.048 402.753 130.347H390.728C390.168 130.346 389.68 130.008 389.402 129.503Z" fill="#85D1DD"/>
<path d="M383.091 151.807C400.212 151.809 405.746 136.219 406.273 127.837C406.296 127.455 406.211 127.079 406.036 126.759H406.154C406.59 126.759 407.006 126.966 407.302 127.331C407.598 127.696 407.749 128.185 407.719 128.682C407.193 137.064 401.659 152.654 384.537 152.652C384.248 152.652 383.953 152.648 383.657 152.639C383.112 152.622 382.64 152.289 382.371 151.798C382.612 151.802 382.855 151.807 383.091 151.807Z" fill="#85D1DD"/>
</g>
</g>
<path d="M394.687 123.134C396.073 123.134 397.196 124.464 397.107 126.046C396.236 141.541 388.487 153.663 379.056 153.663C369.625 153.663 361.876 141.541 361.005 126.046C360.916 124.464 362.039 123.134 363.425 123.134H394.687Z" fill="#97E4FC"/>
<mask id="mask40_3884_2345" style="mask-type:luminance" maskUnits="userSpaceOnUse" x="361" y="123" width="37" height="31">
<path d="M394.687 123.134C396.073 123.134 397.196 124.464 397.107 126.046C396.236 141.541 388.487 153.663 379.056 153.663C369.625 153.663 361.876 141.541 361.005 126.046C360.916 124.464 362.039 123.134 363.425 123.134H394.687Z" fill="white"/>
</mask>
<g mask="url(#mask40_3884_2345)">
<path opacity="0.02" d="M394.688 123.134H392.984C391.95 138.342 384.284 150.157 374.975 150.157C372.823 150.157 370.761 149.52 368.846 148.362C371.754 151.705 375.269 153.664 379.057 153.664C388.488 153.664 396.237 141.542 397.108 126.047C397.197 124.465 396.074 123.134 394.688 123.134Z" fill="black"/>
</g>
<mask id="mask41_3884_2345" style="mask-type:luminance" maskUnits="userSpaceOnUse" x="361" y="123" width="37" height="31">
<path d="M394.687 123.134C396.073 123.134 397.196 124.464 397.107 126.046C396.236 141.541 388.487 153.663 379.056 153.663C369.625 153.663 361.876 141.541 361.005 126.046C360.916 124.464 362.039 123.134 363.425 123.134H394.687Z" fill="white"/>
</mask>
<g mask="url(#mask41_3884_2345)">
<path opacity="0.2" d="M378.637 140.55L376.528 141.659C375.692 142.098 374.715 141.389 374.875 140.458L375.278 138.109C375.341 137.739 375.219 137.362 374.95 137.101L373.244 135.438C372.568 134.779 372.941 133.63 373.876 133.495L376.234 133.152C376.605 133.098 376.926 132.865 377.092 132.529L378.147 130.392C378.565 129.545 379.772 129.545 380.19 130.392L381.245 132.529C381.411 132.865 381.732 133.098 382.103 133.152L384.461 133.495C385.396 133.631 385.769 134.779 385.093 135.438L383.387 137.101C383.118 137.363 382.996 137.74 383.059 138.109L383.462 140.458C383.622 141.389 382.645 142.099 381.809 141.659L379.7 140.55C379.365 140.376 378.969 140.376 378.637 140.55Z" fill="white"/>
</g>
<path d="M309.482 138.168H269.66C266.342 138.168 263.627 140.883 263.627 144.201V159.725C263.627 163.043 266.342 165.758 269.66 165.758H298.55C299.078 165.758 299.572 166.022 299.865 166.461L303.361 171.695C304 172.652 305.416 172.628 306.022 171.649L309.674 165.747C312.904 165.644 315.516 162.977 315.516 159.724V144.2C315.516 140.883 312.801 138.168 309.482 138.168Z" fill="#29A0EA"/>
<mask id="mask42_3884_2345" style="mask-type:luminance" maskUnits="userSpaceOnUse" x="263" y="138" width="53" height="35">
<path d="M309.482 138.168H269.66C266.342 138.168 263.627 140.883 263.627 144.201V159.725C263.627 163.043 266.342 165.758 269.66 165.758H298.55C299.078 165.758 299.572 166.022 299.865 166.461L303.361 171.695C304 172.652 305.416 172.628 306.022 171.649L309.674 165.747C312.904 165.644 315.516 162.977 315.516 159.724V144.2C315.516 140.883 312.801 138.168 309.482 138.168Z" fill="white"/>
</mask>
<g mask="url(#mask42_3884_2345)">
<path opacity="0.02" d="M249.133 169.227C249.133 169.227 308.107 168.107 315.921 111.177L325.967 118.619L324.479 175.364L260.851 178.709L249.133 169.227Z" fill="black"/>
</g>
<path d="M287.826 156.879V155.396L287.684 155.07V152.414C287.684 151.943 287.538 151.575 287.246 151.311C286.964 151.048 286.525 150.916 285.932 150.916C285.527 150.916 285.126 150.982 284.731 151.114C284.344 151.236 284.015 151.406 283.741 151.622L282.95 150.082C283.365 149.79 283.864 149.564 284.448 149.404C285.032 149.243 285.626 149.163 286.229 149.163C287.388 149.163 288.287 149.437 288.928 149.983C289.569 150.529 289.889 151.382 289.889 152.541V156.879H287.826ZM285.508 156.992C284.914 156.992 284.406 156.894 283.982 156.696C283.558 156.488 283.233 156.21 283.007 155.862C282.78 155.513 282.667 155.122 282.667 154.689C282.667 154.237 282.776 153.841 282.992 153.502C283.219 153.163 283.572 152.899 284.052 152.71C284.533 152.513 285.159 152.414 285.932 152.414H287.953V153.7H286.172C285.654 153.7 285.296 153.784 285.098 153.954C284.91 154.124 284.815 154.336 284.815 154.59C284.815 154.873 284.924 155.099 285.141 155.268C285.367 155.429 285.673 155.509 286.059 155.509C286.427 155.509 286.756 155.424 287.048 155.254C287.34 155.075 287.552 154.816 287.684 154.477L288.023 155.494C287.863 155.984 287.571 156.357 287.147 156.611C286.723 156.865 286.177 156.992 285.508 156.992ZM294.188 155.198V148.669H296.011V155.198H294.188ZM291.743 152.795V151.071H298.47V152.795H291.743Z" fill="white"/>
<path d="M149.193 131.93H105.031C100.602 131.93 96.9785 135.553 96.9785 139.982V159.588C96.9785 164.017 100.603 167.64 105.031 167.64H136.579L139.934 174.372C140.893 176.296 143.655 176.248 144.546 174.291L147.575 167.639H149.193C153.622 167.639 157.245 164.016 157.245 159.587V139.982C157.246 135.553 153.622 131.93 149.193 131.93Z" fill="#FFBD29"/>
<mask id="mask43_3884_2345" style="mask-type:luminance" maskUnits="userSpaceOnUse" x="96" y="131" width="62" height="45">
<path d="M149.193 131.93H105.031C100.602 131.93 96.9785 135.553 96.9785 139.982V159.588C96.9785 164.017 100.603 167.64 105.031 167.64H136.579L139.934 174.372C140.893 176.296 143.655 176.248 144.546 174.291L147.575 167.639H149.193C153.622 167.639 157.245 164.016 157.245 159.587V139.982C157.246 135.553 153.622 131.93 149.193 131.93Z" fill="white"/>
</mask>
<g mask="url(#mask43_3884_2345)">
<path opacity="0.02" d="M142.503 125.253C142.503 125.253 133.076 168.753 92.8262 166.753L146.328 178.253L165.826 162.253L162.572 130.003L142.503 125.253Z" fill="black"/>
</g>
<mask id="mask44_3884_2345" style="mask-type:luminance" maskUnits="userSpaceOnUse" x="96" y="131" width="62" height="45">
<path d="M149.193 131.93H105.031C100.602 131.93 96.9785 135.553 96.9785 139.982V159.588C96.9785 164.017 100.603 167.64 105.031 167.64H136.579L139.934 174.372C140.893 176.296 143.655 176.248 144.546 174.291L147.575 167.639H149.193C153.622 167.639 157.245 164.016 157.245 159.587V139.982C157.246 135.553 153.622 131.93 149.193 131.93Z" fill="white"/>
</mask>
<g mask="url(#mask44_3884_2345)">
<path d="M117.58 149.459C117.58 151.571 115.868 153.283 113.756 153.283C111.644 153.283 109.932 151.571 109.932 149.459C109.932 147.347 111.644 145.635 113.756 145.635C115.868 145.635 117.58 147.347 117.58 149.459Z" fill="white"/>
<path d="M131.954 149.459C131.954 151.571 130.242 153.283 128.129 153.283C126.017 153.283 124.305 151.571 124.305 149.459C124.305 147.347 126.017 145.635 128.129 145.635C130.241 145.635 131.954 147.347 131.954 149.459Z" fill="white"/>
<path d="M146.326 149.459C146.326 151.571 144.614 153.283 142.502 153.283C140.39 153.283 138.678 151.571 138.678 149.459C138.678 147.347 140.39 145.635 142.502 145.635C144.614 145.635 146.326 147.347 146.326 149.459Z" fill="white"/>
</g>
</svg>
