<svg width="45" height="46" viewBox="0 0 45 46" fill="none" xmlns="http://www.w3.org/2000/svg">
<path style="mix-blend-mode:screen" opacity="0.5" d="M22.4527 45.1897C34.8439 45.1897 44.8889 35.1447 44.8889 22.7535C44.8889 10.3624 34.8439 0.317383 22.4527 0.317383C10.0616 0.317383 0.0166016 10.3624 0.0166016 22.7535C0.0166016 35.1447 10.0616 45.1897 22.4527 45.1897Z" fill="url(#paint0_radial_3690_2502)"/>
<path style="mix-blend-mode:screen" opacity="0.5" fill-rule="evenodd" clip-rule="evenodd" d="M30.4309 22.7535C30.4309 27.1577 26.8569 30.7316 22.4527 30.7316C18.0485 30.7316 14.4746 27.1577 14.4746 22.7535C14.4746 18.3493 18.0485 14.7754 22.4527 14.7754C26.8569 14.7754 30.4309 18.3493 30.4309 22.7535Z" fill="url(#paint1_radial_3690_2502)"/>
<path fill-rule="evenodd" clip-rule="evenodd" d="M25.2507 22.7534C25.2507 24.1974 24.0774 25.3888 22.6153 25.3888C21.1533 25.3888 19.98 24.2155 19.98 22.7534C19.98 21.2914 21.1533 20.1182 22.6153 20.1182C24.0774 20.1182 25.2507 21.2914 25.2507 22.7534Z" fill="white"/>
<defs>
<radialGradient id="paint0_radial_3690_2502" cx="0" cy="0" r="1" gradientUnits="userSpaceOnUse" gradientTransform="translate(22.4527 22.7535) scale(22.4361 22.4362)">
<stop stop-color="#0645FF"/>
<stop offset="0.04" stop-color="#0541F1"/>
<stop offset="0.25" stop-color="#032DA8"/>
<stop offset="0.45" stop-color="#021D6C"/>
<stop offset="0.63" stop-color="#01103D"/>
<stop offset="0.78" stop-color="#00071C"/>
<stop offset="0.91" stop-color="#000207"/>
<stop offset="1"/>
</radialGradient>
<radialGradient id="paint1_radial_3690_2502" cx="0" cy="0" r="1" gradientUnits="userSpaceOnUse" gradientTransform="translate(22.4527 22.7535) scale(7.97812 7.97811)">
<stop stop-color="#0645FF"/>
<stop offset="0.04" stop-color="#0541F1"/>
<stop offset="0.25" stop-color="#032DA8"/>
<stop offset="0.45" stop-color="#021D6C"/>
<stop offset="0.63" stop-color="#01103D"/>
<stop offset="0.78" stop-color="#00071C"/>
<stop offset="0.91" stop-color="#000207"/>
<stop offset="1"/>
</radialGradient>
</defs>
</svg>
