<svg width="36" height="37" viewBox="0 0 36 37" fill="none" xmlns="http://www.w3.org/2000/svg">
<path style="mix-blend-mode:screen" opacity="0.5" d="M17.5988 36.1545C27.3183 36.1545 35.1975 28.2753 35.1975 18.5558C35.1975 8.83626 27.3183 0.957031 17.5988 0.957031C7.87923 0.957031 0 8.83626 0 18.5558C0 28.2753 7.87923 36.1545 17.5988 36.1545Z" fill="url(#paint0_radial_3690_2498)"/>
<path style="mix-blend-mode:screen" opacity="0.5" fill-rule="evenodd" clip-rule="evenodd" d="M23.8441 18.5559C23.8441 22.0034 21.0464 24.8011 17.5988 24.8011C14.1513 24.8011 11.3535 22.0034 11.3535 18.5559C11.3535 15.1083 14.1513 12.3105 17.5988 12.3105C21.0464 12.3105 23.8441 15.1083 23.8441 18.5559Z" fill="url(#paint1_radial_3690_2498)"/>
<path fill-rule="evenodd" clip-rule="evenodd" d="M19.8009 18.5557C19.8009 19.6929 18.8804 20.6134 17.7432 20.6134C16.6061 20.6134 15.6855 19.6929 15.6855 18.5557C15.6855 17.4186 16.6061 16.498 17.7432 16.498C18.8804 16.498 19.8009 17.4186 19.8009 18.5557Z" fill="white"/>
<defs>
<radialGradient id="paint0_radial_3690_2498" cx="0" cy="0" r="1" gradientUnits="userSpaceOnUse" gradientTransform="translate(17.5988 18.5558) scale(17.5988)">
<stop stop-color="#0645FF"/>
<stop offset="0.04" stop-color="#0541F1"/>
<stop offset="0.25" stop-color="#032DA8"/>
<stop offset="0.45" stop-color="#021D6C"/>
<stop offset="0.63" stop-color="#01103D"/>
<stop offset="0.78" stop-color="#00071C"/>
<stop offset="0.91" stop-color="#000207"/>
<stop offset="1"/>
</radialGradient>
<radialGradient id="paint1_radial_3690_2498" cx="0" cy="0" r="1" gradientUnits="userSpaceOnUse" gradientTransform="translate(17.5988 18.5558) scale(6.2453)">
<stop stop-color="#0645FF"/>
<stop offset="0.04" stop-color="#0541F1"/>
<stop offset="0.25" stop-color="#032DA8"/>
<stop offset="0.45" stop-color="#021D6C"/>
<stop offset="0.63" stop-color="#01103D"/>
<stop offset="0.78" stop-color="#00071C"/>
<stop offset="0.91" stop-color="#000207"/>
<stop offset="1"/>
</radialGradient>
</defs>
</svg>
