<svg width="176" height="127" viewBox="0 0 176 127" fill="none" xmlns="http://www.w3.org/2000/svg">
<path style="mix-blend-mode:screen" opacity="0.5" fill-rule="evenodd" clip-rule="evenodd" d="M125.317 64.347C125.317 65.8465 125.269 67.346 125.151 68.8316C122.86 101.342 95.7619 127 62.6656 127C46.5305 127 31.8049 120.905 20.7033 110.866C18.8913 109.242 17.1903 107.513 15.6004 105.701C13.1079 102.869 10.8654 99.8075 8.90056 96.5586C7.90774 94.8856 6.97047 93.157 6.13039 91.3936C5.90127 90.9285 5.69993 90.4842 5.49859 90.0191C4.56826 87.9642 3.74901 85.8607 3.05473 83.7087C2.54096 82.1189 2.08273 80.5083 1.70782 78.87C0.596974 74.2118 0.00683594 69.3453 0.00683594 64.347C0.00683594 61.9658 0.145692 59.5985 0.409518 57.2937C0.596974 55.579 0.839972 53.9059 1.16628 52.2398C1.4926 50.5876 1.89528 48.9631 2.33962 47.3525C9.74759 21.007 33.9502 1.69391 62.6587 1.69391C76.1277 1.69391 88.6317 5.96334 98.8515 13.204C101.268 14.9187 103.566 16.807 105.718 18.8619C106.169 19.2645 106.6 19.6949 107.03 20.1323C112.307 25.4083 116.632 31.6216 119.742 38.5082C121.305 41.9446 122.554 45.5267 123.485 49.2547V49.2686C124.179 52.0802 124.693 54.9612 124.984 57.9324C125.074 58.8002 125.137 59.6471 125.186 60.5288V60.5427C125.276 61.8131 125.311 63.0765 125.311 64.347H125.317Z" fill="url(#paint0_radial_3532_22489)"/>
<path style="mix-blend-mode:screen" opacity="0.5" fill-rule="evenodd" clip-rule="evenodd" d="M112.216 64.347C112.216 65.5341 112.181 66.7212 112.084 67.8944C110.272 93.6082 88.8396 113.9 62.6583 113.9C49.8974 113.9 38.2544 109.082 29.4648 101.14C28.0345 99.8562 26.6876 98.4886 25.4241 97.0515C23.4523 94.8162 21.6819 92.3933 20.1267 89.8247C19.3422 88.5057 18.5993 87.1312 17.9397 85.7358C17.7592 85.3679 17.5995 85.0138 17.4398 84.6459C16.7039 83.0214 16.0582 81.3553 15.5097 79.6545C15.1071 78.3979 14.7391 77.1206 14.4475 75.8224C13.5658 72.143 13.1006 68.2901 13.1006 64.3331C13.1006 62.4518 13.2117 60.5774 13.42 58.7516C13.5658 57.3909 13.7602 56.0719 14.017 54.7529C14.2739 53.4409 14.5933 52.1566 14.9474 50.8861C20.8071 30.0666 39.9484 14.7869 62.6583 14.7869C73.3155 14.7869 83.202 18.1608 91.2835 23.888C93.1927 25.2487 95.0117 26.7413 96.7127 28.3657C97.0668 28.6851 97.407 29.0252 97.7542 29.3654C101.927 33.5377 105.35 38.4527 107.807 43.8954C109.043 46.6098 110.036 49.4491 110.765 52.3995V52.4134C111.313 54.6418 111.716 56.9119 111.952 59.2653C112.029 59.9526 112.077 60.626 112.112 61.3202V61.3341C112.188 62.3338 112.209 63.3404 112.209 64.3401L112.216 64.347Z" fill="url(#paint1_radial_3532_22489)"/>
<path style="mix-blend-mode:screen" opacity="0.5" fill-rule="evenodd" clip-rule="evenodd" d="M108.155 64.347C108.155 65.4369 108.12 66.5268 108.03 67.6028C106.37 91.2062 86.6874 109.839 62.6584 109.839C50.9459 109.839 40.254 105.417 32.1864 98.1275C30.8742 96.9474 29.6384 95.6908 28.479 94.3788C26.6739 92.3239 25.0423 90.1024 23.619 87.7421C22.897 86.5272 22.2166 85.2706 21.6056 83.9933C21.439 83.6531 21.2932 83.3338 21.1474 82.9936C20.4739 81.501 19.8769 79.9738 19.37 78.4118C19.0021 77.2524 18.6619 76.0862 18.3911 74.899C17.5857 71.5182 17.1553 67.9846 17.1553 64.3539C17.1553 62.6253 17.2594 60.9036 17.4469 59.2306C17.5788 57.981 17.7593 56.773 17.9954 55.5582C18.2314 54.3572 18.523 53.177 18.8493 52.0107C24.23 32.8851 41.8092 18.8619 62.6514 18.8619C72.4339 18.8619 81.5081 21.9581 88.9299 27.2202C90.6795 28.4698 92.3528 29.8374 93.9149 31.33C94.2412 31.6216 94.5536 31.934 94.866 32.2533C98.6985 36.0854 101.844 40.5978 104.1 45.5962C105.232 48.0884 106.141 50.6917 106.815 53.3992V53.413C107.321 55.454 107.689 57.5436 107.905 59.7026C107.974 60.3344 108.016 60.9522 108.05 61.5909V61.6048C108.12 62.5281 108.141 63.4445 108.141 64.3678L108.155 64.347Z" fill="url(#paint2_radial_3532_22489)"/>
<path fill-rule="evenodd" clip-rule="evenodd" d="M77.1127 19.9032C77.1127 19.9032 82.9447 26.8107 92.8868 28.1088L88.4503 31.6285L75.2451 30.5802L77.1127 19.9032Z" fill="#FFF066"/>
<path fill-rule="evenodd" clip-rule="evenodd" d="M108.245 63.7846C108.245 63.7846 103.079 77.7939 101.836 91.6991L95.8379 78.3493L97.8582 62.7572L108.245 63.7846Z" fill="#FFF066"/>
<path fill-rule="evenodd" clip-rule="evenodd" d="M103.35 67.1447C103.35 67.1447 100.726 69.1856 101.052 75.9612C101.385 82.7368 101.809 87.4366 101.809 87.4366L101.843 93.6915C101.843 93.6915 94.4006 73.0177 103.35 67.1516V67.1447Z" fill="#FFAC31"/>
<path fill-rule="evenodd" clip-rule="evenodd" d="M92.8872 28.1088C92.8872 28.1088 92.8872 28.1088 92.8733 28.1158C92.8733 28.1158 92.8594 28.1158 92.8386 28.1227C90.2836 28.8169 84.0212 30.2679 81.4732 28.6226C78.46 26.6788 77.2798 20.7987 77.127 19.9934C77.1131 19.931 77.1131 19.8963 77.1131 19.8963C71.8019 18.2996 66.1227 17.6053 60.263 17.9941C33.9983 19.7366 14.1211 42.4236 15.8499 68.6858C17.5856 94.948 40.2746 114.823 66.5392 113.088C81.1677 112.123 93.8106 104.66 101.85 93.6845C101.85 93.6845 101.843 93.6707 101.843 93.6637C101.392 92.7682 101.003 91.4422 100.705 89.8733C100.628 89.5054 100.559 89.1166 100.496 88.714C99.3926 81.862 99.6356 71.4766 101.781 68.7691C102.184 68.2554 102.663 67.7694 103.19 67.2974C103.232 67.2557 103.274 67.2071 103.322 67.1724C104.857 65.8117 106.738 64.6385 108.252 63.7916C109.8 62.9238 110.952 62.4031 110.952 62.4031C110.029 48.38 103.121 36.1756 92.8872 28.1088ZM43.1142 82.1953L42.2117 84.389V84.4029C36.0465 76.6832 40.712 64.5969 40.712 64.5969C40.719 64.6108 40.7329 64.6246 40.7398 64.6385C40.7467 64.6385 40.7537 64.6385 40.7537 64.6524C42.3228 66.5129 43.6419 68.4498 44.4403 70.2478C44.482 70.338 44.5167 70.4213 44.5445 70.5116C45.0166 71.7473 45.3151 73.0594 45.204 74.3437C44.843 76.4263 44.0932 79.3004 43.1142 82.1883V82.1953Z" fill="url(#paint3_radial_3532_22489)"/>
<path fill-rule="evenodd" clip-rule="evenodd" d="M53.9799 26.2275C52.9732 30.8579 46.1137 44.7284 39.2334 47.1373C31.3533 49.8934 26.7572 50.1572 25.7574 48.0259C25.6255 47.7413 25.5214 47.3525 25.4519 46.8596C24.9868 43.6315 26.1809 36.377 32.6447 31.8993C40.0804 26.7482 52.7857 22.5551 54.0354 24.853C54.1535 25.0751 54.1326 25.5541 53.9868 26.2275H53.9799Z" fill="#FFAC31"/>
<path fill-rule="evenodd" clip-rule="evenodd" d="M66.0953 25.8943C65.8801 27.4979 65.1789 29.3793 63.9361 30.247C62.3462 31.3508 59.2081 31.8854 57.5973 31.5591C56.9655 31.4203 56.5698 31.1565 56.5906 30.733C56.91 25.0612 64.922 22.5759 65.776 23.291C66.1509 23.6034 66.2619 24.6725 66.0953 25.8943Z" fill="#FFAC31"/>
<path fill-rule="evenodd" clip-rule="evenodd" d="M51.0639 55.2944C50.9737 57.495 50.203 61.5701 45.9332 61.3896C45.1764 61.3549 44.3988 61.1952 43.6282 60.9175C43.6282 60.9175 43.6282 60.9175 43.6143 60.9175C39.9832 59.6541 36.4216 56.1621 35.998 54.1003C35.998 54.1003 37.9004 51.4415 40.7539 51.136C41.2607 51.0805 41.9203 51.1082 42.6562 51.1985C46.0443 51.6358 51.1264 53.4894 51.057 55.2944H51.0639Z" fill="#FFAC31"/>
<path fill-rule="evenodd" clip-rule="evenodd" d="M42.2119 84.3959L43.1144 82.2022C43.0381 82.4174 42.9617 82.6326 42.8923 82.8478C42.1494 84.9652 41.2815 87.0617 40.3651 88.8528C38.9002 91.706 37.2825 93.7817 35.7551 93.8789C31.8602 94.1358 24.2717 90.9493 21.0849 84.5348C17.8982 78.1063 15.9889 62.2435 17.7246 59.8137C19.5922 57.2034 23.5219 55.1694 28.5137 55.6415C30.1314 55.7942 32.5614 57.1618 35.0816 59.1611H35.0886C37.0325 60.7023 39.0182 62.6114 40.7192 64.6107C40.7192 64.6107 36.0536 76.697 42.2188 84.4167C42.2188 84.4167 42.2188 84.4098 42.2188 84.4029L42.2119 84.3959Z" fill="#FFAC31"/>
<path fill-rule="evenodd" clip-rule="evenodd" d="M45.2045 74.3506C45.3156 73.0663 45.017 71.7473 44.5449 70.5186C45.1351 71.9209 45.3989 73.2329 45.2045 74.3506Z" fill="#FFAC31"/>
<path fill-rule="evenodd" clip-rule="evenodd" d="M92.894 79.7793C91.3319 83.9655 85.4097 88.5126 82.5354 88.707C79.668 88.8944 74.7108 87.9711 74.2665 85.6871C73.0445 79.3073 75.3704 65.7909 80.9316 64.3886C83.9656 63.6249 87.2287 63.3264 89.8322 63.5069C91.9984 63.6596 93.7133 64.1595 94.4492 64.9995C96.0738 66.8461 94.4561 75.6002 92.8871 79.7863L92.894 79.7793Z" fill="#FFAC31"/>
<path fill-rule="evenodd" clip-rule="evenodd" d="M83.3895 102.827C83.0424 104.132 75.7039 106.819 70.1705 106.84C64.637 106.861 56.993 105.5 56.8889 102.994C56.875 102.695 57.5762 102.175 58.7218 101.578C61.7558 100.009 67.9488 97.9262 72.5449 98.1345C76.8286 98.3289 80.4319 99.8145 82.2093 101.154C83.0632 101.793 83.4937 102.404 83.3826 102.827H83.3895Z" fill="#FFAC31"/>
<path fill-rule="evenodd" clip-rule="evenodd" d="M105.467 61.6118C104.502 62.4726 102.093 62.9516 100.337 62.5975C99.802 62.4865 99.3368 62.306 98.9827 62.0352C97.4692 60.8689 94.5601 54.2253 96.1847 52.7883C97.2817 51.8164 98.5384 51.1985 99.7811 50.8722C102.419 50.1572 104.912 50.7126 105.342 51.8233C105.967 53.4478 106.724 60.4871 105.467 61.6048V61.6118Z" fill="#FFAC31"/>
<path fill-rule="evenodd" clip-rule="evenodd" d="M77.1133 19.9032L78.974 21.722C78.974 21.722 80.3625 26.7759 83.6048 28.0325C86.854 29.289 89.5131 27.4285 89.5131 27.4285L92.8873 28.1088C92.8873 28.1088 86.4375 30.7816 82.4523 29.7194C78.4671 28.6573 77.1133 19.9032 77.1133 19.9032Z" fill="url(#paint4_radial_3532_22489)"/>
<path fill-rule="evenodd" clip-rule="evenodd" d="M42.2049 84.4098L40.3651 88.8459C40.1221 89.0472 34.2762 93.747 28.2499 89.6442C22.0986 85.4512 17.072 64.3956 20.6961 60.4177C24.3272 56.4398 30.298 56.1552 30.298 56.1552L35.0747 59.1612H35.0816C37.0256 60.7023 39.0112 62.6114 40.7122 64.6108C40.7122 64.6108 36.0466 76.6971 42.2119 84.4168L42.2049 84.4098Z" fill="#FFF066"/>
<path fill-rule="evenodd" clip-rule="evenodd" d="M45.2045 74.3506C45.3156 73.0663 45.017 71.7473 44.5449 70.5186C45.1351 71.9209 45.3989 73.2329 45.2045 74.3506Z" fill="#FFF066"/>
<path fill-rule="evenodd" clip-rule="evenodd" d="M53.9801 26.2275C52.9734 30.858 46.1139 44.7284 39.2336 47.1373C31.3535 49.8934 26.7574 50.1572 25.7576 48.0259C25.6257 47.7413 25.5216 47.3526 25.4521 46.8597C25.4521 46.8597 26.7019 39.855 35.3109 33.0239C42.101 27.6229 50.6892 26.4705 53.9871 26.2275H53.9801Z" fill="#FFF066"/>
<path fill-rule="evenodd" clip-rule="evenodd" d="M51.0641 55.2944C50.9738 57.495 50.2032 61.5701 45.9333 61.3896C45.1766 61.3549 44.399 61.1952 43.6283 60.9175C43.6283 60.9175 43.6283 60.9175 43.6144 60.9175C42.5383 60.4246 41.6149 59.9873 41.3303 59.8276C40.5041 59.3764 37.9977 54.6557 39.053 53.2048C39.5807 52.4828 41.1845 51.7539 42.6633 51.1985C46.0514 51.6358 51.1335 53.4894 51.0641 55.2944Z" fill="#FFF066"/>
<path fill-rule="evenodd" clip-rule="evenodd" d="M66.0947 25.8943C65.8794 27.4979 65.1782 29.3793 63.9355 30.247C62.3456 31.3508 59.2074 31.8854 57.5967 31.5591C58.6589 26.2622 66.0947 25.8943 66.0947 25.8943Z" fill="#FFF066"/>
<path fill-rule="evenodd" clip-rule="evenodd" d="M100.337 62.6045C99.802 62.4934 99.3368 62.3129 98.9827 62.0422C97.4692 60.8759 94.5601 54.2322 96.1847 52.7952C97.2817 51.8233 98.5384 51.2054 99.7811 50.8792C100.802 51.1013 101.836 51.6775 102.419 52.9896C103.78 56.0858 104.336 61.3688 100.337 62.6045Z" fill="#FFF066"/>
<path fill-rule="evenodd" clip-rule="evenodd" d="M91.3804 77.7939C89.0684 86.3189 78.5848 89.8941 74.2733 85.6871C73.0514 79.3073 75.3772 65.7909 80.9384 64.3886C83.9724 63.6249 87.2355 63.3264 89.8391 63.5069L89.8807 63.5208C89.8807 63.5208 93.7062 69.2689 91.3804 77.8008V77.7939Z" fill="#FFF066"/>
<path fill-rule="evenodd" clip-rule="evenodd" d="M82.216 101.161C80.7164 102.536 77.3005 104.646 70.2813 104.848C59.7561 105.146 58.7285 101.585 58.7285 101.585C61.7625 100.016 67.9555 97.9332 72.5516 98.1414C76.8353 98.3358 80.4387 99.8214 82.216 101.161Z" fill="#FFF066"/>
<path fill-rule="evenodd" clip-rule="evenodd" d="M44.4337 70.2547C43.6283 68.4567 42.3161 66.5129 40.7471 64.6594C41.0942 65.0204 43.2534 67.3807 44.4337 70.2547Z" fill="#FFF066"/>
<path fill-rule="evenodd" clip-rule="evenodd" d="M45.2044 74.3506C44.9475 77.4815 43.6978 80.904 42.8924 82.8409C42.5314 83.7225 42.2537 84.2918 42.2051 84.3959L43.1076 82.2022C44.0866 79.3073 44.8364 76.4402 45.1974 74.3575L45.2044 74.3506Z" fill="#FFF066"/>
<g style="mix-blend-mode:multiply" opacity="0.2">
<path fill-rule="evenodd" clip-rule="evenodd" d="M80.8688 49.4282C80.9591 49.817 80.7022 50.1988 80.7091 50.5876C80.7091 50.9694 80.7716 51.3512 80.7924 51.733C80.8133 52.1843 80.7855 52.2398 81.1535 52.4342C81.5145 52.6216 81.6811 52.6077 82.1116 52.573C82.7711 52.5175 83.4238 52.934 84.0903 52.6841C84.7082 52.455 84.854 51.5386 84.9442 51.0041C85.0484 50.3446 85.4719 49.9072 85.4719 49.2408C85.4719 48.5049 85.1109 48.137 84.4582 47.8038C83.7848 47.4566 83.0974 47.2345 82.3685 47.651C81.7089 48.0259 81.2923 48.8173 80.8757 49.4282H80.8688Z" fill="#FFF066"/>
<path fill-rule="evenodd" clip-rule="evenodd" d="M88.3665 47.783C88.304 47.776 88.2346 47.7621 88.1721 47.7552C88.0611 47.4983 88.0194 47.1026 88.1721 46.8597C88.436 46.4709 88.5193 46.6792 88.8109 46.7694C89.4149 46.9568 89.7204 47.4011 89.762 48.0329C89.7967 48.5327 89.4496 49.2894 88.8109 49.1159C88.2554 48.9701 87.9222 48.2967 87.9014 47.8107L88.3596 47.783H88.3665Z" fill="#FFF066"/>
<path fill-rule="evenodd" clip-rule="evenodd" d="M64.6362 65.0481C63.3587 65.1522 62.2062 66.263 61.7966 67.4223C61.6716 67.7903 61.4842 68.1304 61.3731 68.5122C61.2481 68.9496 61.2134 69.4425 61.1579 69.8868C61.1301 70.0951 61.1995 70.2964 61.1926 70.5046C61.1857 70.6782 61.1093 70.8309 61.1023 71.0114C61.0815 71.4002 61.1509 71.8723 61.2481 72.2402C61.3037 72.4415 61.3245 72.5942 61.3453 72.8094C61.3592 73.0316 61.4425 73.1704 61.4911 73.3787C61.5744 73.7466 61.6439 74.0937 61.8036 74.4478C61.9285 74.7185 62.0743 75.0518 62.2757 75.2739C62.4631 75.4822 62.6853 75.7529 62.9352 75.9057C63.5115 76.2597 64.2752 76.2458 64.9209 76.2042C65.5318 76.1625 66.1428 76.1209 66.7538 76.0861C67.33 76.0445 68.0313 76.107 68.5867 75.9681C69.156 75.8293 69.7253 75.5516 70.2044 75.2114C70.6556 74.8921 71.0305 74.3506 71.3291 73.8855C71.6901 73.3301 72.0234 72.8094 72.3427 72.2263C72.6482 71.657 72.794 71.0947 72.9745 70.4838C73.162 69.8451 73.4536 69.2898 73.398 68.6094C73.3494 67.9083 73.3564 67.2071 73.1273 66.5546C72.8982 65.9089 72.2872 65.5549 71.7873 65.1731C71.1972 64.7288 70.5654 64.3331 69.878 64.0345C69.6767 63.9512 69.517 63.9512 69.3157 63.9026C69.2532 63.8888 69.2671 63.8332 69.1768 63.8193C69.0796 63.8055 68.9755 63.861 68.8783 63.8471C68.7186 63.8332 68.6422 63.7638 68.4756 63.7499C68.3159 63.736 68.1146 63.7707 67.9549 63.7846C67.7744 63.8055 67.7188 63.8818 67.5661 63.9304C67.4064 63.979 67.212 63.9235 67.0454 63.9721C66.844 64.0276 66.7538 64.097 66.5385 64.1109C66.3442 64.1248 66.2817 64.2081 66.1359 64.2428C65.9762 64.2845 65.7818 64.2359 65.6221 64.2775C65.4971 64.3192 65.3722 64.4303 65.2402 64.4788C64.9209 64.6038 64.6709 64.826 64.6432 65.0342L64.6362 65.0481Z" fill="#FFF066"/>
<path fill-rule="evenodd" clip-rule="evenodd" d="M60.6795 61.0425C60.4226 61.0008 60.4573 60.7995 60.3948 60.5982C60.3323 60.3899 60.2421 60.2858 60.2976 60.0567C60.3809 59.6957 60.6725 59.4944 61.0474 59.5152C61.3807 59.536 61.6029 59.7235 61.8528 59.9526C62.1583 60.2441 62.4013 60.6051 62.5124 60.9869C62.7206 61.695 62.3805 62.5975 61.5195 62.4865C61.1932 62.4448 60.9849 62.1046 60.9016 61.8339C60.853 61.6812 60.7419 61.5423 60.6933 61.3896C60.6309 61.1952 60.6656 60.9036 60.6517 60.6954L60.6725 61.0425H60.6795Z" fill="#FFF066"/>
<path fill-rule="evenodd" clip-rule="evenodd" d="M55.1179 85.0276C54.8124 85.0554 54.6458 84.9027 54.3333 84.9929C54.0903 85.0624 53.8751 85.2428 53.646 85.3886C53.0142 85.7913 52.6185 86.3814 52.8615 87.1381C53.0073 87.5962 53.5557 88.0058 53.9445 88.2766C54.3472 88.5612 54.9512 88.825 55.4233 88.8111C55.708 88.8111 56.069 88.8111 56.3398 88.7417C56.6314 88.6584 56.916 88.4848 57.1729 88.3529C57.7075 88.0752 58.1727 87.7767 58.5823 87.3116C58.9086 86.9367 59.3044 86.5271 59.3321 86.0273C59.3669 85.4372 59.1586 84.8888 58.6587 84.5486C58.0269 84.1113 57.4854 84.0766 56.7216 84.1252C56.5411 84.139 56.3259 84.1252 56.1454 84.1738C55.9718 84.2223 55.8121 84.3473 55.6455 84.4028C55.465 84.4584 55.347 84.4653 55.1942 84.5764C55.097 84.6458 54.979 84.7985 54.8679 84.8263L55.1109 85.0415L55.1179 85.0276Z" fill="#FFF066"/>
<path fill-rule="evenodd" clip-rule="evenodd" d="M70.8432 59.8901C70.4336 59.6193 70.5794 59.3555 70.878 59.0501C71.1001 58.821 71.2459 58.696 71.5306 58.5502C71.8222 58.3975 72.1693 58.3559 72.447 58.5502C72.69 58.7169 72.9261 58.939 73.0927 59.1681C73.2107 59.3278 73.183 59.4319 73.2316 59.6193C73.2871 59.8623 73.4121 59.9248 73.2455 60.1678C73.058 60.4385 72.7595 60.5565 72.4401 60.5912C72.0443 60.6329 71.8013 60.626 71.4542 60.4802C71.1279 60.3413 71.0238 60.1817 70.8363 59.8901H70.8432Z" fill="#FFF066"/>
<path fill-rule="evenodd" clip-rule="evenodd" d="M72.3498 34.8914C72.3498 34.8914 72.3845 34.8914 72.3984 34.8844C72.3012 34.9955 72.3568 35.3912 72.4262 35.4953C72.4678 35.5578 72.565 35.6064 72.6206 35.6411C72.6692 35.6758 72.7803 35.7452 72.8289 35.773C73.1968 35.9327 73.662 35.9049 73.8634 35.537C74.0577 35.1899 74.03 34.7872 73.7176 34.5165C73.4815 34.3152 72.7386 34.1208 72.6622 34.6067L72.3359 34.8844L72.3498 34.8914Z" fill="#FFF066"/>
<path fill-rule="evenodd" clip-rule="evenodd" d="M79.3756 33.9958C79.3756 33.9958 79.327 33.9958 79.3062 33.9888C79.2229 33.7459 79.2923 33.5029 79.3201 33.2669C79.3617 32.9683 79.2715 32.7948 79.6394 32.774C80.0352 32.7531 80.4795 32.9614 80.8405 33.1141C81.0349 33.1974 81.2641 33.3293 81.4099 33.489C81.5348 33.6279 81.7362 33.8639 81.7917 34.0583C81.9514 34.5859 81.7431 35.1135 81.5348 35.5925C81.3335 36.0437 81.0419 36.2798 80.6739 36.5922C80.3337 36.8768 79.931 37.1961 79.5145 37.2794C79.084 37.3627 78.6674 37.2239 78.3481 36.9462C78.0148 36.6616 78.0079 36.1826 78.1051 35.8008C78.1606 35.5717 78.1814 35.3634 78.2717 35.1412C78.3411 34.9816 78.4036 34.7525 78.4939 34.6067C78.7369 34.2249 79.1048 34.0513 79.4589 33.8292L79.3826 34.0097L79.3756 33.9958Z" fill="#FFF066"/>
<path fill-rule="evenodd" clip-rule="evenodd" d="M83.4163 33.6417C83.4163 33.5931 83.4163 33.5445 83.4094 33.4959C83.3747 33.8778 83.7288 33.7944 83.9926 33.7806C84.1384 33.7736 84.2564 33.7736 84.3744 33.7111C84.548 33.6278 84.5411 33.5931 84.5272 33.3987C84.5064 33.1141 84.3536 33.01 84.069 32.9961C83.8607 32.9892 83.4302 33.0378 83.3955 33.3016L83.4163 33.6487V33.6417Z" fill="#FFF066"/>
<path fill-rule="evenodd" clip-rule="evenodd" d="M46.9876 85.0623C47.0292 85.229 46.9043 85.3539 46.8626 85.4997C46.821 85.6385 46.8071 85.7843 46.7654 85.9162C46.6613 86.2286 46.5571 86.5619 46.5016 86.902C46.453 87.2491 46.4044 87.6309 46.4044 87.9919C46.4044 88.3182 46.3002 88.6584 46.3766 88.9847C46.453 89.2832 46.571 89.5053 46.8418 89.6719C47.1056 89.8316 47.3347 89.9635 47.6541 89.9427C47.9387 89.9219 48.1679 89.908 48.4247 89.79C48.7163 89.6511 48.8691 89.422 49.0565 89.1582C49.2301 88.9152 49.2787 88.6445 49.3898 88.3807C49.4453 88.2557 49.5425 88.1447 49.5842 88.0058C49.6328 87.8462 49.6467 87.6795 49.7022 87.5199C49.7925 87.2352 49.9313 86.9645 50.0216 86.6799C50.0632 86.5341 50.0841 86.3883 50.1188 86.2425C50.1604 86.062 50.2646 85.8885 50.3062 85.7149C50.334 85.583 50.3757 85.4095 50.3826 85.2775C50.3826 85.222 50.3548 85.1595 50.3618 85.104C50.3687 85.0068 50.4312 84.9374 50.4382 84.8402C50.452 84.7014 50.3826 84.5486 50.4034 84.4098C50.4173 84.2501 50.4798 84.139 50.4659 83.9724C50.4243 83.4726 50.2229 82.8478 49.7508 82.5701C49.4453 82.3896 49.244 82.5423 49.001 82.6881C48.7372 82.8409 48.4525 83.0075 48.2373 83.2366C48.0221 83.4587 47.8138 83.6739 47.6333 83.9238C47.55 84.0418 47.4666 84.1529 47.3972 84.2779C47.3 84.4584 47.3139 84.6458 46.9945 85.0623H46.9876Z" fill="#FFF066"/>
<path fill-rule="evenodd" clip-rule="evenodd" d="M46.4876 94.6009C46.321 94.587 46.1405 94.1636 46.0988 94.0247C46.0572 93.8928 46.1127 93.7262 46.078 93.5874C46.0363 93.4277 45.9669 93.3374 45.96 93.1639C45.9461 92.8862 45.8697 92.5738 45.9253 92.3031C45.96 92.1017 45.9461 91.6505 46.2099 91.6922C46.4529 91.7338 46.6126 92.0601 46.7029 92.2475C46.7653 92.3794 46.8556 92.5252 46.8834 92.671C46.8973 92.7265 46.8695 92.796 46.8834 92.8515C46.9042 92.9209 46.9597 92.9209 46.9736 92.9764C47.0431 93.2055 47.0292 93.5665 46.9945 93.7887C46.9597 93.9622 46.9667 94.3441 46.7306 94.4135L46.4807 94.6009H46.4876Z" fill="#FFF066"/>
<path fill-rule="evenodd" clip-rule="evenodd" d="M46.7653 81.7093C46.7653 81.6607 46.7584 81.6121 46.7584 81.5635C46.7792 81.6677 46.6959 81.7718 46.689 81.8829C46.682 82.0148 46.682 82.1883 46.8001 82.2716C47.0292 82.4244 47.3069 82.0356 47.4041 81.862C47.4527 81.7718 47.5082 81.6677 47.536 81.5705C47.5568 81.4941 47.6262 81.2928 47.6054 81.2164C47.536 80.9387 47.1889 80.904 46.9736 80.9179L46.7653 81.7093Z" fill="#FFF066"/>
<path fill-rule="evenodd" clip-rule="evenodd" d="M57.4086 80.9387C57.2975 80.5083 57.7905 79.8696 58.0543 79.5572C58.4153 79.1199 58.7347 78.6339 59.1721 78.266C59.2415 78.2105 59.3665 78.2313 59.4359 78.1688C59.5262 78.0924 59.5678 77.9467 59.665 77.8772C59.7622 77.8148 59.8872 77.8772 59.9774 77.8286C60.0746 77.78 60.1441 77.669 60.2343 77.6481C60.8175 77.5024 61.3313 77.6273 61.8589 77.6967C62.1436 77.7314 62.4144 77.78 62.699 77.8564C62.7962 77.8842 62.8795 77.9536 62.9976 77.9744C63.1295 77.9952 63.2544 77.9536 63.3933 77.9814C63.6641 78.0369 63.789 78.0994 64.1292 78.0647C64.5111 78.03 64.8027 78.1757 65.1707 78.1688C66.2051 78.1549 67.3646 78.1549 68.1283 79.0088C68.4685 79.3906 68.6698 80.0293 68.7879 80.5153C68.9267 81.0706 68.8712 81.8204 68.7254 82.341C68.4893 83.181 68.0311 83.9794 67.3646 84.625C67.0174 84.9652 66.4412 85.2776 65.9899 85.3678C65.8788 85.3887 65.7538 85.3609 65.6358 85.3817C65.4692 85.4164 65.3859 85.5136 65.2679 85.5414C65.0387 85.6108 64.6985 85.6802 64.4486 85.6455C63.3447 85.4858 62.4768 85.0207 61.4771 84.5764C61.0327 84.3751 60.5953 84.0766 60.1371 83.8891C59.6372 83.6809 59.2137 83.5698 58.7972 83.2019C58.1029 82.591 57.1656 81.4316 57.3878 80.4319C57.4364 80.4181 57.485 80.4042 57.3878 80.9179L57.4086 80.9387Z" fill="#FFF066"/>
<path fill-rule="evenodd" clip-rule="evenodd" d="M83.3822 94.7814C82.924 94.7606 83.5003 94.0525 83.6669 93.9344C84.0765 93.629 84.382 93.7401 84.7222 94.0455C85.3401 94.6009 85.715 95.2882 85.722 96.1004C85.722 96.5378 85.5553 96.8154 85.0832 96.9265C84.5972 97.0376 84.4028 96.8363 84.0279 96.6419C83.771 96.51 83.2434 96.4336 83.1184 96.1976C82.9032 95.7741 83.3475 95.3159 83.2226 94.9688L83.3822 94.7883V94.7814Z" fill="#FFF066"/>
<path fill-rule="evenodd" clip-rule="evenodd" d="M94.8516 87.7976C94.8863 87.7629 94.921 87.7212 94.9558 87.6865C94.6364 87.8462 94.4628 88.2002 94.2129 88.4432C93.7963 88.8528 93.3589 89.2762 93.0187 89.7483C92.4286 90.5675 91.8245 91.581 91.6301 92.5877C91.4427 93.5318 91.6787 94.6148 92.2064 95.4131C92.8174 96.3364 93.588 96.392 94.5808 96.5933C95.0113 96.6766 95.3584 96.4822 95.7333 96.3434C96.1221 96.2045 96.5318 95.9477 96.9414 95.7325C97.7398 95.3229 98.4896 94.8647 98.9062 94.0108C99.3019 93.1847 99.3158 92.2822 99.2464 91.3103C99.2117 90.8174 99.3644 90.4078 99.3297 89.9219C99.2881 89.3526 99.2742 88.9014 99.052 88.3807C98.7187 87.6032 98.2813 86.7076 97.2191 86.7701C96.6914 86.8048 96.261 87.2561 95.8444 87.5129C95.3931 87.7976 94.7475 88.1238 94.8655 87.7976H94.8516Z" fill="#FFF066"/>
<path fill-rule="evenodd" clip-rule="evenodd" d="M94.3793 83.3337C94.3307 83.3268 94.2752 83.3129 94.2266 83.306C94.421 82.7784 94.7334 82.1189 95.1777 81.7232C95.4624 81.4663 95.8095 81.3969 95.9762 81.8412C96.0872 82.1397 96.2122 82.4729 96.2469 82.7784C96.3094 83.3407 96.4691 84.4237 95.6637 84.4653C95.2402 84.4861 94.4557 83.778 94.5529 83.3199L94.3793 83.3337Z" fill="#FFF066"/>
<path fill-rule="evenodd" clip-rule="evenodd" d="M46.828 101.342C46.3212 101.293 46.0573 101.064 45.6338 101.453C45.2173 101.835 45.0367 102.341 44.8146 102.855C44.6271 103.299 44.4258 103.778 44.4258 104.264C44.4258 104.792 44.5507 104.993 44.9673 105.306C45.6963 105.847 46.8141 106.215 47.682 106.465C48.5498 106.715 49.4524 107.27 50.3272 107.333C51.1811 107.395 51.5283 106.576 51.931 105.979C52.1809 105.611 52.3961 105.181 52.6322 104.792C52.7363 104.618 52.8266 104.417 52.9377 104.251C52.9793 104.188 53.0696 104.146 53.1043 104.084C53.1668 103.98 53.1807 103.813 53.2431 103.716C53.4584 103.383 53.6389 103.202 53.6666 102.793C53.6944 102.334 53.625 101.855 53.4236 101.488C53.0001 100.731 52.1323 100.252 51.32 100.03C50.1675 99.7173 49.1747 99.752 48.036 100.064C47.5292 100.203 47.0571 100.446 46.6058 100.703C46.2517 100.904 46.0018 101.488 46.821 101.342H46.828Z" fill="#FFF066"/>
<path fill-rule="evenodd" clip-rule="evenodd" d="M40.8574 102.598C40.3714 102.571 40.8088 101.737 40.9963 101.55C41.3365 101.203 41.6836 101.356 41.9682 101.703C42.246 102.036 42.357 102.473 41.9474 102.751C41.4475 103.098 41.4684 102.64 41.031 102.591L40.8574 102.605V102.598Z" fill="#FFF066"/>
<path fill-rule="evenodd" clip-rule="evenodd" d="M93.5534 34.1346C93.5048 34.1485 93.4631 34.1624 93.4145 34.1763C93.4145 34.5234 93.1229 34.8427 93.0951 35.2037C93.0604 35.5994 92.984 36.0229 93.0118 36.4186C93.0743 37.1961 93.2132 37.8626 93.9908 38.2097C94.3101 38.3554 94.6434 38.4457 94.9627 38.5568C95.3654 38.6956 95.7056 38.5984 96.1014 38.6748C96.747 38.7997 97.7468 38.7442 97.9412 37.8973C98.0106 37.5849 97.9065 37.1197 97.8787 36.7935C97.8509 36.4047 97.8787 35.9604 97.7607 35.5925C97.5524 34.9607 97.3927 34.4331 97.0386 33.8708C96.7262 33.371 96.2402 32.9544 95.6709 32.8295C95.1155 32.7045 94.1227 32.8781 94.0324 33.5931L93.5534 34.1416V34.1346Z" fill="#FFF066"/>
</g>
<path fill-rule="evenodd" clip-rule="evenodd" d="M52.4796 48.3314C52.3477 48.3036 52.2435 48.5813 52.2019 48.6854C52.1325 48.8382 52.1186 49.0117 52.0769 49.1714C52.0561 49.2478 52.0353 49.2616 52.0283 49.345C52.0283 49.4144 52.0283 49.5116 52.0422 49.574C52.07 49.7198 52.1533 49.8031 52.2644 49.9003C52.7157 50.296 53.4724 50.0392 53.9237 49.7823C54.4514 49.4838 54.9929 49.0673 55.1456 48.4425C55.2151 48.1717 55.0693 47.8732 54.8193 47.7135C54.7013 47.6372 54.5763 47.6025 54.4514 47.5539C54.3958 47.533 54.3264 47.4914 54.257 47.4775C54.2084 47.4706 54.1806 47.4775 54.1389 47.4775C54.0903 47.4775 54.0417 47.4428 54.007 47.4428C53.6182 47.3873 53.2225 47.5469 52.9031 47.7483C52.7226 47.8593 52.2297 48.144 52.2297 48.4008C52.2158 48.4008 52.2019 48.4078 52.4657 48.3383L52.4796 48.3314Z" fill="white"/>
<path style="mix-blend-mode:screen" opacity="0.5" fill-rule="evenodd" clip-rule="evenodd" d="M108.245 63.7846C109.793 62.9238 110.945 62.4031 110.945 62.4031C110.022 48.38 103.114 36.1756 92.8802 28.1088L89.5269 27.4285C84.6044 26.0748 80.9872 23.4784 78.9669 21.7151L77.1062 19.8963C71.7949 18.2996 66.1157 17.6053 60.256 17.9941C33.9983 19.7366 14.1211 42.4236 15.8499 68.6858C17.5856 94.948 40.2746 114.823 66.5392 113.088C81.1677 112.123 93.8106 104.66 101.85 93.6845C101.85 93.6845 101.843 93.6707 101.843 93.6637C101.399 92.7821 101.017 91.4769 100.712 89.9358C101.316 92.2059 101.85 93.6845 101.85 93.6845V91.6991C103.079 77.7939 108.252 63.7846 108.252 63.7846H108.245ZM43.1142 82.1953L42.2117 84.389V84.4029C36.0465 76.6832 40.712 64.5969 40.712 64.5969C40.719 64.6108 40.7329 64.6246 40.7398 64.6385C40.7467 64.6385 40.7537 64.6385 40.7537 64.6524C42.3228 66.5129 43.6419 68.4498 44.4403 70.2478C44.482 70.338 44.5167 70.4213 44.5445 70.5116C45.0166 71.7473 45.3151 73.0594 45.204 74.3437C44.843 76.4263 44.0932 79.3004 43.1142 82.1883V82.1953Z" fill="url(#paint5_linear_3532_22489)"/>
<path style="mix-blend-mode:screen" opacity="0.5" fill-rule="evenodd" clip-rule="evenodd" d="M83.2918 31.5869C83.2918 31.5869 57.1105 70.4769 63.1022 110.276C63.1022 110.276 64.7476 68.4984 88.9085 41.2503L83.2918 31.5869Z" fill="url(#paint6_linear_3532_22489)"/>
<path style="mix-blend-mode:screen" opacity="0.5" fill-rule="evenodd" clip-rule="evenodd" d="M97.5247 33.8708C97.5247 33.8708 62.2899 67.9499 68.2816 107.749C68.2816 107.749 68.2816 71.6362 101.676 42.8748L97.5177 33.8708H97.5247Z" fill="url(#paint7_linear_3532_22489)"/>
<path fill-rule="evenodd" clip-rule="evenodd" d="M88.9644 20.7015C88.9644 20.7015 83.306 26.0123 79.793 38.4735L81.8342 43.0553H92.7413L114.507 41.4031L95.088 18.5564L88.9713 20.7015H88.9644Z" fill="url(#paint8_linear_3532_22489)"/>
<path fill-rule="evenodd" clip-rule="evenodd" d="M151.165 36.134C151.165 36.134 146.027 11.0172 127.233 2.11043C127.233 2.11043 117.576 -1.43701 101.725 0.673405C101.725 0.673405 94.706 7.0116 89.9502 17.2791L92.7412 41.41H114.507L151.172 36.134H151.165Z" fill="url(#paint9_linear_3532_22489)"/>
<path fill-rule="evenodd" clip-rule="evenodd" d="M143.313 22.3538C140.8 23.8186 124.498 24.1449 117.521 22.3469C116.188 21.9998 115.195 21.5832 114.702 21.0834C111.605 17.9455 105.211 2.6936 106.475 2.26318C110.8 0.791443 122.388 1.16632 128.365 3.2212C135.447 5.6579 146.299 20.6113 143.313 22.3538Z" fill="url(#paint10_linear_3532_22489)"/>
<path style="mix-blend-mode:multiply" opacity="0.5" fill-rule="evenodd" clip-rule="evenodd" d="M101.725 0.673401C101.725 0.673401 111.056 11.3574 114.507 35.6411L151.172 36.134L114.507 41.41H92.7412L89.9502 17.2791C89.9502 17.2791 95.6086 6.03275 101.725 0.673401Z" fill="url(#paint11_linear_3532_22489)"/>
<g style="mix-blend-mode:multiply" opacity="0.7">
<path fill-rule="evenodd" clip-rule="evenodd" d="M114.5 35.6411L92.7412 41.4101H114.5L151.165 36.134L114.5 35.6411Z" fill="#864577"/>
</g>
<g style="mix-blend-mode:multiply" opacity="0.5">
<path fill-rule="evenodd" clip-rule="evenodd" d="M90.2905 20.2433L88.9644 20.7085C88.9644 20.7085 82.702 27.6853 79.793 38.4804L81.8342 43.0622H92.7413L114.507 41.41H92.7413L90.2905 20.2433Z" fill="#864577"/>
</g>
<g style="mix-blend-mode:multiply" opacity="0.5">
<path fill-rule="evenodd" clip-rule="evenodd" d="M88.9642 20.7015L91.8316 41.41L81.834 43.0553H92.7411L114.5 41.41H92.7411L90.2903 20.2433L88.9642 20.7015Z" fill="#864577"/>
</g>
<g style="mix-blend-mode:multiply" opacity="0.5">
<path fill-rule="evenodd" clip-rule="evenodd" d="M89.9434 17.2791C89.9434 17.2791 91.6235 12.8986 97.143 13.4678C102.663 14.0371 105.356 38.0639 105.356 38.0639L92.7344 41.4101L89.9434 17.2791Z" fill="#864577"/>
</g>
<g style="mix-blend-mode:soft-light">
<path fill-rule="evenodd" clip-rule="evenodd" d="M98.8027 14.3772L105.357 6.22711C105.357 6.22711 107.176 9.4691 108.356 12.4681L100.011 16.0503L98.8027 14.3772Z" fill="#BBC5E3"/>
</g>
<g style="mix-blend-mode:soft-light">
<path fill-rule="evenodd" clip-rule="evenodd" d="M100.955 18.0011L109.474 15.2797C109.474 15.2797 111.3 20.2156 112.195 23.9644L103.385 26.2206C103.385 26.2206 102.024 20.3822 100.962 18.0011H100.955Z" fill="#BBC5E3"/>
</g>
<path d="M105.308 38.0709C105.28 37.8765 102.433 18.3204 99.0243 14.773C98.0037 13.7108 96.6915 13.2734 95.2197 13.4956C92.8799 13.8496 90.7763 15.724 89.9848 17.2999L89.8945 17.2513C90.693 15.6546 92.8244 13.7594 95.2058 13.3915C96.7054 13.1624 98.0523 13.6136 99.0937 14.6966C102.523 18.2649 105.377 37.8487 105.405 38.05L105.308 38.0639V38.0709Z" fill="#5C396B"/>
<path fill-rule="evenodd" clip-rule="evenodd" d="M100.954 31.6494L100.441 26.2206C100.441 26.2206 84.139 25.9429 59.0755 39.5357L58.6104 41.5281L59.1935 43.0553C59.1935 43.0553 76.8699 38.89 92.1441 36.974L100.961 31.6494H100.954Z" fill="url(#paint12_linear_3532_22489)"/>
<path fill-rule="evenodd" clip-rule="evenodd" d="M148.43 27.4146C148.43 27.4146 164.627 29.4834 176 33.5654L175.548 35.773C165.87 34.5859 157.983 34.1277 150.575 33.7945L148.43 27.4216V27.4146Z" fill="url(#paint13_linear_3532_22489)"/>
<g style="mix-blend-mode:multiply" opacity="0.5">
<path fill-rule="evenodd" clip-rule="evenodd" d="M59.0688 39.5357L60.2005 40.4729C60.2005 40.4729 84.0629 31.6077 100.948 31.6494L92.1304 36.974C92.1304 36.974 80.1471 38.3763 59.1799 43.0554L58.5967 41.5281L59.0618 39.5357H59.0688Z" fill="#864577"/>
</g>
<g style="mix-blend-mode:multiply" opacity="0.7">
<path fill-rule="evenodd" clip-rule="evenodd" d="M175.548 35.7661C175.548 35.7661 168.147 33.9472 149.881 31.6494L150.575 33.7875C158.226 34.1277 165.898 34.6067 175.548 35.7661Z" fill="#864577"/>
</g>
<g style="mix-blend-mode:multiply" opacity="0.7">
<path fill-rule="evenodd" clip-rule="evenodd" d="M100.954 31.6494L92.741 41.41L81.8338 43.0623L79.9732 38.8761L59.1934 43.0623L60.214 40.4798C60.214 40.4798 80.0009 32.9684 100.961 31.6563L100.954 31.6494Z" fill="#864577"/>
</g>
<g style="mix-blend-mode:multiply" opacity="0.5">
<path fill-rule="evenodd" clip-rule="evenodd" d="M119.923 34.933C119.923 34.933 121.193 31.5383 122.915 30.1429C124.637 28.7475 141.959 28.3171 143.827 28.4768C145.695 28.6365 149.284 35.2593 149.284 35.2593L119.923 34.933Z" fill="#864577"/>
</g>
<path fill-rule="evenodd" clip-rule="evenodd" d="M119.923 34.933L147.451 35.2593C147.451 35.2593 144.792 30.615 142.466 29.8791C140.14 29.1432 123.005 30.0318 122.256 30.8093C121.506 31.5869 119.923 34.933 119.923 34.933Z" fill="#361537"/>
<path d="M133.725 29.6431L133.648 29.5737L134.544 28.6503L132.773 23.5826L132.871 23.5479L134.662 28.6781L133.725 29.6431Z" fill="#5C396B"/>
<path d="M157.08 34.1694L157.073 34.0652L163.606 33.5307L163.724 30.1498H163.822L163.704 33.6279H163.662L157.08 34.1694Z" fill="#5C396B"/>
<path d="M79.4388 34.8844L78.4043 30.8857L78.5015 30.8649L79.536 34.8636L79.4388 34.8844Z" fill="#5C396B"/>
<path fill-rule="evenodd" clip-rule="evenodd" d="M73.1426 32.8712L75.2532 33.7042L83.293 31.5869L85.6049 28.6573C85.6049 28.6573 77.6832 30.9343 73.1426 32.8712Z" fill="url(#paint14_radial_3532_22489)"/>
<path fill-rule="evenodd" clip-rule="evenodd" d="M157.997 28.9627L159.379 30.8093L167.217 32.1353L169.224 31.4758C169.224 31.4758 162.913 29.8235 157.997 28.9627Z" fill="url(#paint15_radial_3532_22489)"/>
<path style="mix-blend-mode:multiply" opacity="0.5" fill-rule="evenodd" clip-rule="evenodd" d="M128.365 3.2212C128.365 3.2212 119.61 9.03874 117.521 22.3469C116.188 21.9998 115.195 21.5832 114.702 21.0834C111.605 17.9455 105.211 2.6936 106.475 2.26318C110.8 0.791443 122.388 1.16632 128.365 3.2212Z" fill="url(#paint16_linear_3532_22489)"/>
<g style="mix-blend-mode:soft-light">
<path fill-rule="evenodd" clip-rule="evenodd" d="M122.38 3.23506C122.38 3.23506 130.052 6.54648 137.113 14.7521L140.952 14.9048C140.952 14.9048 136.627 6.76863 129.295 3.56829C129.295 3.56829 126.268 2.61027 122.38 3.22812V3.23506Z" fill="white"/>
</g>
<g style="mix-blend-mode:soft-light">
<path fill-rule="evenodd" clip-rule="evenodd" d="M121.068 3.23505C121.068 3.23505 126.9 5.16497 135.766 14.9118L127.796 15.2797C127.796 15.2797 122.623 6.22712 114.042 3.50579C114.042 3.50579 117.048 3.23505 121.068 3.23505Z" fill="white"/>
</g>
<path style="mix-blend-mode:screen" d="M151.292 29.9441C153.867 27.0932 153.643 22.6945 150.792 20.1194C147.941 17.5443 143.542 17.7679 140.967 20.6188C138.391 23.4698 138.615 27.8684 141.466 30.4435C144.317 33.0186 148.716 32.795 151.292 29.9441Z" fill="url(#paint17_radial_3532_22489)"/>
<path style="mix-blend-mode:screen" d="M122.959 28.6566C123.845 24.9186 121.533 21.1697 117.795 20.2833C114.056 19.3969 110.307 21.7087 109.421 25.4467C108.534 29.1848 110.846 32.9337 114.584 33.8201C118.323 34.7064 122.072 32.3947 122.959 28.6566Z" fill="url(#paint18_radial_3532_22489)"/>
<path fill-rule="evenodd" clip-rule="evenodd" d="M98.7471 14.6688C98.7471 14.6688 102.205 17.8206 103.843 31.4619C103.843 31.4619 102.482 20.2364 98.7471 14.6688Z" fill="#9D89B8"/>
<path fill-rule="evenodd" clip-rule="evenodd" d="M112.348 24.5753C112.348 24.5753 118.749 25.9429 119.922 27.0258C121.096 28.1019 113.347 28.9696 113.347 28.9696C113.347 28.9696 112.875 26.7759 112.348 24.5822V24.5753Z" fill="white"/>
<path fill-rule="evenodd" clip-rule="evenodd" d="M147.014 24.0824C147.014 24.0824 143.945 25.5194 143.82 26.2206C143.695 26.9217 148.423 27.4146 148.423 27.4146C148.423 27.4146 147.59 25.325 147.014 24.0893V24.0824Z" fill="white"/>
<defs>
<radialGradient id="paint0_radial_3532_22489" cx="0" cy="0" r="1" gradientUnits="userSpaceOnUse" gradientTransform="translate(62.6587 64.347) scale(62.6588 62.6531)">
<stop offset="0.65" stop-color="#FF0000"/>
<stop offset="0.69" stop-color="#FA0000"/>
<stop offset="0.74" stop-color="#ED0000"/>
<stop offset="0.78" stop-color="#D70000"/>
<stop offset="0.83" stop-color="#B80000"/>
<stop offset="0.87" stop-color="#910000"/>
<stop offset="0.92" stop-color="#610000"/>
<stop offset="0.97" stop-color="#290000"/>
<stop offset="1"/>
</radialGradient>
<radialGradient id="paint1_radial_3532_22489" cx="0" cy="0" r="1" gradientUnits="userSpaceOnUse" gradientTransform="translate(62.6583 64.347) scale(49.5577 49.5532)">
<stop offset="0.65" stop-color="#FF2000"/>
<stop offset="0.69" stop-color="#FA1F00"/>
<stop offset="0.74" stop-color="#ED1D00"/>
<stop offset="0.78" stop-color="#D71B00"/>
<stop offset="0.83" stop-color="#B81700"/>
<stop offset="0.87" stop-color="#911200"/>
<stop offset="0.92" stop-color="#610C00"/>
<stop offset="0.97" stop-color="#290500"/>
<stop offset="1"/>
</radialGradient>
<radialGradient id="paint2_radial_3532_22489" cx="0" cy="0" r="1" gradientUnits="userSpaceOnUse" gradientTransform="translate(62.6584 64.347) scale(45.4962 45.492)">
<stop offset="0.83" stop-color="#06A2FF"/>
<stop offset="0.85" stop-color="#059FFA"/>
<stop offset="0.87" stop-color="#0596ED"/>
<stop offset="0.89" stop-color="#0588D7"/>
<stop offset="0.91" stop-color="#0475B8"/>
<stop offset="0.94" stop-color="#035C91"/>
<stop offset="0.96" stop-color="#023D61"/>
<stop offset="0.98" stop-color="#001A29"/>
<stop offset="1"/>
</radialGradient>
<radialGradient id="paint3_radial_3532_22489" cx="0" cy="0" r="1" gradientUnits="userSpaceOnUse" gradientTransform="translate(54.8137 49.6485) rotate(-3.77966) scale(56.1534 56.1483)">
<stop stop-color="#FFC827"/>
<stop offset="0.37" stop-color="#FF9E25"/>
<stop offset="0.87" stop-color="#FF741F"/>
<stop offset="1" stop-color="#FF9589"/>
</radialGradient>
<radialGradient id="paint4_radial_3532_22489" cx="0" cy="0" r="1" gradientUnits="userSpaceOnUse" gradientTransform="translate(85.0447 24.6714) rotate(-3.77966) scale(6.54706 6.54647)">
<stop stop-color="#FFC727"/>
<stop offset="1" stop-color="#FFAB1F"/>
</radialGradient>
<linearGradient id="paint5_linear_3532_22489" x1="63.3456" y1="113.192" x2="63.3456" y2="17.8969" gradientUnits="userSpaceOnUse">
<stop stop-color="#A900FF"/>
<stop offset="1"/>
</linearGradient>
<linearGradient id="paint6_linear_3532_22489" x1="75.5575" y1="110.276" x2="75.5575" y2="31.5869" gradientUnits="userSpaceOnUse">
<stop/>
<stop offset="1" stop-color="#4A59D6"/>
</linearGradient>
<linearGradient id="paint7_linear_3532_22489" x1="84.6388" y1="107.749" x2="84.6388" y2="33.8708" gradientUnits="userSpaceOnUse">
<stop/>
<stop offset="1" stop-color="#4A59D6"/>
</linearGradient>
<linearGradient id="paint8_linear_3532_22489" x1="97.15" y1="43.0553" x2="97.15" y2="18.5633" gradientUnits="userSpaceOnUse">
<stop stop-color="#9089BF"/>
<stop offset="1" stop-color="#D1BDF1"/>
</linearGradient>
<linearGradient id="paint9_linear_3532_22489" x1="120.554" y1="41.41" x2="120.554" y2="1.51644e-05" gradientUnits="userSpaceOnUse">
<stop stop-color="#AEA9ED"/>
<stop offset="1" stop-color="#EAE1F9"/>
</linearGradient>
<linearGradient id="paint10_linear_3532_22489" x1="125.067" y1="23.5756" x2="125.067" y2="1.36764" gradientUnits="userSpaceOnUse">
<stop stop-color="#6A6FE2"/>
<stop offset="1" stop-color="#5B2D74"/>
</linearGradient>
<linearGradient id="paint11_linear_3532_22489" x1="89.9433" y1="21.0417" x2="151.165" y2="21.0417" gradientUnits="userSpaceOnUse">
<stop stop-color="#8B7CBD"/>
<stop offset="1" stop-color="#724577"/>
</linearGradient>
<linearGradient id="paint12_linear_3532_22489" x1="58.6034" y1="34.6414" x2="100.954" y2="34.6414" gradientUnits="userSpaceOnUse">
<stop stop-color="#AEA9ED"/>
<stop offset="1" stop-color="#EAE1F9"/>
</linearGradient>
<linearGradient id="paint13_linear_3532_22489" x1="148.43" y1="31.5869" x2="176" y2="31.5869" gradientUnits="userSpaceOnUse">
<stop stop-color="#AEA9ED"/>
<stop offset="1" stop-color="#EAE1F9"/>
</linearGradient>
<radialGradient id="paint14_radial_3532_22489" cx="0" cy="0" r="1" gradientUnits="userSpaceOnUse" gradientTransform="translate(79.3703 31.1842) scale(4.75582 4.75538)">
<stop stop-color="#55DBD6"/>
<stop offset="1" stop-color="#4AA1FF"/>
</radialGradient>
<radialGradient id="paint15_radial_3532_22489" cx="0" cy="0" r="1" gradientUnits="userSpaceOnUse" gradientTransform="translate(163.607 30.5525) scale(4.12402 4.12365)">
<stop stop-color="#55DBD6"/>
<stop offset="1" stop-color="#4AA1FF"/>
</radialGradient>
<linearGradient id="paint16_linear_3532_22489" x1="106.315" y1="11.8573" x2="128.365" y2="11.8573" gradientUnits="userSpaceOnUse">
<stop stop-color="#C77CBD"/>
<stop offset="1" stop-color="#974577"/>
</linearGradient>
<radialGradient id="paint17_radial_3532_22489" cx="0" cy="0" r="1" gradientUnits="userSpaceOnUse" gradientTransform="translate(146.13 25.2745) scale(6.95669 6.95605)">
<stop stop-color="#0056FF"/>
<stop offset="1"/>
</radialGradient>
<radialGradient id="paint18_radial_3532_22489" cx="0" cy="0" r="1" gradientUnits="userSpaceOnUse" gradientTransform="translate(116.186 27.0535) scale(6.95669 6.95605)">
<stop stop-color="#0056FF"/>
<stop offset="1"/>
</radialGradient>
</defs>
</svg>
