<svg width="155" height="130" viewBox="0 0 155 130" fill="none" xmlns="http://www.w3.org/2000/svg">
<g clip-path="url(#clip0_3532_21491)">
<path d="M85.3955 6.40966C68.8867 8.46194 51.5078 19.0208 39.2303 36.2421C26.9602 53.4709 22.6545 73.3394 26.105 89.6164L32.3739 107.812L43.1716 115.433C64.4992 129.063 96.8252 118.504 116.309 91.163C135.792 63.8215 135.219 29.825 115.372 14.1206L104.648 6.40222L85.4029 6.41709L85.3955 6.40966Z" fill="url(#paint0_linear_3532_21491)"/>
<path d="M105.571 7.38375C126.304 22.1587 126.958 56.7947 107.036 84.7533C87.1138 112.712 54.1557 123.397 33.423 108.63C12.6903 93.8622 12.0359 59.2188 31.958 31.2601C51.8801 3.30893 84.8383 -7.38376 105.571 7.38375Z" fill="url(#paint1_linear_3532_21491)"/>
<path d="M55.8655 115.679C47.4326 115.679 39.5947 113.27 33.1919 108.712C22.8479 101.35 16.9285 89.1182 16.5121 74.2763C16.1031 59.5088 21.2044 43.9159 30.8718 30.353C44.2276 11.6296 64.2315 0 83.0902 0C91.5231 0 99.3611 2.4092 105.756 6.96735C116.1 14.3288 122.02 26.5607 122.436 41.4026C122.845 56.1701 117.744 71.763 108.077 85.3259C94.7282 104.049 74.7168 115.686 55.8655 115.686V115.679ZM83.0902 1.47973C64.7074 1.47973 45.1645 12.8714 32.0839 31.2155C22.5951 44.5182 17.5904 59.7913 17.9919 74.2391C18.3935 88.6051 24.0898 100.421 34.0471 107.507C40.197 111.887 47.7375 114.199 55.8581 114.199C74.2409 114.199 93.7837 102.807 106.864 84.4633C116.346 71.1681 121.351 55.8875 120.949 41.4398C120.547 27.0738 114.851 15.2583 104.894 8.17195C98.7438 3.79226 91.2033 1.47973 83.0828 1.47973H83.0902Z" fill="url(#paint2_linear_3532_21491)"/>
<path d="M57.9555 104.079C51.2999 104.079 45.1128 102.183 40.0784 98.5914C23.1457 86.5305 22.4689 58.319 38.5762 35.7142C49.3887 20.5303 65.5034 11.1017 80.6216 11.1017C87.2772 11.1017 93.4643 12.9978 98.4987 16.5893C106.738 22.4561 111.416 32.2565 111.669 44.1761C111.921 56.0139 107.779 68.5507 99.9935 79.4665C89.1809 94.643 73.0662 104.072 57.948 104.072L57.9555 104.079ZM80.6216 12.5888C65.9719 12.5888 50.3257 21.7795 39.7809 36.5693C24.1496 58.5049 24.6627 85.7869 40.9335 97.3719C45.7226 100.785 51.6048 102.584 57.948 102.584C72.5977 102.584 88.2439 93.3937 98.7813 78.6039C106.374 67.9484 110.427 55.7314 110.181 44.2059C109.936 32.7622 105.482 23.3856 97.6361 17.7939C92.8471 14.3808 86.9649 12.5814 80.6216 12.5814V12.5888Z" fill="url(#paint3_linear_3532_21491)"/>
<path d="M47.8796 58.4083L59.2647 66.5208L57.7997 68.5805C56.2455 70.7666 55.3606 72.2984 55.1375 73.1535C54.9218 74.016 55.2416 74.7596 56.1117 75.3694C56.8033 75.8676 57.5395 75.9419 58.298 75.6073C59.0639 75.2727 59.8596 74.5217 60.6925 73.3617C62.0757 71.421 62.6854 69.7999 62.5293 68.521C62.388 67.2495 61.4138 64.2751 59.6216 59.6055C58.0823 55.6422 57.1453 52.7794 56.8181 51.0171C56.4909 49.2548 56.6248 47.1877 57.2123 44.8231C57.8072 42.4585 59.0862 39.9006 61.0494 37.1419C64.2025 32.725 67.6455 29.9514 71.3935 28.8361C75.1414 27.7133 79.1794 28.2486 83.5074 30.4348L86.8314 25.7725L92.0741 29.5053L88.6385 34.3237C91.4495 36.8221 93.2044 39.9898 93.896 43.8267C94.5876 47.6635 92.9665 52.3407 89.0326 57.8655L87.3074 60.2895L75.9222 52.1771L78.0788 49.1433C80.451 45.812 81.8119 43.6556 82.154 42.6816C82.496 41.7075 82.2134 40.897 81.3136 40.2575C80.5403 39.7072 79.7669 39.5808 78.9935 39.8783C78.2201 40.1757 77.4393 40.8672 76.651 41.9751C74.6655 44.7561 73.4311 46.8679 72.9402 48.3179C72.442 49.7679 72.732 51.9466 73.8177 54.8391C75.6025 59.6872 76.7254 63.1152 77.179 65.1228C77.6326 67.1305 77.5954 69.4653 77.0675 72.1422C76.532 74.8117 75.3571 77.4291 73.5426 79.9796C70.9027 83.6826 67.8761 85.8985 64.4479 86.6346C61.0197 87.3708 57.2048 86.6049 53.0032 84.3518L50.1849 88.3077L44.9496 84.5749L47.768 80.619C44.6001 77.6224 42.8897 74.4622 42.6146 71.1458C42.3469 67.822 43.5144 64.3346 46.1246 60.6762C46.489 60.1631 47.0839 59.4121 47.8944 58.4232L47.8796 58.4083Z" fill="url(#paint4_linear_3532_21491)"/>
<path d="M43.6187 55.367L55.0038 63.4795L53.5388 65.5318C51.9846 67.7179 51.0923 69.2423 50.8766 70.1048C50.661 70.9674 50.9807 71.7035 51.8433 72.3207C52.5349 72.8189 53.2711 72.8932 54.0296 72.5586C54.7956 72.224 55.5913 71.473 56.4167 70.313C57.7999 68.3648 58.4097 66.7513 58.2535 65.4649C58.1122 64.1933 57.1381 61.2265 55.3385 56.5493C53.7991 52.586 52.8621 49.7233 52.5349 47.961C52.2077 46.2061 52.3341 44.1315 52.9365 41.7669C53.524 39.4024 54.8105 36.8444 56.7737 34.0858C59.9193 29.6689 63.3698 26.9028 67.1177 25.78C70.8657 24.6571 74.8962 25.1851 79.2316 27.3787L82.5557 22.7164L87.7984 26.4492L84.3627 31.2676C87.1737 33.766 88.9287 36.9337 89.6203 40.7705C90.3193 44.6149 88.6982 49.2845 84.7569 54.8094L83.0316 57.2334L71.6391 49.121L73.803 46.0871C76.1753 42.7559 77.5361 40.5995 77.8782 39.6254C78.2128 38.6439 77.9377 37.8408 77.0304 37.2014C76.2571 36.6511 75.4837 36.5247 74.7103 36.8221C73.9369 37.1121 73.1561 37.8111 72.3678 38.919C70.3823 41.7 69.1479 43.8118 68.6571 45.2618C68.1662 46.7118 68.4563 48.8904 69.5345 51.783C71.3193 56.6311 72.4422 60.059 72.9032 62.0667C73.3569 64.0744 73.3197 66.4092 72.7917 69.0861C72.2563 71.7556 71.0813 74.373 69.2668 76.9309C66.6344 80.6339 63.5929 82.8498 60.1721 83.5785C56.7439 84.3146 52.9291 83.5562 48.7275 81.2957L45.9091 85.2516L40.6664 81.5188L43.4848 77.5629C40.3169 74.5737 38.5991 71.4135 38.3314 68.0971C38.0637 64.7733 39.2312 61.2859 41.8339 57.6275C42.1983 57.1145 42.7932 56.3634 43.6112 55.3745L43.6187 55.367Z" fill="url(#paint5_linear_3532_21491)"/>
</g>
<g clip-path="url(#clip1_3532_21491)">
<path d="M37.1024 78.7832C29.451 78.5391 20.7442 82.101 13.8183 89.0598C6.8925 96.0252 3.3768 104.758 3.66043 112.403L5.07199 121.123L9.37261 125.358C17.9739 133.075 33.4614 130.582 44.4504 119.534C55.4394 108.485 57.8536 92.9845 50.09 84.4228L45.8356 80.1486L37.1024 78.7832Z" fill="url(#paint6_linear_3532_21491)"/>
<path d="M45.8026 81.039C54.041 89.2379 51.7588 104.89 40.7038 115.998C29.6488 127.112 14.0096 129.474 5.77114 121.275C-2.46732 113.083 -0.185086 97.4302 10.8699 86.3159C21.9249 75.2081 37.5641 72.8401 45.8026 81.039Z" fill="url(#paint7_linear_3532_21491)"/>
<path d="M18.852 126.717C13.4235 126.717 8.74027 124.909 5.30372 121.493C1.10204 117.311 -0.692083 111.242 0.244556 104.396C1.1746 97.6149 4.6771 90.8738 10.1056 85.4122C16.5632 78.9217 24.7687 75.1949 32.6048 75.1949C38.0333 75.1949 42.7165 77.0023 46.1531 80.419C54.7675 88.9873 52.6106 105.174 41.3445 116.493C34.887 122.99 26.6815 126.71 18.8454 126.71L18.852 126.717ZM32.6048 76.5142C25.1183 76.5142 17.2558 80.0958 11.0423 86.3423C5.81162 91.5993 2.44104 98.0766 1.55057 104.574C0.673299 110.998 2.3355 116.677 6.23377 120.556C9.41966 123.722 13.7796 125.397 18.852 125.397C26.3385 125.397 34.201 121.816 40.4145 115.569C51.166 104.765 53.323 89.416 45.223 81.3623C42.0371 78.1961 37.6771 76.5208 32.6048 76.5208V76.5142Z" fill="url(#paint8_linear_3532_21491)"/>
<path d="M20.0121 121.598C15.7115 121.598 12.0045 120.173 9.29356 117.476C2.44026 110.655 4.23439 97.6941 13.2974 88.5849C18.528 83.3213 25.1439 80.3069 31.4497 80.3069C35.7503 80.3069 39.4573 81.7316 42.1683 84.4294C45.5191 87.7604 46.924 92.6217 46.1391 98.1096C45.3607 103.532 42.531 108.934 38.1645 113.32C32.9338 118.584 26.318 121.598 20.0121 121.598ZM31.4431 81.6261C25.5792 81.6261 19.1415 84.5745 14.2274 89.515C5.67892 98.1096 3.8782 110.233 10.2236 116.539C12.6839 118.986 16.0677 120.279 20.0121 120.279C25.876 120.279 32.3138 117.33 37.2278 112.39C41.3965 108.202 44.0943 103.063 44.8331 97.9249C45.5586 92.8526 44.279 88.3936 41.2382 85.3661C38.7779 82.9189 35.3941 81.6261 31.4497 81.6261H31.4431Z" fill="url(#paint9_linear_3532_21491)"/>
<path d="M16.0219 99.7322L20.5468 104.237L19.7355 105.055C18.8714 105.926 18.3569 106.546 18.1986 106.915C18.0403 107.291 18.1261 107.647 18.4691 107.984C18.7461 108.261 19.0693 108.347 19.4321 108.254C19.8015 108.162 20.217 107.885 20.6788 107.423C21.4439 106.651 21.8397 105.965 21.866 105.378C21.899 104.798 21.6814 103.386 21.2196 101.144C20.8239 99.2441 20.6128 97.8853 20.593 97.0674C20.5732 96.2495 20.7909 95.3261 21.2328 94.3103C21.6748 93.2879 22.4465 92.2325 23.5348 91.131C25.2828 89.3764 27.0373 88.387 28.8117 88.1562C30.586 87.9319 32.3604 88.4728 34.1479 89.7788L35.9882 87.9253L38.0725 89.9965L36.1663 91.9093C37.248 93.2417 37.8021 94.7984 37.8285 96.5793C37.8549 98.3602 36.7797 100.346 34.5964 102.542L33.64 103.505L29.1151 99.0001L30.3156 97.793C31.6348 96.4672 32.4065 95.5965 32.6308 95.1875C32.8551 94.772 32.7891 94.3894 32.4329 94.0332C32.1295 93.7298 31.7865 93.6111 31.4171 93.6902C31.0477 93.7628 30.6454 94.02 30.2034 94.462C29.1019 95.5701 28.3895 96.4276 28.0597 97.041C27.7299 97.6611 27.6969 98.6571 27.9674 100.042C28.4093 102.357 28.66 103.987 28.7193 104.923C28.7721 105.86 28.5808 106.909 28.1455 108.076C27.7101 109.237 26.9846 110.332 25.9754 111.348C24.5111 112.819 22.9808 113.597 21.3845 113.67C19.7883 113.742 18.1195 113.122 16.3979 111.79L14.8347 113.36L12.7503 111.288L14.3136 109.719C13.1065 108.136 12.5722 106.586 12.6975 105.068C12.8229 103.551 13.6078 102.067 15.0589 100.616C15.2634 100.412 15.5866 100.121 16.0219 99.7322Z" fill="url(#paint10_linear_3532_21491)"/>
<path d="M14.3266 98.0437L18.8515 102.549L18.0402 103.367C17.1761 104.237 16.6616 104.857 16.4967 105.233C16.3384 105.603 16.4242 105.959 16.7672 106.302C17.0442 106.579 17.3674 106.665 17.7368 106.572C18.1062 106.48 18.5217 106.203 18.9834 105.741C19.7552 104.97 20.1443 104.284 20.1707 103.696C20.1971 103.116 19.986 101.704 19.5243 99.4618C19.1286 97.5622 18.9175 96.2034 18.8977 95.3855C18.8779 94.5676 19.089 93.6441 19.5375 92.6283C19.9794 91.6059 20.7446 90.5506 21.8395 89.449C23.5875 87.6945 25.342 86.7051 27.1164 86.4742C28.8907 86.2433 30.665 86.7842 32.4526 88.0968L34.2929 86.2433L36.3772 88.3145L34.471 90.2274C35.5527 91.5598 36.1068 93.1164 36.1332 94.8974C36.1595 96.6783 35.0844 98.6637 32.9011 100.86L31.9447 101.823L27.4198 97.3181L28.6203 96.111C29.9395 94.7852 30.7112 93.9211 30.9355 93.5056C31.1597 93.09 31.0938 92.7075 30.7376 92.3513C30.4276 92.0479 30.0912 91.9291 29.7218 92.0083C29.3524 92.0808 28.9501 92.3381 28.5081 92.78C27.4066 93.8882 26.6942 94.7457 26.3644 95.3657C26.0346 95.9791 26.0016 96.9817 26.2721 98.3669C26.714 100.682 26.9647 102.311 27.024 103.248C27.0768 104.185 26.8855 105.233 26.4502 106.401C26.0082 107.562 25.2893 108.657 24.2801 109.673C22.8157 111.143 21.2855 111.915 19.6892 111.994C18.093 112.067 16.4242 111.447 14.7026 110.114L13.1393 111.684L11.055 109.613L12.6183 108.043C11.4112 106.46 10.8769 104.91 11.0022 103.393C11.1275 101.876 11.9125 100.392 13.3636 98.9407C13.5681 98.7363 13.8913 98.446 14.3332 98.0569L14.3266 98.0437Z" fill="url(#paint11_linear_3532_21491)"/>
</g>
<g clip-path="url(#clip2_3532_21491)">
<path d="M129.138 96.9883C120.794 90.1812 105.452 75.8941 105.452 75.8941L101.045 81.3425C99.7195 84.0007 109.046 94.5939 122.285 105.392C135.523 116.196 147.772 123.201 150.113 121.367L154.566 115.959C154.566 115.959 137.482 103.802 129.138 96.9949V96.9883Z" fill="url(#paint12_linear_3532_21491)"/>
<path d="M154.025 115.583C152.185 117.845 139.883 110.86 126.553 99.9895C113.228 89.1126 103.915 78.4666 105.762 76.2107C107.609 73.9483 119.904 80.9335 133.234 91.8038C146.565 102.674 155.872 113.32 154.032 115.583H154.025Z" fill="url(#paint13_linear_3532_21491)"/>
<path d="M152.851 116.658C148.755 116.658 137.799 110.055 126.203 100.596C116.322 92.536 102.635 79.3043 105.432 75.8743C105.801 75.4192 106.388 75.1949 107.167 75.1949C111.263 75.1949 122.219 81.8042 133.815 91.2563C140.272 96.52 145.991 101.916 149.922 106.434C156.347 113.821 155.021 115.444 154.586 115.972C154.216 116.427 153.629 116.651 152.844 116.651L152.851 116.658ZM107.167 76.5142C106.81 76.5142 106.553 76.5867 106.454 76.712C105.214 78.2357 112.443 87.6681 127.041 99.5739C139.731 109.923 149.632 115.338 152.857 115.338C153.214 115.338 153.471 115.266 153.576 115.141C153.939 114.692 153.438 112.482 148.939 107.298C145.054 102.832 139.395 97.4962 132.99 92.2787C120.293 81.9295 110.392 76.5142 107.167 76.5142Z" fill="url(#paint14_linear_3532_21491)"/>
<path d="M148.306 112.634C145.035 112.634 136.235 107.324 126.915 99.719C120.075 94.1454 107.793 82.8068 110.24 79.8056C110.557 79.4164 111.052 79.2185 111.711 79.2185C114.983 79.2185 123.782 84.5283 133.102 92.1336C139.942 97.7072 152.224 109.052 149.777 112.054C149.461 112.443 148.966 112.641 148.306 112.641V112.634ZM111.711 80.5377C111.421 80.5377 111.296 80.6037 111.263 80.6367C110.498 81.5799 115.623 88.8026 127.746 98.6966C137.792 106.896 145.839 111.315 148.306 111.315C148.596 111.315 148.722 111.249 148.755 111.216C149.52 110.273 144.395 103.05 132.265 93.156C122.219 84.9571 114.178 80.5377 111.711 80.5377Z" fill="url(#paint15_linear_3532_21491)"/>
<path d="M126.157 90.2801L125.147 91.5201L124.165 90.722C123.122 89.8711 122.43 89.3303 122.08 89.0994C121.737 88.8685 121.526 88.796 121.447 88.8883C121.388 88.9609 121.48 89.1324 121.724 89.3962C121.975 89.6601 122.37 90.0228 122.931 90.4714C123.855 91.2299 124.534 91.718 124.969 91.9423C125.398 92.1666 126.302 92.5359 127.68 93.0372C128.841 93.4594 129.712 93.8156 130.292 94.0926C130.866 94.3696 131.631 94.8314 132.575 95.4712C133.518 96.111 134.652 96.9685 135.965 98.037C138.069 99.7586 139.639 101.21 140.661 102.397C141.684 103.591 142.165 104.514 142.099 105.167L144.322 106.981L143.854 107.555L141.558 105.682C141.13 105.886 140.292 105.682 139.032 105.068C137.772 104.455 135.826 103.076 133.195 100.926L132.04 99.9895L133.056 98.7494L134.501 99.9301C136.09 101.223 137.086 102.021 137.489 102.305C137.898 102.595 138.142 102.687 138.221 102.588C138.287 102.503 138.208 102.331 137.97 102.074C137.739 101.817 137.357 101.474 136.829 101.038C135.503 99.9565 134.54 99.2045 133.94 98.7758C133.34 98.3536 132.607 97.9777 131.75 97.6545C130.312 97.107 129.27 96.6914 128.623 96.3946C127.977 96.0978 127.139 95.6031 126.091 94.9171C125.048 94.2311 123.914 93.3868 122.694 92.3974C120.932 90.9595 119.626 89.726 118.802 88.697C117.971 87.6681 117.608 86.8435 117.714 86.2367L115.827 84.6998L116.289 84.126L118.175 85.6629C118.723 85.4716 119.567 85.6826 120.708 86.2961C121.856 86.9161 123.3 87.9319 125.042 89.3566C125.286 89.5545 125.655 89.8645 126.143 90.2735L126.157 90.2801Z" fill="url(#paint16_linear_3532_21491)"/>
<path d="M126.533 89.8118L125.523 91.0518L124.541 90.2537C123.498 89.4028 122.806 88.8619 122.456 88.6311C122.113 88.4002 121.902 88.3276 121.823 88.42C121.764 88.4925 121.856 88.664 122.1 88.9279C122.351 89.1917 122.746 89.5545 123.3 90.003C124.231 90.7616 124.91 91.2497 125.339 91.474C125.767 91.6982 126.671 92.0676 128.05 92.5689C129.211 92.9911 130.081 93.3406 130.662 93.6243C131.236 93.9013 132.001 94.363 132.944 95.0028C133.887 95.6427 135.022 96.5001 136.334 97.5753C138.445 99.2903 140.008 100.748 141.031 101.942C142.053 103.129 142.535 104.053 142.469 104.712L144.691 106.526L144.223 107.1L141.928 105.227C141.499 105.431 140.661 105.227 139.401 104.613C138.142 104 136.196 102.621 133.564 100.471L132.41 99.5277L133.425 98.2877L134.87 99.4684C136.46 100.761 137.456 101.559 137.865 101.843C138.273 102.133 138.511 102.226 138.597 102.127C138.663 102.041 138.584 101.869 138.346 101.612C138.109 101.355 137.733 101.012 137.205 100.583C135.879 99.5014 134.916 98.7494 134.316 98.3207C133.716 97.8985 132.983 97.5225 132.126 97.1993C130.688 96.6585 129.646 96.2363 128.999 95.9395C128.36 95.6427 127.515 95.148 126.467 94.462C125.424 93.776 124.29 92.9317 123.07 91.9423C121.308 90.5043 120.002 89.2709 119.171 88.2419C118.34 87.2129 117.977 86.395 118.09 85.7816L116.203 84.2447L116.665 83.6708L118.551 85.2077C119.099 85.0164 119.943 85.2275 121.084 85.8409C122.232 86.461 123.676 87.4768 125.418 88.9015C125.662 89.0994 126.031 89.4094 126.519 89.8184L126.533 89.8118Z" fill="url(#paint17_linear_3532_21491)"/>
</g>
<defs>
<linearGradient id="paint0_linear_3532_21491" x1="39.8581" y1="116.071" x2="117.117" y2="9.27869" gradientUnits="userSpaceOnUse">
<stop stop-color="#D77F18"/>
<stop offset="0.02" stop-color="#D77F18"/>
<stop offset="0.03" stop-color="#DD891A"/>
<stop offset="0.04" stop-color="#E9931C"/>
<stop offset="0.05" stop-color="#E58C1A"/>
<stop offset="0.06" stop-color="#E68C1A"/>
<stop offset="0.07" stop-color="#EEA421"/>
<stop offset="0.08" stop-color="#D88018"/>
<stop offset="0.1" stop-color="#DC871A"/>
<stop offset="0.11" stop-color="#E5921D"/>
<stop offset="0.12" stop-color="#DA7F18"/>
<stop offset="0.14" stop-color="#E3901C"/>
<stop offset="0.15" stop-color="#E7971E"/>
<stop offset="0.16" stop-color="#D97E18"/>
<stop offset="0.19" stop-color="#D97E18"/>
<stop offset="0.21" stop-color="#E5921D"/>
<stop offset="0.22" stop-color="#D97E18"/>
<stop offset="0.25" stop-color="#D97E18"/>
<stop offset="0.27" stop-color="#E88E1E"/>
<stop offset="0.28" stop-color="#DF7B1A"/>
<stop offset="0.29" stop-color="#DF7A1A"/>
<stop offset="0.32" stop-color="#E2801B"/>
<stop offset="0.33" stop-color="#E88E1E"/>
<stop offset="0.34" stop-color="#DF7B1A"/>
<stop offset="0.35" stop-color="#DF7A1A"/>
<stop offset="0.37" stop-color="#DF7A1A"/>
<stop offset="0.38" stop-color="#E2801B"/>
<stop offset="0.39" stop-color="#E88E1E"/>
<stop offset="0.4" stop-color="#DF7B1A"/>
<stop offset="0.41" stop-color="#DF7A1A"/>
<stop offset="0.44" stop-color="#E2801B"/>
<stop offset="0.45" stop-color="#F09F21"/>
<stop offset="0.46" stop-color="#DF7B1A"/>
<stop offset="0.47" stop-color="#DF7A1A"/>
<stop offset="0.5" stop-color="#E2801B"/>
<stop offset="0.51" stop-color="#FFBE28"/>
<stop offset="0.52" stop-color="#E88E1E"/>
<stop offset="0.53" stop-color="#E3821B"/>
<stop offset="0.54" stop-color="#DF7B1A"/>
<stop offset="0.55" stop-color="#DF7A1A"/>
<stop offset="0.57" stop-color="#FFBE28"/>
<stop offset="0.58" stop-color="#CB780D"/>
<stop offset="0.59" stop-color="#B65B03"/>
<stop offset="0.6" stop-color="#B15400"/>
<stop offset="0.61" stop-color="#B05300"/>
<stop offset="0.62" stop-color="#D18011"/>
<stop offset="0.63" stop-color="#CA841F"/>
<stop offset="0.64" stop-color="#8A3F14"/>
<stop offset="0.65" stop-color="#803712"/>
<stop offset="0.67" stop-color="#823912"/>
<stop offset="0.68" stop-color="#B8731B"/>
<stop offset="0.69" stop-color="#D08C20"/>
<stop offset="0.7" stop-color="#924A15"/>
<stop offset="0.71" stop-color="#873E13"/>
<stop offset="0.72" stop-color="#803712"/>
<stop offset="0.74" stop-color="#8D4514"/>
<stop offset="0.75" stop-color="#D99521"/>
<stop offset="0.76" stop-color="#CA861F"/>
<stop offset="0.77" stop-color="#995216"/>
<stop offset="0.78" stop-color="#8A4214"/>
<stop offset="0.79" stop-color="#813812"/>
<stop offset="0.8" stop-color="#823912"/>
<stop offset="0.81" stop-color="#D99521"/>
<stop offset="0.82" stop-color="#B45F08"/>
<stop offset="0.83" stop-color="#A24B00"/>
<stop offset="0.84" stop-color="#AA6000"/>
<stop offset="0.86" stop-color="#FFBE28"/>
<stop offset="0.87" stop-color="#BE6814"/>
<stop offset="0.88" stop-color="#BC6514"/>
<stop offset="0.89" stop-color="#C26D15"/>
<stop offset="0.9" stop-color="#FFBE28"/>
<stop offset="0.91" stop-color="#BD6714"/>
<stop offset="0.92" stop-color="#BC6514"/>
<stop offset="0.93" stop-color="#BC6514"/>
<stop offset="0.94" stop-color="#D18019"/>
<stop offset="0.95" stop-color="#BE6714"/>
<stop offset="1" stop-color="#BC6514"/>
</linearGradient>
<linearGradient id="paint1_linear_3532_21491" x1="12.0378" y1="91.2433" x2="174.03" y2="-2.4886" gradientUnits="userSpaceOnUse">
<stop stop-color="#FFC907"/>
<stop offset="0.07" stop-color="#FFCE0B"/>
<stop offset="0.14" stop-color="#FFDC19"/>
<stop offset="0.23" stop-color="#FFF530"/>
<stop offset="0.26" stop-color="#FFFF39"/>
<stop offset="0.29" stop-color="#FFEC28"/>
<stop offset="0.34" stop-color="#FFD815"/>
<stop offset="0.39" stop-color="#FFCC0A"/>
<stop offset="0.44" stop-color="#FFC907"/>
<stop offset="0.6" stop-color="#FFC207"/>
<stop offset="0.65" stop-color="#E09E08"/>
<stop offset="0.74" stop-color="#AB610C"/>
<stop offset="0.76" stop-color="#AE640B"/>
<stop offset="0.78" stop-color="#B9700B"/>
<stop offset="0.8" stop-color="#CB830B"/>
<stop offset="0.82" stop-color="#EDA60A"/>
<stop offset="0.92" stop-color="#FFC907"/>
<stop offset="1" stop-color="#F3A604"/>
</linearGradient>
<linearGradient id="paint2_linear_3532_21491" x1="33.2123" y1="108.721" x2="105.73" y2="6.93503" gradientUnits="userSpaceOnUse">
<stop stop-color="#FFC043"/>
<stop offset="0.08" stop-color="#FFE14B"/>
<stop offset="0.18" stop-color="#FDBC44"/>
<stop offset="0.2" stop-color="#F0A141"/>
<stop offset="0.22" stop-color="#E88E3E"/>
<stop offset="0.24" stop-color="#E2823D"/>
<stop offset="0.26" stop-color="#E17F3D"/>
<stop offset="0.36" stop-color="#F5BC47"/>
<stop offset="0.4" stop-color="#FFD94D"/>
<stop offset="0.56" stop-color="#FFE14B"/>
<stop offset="0.63" stop-color="#FFE44E"/>
<stop offset="0.69" stop-color="#FFF05A"/>
<stop offset="0.74" stop-color="#FFFF68"/>
<stop offset="0.8" stop-color="#FFF45E"/>
<stop offset="0.91" stop-color="#FFE64F"/>
<stop offset="1" stop-color="#FFE14B"/>
</linearGradient>
<linearGradient id="paint3_linear_3532_21491" x1="40.0731" y1="98.5809" x2="98.4943" y2="16.5801" gradientUnits="userSpaceOnUse">
<stop stop-color="#D77F18"/>
<stop offset="0.06" stop-color="#DA8419"/>
<stop offset="0.13" stop-color="#E3921D"/>
<stop offset="0.21" stop-color="#F3AB23"/>
<stop offset="0.26" stop-color="#FFBE28"/>
<stop offset="0.3" stop-color="#EDA221"/>
<stop offset="0.35" stop-color="#E18E1C"/>
<stop offset="0.39" stop-color="#D98219"/>
<stop offset="0.44" stop-color="#D77F18"/>
<stop offset="0.6" stop-color="#DF7A1A"/>
<stop offset="0.65" stop-color="#BC6117"/>
<stop offset="0.74" stop-color="#7F3612"/>
<stop offset="0.76" stop-color="#823912"/>
<stop offset="0.78" stop-color="#8E4213"/>
<stop offset="0.8" stop-color="#A15214"/>
<stop offset="0.82" stop-color="#B86516"/>
<stop offset="0.92" stop-color="#D77F18"/>
<stop offset="1" stop-color="#BC6514"/>
</linearGradient>
<linearGradient id="paint4_linear_3532_21491" x1="47.4693" y1="86.3566" x2="89.3565" y2="27.563" gradientUnits="userSpaceOnUse">
<stop stop-color="#D77F18"/>
<stop offset="0.06" stop-color="#DA8419"/>
<stop offset="0.13" stop-color="#E3921D"/>
<stop offset="0.21" stop-color="#F3AB23"/>
<stop offset="0.26" stop-color="#FFBE28"/>
<stop offset="0.3" stop-color="#EDA221"/>
<stop offset="0.35" stop-color="#E18E1C"/>
<stop offset="0.39" stop-color="#D98219"/>
<stop offset="0.44" stop-color="#D77F18"/>
<stop offset="0.6" stop-color="#DF7A1A"/>
<stop offset="0.65" stop-color="#BC6117"/>
<stop offset="0.74" stop-color="#7F3612"/>
<stop offset="0.76" stop-color="#823912"/>
<stop offset="0.78" stop-color="#8E4213"/>
<stop offset="0.8" stop-color="#A15214"/>
<stop offset="0.82" stop-color="#B86516"/>
<stop offset="0.92" stop-color="#D77F18"/>
<stop offset="1" stop-color="#BC6514"/>
</linearGradient>
<linearGradient id="paint5_linear_3532_21491" x1="90.0607" y1="85.6556" x2="10.8836" y2="-11.4679" gradientUnits="userSpaceOnUse">
<stop stop-color="#FFF204"/>
<stop offset="0.08" stop-color="#FFF309"/>
<stop offset="0.17" stop-color="#FFF817"/>
<stop offset="0.26" stop-color="#FFFF2E"/>
<stop offset="0.27" stop-color="#FFFD27"/>
<stop offset="0.33" stop-color="#FFF613"/>
<stop offset="0.38" stop-color="#FFF307"/>
<stop offset="0.44" stop-color="#FFF204"/>
<stop offset="0.6" stop-color="#FFE704"/>
<stop offset="0.67" stop-color="#DD9905"/>
<stop offset="0.74" stop-color="#C35C07"/>
<stop offset="0.75" stop-color="#C55F06"/>
<stop offset="0.77" stop-color="#CC6B06"/>
<stop offset="0.79" stop-color="#D87E05"/>
<stop offset="0.81" stop-color="#E99905"/>
<stop offset="0.82" stop-color="#FFBB04"/>
<stop offset="0.92" stop-color="#FFF204"/>
<stop offset="1" stop-color="#FFBB00"/>
</linearGradient>
<linearGradient id="paint6_linear_3532_21491" x1="7.81164" y1="125.417" x2="51.4387" y2="82.2064" gradientUnits="userSpaceOnUse">
<stop stop-color="#7E120E"/>
<stop offset="0.02" stop-color="#7E120E"/>
<stop offset="0.03" stop-color="#952110"/>
<stop offset="0.04" stop-color="#B32B14"/>
<stop offset="0.05" stop-color="#A01B12"/>
<stop offset="0.06" stop-color="#A01B12"/>
<stop offset="0.07" stop-color="#B93814"/>
<stop offset="0.08" stop-color="#7F130E"/>
<stop offset="0.1" stop-color="#921F10"/>
<stop offset="0.11" stop-color="#A92B13"/>
<stop offset="0.12" stop-color="#85130F"/>
<stop offset="0.14" stop-color="#AC2D13"/>
<stop offset="0.15" stop-color="#BB3815"/>
<stop offset="0.16" stop-color="#84120F"/>
<stop offset="0.19" stop-color="#84120F"/>
<stop offset="0.21" stop-color="#982011"/>
<stop offset="0.22" stop-color="#84120F"/>
<stop offset="0.25" stop-color="#84120F"/>
<stop offset="0.27" stop-color="#A52112"/>
<stop offset="0.28" stop-color="#921210"/>
<stop offset="0.29" stop-color="#911110"/>
<stop offset="0.32" stop-color="#A82312"/>
<stop offset="0.33" stop-color="#A52112"/>
<stop offset="0.34" stop-color="#921210"/>
<stop offset="0.35" stop-color="#911110"/>
<stop offset="0.37" stop-color="#911110"/>
<stop offset="0.38" stop-color="#A82312"/>
<stop offset="0.39" stop-color="#B62E14"/>
<stop offset="0.4" stop-color="#921210"/>
<stop offset="0.41" stop-color="#911110"/>
<stop offset="0.44" stop-color="#A82312"/>
<stop offset="0.45" stop-color="#CC4016"/>
<stop offset="0.46" stop-color="#921210"/>
<stop offset="0.47" stop-color="#911110"/>
<stop offset="0.5" stop-color="#A82312"/>
<stop offset="0.51" stop-color="#E6551A"/>
<stop offset="0.52" stop-color="#A52112"/>
<stop offset="0.53" stop-color="#991711"/>
<stop offset="0.54" stop-color="#921210"/>
<stop offset="0.55" stop-color="#911110"/>
<stop offset="0.57" stop-color="#E6551A"/>
<stop offset="0.58" stop-color="#5E170D"/>
<stop offset="0.59" stop-color="#41090A"/>
<stop offset="0.6" stop-color="#3A060A"/>
<stop offset="0.61" stop-color="#39060A"/>
<stop offset="0.62" stop-color="#A73814"/>
<stop offset="0.63" stop-color="#7A2A0E"/>
<stop offset="0.64" stop-color="#150204"/>
<stop offset="0.65" stop-color="#0F0102"/>
<stop offset="0.67" stop-color="#110202"/>
<stop offset="0.68" stop-color="#6E260C"/>
<stop offset="0.69" stop-color="#AA3D13"/>
<stop offset="0.7" stop-color="#330F06"/>
<stop offset="0.71" stop-color="#160402"/>
<stop offset="0.72" stop-color="#0F0102"/>
<stop offset="0.74" stop-color="#300E05"/>
<stop offset="0.75" stop-color="#CA4A16"/>
<stop offset="0.76" stop-color="#822E0E"/>
<stop offset="0.77" stop-color="#411407"/>
<stop offset="0.78" stop-color="#1A0503"/>
<stop offset="0.79" stop-color="#100202"/>
<stop offset="0.8" stop-color="#1D0603"/>
<stop offset="0.81" stop-color="#983711"/>
<stop offset="0.82" stop-color="#420F09"/>
<stop offset="0.83" stop-color="#280406"/>
<stop offset="0.84" stop-color="#300506"/>
<stop offset="0.86" stop-color="#E6551A"/>
<stop offset="0.87" stop-color="#580E0B"/>
<stop offset="0.88" stop-color="#4C080A"/>
<stop offset="0.89" stop-color="#540C0A"/>
<stop offset="0.9" stop-color="#D34B18"/>
<stop offset="0.91" stop-color="#4E090A"/>
<stop offset="0.92" stop-color="#4C080A"/>
<stop offset="0.93" stop-color="#4C080A"/>
<stop offset="0.94" stop-color="#7C1F0E"/>
<stop offset="0.95" stop-color="#50090A"/>
<stop offset="0.96" stop-color="#4E080A"/>
<stop offset="1" stop-color="#4C080A"/>
</linearGradient>
<linearGradient id="paint7_linear_3532_21491" x1="-2.56491" y1="111.858" x2="77.3832" y2="81.6959" gradientUnits="userSpaceOnUse">
<stop stop-color="#E6661A"/>
<stop offset="0.04" stop-color="#E66B1A"/>
<stop offset="0.09" stop-color="#E6791A"/>
<stop offset="0.15" stop-color="#E6921A"/>
<stop offset="0.2" stop-color="#E6B41A"/>
<stop offset="0.26" stop-color="#E6DC1A"/>
<stop offset="0.27" stop-color="#E6C91A"/>
<stop offset="0.31" stop-color="#E6A51A"/>
<stop offset="0.34" stop-color="#E6891A"/>
<stop offset="0.37" stop-color="#E6751A"/>
<stop offset="0.41" stop-color="#E6691A"/>
<stop offset="0.44" stop-color="#E6661A"/>
<stop offset="0.6" stop-color="#E65A1A"/>
<stop offset="0.69" stop-color="#71230C"/>
<stop offset="0.74" stop-color="#330606"/>
<stop offset="0.75" stop-color="#360706"/>
<stop offset="0.77" stop-color="#420B07"/>
<stop offset="0.78" stop-color="#551109"/>
<stop offset="0.8" stop-color="#701A0C"/>
<stop offset="0.81" stop-color="#922510"/>
<stop offset="0.82" stop-color="#B83214"/>
<stop offset="0.92" stop-color="#E6661A"/>
<stop offset="1" stop-color="#C73316"/>
</linearGradient>
<linearGradient id="paint8_linear_3532_21491" x1="5.3016" y1="121.488" x2="46.1544" y2="80.4204" gradientUnits="userSpaceOnUse">
<stop stop-color="#E6551A"/>
<stop offset="0.08" stop-color="#E6941A"/>
<stop offset="0.09" stop-color="#E68E1A"/>
<stop offset="0.18" stop-color="#E6551A"/>
<stop offset="0.19" stop-color="#D24417"/>
<stop offset="0.21" stop-color="#B72F14"/>
<stop offset="0.22" stop-color="#A41F12"/>
<stop offset="0.24" stop-color="#981611"/>
<stop offset="0.26" stop-color="#951311"/>
<stop offset="0.34" stop-color="#C15015"/>
<stop offset="0.4" stop-color="#E6841A"/>
<stop offset="0.56" stop-color="#E6941A"/>
<stop offset="0.6" stop-color="#E6971A"/>
<stop offset="0.64" stop-color="#E6A31A"/>
<stop offset="0.69" stop-color="#E6B71B"/>
<stop offset="0.73" stop-color="#E6D31D"/>
<stop offset="0.74" stop-color="#E6DD1E"/>
<stop offset="0.81" stop-color="#E6C01C"/>
<stop offset="0.88" stop-color="#E6A71B"/>
<stop offset="0.95" stop-color="#E6991A"/>
<stop offset="1" stop-color="#E6941A"/>
</linearGradient>
<linearGradient id="paint9_linear_3532_21491" x1="9.29214" y1="117.475" x2="42.1623" y2="84.4327" gradientUnits="userSpaceOnUse">
<stop stop-color="#7E120E"/>
<stop offset="0.04" stop-color="#83150E"/>
<stop offset="0.1" stop-color="#911E10"/>
<stop offset="0.16" stop-color="#AA2E13"/>
<stop offset="0.22" stop-color="#CC4417"/>
<stop offset="0.26" stop-color="#E15219"/>
<stop offset="0.3" stop-color="#BD3B15"/>
<stop offset="0.33" stop-color="#A12912"/>
<stop offset="0.37" stop-color="#8D1C0F"/>
<stop offset="0.4" stop-color="#81140E"/>
<stop offset="0.44" stop-color="#7E120E"/>
<stop offset="0.6" stop-color="#911110"/>
<stop offset="0.67" stop-color="#4B0808"/>
<stop offset="0.74" stop-color="#0E0102"/>
<stop offset="0.76" stop-color="#110102"/>
<stop offset="0.78" stop-color="#1D0203"/>
<stop offset="0.81" stop-color="#300506"/>
<stop offset="0.82" stop-color="#440809"/>
<stop offset="0.92" stop-color="#7E120E"/>
<stop offset="1" stop-color="#4C080A"/>
</linearGradient>
<linearGradient id="paint10_linear_3532_21491" x1="13.7566" y1="112.296" x2="37.002" y2="88.9284" gradientUnits="userSpaceOnUse">
<stop stop-color="#7E120E"/>
<stop offset="0.04" stop-color="#83150E"/>
<stop offset="0.1" stop-color="#911E10"/>
<stop offset="0.16" stop-color="#AA2E13"/>
<stop offset="0.22" stop-color="#CC4417"/>
<stop offset="0.26" stop-color="#E15219"/>
<stop offset="0.3" stop-color="#BD3B15"/>
<stop offset="0.33" stop-color="#A12912"/>
<stop offset="0.37" stop-color="#8D1C0F"/>
<stop offset="0.4" stop-color="#81140E"/>
<stop offset="0.44" stop-color="#7E120E"/>
<stop offset="0.6" stop-color="#911110"/>
<stop offset="0.67" stop-color="#4B0808"/>
<stop offset="0.74" stop-color="#0E0102"/>
<stop offset="0.76" stop-color="#110102"/>
<stop offset="0.78" stop-color="#1D0203"/>
<stop offset="0.81" stop-color="#300506"/>
<stop offset="0.82" stop-color="#440809"/>
<stop offset="0.92" stop-color="#7E120E"/>
<stop offset="1" stop-color="#4C080A"/>
</linearGradient>
<linearGradient id="paint11_linear_3532_21491" x1="32.9765" y1="115.102" x2="4.53063" y2="65.4616" gradientUnits="userSpaceOnUse">
<stop stop-color="#E6C11A"/>
<stop offset="0.09" stop-color="#E6C61A"/>
<stop offset="0.2" stop-color="#E6D41A"/>
<stop offset="0.26" stop-color="#E6DF1A"/>
<stop offset="0.31" stop-color="#E6D01A"/>
<stop offset="0.37" stop-color="#E6C41A"/>
<stop offset="0.44" stop-color="#E6C11A"/>
<stop offset="0.6" stop-color="#E6A51A"/>
<stop offset="0.68" stop-color="#904712"/>
<stop offset="0.74" stop-color="#580A0E"/>
<stop offset="0.75" stop-color="#5B0B0E"/>
<stop offset="0.77" stop-color="#67110F"/>
<stop offset="0.78" stop-color="#7A1A10"/>
<stop offset="0.79" stop-color="#952813"/>
<stop offset="0.81" stop-color="#B83916"/>
<stop offset="0.82" stop-color="#E6501A"/>
<stop offset="0.87" stop-color="#E6891A"/>
<stop offset="0.92" stop-color="#E6C11A"/>
<stop offset="1" stop-color="#E6501A"/>
</linearGradient>
<linearGradient id="paint12_linear_3532_21491" x1="99.7808" y1="78.722" x2="151.693" y2="121.699" gradientUnits="userSpaceOnUse">
<stop stop-color="#AA560A"/>
<stop offset="0.02" stop-color="#AA560A"/>
<stop offset="0.03" stop-color="#C1660C"/>
<stop offset="0.04" stop-color="#CC6E0D"/>
<stop offset="0.05" stop-color="#B9610B"/>
<stop offset="0.06" stop-color="#B9610B"/>
<stop offset="0.07" stop-color="#CF6F0D"/>
<stop offset="0.08" stop-color="#AB570A"/>
<stop offset="0.1" stop-color="#BE640C"/>
<stop offset="0.11" stop-color="#C0630C"/>
<stop offset="0.12" stop-color="#AD560A"/>
<stop offset="0.14" stop-color="#BE620B"/>
<stop offset="0.15" stop-color="#C5670C"/>
<stop offset="0.16" stop-color="#AC550A"/>
<stop offset="0.19" stop-color="#AC550A"/>
<stop offset="0.21" stop-color="#C0640C"/>
<stop offset="0.22" stop-color="#AC550A"/>
<stop offset="0.25" stop-color="#AC550A"/>
<stop offset="0.27" stop-color="#C6620D"/>
<stop offset="0.28" stop-color="#B3520B"/>
<stop offset="0.29" stop-color="#B2510B"/>
<stop offset="0.32" stop-color="#C15D0C"/>
<stop offset="0.33" stop-color="#C6620D"/>
<stop offset="0.34" stop-color="#B3520B"/>
<stop offset="0.35" stop-color="#B2510B"/>
<stop offset="0.37" stop-color="#B2510B"/>
<stop offset="0.38" stop-color="#C15D0C"/>
<stop offset="0.39" stop-color="#C6620D"/>
<stop offset="0.4" stop-color="#B3520B"/>
<stop offset="0.41" stop-color="#B2510B"/>
<stop offset="0.44" stop-color="#C15D0C"/>
<stop offset="0.45" stop-color="#ED8211"/>
<stop offset="0.46" stop-color="#B3520B"/>
<stop offset="0.47" stop-color="#B2510B"/>
<stop offset="0.5" stop-color="#C15D0C"/>
<stop offset="0.51" stop-color="#FF9113"/>
<stop offset="0.52" stop-color="#C6620D"/>
<stop offset="0.53" stop-color="#BA580B"/>
<stop offset="0.54" stop-color="#B3520B"/>
<stop offset="0.55" stop-color="#B2510B"/>
<stop offset="0.57" stop-color="#F98C12"/>
<stop offset="0.58" stop-color="#A84D05"/>
<stop offset="0.59" stop-color="#8B3701"/>
<stop offset="0.6" stop-color="#843200"/>
<stop offset="0.61" stop-color="#833100"/>
<stop offset="0.62" stop-color="#C16109"/>
<stop offset="0.63" stop-color="#C5690F"/>
<stop offset="0.64" stop-color="#602208"/>
<stop offset="0.65" stop-color="#571D07"/>
<stop offset="0.67" stop-color="#591E07"/>
<stop offset="0.68" stop-color="#93460B"/>
<stop offset="0.69" stop-color="#CC6E0F"/>
<stop offset="0.7" stop-color="#7B3509"/>
<stop offset="0.71" stop-color="#5E2107"/>
<stop offset="0.72" stop-color="#571D07"/>
<stop offset="0.74" stop-color="#783309"/>
<stop offset="0.75" stop-color="#E07B10"/>
<stop offset="0.76" stop-color="#CA6C0F"/>
<stop offset="0.77" stop-color="#893F0A"/>
<stop offset="0.78" stop-color="#622407"/>
<stop offset="0.79" stop-color="#581E07"/>
<stop offset="0.8" stop-color="#652608"/>
<stop offset="0.81" stop-color="#B65E0D"/>
<stop offset="0.82" stop-color="#8E3B03"/>
<stop offset="0.83" stop-color="#742700"/>
<stop offset="0.84" stop-color="#7C3B00"/>
<stop offset="0.86" stop-color="#FF9113"/>
<stop offset="0.87" stop-color="#924208"/>
<stop offset="0.88" stop-color="#8F4008"/>
<stop offset="0.89" stop-color="#974608"/>
<stop offset="0.9" stop-color="#F18711"/>
<stop offset="0.91" stop-color="#914108"/>
<stop offset="0.92" stop-color="#8F4008"/>
<stop offset="0.93" stop-color="#8F4008"/>
<stop offset="0.94" stop-color="#AA530A"/>
<stop offset="0.95" stop-color="#914108"/>
<stop offset="1" stop-color="#8F4008"/>
</linearGradient>
<linearGradient id="paint13_linear_3532_21491" x1="115.868" y1="67.594" x2="155.37" y2="147.442" gradientUnits="userSpaceOnUse">
<stop stop-color="#E89C02"/>
<stop offset="0.06" stop-color="#E9A104"/>
<stop offset="0.12" stop-color="#EEAF09"/>
<stop offset="0.2" stop-color="#F6C813"/>
<stop offset="0.26" stop-color="#FFE21E"/>
<stop offset="0.27" stop-color="#FCDB1B"/>
<stop offset="0.31" stop-color="#F3BF10"/>
<stop offset="0.35" stop-color="#EDAB08"/>
<stop offset="0.4" stop-color="#E99F03"/>
<stop offset="0.44" stop-color="#E89C02"/>
<stop offset="0.6" stop-color="#F39502"/>
<stop offset="0.66" stop-color="#BB6A02"/>
<stop offset="0.74" stop-color="#7E3C04"/>
<stop offset="0.76" stop-color="#813F03"/>
<stop offset="0.78" stop-color="#8D4903"/>
<stop offset="0.8" stop-color="#A05B03"/>
<stop offset="0.82" stop-color="#C17903"/>
<stop offset="0.92" stop-color="#E89C02"/>
<stop offset="1" stop-color="#C77901"/>
</linearGradient>
<linearGradient id="paint14_linear_3532_21491" x1="105.408" y1="75.8996" x2="154.571" y2="115.996" gradientUnits="userSpaceOnUse">
<stop stop-color="#FB9325"/>
<stop offset="0.08" stop-color="#FFB42B"/>
<stop offset="0.18" stop-color="#F18E26"/>
<stop offset="0.2" stop-color="#D67524"/>
<stop offset="0.22" stop-color="#C36422"/>
<stop offset="0.24" stop-color="#B75921"/>
<stop offset="0.26" stop-color="#B45621"/>
<stop offset="0.36" stop-color="#E99329"/>
<stop offset="0.4" stop-color="#FFAC2D"/>
<stop offset="0.56" stop-color="#FFB42B"/>
<stop offset="0.6" stop-color="#FFB72C"/>
<stop offset="0.64" stop-color="#FFC330"/>
<stop offset="0.69" stop-color="#FFD736"/>
<stop offset="0.73" stop-color="#FFF33F"/>
<stop offset="0.74" stop-color="#FFFD42"/>
<stop offset="0.81" stop-color="#FFE038"/>
<stop offset="0.88" stop-color="#FFC731"/>
<stop offset="0.95" stop-color="#FFB92C"/>
<stop offset="1" stop-color="#FFB42B"/>
</linearGradient>
<linearGradient id="paint15_linear_3532_21491" x1="110.223" y1="79.8266" x2="149.756" y2="112.069" gradientUnits="userSpaceOnUse">
<stop stop-color="#AA560A"/>
<stop offset="0.05" stop-color="#AF590A"/>
<stop offset="0.11" stop-color="#BD630C"/>
<stop offset="0.18" stop-color="#D6740E"/>
<stop offset="0.25" stop-color="#F88C12"/>
<stop offset="0.26" stop-color="#FF9113"/>
<stop offset="0.28" stop-color="#E98210"/>
<stop offset="0.32" stop-color="#CD6E0D"/>
<stop offset="0.36" stop-color="#B9610B"/>
<stop offset="0.4" stop-color="#AD580A"/>
<stop offset="0.44" stop-color="#AA560A"/>
<stop offset="0.6" stop-color="#B2510B"/>
<stop offset="0.64" stop-color="#933F09"/>
<stop offset="0.74" stop-color="#561C07"/>
<stop offset="0.76" stop-color="#591E07"/>
<stop offset="0.78" stop-color="#652607"/>
<stop offset="0.81" stop-color="#783308"/>
<stop offset="0.82" stop-color="#8B4009"/>
<stop offset="0.92" stop-color="#AA560A"/>
<stop offset="1" stop-color="#8F4008"/>
</linearGradient>
<linearGradient id="paint16_linear_3532_21491" x1="116.053" y1="84.4195" x2="144.085" y2="107.282" gradientUnits="userSpaceOnUse">
<stop stop-color="#AA560A"/>
<stop offset="0.05" stop-color="#AF590A"/>
<stop offset="0.11" stop-color="#BD630C"/>
<stop offset="0.18" stop-color="#D6740E"/>
<stop offset="0.25" stop-color="#F88C12"/>
<stop offset="0.26" stop-color="#FF9113"/>
<stop offset="0.28" stop-color="#E98210"/>
<stop offset="0.32" stop-color="#CD6E0D"/>
<stop offset="0.36" stop-color="#B9610B"/>
<stop offset="0.4" stop-color="#AD580A"/>
<stop offset="0.44" stop-color="#AA560A"/>
<stop offset="0.6" stop-color="#B2510B"/>
<stop offset="0.64" stop-color="#933F09"/>
<stop offset="0.74" stop-color="#561C07"/>
<stop offset="0.76" stop-color="#591E07"/>
<stop offset="0.78" stop-color="#652607"/>
<stop offset="0.81" stop-color="#783308"/>
<stop offset="0.82" stop-color="#8B4009"/>
<stop offset="0.92" stop-color="#AA560A"/>
<stop offset="1" stop-color="#8F4008"/>
</linearGradient>
<linearGradient id="paint17_linear_3532_21491" x1="122.503" y1="101.048" x2="146.95" y2="83.638" gradientUnits="userSpaceOnUse">
<stop stop-color="#FFC601"/>
<stop offset="0.06" stop-color="#FFCB02"/>
<stop offset="0.14" stop-color="#FFD908"/>
<stop offset="0.22" stop-color="#FFF212"/>
<stop offset="0.26" stop-color="#FFFF17"/>
<stop offset="0.3" stop-color="#FFE90E"/>
<stop offset="0.34" stop-color="#FFD507"/>
<stop offset="0.39" stop-color="#FFC902"/>
<stop offset="0.44" stop-color="#FFC601"/>
<stop offset="0.6" stop-color="#FFBA01"/>
<stop offset="0.67" stop-color="#C87501"/>
<stop offset="0.74" stop-color="#963802"/>
<stop offset="0.75" stop-color="#993B01"/>
<stop offset="0.77" stop-color="#A54401"/>
<stop offset="0.79" stop-color="#B85401"/>
<stop offset="0.8" stop-color="#D36A01"/>
<stop offset="0.82" stop-color="#FF8E01"/>
<stop offset="0.92" stop-color="#FFC601"/>
<stop offset="1" stop-color="#FF8E00"/>
</linearGradient>
<clipPath id="clip0_3532_21491">
<rect width="114.112" height="121.367" fill="white" transform="translate(16.4902)"/>
</clipPath>
<clipPath id="clip1_3532_21491">
<rect width="54.6219" height="54.6351" fill="white" transform="translate(0 75.1949)"/>
</clipPath>
<clipPath id="clip2_3532_21491">
<rect width="54.081" height="46.4626" fill="white" transform="translate(100.92 75.1949)"/>
</clipPath>
</defs>
</svg>
