<svg width="94" height="91" viewBox="0 0 94 91" fill="none" xmlns="http://www.w3.org/2000/svg">
<g clip-path="url(#clip0_185_4151)">
<path style="mix-blend-mode:screen" opacity="0.5" fill-rule="evenodd" clip-rule="evenodd" d="M90.4298 45.21C90.4298 46.29 90.3998 47.38 90.3098 48.45C88.6598 71.91 69.0998 90.43 45.2198 90.43C33.5798 90.43 22.9498 86.03 14.9398 78.79C13.6298 77.62 12.4098 76.37 11.2598 75.06C9.45977 73.02 7.83977 70.81 6.42977 68.46C5.71977 67.25 5.02977 66 4.42977 64.73C4.25977 64.4 4.11977 64.07 3.96977 63.74C3.29977 62.26 2.70977 60.74 2.20977 59.19C1.83977 58.04 1.50977 56.88 1.23977 55.7C0.439766 52.34 0.00976562 48.82 0.00976562 45.22C0.00976562 43.5 0.109766 41.79 0.299766 40.13C0.429766 38.89 0.609766 37.69 0.849766 36.48C1.07977 35.29 1.36977 34.11 1.69977 32.95C7.02977 13.94 24.4998 0 45.2098 0C54.9298 0 63.9498 3.08 71.3298 8.3C73.0698 9.54 74.7298 10.9 76.2898 12.38C76.6098 12.67 76.9298 12.98 77.2398 13.3C81.0498 17.11 84.1698 21.59 86.4098 26.56C87.5398 29.04 88.4398 31.63 89.1098 34.32C89.6098 36.36 89.9798 38.44 90.1898 40.58C90.2598 41.2 90.2998 41.82 90.3398 42.46C90.4098 43.39 90.4298 44.3 90.4298 45.22V45.21Z" fill="url(#paint0_radial_185_4151)"/>
<path style="mix-blend-mode:screen" opacity="0.5" fill-rule="evenodd" clip-rule="evenodd" d="M85.4098 45.21C85.4098 46.17 85.3798 47.14 85.2998 48.09C83.8298 68.95 66.4498 85.41 45.2098 85.41C34.8598 85.41 25.4098 81.5 18.2898 75.06C17.1298 74.02 16.0398 72.91 15.0198 71.75C13.4198 69.93 11.9798 67.97 10.7198 65.89C10.0798 64.82 9.47976 63.71 8.93976 62.58C8.78976 62.28 8.65977 61.99 8.52977 61.7C7.92977 60.38 7.40977 59.03 6.95977 57.65C6.62977 56.63 6.32977 55.6 6.09977 54.54C5.38977 51.55 5.00977 48.43 5.00977 45.22C5.00977 43.69 5.09977 42.17 5.26977 40.7C5.38977 39.6 5.54977 38.53 5.75977 37.46C5.96977 36.4 6.22977 35.36 6.50977 34.32C11.2698 17.41 26.7998 5.01001 45.2098 5.01001C53.8498 5.01001 61.8698 7.75001 68.4298 12.39C69.9798 13.49 71.4598 14.7 72.8398 16.02C73.1298 16.28 73.4098 16.56 73.6798 16.83C77.0598 20.21 79.8398 24.2 81.8398 28.62C82.8398 30.82 83.6498 33.13 84.2398 35.52C84.6898 37.34 85.0098 39.18 85.1998 41.09C85.2598 41.65 85.2998 42.19 85.3298 42.76C85.3898 43.58 85.4098 44.4 85.4098 45.21Z" fill="url(#paint1_radial_185_4151)"/>
<path style="mix-blend-mode:screen" opacity="0.5" fill-rule="evenodd" clip-rule="evenodd" d="M83.7497 45.21C83.7497 46.13 83.7197 47.06 83.6497 47.97C82.2397 67.97 65.5797 83.75 45.2197 83.75C35.2997 83.75 26.2397 80 19.4097 73.83C18.2997 72.83 17.2497 71.77 16.2697 70.65C14.7397 68.91 13.3597 67.03 12.1497 65.03C11.5397 64 10.9597 62.94 10.4497 61.85C10.3097 61.56 10.1797 61.29 10.0597 61C9.48969 59.73 8.98969 58.44 8.55969 57.12C8.24969 56.14 7.95969 55.15 7.72969 54.14C7.04969 51.28 6.67969 48.28 6.67969 45.21C6.67969 43.74 6.76969 42.29 6.92969 40.87C7.03969 39.81 7.19969 38.79 7.39969 37.76C7.59969 36.74 7.84969 35.74 8.11969 34.75C12.6697 18.56 27.5597 6.67999 45.2097 6.67999C53.4997 6.67999 61.1797 9.30999 67.4697 13.76C68.9497 14.82 70.3697 15.98 71.6897 17.24C71.9697 17.49 72.2297 17.75 72.4997 18.02C75.7397 21.26 78.4097 25.09 80.3197 29.32C81.2797 31.43 82.0497 33.64 82.6197 35.93C83.0497 37.67 83.3597 39.44 83.5397 41.27C83.5997 41.8 83.6397 42.33 83.6597 42.87C83.7197 43.66 83.7397 44.44 83.7397 45.22L83.7497 45.21Z" fill="url(#paint2_radial_185_4151)"/>
<path fill-rule="evenodd" clip-rule="evenodd" d="M79.2999 45.21C79.2999 46.03 79.2699 46.84 79.2099 47.65C77.9599 65.34 63.2199 79.3 45.2199 79.3C36.4399 79.3 28.4299 75.98 22.3899 70.52C21.4099 69.64 20.4799 68.69 19.6099 67.71C18.2599 66.17 17.0399 64.5 15.9699 62.74C15.4299 61.83 14.9199 60.89 14.4599 59.93C14.3299 59.68 14.2199 59.43 14.1199 59.18C13.6199 58.06 13.1699 56.92 12.7899 55.75C12.5099 54.88 12.2599 54.01 12.0599 53.12C11.4499 50.59 11.1299 47.94 11.1299 45.22C11.1299 43.92 11.2099 42.64 11.3499 41.38C11.4499 40.45 11.5899 39.54 11.7599 38.63C11.9399 37.73 12.1599 36.85 12.3999 35.97C16.4299 21.64 29.5999 11.13 45.2199 11.13C52.5499 11.13 59.3499 13.45 64.9099 17.39C66.2199 18.32 67.4799 19.35 68.6499 20.47C68.8899 20.69 69.1299 20.92 69.3699 21.16C72.2399 24.03 74.5999 27.41 76.2899 31.16C77.1399 33.03 77.8199 34.98 78.3299 37.01C78.7099 38.55 78.9899 40.11 79.1499 41.73C79.1999 42.2 79.2299 42.66 79.2599 43.14C79.3099 43.84 79.3299 44.53 79.3299 45.22L79.2999 45.21Z" fill="url(#paint3_radial_185_4151)"/>
<g style="mix-blend-mode:multiply" opacity="0.2">
<path fill-rule="evenodd" clip-rule="evenodd" d="M79.3 45.21C79.3 46.03 79.27 46.84 79.21 47.65C73.17 45.28 66.56 44.33 60.06 44.54C52.07 44.81 44.19 46.77 36.7 49.6C28.98 52.51 21.35 56.59 15.97 62.74C15.43 61.83 14.92 60.89 14.46 59.93C14.89 59.56 15.3 59.22 15.65 58.93C20.87 54.45 26.98 51.1 33.3 48.39C41.09 45.05 49.3 42.61 57.73 41.71C64.92 40.94 72.26 41.31 79.24 43.13C79.29 43.83 79.31 44.52 79.31 45.21H79.3Z" fill="#7E2654"/>
</g>
<g style="mix-blend-mode:soft-light">
<path fill-rule="evenodd" clip-rule="evenodd" d="M79.1198 41.72C73.0998 39.37 66.5198 38.44 60.0498 38.65C52.0598 38.92 44.1798 40.88 36.6898 43.71C28.0298 46.97 19.4698 51.71 14.1098 59.18C13.6098 58.06 13.1598 56.92 12.7798 55.75C13.5498 54.72 14.7998 53.76 15.6398 53.03C20.8598 48.55 26.9698 45.2 33.2898 42.49C41.0798 39.15 49.2898 36.71 57.7198 35.81C64.5898 35.08 71.5998 35.39 78.2998 37C78.6798 38.54 78.9598 40.1 79.1198 41.72Z" fill="#ABA7B5"/>
</g>
<g style="mix-blend-mode:multiply" opacity="0.4">
<path fill-rule="evenodd" clip-rule="evenodd" d="M74.8296 60.05C74.0396 61.68 72.7296 63 71.4196 64.26C67.0896 68.36 62.3496 72.01 57.2796 75.14C55.8296 76.02 54.3196 76.89 52.6396 77.16C51.3496 77.36 50.0296 77.2 48.7396 77.01C43.5096 76.21 38.3696 74.86 33.4296 72.96C32.6296 72.66 31.7996 72.3 31.2896 71.61C30.5596 70.59 30.7696 69.18 31.2396 68.02C32.3096 65.39 34.4896 63.33 36.9396 61.91C39.3996 60.48 42.1296 59.63 44.8596 58.83C52.9296 56.47 61.2996 54.45 69.6896 55.17C69.0296 59.49 66.0096 63.05 62.8396 66.04C61.6496 67.17 60.4096 68.24 59.0496 69.15C53.6296 72.77 46.2896 73.26 40.4296 70.4C40.1596 70.27 39.8696 70.1 39.7896 69.81C39.6596 69.36 40.1096 68.99 40.5096 68.74C45.3096 65.73 50.4896 63.32 55.8796 61.58C56.4496 61.39 57.0796 61.22 57.6296 61.46C58.1896 61.7 58.4496 62.56 57.9596 62.91C53.6196 62.91 49.3296 65.01 46.6296 68.41C50.1896 69.94 54.4396 69.44 57.8096 67.54C61.1896 65.65 63.7396 62.47 65.3396 58.94C65.4096 58.79 65.4696 58.62 65.4096 58.47C65.3296 58.28 65.0996 58.23 64.9096 58.21C58.9596 57.39 52.8996 58.24 47.0596 59.62C44.0896 60.33 41.0996 61.19 38.4896 62.78C35.8796 64.38 33.6696 66.8 32.8996 69.76C32.8196 70.05 32.7696 70.35 32.8396 70.63C32.9496 71.05 33.3296 71.33 33.6796 71.56C37.8996 74.32 43.1196 74.89 48.1396 75.4C48.9596 75.48 49.7796 75.56 50.5896 75.43C51.2796 75.31 51.9396 75.04 52.5796 74.77C58.8696 72.05 64.7796 68.43 70.0596 64.04C71.8096 62.58 73.5396 60.98 74.4896 58.91C75.4396 56.84 75.4396 54.18 73.9296 52.46C72.3996 50.73 69.8196 50.42 67.5096 50.38C62.9196 50.3 58.3296 50.82 53.7896 51.55C50.0996 52.15 46.4196 52.88 42.7796 53.78C39.8096 54.51 36.4496 56.38 33.8196 57.94C28.6096 61.03 25.7196 65.61 22.3796 70.51C21.3996 69.63 20.4696 68.68 19.5996 67.7C26.2596 60.5 35.0896 55.42 44.4896 52.53C54.2696 49.51 64.6496 48.76 74.8596 49.4C75.7296 52.92 76.4196 56.78 74.8296 60.04V60.05Z" fill="#7E2654"/>
</g>
<g style="mix-blend-mode:multiply" opacity="0.2">
<path fill-rule="evenodd" clip-rule="evenodd" d="M76.2696 31.15C65.0096 28.75 53.0396 29.99 41.9496 33.3C35.2896 35.29 28.7896 38.04 23.1096 42.05C19.3296 44.73 16.0096 47.96 13.2696 51.7C12.8096 52.34 12.3996 52.83 12.0496 53.11C11.4396 50.58 11.1196 47.93 11.1196 45.21C11.1196 43.91 11.1996 42.63 11.3396 41.37C11.6496 40.91 11.9896 40.46 12.3396 40.02C16.5996 34.76 22.4796 31.05 28.6396 28.28C41.3296 22.58 55.4096 20.63 69.3496 21.14C72.2196 24.01 74.5796 27.39 76.2696 31.14V31.15Z" fill="#7E2654"/>
</g>
<g style="mix-blend-mode:multiply" opacity="0.4">
<path fill-rule="evenodd" clip-rule="evenodd" d="M68.6398 20.47C58.3298 17.79 47.2598 18.09 37.1298 21.39C26.9398 24.71 18.7498 30.84 11.7598 38.63C11.9398 37.73 12.1598 36.85 12.3998 35.97C16.5698 30.22 23.2698 25.43 29.0298 22.62C32.9898 20.68 37.2298 19.34 41.5398 18.35C49.1798 16.6 57.2298 16 64.9098 17.39C66.2198 18.32 67.4798 19.35 68.6498 20.47H68.6398Z" fill="#7E2654"/>
</g>
<path fill-rule="evenodd" clip-rule="evenodd" d="M35.2896 30.6C35.1396 31.03 35.0396 31.47 34.9996 31.92C34.9996 32.03 34.9896 32.15 35.0496 32.24C35.1396 32.37 35.3196 32.39 35.4796 32.4C36.0396 32.43 36.5897 32.46 37.1497 32.49C37.3097 32.49 37.4796 32.51 37.6296 32.47C37.8396 32.42 38.0096 32.28 38.1596 32.12C38.7996 31.38 38.6396 30.07 37.7996 29.58C36.9596 29.08 35.6796 29.65 35.5396 30.62L35.2996 30.6H35.2896Z" fill="white"/>
<path style="mix-blend-mode:screen" opacity="0.5" d="M38.1595 51.01C48.5922 51.01 57.0495 43.0362 57.0495 33.2C57.0495 23.3638 48.5922 15.39 38.1595 15.39C27.7269 15.39 19.2695 23.3638 19.2695 33.2C19.2695 43.0362 27.7269 51.01 38.1595 51.01Z" fill="url(#paint4_radial_185_4151)"/>
<path style="mix-blend-mode:screen" opacity="0.5" d="M89.1732 71.7179C96.1535 58.7161 94.3607 44.1757 85.169 39.2409C75.9772 34.3061 62.8672 40.8457 55.8869 53.8475C48.9067 66.8493 50.6994 81.3898 59.8912 86.3245C69.0829 91.2593 82.193 84.7197 89.1732 71.7179Z" fill="url(#paint5_radial_185_4151)"/>
<g style="mix-blend-mode:multiply" opacity="0.4">
<path fill-rule="evenodd" clip-rule="evenodd" d="M43.5199 46.21C53.2799 43.48 63.6199 41.72 73.5399 43.84C75.7599 44.31 78.1799 45.18 79.1499 47.22C74.1799 45.6 69.0899 44.09 63.8699 43.9C58.6299 43.7 53.4299 44.83 48.3099 45.95C45.4899 46.57 42.6499 47.19 39.9399 48.18C37.2799 49.16 34.7599 50.49 32.1399 51.58C29.7699 52.56 27.2999 53.34 25.0799 54.61C23.7199 55.39 22.4799 56.34 21.2999 57.37C20.6799 57.91 18.9099 60.15 18.1699 59.93C20.1999 56.99 23.8399 54.66 26.8699 52.87C30.1899 50.92 33.7499 49.39 37.3899 48.12C39.4099 47.41 41.4699 46.78 43.5299 46.21H43.5199Z" fill="#7E2654"/>
</g>
<g style="mix-blend-mode:soft-light">
<path fill-rule="evenodd" clip-rule="evenodd" d="M31.15 44.35C34.23 42.92 37.32 41.49 40.59 40.57C43.33 39.79 46.17 39.39 48.93 38.69C52.05 37.9 55.08 36.75 58.25 36.24C60.48 35.88 62.74 35.85 65 35.82C67.04 35.79 69.08 35.77 71.12 35.74C63.54 35.38 55.86 35.04 48.44 36.64C44.3 37.54 40.31 39.03 36.22 40.14C33.91 40.77 31.54 41.28 29.41 42.36C27.49 43.33 25.83 44.71 24.18 46.09L21.24 48.54C20.45 49.2 19.44 50.38 18.5 50.67C20.24 49.26 22.74 48.35 24.76 47.36C26.74 46.39 29.01 44.89 31.14 44.35H31.15Z" fill="#E9E8EC"/>
</g>
<g style="mix-blend-mode:soft-light">
<path fill-rule="evenodd" clip-rule="evenodd" d="M73.2698 36.05C74.4998 35.94 75.7598 36.21 76.8398 36.81C75.5698 37.27 74.1798 36.65 73.0498 35.91L73.2698 36.05Z" fill="#ABA7B5"/>
</g>
<g style="mix-blend-mode:multiply" opacity="0.4">
<path fill-rule="evenodd" clip-rule="evenodd" d="M25.5696 39.62C27.2196 38.68 29.0596 38.14 30.8396 37.47C37.6796 34.89 43.8696 30.12 51.1496 29.47C54.0396 29.21 56.9396 29.63 59.8396 29.64C64.7696 29.67 69.9596 28.59 74.4396 30.64C71.0596 29.72 67.5196 29.62 64.0196 29.74C50.9696 30.16 37.8896 33.5 26.5796 40.12C23.7396 41.78 19.6296 43.87 17.6196 46.49C20.6596 44.97 22.5396 41.36 25.5696 39.62Z" fill="#7E2654"/>
</g>
<g style="mix-blend-mode:soft-light">
<path fill-rule="evenodd" clip-rule="evenodd" d="M17.73 30.44C20.18 28.72 21.44 25.71 23.75 23.8C25.2 22.6 26.98 21.9 28.73 21.22C31.13 20.28 33.54 19.34 36.01 18.6C39.32 17.6 42.73 16.96 46.15 16.41C49.5 15.87 52.9 15.4 56.27 15.79C57.55 15.94 58.81 16.21 60.07 16.48C55.48 15.95 50.84 16.61 46.27 17.28C43.53 17.68 40.78 18.08 38.11 18.82C34.21 19.91 30.56 21.72 26.95 23.56C24 25.07 20.96 26.69 19.01 29.37L17.74 30.44H17.73Z" fill="#ABA7B5"/>
</g>
<g style="mix-blend-mode:multiply" opacity="0.2">
<path fill-rule="evenodd" clip-rule="evenodd" d="M35.0198 55.31C38.4198 53.54 42.2498 52.84 45.9398 51.79C48.6798 51.01 51.3598 50.04 54.1298 49.37C59.8598 47.99 65.9098 47.96 71.6498 49.29C59.5098 48.79 47.2598 50.99 36.0398 55.67C33.8698 56.58 31.7898 57.6 29.8398 58.92C31.4298 57.55 33.1498 56.29 35.0198 55.32V55.31Z" fill="#7E2654"/>
</g>
</g>
<defs>
<radialGradient id="paint0_radial_185_4151" cx="0" cy="0" r="1" gradientUnits="userSpaceOnUse" gradientTransform="translate(45.2098 45.21) scale(45.21)">
<stop offset="0.65" stop-color="#0645FF"/>
<stop offset="0.69" stop-color="#0543FA"/>
<stop offset="0.74" stop-color="#0540ED"/>
<stop offset="0.78" stop-color="#053AD7"/>
<stop offset="0.83" stop-color="#0432B8"/>
<stop offset="0.87" stop-color="#032791"/>
<stop offset="0.92" stop-color="#021A61"/>
<stop offset="0.97" stop-color="#000B29"/>
<stop offset="1"/>
</radialGradient>
<radialGradient id="paint1_radial_185_4151" cx="0" cy="0" r="1" gradientUnits="userSpaceOnUse" gradientTransform="translate(0.499766 0.50001) scale(40.2)">
<stop offset="0.65" stop-color="#0645FF"/>
<stop offset="0.69" stop-color="#0543FA"/>
<stop offset="0.74" stop-color="#0540ED"/>
<stop offset="0.78" stop-color="#053AD7"/>
<stop offset="0.83" stop-color="#0432B8"/>
<stop offset="0.87" stop-color="#032791"/>
<stop offset="0.92" stop-color="#021A61"/>
<stop offset="0.97" stop-color="#000B29"/>
<stop offset="1"/>
</radialGradient>
<radialGradient id="paint2_radial_185_4151" cx="0" cy="0" r="1" gradientUnits="userSpaceOnUse" gradientTransform="translate(45.2097 45.21) scale(38.54)">
<stop offset="0.83" stop-color="#06A2FF"/>
<stop offset="0.85" stop-color="#059FFA"/>
<stop offset="0.87" stop-color="#0596ED"/>
<stop offset="0.89" stop-color="#0588D7"/>
<stop offset="0.91" stop-color="#0475B8"/>
<stop offset="0.94" stop-color="#035C91"/>
<stop offset="0.96" stop-color="#023D61"/>
<stop offset="0.98" stop-color="#001A29"/>
<stop offset="1"/>
</radialGradient>
<radialGradient id="paint3_radial_185_4151" cx="0" cy="0" r="1" gradientUnits="userSpaceOnUse" gradientTransform="translate(41.0899 35.98) scale(44.06 44.06)">
<stop stop-color="#6AA2FF"/>
<stop offset="0.77" stop-color="#5B2D74"/>
<stop offset="1" stop-color="#9A3989"/>
</radialGradient>
<radialGradient id="paint4_radial_185_4151" cx="0" cy="0" r="1" gradientUnits="userSpaceOnUse" gradientTransform="translate(38.1595 33.0982) scale(18.89 17.7566)">
<stop stop-color="#FF6DFF"/>
<stop offset="1"/>
</radialGradient>
<radialGradient id="paint5_radial_185_4151" cx="0" cy="0" r="1" gradientUnits="userSpaceOnUse" gradientTransform="translate(72.6521 62.5342) rotate(28.23) scale(18.89 26.6349)">
<stop stop-color="#007CFF"/>
<stop offset="1"/>
</radialGradient>
<clipPath id="clip0_185_4151">
<rect width="93.43" height="90.43" fill="white"/>
</clipPath>
</defs>
</svg>
