<svg width="118" height="44" viewBox="0 0 118 44" fill="none" xmlns="http://www.w3.org/2000/svg">
<path fill-rule="evenodd" clip-rule="evenodd" d="M30.3677 20.6984C30.3677 20.6984 24.7093 26.0092 21.1963 38.4704L23.2375 43.0522H34.1446L55.9103 41.4L36.4913 18.5533L30.3747 20.6984H30.3677Z" fill="url(#paint0_linear_3687_394)"/>
<path fill-rule="evenodd" clip-rule="evenodd" d="M92.5682 36.1309C92.5682 36.1309 87.4305 11.0141 68.6364 2.10732C68.6364 2.10732 58.9789 -1.44013 43.1285 0.670292C43.1285 0.670292 36.1093 7.00849 31.3535 17.276L34.1445 41.4069H55.9102L92.5751 36.1309H92.5682Z" fill="url(#paint1_linear_3687_394)"/>
<path fill-rule="evenodd" clip-rule="evenodd" d="M84.7165 22.3507C82.2032 23.8155 65.9015 24.1418 58.924 22.3438C57.591 21.9966 56.5982 21.5801 56.1052 21.0803C53.0087 17.9424 46.6144 2.69048 47.878 2.26007C52.2034 0.78833 63.7909 1.16321 69.7686 3.21809C76.8503 5.65479 87.7019 20.6082 84.7165 22.3507Z" fill="url(#paint2_linear_3687_394)"/>
<path style="mix-blend-mode:multiply" opacity="0.5" fill-rule="evenodd" clip-rule="evenodd" d="M43.1285 0.670288C43.1285 0.670288 52.4596 11.3543 55.9102 35.638L92.5751 36.1309L55.9102 41.4069H34.1445L31.3535 17.276C31.3535 17.276 37.0119 6.02964 43.1285 0.670288Z" fill="url(#paint3_linear_3687_394)"/>
<g style="mix-blend-mode:multiply" opacity="0.7">
<path fill-rule="evenodd" clip-rule="evenodd" d="M55.9033 35.638L34.1445 41.4069H55.9033L92.5682 36.1309L55.9033 35.638Z" fill="#864577"/>
</g>
<g style="mix-blend-mode:multiply" opacity="0.5">
<path fill-rule="evenodd" clip-rule="evenodd" d="M31.6938 20.2402L30.3677 20.7054C30.3677 20.7054 24.1053 27.6822 21.1963 38.4773L23.2375 43.0591H34.1446L55.9103 41.4069H34.1446L31.6938 20.2402Z" fill="#864577"/>
</g>
<g style="mix-blend-mode:multiply" opacity="0.5">
<path fill-rule="evenodd" clip-rule="evenodd" d="M30.3676 20.6984L33.2349 41.4069L23.2373 43.0522H34.1444L55.9032 41.4069H34.1444L31.6936 20.2402L30.3676 20.6984Z" fill="#864577"/>
</g>
<g style="mix-blend-mode:multiply" opacity="0.5">
<path fill-rule="evenodd" clip-rule="evenodd" d="M31.3467 17.276C31.3467 17.276 33.0268 12.8955 38.5464 13.4647C44.0659 14.034 46.7597 38.0608 46.7597 38.0608L34.1377 41.407L31.3467 17.276Z" fill="#864577"/>
</g>
<g style="mix-blend-mode:soft-light">
<path fill-rule="evenodd" clip-rule="evenodd" d="M40.2061 14.3741L46.7601 6.224C46.7601 6.224 48.5791 9.46599 49.7594 12.465L41.4141 16.0472L40.2061 14.3741Z" fill="#BBC5E3"/>
</g>
<g style="mix-blend-mode:soft-light">
<path fill-rule="evenodd" clip-rule="evenodd" d="M42.3584 17.9979L50.8772 15.2766C50.8772 15.2766 52.7032 20.2125 53.5988 23.9613L44.7884 26.2175C44.7884 26.2175 43.4276 20.3791 42.3653 17.9979H42.3584Z" fill="#BBC5E3"/>
</g>
<path d="M46.7109 38.0678C46.6831 37.8734 43.8366 18.3173 40.4276 14.7698C39.407 13.7077 38.0949 13.2703 36.623 13.4925C34.2833 13.8465 32.1796 15.7209 31.3881 17.2968L31.2979 17.2482C32.0963 15.6515 34.2277 13.7563 36.6091 13.3884C38.1087 13.1593 39.4556 13.6105 40.4971 14.6935C43.9268 18.2618 46.7803 37.8456 46.8081 38.0469L46.7109 38.0608V38.0678Z" fill="#5C396B"/>
<path fill-rule="evenodd" clip-rule="evenodd" d="M42.3578 31.6462L41.844 26.2175C41.844 26.2175 25.5423 25.9398 0.478838 39.5325L0.0136719 41.5249L0.59687 43.0522C0.59687 43.0522 18.2732 38.8869 33.5474 36.9709L42.3648 31.6462H42.3578Z" fill="url(#paint4_linear_3687_394)"/>
<path fill-rule="evenodd" clip-rule="evenodd" d="M89.833 27.4115C89.833 27.4115 106.031 29.4803 117.403 33.5623L116.952 35.7699C107.273 34.5828 99.3863 34.1246 91.9783 33.7913L89.833 27.4184V27.4115Z" fill="url(#paint5_linear_3687_394)"/>
<g style="mix-blend-mode:multiply" opacity="0.5">
<path fill-rule="evenodd" clip-rule="evenodd" d="M0.472111 39.5326L1.60379 40.4698C1.60379 40.4698 25.4662 31.6046 42.3511 31.6463L33.5337 36.9709C33.5337 36.9709 21.5505 38.3732 0.583193 43.0522L0 41.525L0.465166 39.5326H0.472111Z" fill="#864577"/>
</g>
<g style="mix-blend-mode:multiply" opacity="0.7">
<path fill-rule="evenodd" clip-rule="evenodd" d="M116.952 35.7629C116.952 35.7629 109.551 33.9441 91.2842 31.6462L91.9785 33.7844C99.6294 34.1246 107.301 34.6036 116.952 35.7629Z" fill="#864577"/>
</g>
<g style="mix-blend-mode:multiply" opacity="0.7">
<path fill-rule="evenodd" clip-rule="evenodd" d="M42.3576 31.6462L34.1443 41.4069L23.2372 43.0592L21.3765 38.873L0.59668 43.0592L1.61727 40.4767C1.61727 40.4767 21.4043 32.9653 42.3646 31.6532L42.3576 31.6462Z" fill="#864577"/>
</g>
<g style="mix-blend-mode:multiply" opacity="0.5">
<path fill-rule="evenodd" clip-rule="evenodd" d="M61.3262 34.9299C61.3262 34.9299 62.5967 31.5352 64.3185 30.1398C66.0403 28.7444 83.3626 28.314 85.2302 28.4737C87.0979 28.6333 90.6873 35.2562 90.6873 35.2562L61.3262 34.9299Z" fill="#864577"/>
</g>
<path fill-rule="evenodd" clip-rule="evenodd" d="M61.3262 34.9299L88.8544 35.2562C88.8544 35.2562 86.1953 30.6118 83.8694 29.876C81.5436 29.1401 64.4088 30.0287 63.659 30.8062C62.9091 31.5838 61.3262 34.9299 61.3262 34.9299Z" fill="#361537"/>
<path d="M75.1279 29.64L75.0515 29.5705L75.9472 28.6472L74.1768 23.5795L74.274 23.5447L76.0652 28.675L75.1279 29.64Z" fill="#5C396B"/>
<path d="M98.4835 34.1662L98.4766 34.0621L105.01 33.5276L105.128 30.1467H105.225L105.107 33.6248H105.065L98.4835 34.1662Z" fill="#5C396B"/>
<path d="M20.8421 34.8813L19.8076 30.8826L19.9048 30.8618L20.9393 34.8604L20.8421 34.8813Z" fill="#5C396B"/>
<path fill-rule="evenodd" clip-rule="evenodd" d="M14.5449 32.8681L16.6555 33.7011L24.6953 31.5838L27.0073 28.6542C27.0073 28.6542 19.0855 30.9312 14.5449 32.8681Z" fill="url(#paint6_radial_3687_394)"/>
<path fill-rule="evenodd" clip-rule="evenodd" d="M99.4004 28.9596L100.782 30.8062L108.62 32.1322L110.627 31.4727C110.627 31.4727 104.316 29.8204 99.4004 28.9596Z" fill="url(#paint7_radial_3687_394)"/>
<path style="mix-blend-mode:multiply" opacity="0.5" fill-rule="evenodd" clip-rule="evenodd" d="M69.7686 3.21809C69.7686 3.21809 61.0138 9.03562 58.924 22.3438C57.591 21.9966 56.5982 21.5801 56.1052 21.0803C53.0087 17.9424 46.6144 2.69048 47.878 2.26007C52.2034 0.78833 63.7909 1.16321 69.7686 3.21809Z" fill="url(#paint8_linear_3687_394)"/>
<g style="mix-blend-mode:soft-light">
<path fill-rule="evenodd" clip-rule="evenodd" d="M63.7832 3.23195C63.7832 3.23195 71.455 6.54337 78.5158 14.749L82.3552 14.9017C82.3552 14.9017 78.0298 6.76551 70.6982 3.56518C70.6982 3.56518 67.6712 2.60716 63.7832 3.22501V3.23195Z" fill="white"/>
</g>
<g style="mix-blend-mode:soft-light">
<path fill-rule="evenodd" clip-rule="evenodd" d="M62.4714 3.23193C62.4714 3.23193 68.3034 5.16186 77.1693 14.9087L69.199 15.2766C69.199 15.2766 64.0266 6.22401 55.4453 3.50268C55.4453 3.50268 58.4516 3.23193 62.4714 3.23193Z" fill="white"/>
</g>
<path style="mix-blend-mode:screen" d="M92.6951 29.941C95.2704 27.0901 95.0468 22.6914 92.1956 20.1163C89.3445 17.5412 84.9454 17.7648 82.3701 20.6157C79.7948 23.4666 80.0184 27.8653 82.8695 30.4404C85.7207 33.0155 90.1198 32.7919 92.6951 29.941Z" fill="url(#paint9_radial_3687_394)"/>
<path style="mix-blend-mode:screen" d="M64.3618 28.6535C65.2483 24.9155 62.9364 21.1666 59.198 20.2802C55.4595 19.3938 51.7103 21.7055 50.8239 25.4436C49.9374 29.1817 52.2493 32.9305 55.9877 33.8169C59.7261 34.7033 63.4753 32.3916 64.3618 28.6535Z" fill="url(#paint10_radial_3687_394)"/>
<path fill-rule="evenodd" clip-rule="evenodd" d="M40.1504 14.6657C40.1504 14.6657 43.6079 17.8175 45.2464 31.4588C45.2464 31.4588 43.8856 20.2333 40.1504 14.6657Z" fill="#9D89B8"/>
<path fill-rule="evenodd" clip-rule="evenodd" d="M53.751 24.5721C53.751 24.5721 60.1522 25.9397 61.3256 27.0227C62.4989 28.0988 54.7507 28.9665 54.7507 28.9665C54.7507 28.9665 54.2786 26.7728 53.751 24.5791V24.5721Z" fill="white"/>
<path fill-rule="evenodd" clip-rule="evenodd" d="M88.4168 24.0793C88.4168 24.0793 85.3481 25.5163 85.2231 26.2175C85.0982 26.9186 89.8262 27.4115 89.8262 27.4115C89.8262 27.4115 88.9931 25.3219 88.4168 24.0862V24.0793Z" fill="white"/>
<defs>
<linearGradient id="paint0_linear_3687_394" x1="38.5533" y1="43.0522" x2="38.5533" y2="18.5602" gradientUnits="userSpaceOnUse">
<stop stop-color="#9089BF"/>
<stop offset="1" stop-color="#D1BDF1"/>
</linearGradient>
<linearGradient id="paint1_linear_3687_394" x1="61.9574" y1="41.4069" x2="61.9574" y2="-0.00309763" gradientUnits="userSpaceOnUse">
<stop stop-color="#AEA9ED"/>
<stop offset="1" stop-color="#EAE1F9"/>
</linearGradient>
<linearGradient id="paint2_linear_3687_394" x1="66.4708" y1="23.5725" x2="66.4708" y2="1.36453" gradientUnits="userSpaceOnUse">
<stop stop-color="#6A6FE2"/>
<stop offset="1" stop-color="#5B2D74"/>
</linearGradient>
<linearGradient id="paint3_linear_3687_394" x1="31.3466" y1="21.0386" x2="92.5682" y2="21.0386" gradientUnits="userSpaceOnUse">
<stop stop-color="#8B7CBD"/>
<stop offset="1" stop-color="#724577"/>
</linearGradient>
<linearGradient id="paint4_linear_3687_394" x1="0.00672907" y1="34.6383" x2="42.3578" y2="34.6383" gradientUnits="userSpaceOnUse">
<stop stop-color="#AEA9ED"/>
<stop offset="1" stop-color="#EAE1F9"/>
</linearGradient>
<linearGradient id="paint5_linear_3687_394" x1="89.833" y1="31.5837" x2="117.403" y2="31.5837" gradientUnits="userSpaceOnUse">
<stop stop-color="#AEA9ED"/>
<stop offset="1" stop-color="#EAE1F9"/>
</linearGradient>
<radialGradient id="paint6_radial_3687_394" cx="0" cy="0" r="1" gradientUnits="userSpaceOnUse" gradientTransform="translate(20.7726 31.1811) scale(4.75582 4.75538)">
<stop stop-color="#55DBD6"/>
<stop offset="1" stop-color="#4AA1FF"/>
</radialGradient>
<radialGradient id="paint7_radial_3687_394" cx="0" cy="0" r="1" gradientUnits="userSpaceOnUse" gradientTransform="translate(105.01 30.5494) scale(4.12402 4.12365)">
<stop stop-color="#55DBD6"/>
<stop offset="1" stop-color="#4AA1FF"/>
</radialGradient>
<linearGradient id="paint8_linear_3687_394" x1="47.7183" y1="11.8541" x2="69.7686" y2="11.8541" gradientUnits="userSpaceOnUse">
<stop stop-color="#C77CBD"/>
<stop offset="1" stop-color="#974577"/>
</linearGradient>
<radialGradient id="paint9_radial_3687_394" cx="0" cy="0" r="1" gradientUnits="userSpaceOnUse" gradientTransform="translate(87.533 25.2714) scale(6.95669 6.95605)">
<stop stop-color="#0056FF"/>
<stop offset="1"/>
</radialGradient>
<radialGradient id="paint10_radial_3687_394" cx="0" cy="0" r="1" gradientUnits="userSpaceOnUse" gradientTransform="translate(57.5894 27.0504) scale(6.95669 6.95605)">
<stop stop-color="#0056FF"/>
<stop offset="1"/>
</radialGradient>
</defs>
</svg>
